<?xml version="1.0" standalone="no"?>
<!DOCTYPE svg PUBLIC "-//W3C//DTD SVG 20010904//EN"
 "http://www.w3.org/TR/2001/REC-SVG-20010904/DTD/svg10.dtd">
<svg version="1.0" xmlns="http://www.w3.org/2000/svg"
 width="16.000000pt" height="16.000000pt" viewBox="0 0 16.000000 16.000000"
 preserveAspectRatio="xMidYMid meet">
<metadata>
Created by potrace 1.11, written by Peter Selinger 2001-2013
</metadata>
<g transform="translate(0.000000,16.000000) scale(0.002721,-0.002721)"
fill="#000000" stroke="none">
<path d="M2184 5323 c5 -10 -9 -13 -58 -13 -72 0 -71 1 -68 -73 0 -15 -3 -25
-7 -23 -4 3 -8 -1 -8 -9 0 -8 3 -12 6 -10 4 2 7 -33 8 -76 0 -44 2 -82 4 -84
2 -2 18 -5 34 -6 17 -2 33 -8 37 -14 5 -6 8 -5 8 3 0 6 7 12 15 12 8 0 15 -5
15 -10 0 -7 7 -8 18 -3 24 12 216 3 229 -11 7 -7 -22 -117 -43 -161 -8 -17
-28 -36 -46 -44 -125 -53 -400 -205 -418 -231 -3 -4 -22 -19 -43 -33 l-39 -26
-51 39 c-152 114 -358 133 -522 46 -126 -66 -226 -194 -254 -326 -26 -117 3
-267 71 -373 18 -29 32 -55 30 -60 -1 -5 1 -6 6 -3 5 3 15 -3 23 -12 8 -9 38
-33 67 -52 28 -19 54 -41 56 -47 3 -7 -10 -59 -29 -115 -18 -57 -36 -123 -40
-148 -4 -24 -8 -47 -10 -50 -4 -6 -18 -126 -19 -162 -1 -16 -3 -28 -6 -28 -3
0 -4 -41 -3 -92 1 -59 -3 -98 -10 -107 -9 -12 -9 -13 1 -7 9 5 12 -10 13 -66
0 -40 2 -80 4 -89 1 -8 6 -42 10 -75 3 -32 11 -79 17 -104 5 -25 11 -54 13
-65 31 -175 180 -490 319 -675 47 -63 77 -98 161 -188 33 -36 59 -71 59 -78
-1 -8 2 -14 8 -14 5 0 6 -4 3 -10 -10 -17 26 -79 59 -102 68 -46 66 -61 -25
-198 -61 -93 -124 -210 -112 -210 4 0 2 -5 -5 -12 -16 -16 -15 -83 2 -117 42
-80 197 -115 511 -114 199 0 270 8 331 38 72 35 80 56 83 209 1 74 3 84 19 81
9 -2 27 -4 39 -4 12 -1 28 -8 37 -16 13 -13 11 -24 -20 -94 -47 -108 -54 -154
-42 -249 2 -18 65 -72 86 -73 9 -1 28 -3 42 -5 63 -10 370 -1 389 11 4 2 27 6
51 10 181 25 270 78 326 191 39 80 41 113 9 178 -15 31 -26 59 -23 61 9 10
179 65 198 65 21 0 26 -10 11 -25 -7 -8 -30 -69 -31 -85 -1 -3 -5 -23 -10 -45
-23 -103 49 -172 184 -177 21 -1 33 -5 29 -11 -4 -6 -1 -7 8 -1 8 5 39 9 69
10 216 8 412 45 460 89 9 8 20 12 24 8 4 -5 6 -1 4 7 -2 8 3 14 10 12 8 -1 11
2 8 6 -3 5 8 35 25 65 38 71 39 114 4 192 -48 105 -56 138 -61 235 -3 52 -7
106 -10 120 -17 87 -18 83 28 140 217 268 375 594 414 858 3 20 7 44 9 52 15
55 25 351 15 464 -3 40 -1 71 5 78 7 8 6 9 -2 4 -9 -5 -13 2 -14 26 0 18 -2
40 -4 48 -1 8 -6 35 -9 60 -15 99 -74 276 -138 410 -45 94 -50 123 -33 190 17
66 12 263 -9 325 -73 213 -252 378 -460 422 -36 7 -212 9 -241 2 -11 -3 -46
-11 -78 -19 l-57 -13 -118 47 c-130 52 -308 100 -442 120 -85 12 -87 15 -63
74 8 18 11 37 8 42 -11 18 -176 121 -216 135 -21 8 -54 21 -72 29 -31 14 -57
23 -67 24 -3 0 -18 6 -35 12 -16 7 -41 14 -55 17 -14 3 -29 6 -35 7 -24 6 -82
18 -105 21 -14 2 -36 6 -50 9 -14 3 -54 9 -90 12 -36 4 -71 12 -79 18 -8 6
-12 6 -9 1 9 -15 -213 -6 -231 8 -12 9 -13 9 -7 0z m796 -183 c8 -5 11 -10 5
-10 -5 0 -17 5 -25 10 -8 5 -10 10 -5 10 6 0 17 -5 25 -10z m80 -46 c0 -2 -9
0 -20 6 -11 6 -20 13 -20 16 0 2 9 0 20 -6 11 -6 20 -13 20 -16z m115 -75 c6
-9 -55 -132 -77 -154 -14 -15 6 32 41 95 l31 55 -33 28 -32 29 32 -22 c18 -11
35 -25 38 -31z m-544 14 c-5 -10 -30 -79 -55 -153 -70 -203 -77 -220 -87 -220
-5 0 -4 10 2 23 7 12 37 94 67 182 48 144 66 185 79 185 2 0 0 -8 -6 -17z
m134 -103 c6 -10 3 -11 -33 -14 -11 0 -26 -7 -35 -15 -36 -29 -59 25 -28 63
12 14 17 14 51 -4 21 -11 41 -24 45 -30z m45 -49 c0 -12 -38 -21 -80 -20 l-35
1 38 12 c48 15 77 17 77 7z m166 -45 c128 -61 132 -61 172 -1 24 36 40 50 55
49 24 -1 100 -12 132 -18 11 -3 23 -5 28 -5 4 -1 7 -5 7 -11 0 -6 -9 -6 -26 0
-14 6 -38 10 -52 10 -15 0 -43 2 -63 6 -34 6 -37 4 -68 -45 -18 -28 -38 -51
-43 -51 -6 0 -4 -8 3 -17 13 -17 13 -17 -7 0 -11 9 -27 17 -35 17 -8 0 -19 4
-24 9 -21 20 -175 91 -199 91 -14 0 -28 5 -32 12 -13 20 55 0 152 -46z m-312
5 c-24 -15 -35 -36 -62 -119 -18 -55 -42 -111 -53 -124 -16 -19 -18 -19 -10
-3 6 11 27 70 47 130 37 114 46 129 85 132 21 2 20 1 -7 -16z m895 -32 c104
-33 221 -84 221 -97 0 -4 -15 -16 -32 -27 -18 -10 -49 -35 -68 -56 -96 -100
-127 -146 -117 -172 3 -7 49 -43 104 -80 54 -37 118 -83 143 -104 59 -50 180
-169 180 -177 0 -3 12 -25 26 -48 14 -23 36 -60 48 -82 13 -23 31 -57 42 -76
11 -19 26 -55 33 -80 8 -25 19 -63 26 -85 7 -22 16 -56 20 -75 4 -19 13 -45
21 -57 15 -24 40 -23 102 3 19 8 38 12 41 8 9 -8 -30 -34 -53 -35 -12 -1 -38
-2 -59 -3 -33 -2 -40 2 -53 25 -8 16 -14 38 -14 49 0 12 -4 29 -10 39 -5 10
-11 30 -14 45 -13 69 -80 223 -128 290 -133 187 -265 309 -418 386 -57 28 -54
25 -55 63 -1 29 30 81 80 133 6 7 23 25 37 42 14 16 39 37 56 46 39 20 40 33
5 47 -16 6 -28 9 -28 8 0 -1 -20 9 -45 21 -25 13 -52 25 -60 26 -28 5 -95 27
-104 36 -6 4 -22 8 -37 8 -15 0 -30 4 -34 9 -8 14 36 5 144 -30z m-1219 -57
c0 -4 -4 -23 -10 -42 -13 -47 -5 -67 33 -78 18 -6 58 -18 90 -27 31 -10 57
-22 57 -26 0 -12 -7 -11 -40 6 -17 9 -30 13 -30 11 0 -3 -19 2 -42 10 -29 10
-44 11 -46 4 -2 -6 -13 1 -24 15 -21 27 -31 72 -17 81 15 9 10 24 -7 24 -8 0
-65 -25 -126 -56 -61 -30 -112 -53 -114 -51 -3 2 20 17 51 32 30 16 55 31 55
35 0 4 19 13 43 20 23 8 56 22 72 32 31 19 55 23 55 10z m1946 -73 c182 -76
304 -210 321 -352 3 -26 10 -50 14 -53 14 -8 11 -102 -3 -124 -10 -16 -10 -24
0 -41 15 -24 7 -60 -12 -53 -10 4 -13 -3 -10 -27 5 -39 -23 -100 -48 -107 -15
-4 -18 -11 -13 -33 5 -24 4 -28 -10 -23 -9 4 -15 2 -13 -3 9 -31 -157 -173
-202 -173 -26 0 -47 30 -61 85 -7 28 -20 61 -29 75 -25 37 -42 87 -42 116 0
18 -7 28 -19 31 -11 3 -19 11 -19 18 0 8 -12 26 -27 42 -16 15 -44 48 -63 72
-45 56 -184 198 -230 235 -19 15 -65 46 -102 69 -37 23 -67 47 -67 52 0 6 12
24 27 40 157 172 410 236 608 154z m-2643 -92 c40 -20 87 -51 105 -70 l33 -34
-89 -89 c-74 -74 -127 -136 -207 -242 -5 -8 -26 -30 -45 -50 -19 -21 -41 -48
-48 -62 -7 -14 -23 -44 -37 -68 -13 -24 -27 -53 -31 -64 -14 -46 -58 -106 -76
-105 -19 1 -26 17 -8 17 6 0 10 4 10 9 0 4 -10 6 -22 4 -24 -4 -109 59 -96 72
3 4 16 -3 28 -15 l21 -21 -3 28 c-2 15 -10 33 -18 40 -21 17 -35 16 -20 -2 10
-12 10 -15 -3 -15 -22 0 -74 96 -90 166 -35 154 9 299 126 416 95 97 180 131
310 125 76 -4 98 -9 160 -40z m407 24 c0 -5 -10 -13 -21 -16 -17 -6 -19 -9 -8
-17 11 -8 10 -9 -3 -4 -10 3 -23 0 -30 -7 -7 -7 -38 -31 -68 -53 -60 -45 -70
-54 -153 -130 -31 -29 -53 -55 -50 -58 4 -3 -2 -6 -12 -6 -10 0 -16 -3 -12 -6
3 -4 -15 -27 -41 -53 -55 -54 -142 -169 -142 -188 0 -7 -7 -13 -17 -13 -9 0
-13 -3 -10 -6 4 -4 -2 -19 -13 -34 -11 -16 -20 -33 -20 -38 0 -6 -3 -12 -7
-14 -7 -2 -67 -120 -104 -203 -34 -76 -91 -272 -91 -315 0 -19 -4 -37 -8 -40
-9 -6 -17 -64 -26 -190 -4 -47 -10 -89 -15 -94 -8 -9 -5 75 6 199 7 79 11 96
35 185 43 156 49 176 66 215 10 22 18 42 19 45 0 3 13 31 27 63 15 31 27 60
27 64 -1 3 4 9 9 12 5 3 17 22 26 41 8 19 21 44 28 55 134 210 205 294 363
430 32 28 63 55 69 60 38 35 146 115 146 109 0 -4 5 -3 12 4 14 14 18 15 18 3z
m-193 -523 c17 -1 31 -5 31 -8 -2 -20 4 -29 15 -24 8 3 32 -15 54 -39 30 -33
44 -59 54 -100 6 -31 16 -54 20 -51 10 6 -1 -29 -12 -36 -4 -3 -9 -19 -12 -36
-5 -31 -25 -74 -41 -85 -15 -11 8 -16 67 -15 31 1 57 -1 57 -5 0 -3 -22 -7
-49 -8 -87 -3 -140 -25 -195 -83 -28 -29 -85 -77 -126 -107 -76 -54 -124 -108
-174 -194 -79 -138 -99 -296 -45 -358 28 -32 42 -60 74 -154 40 -114 61 -151
93 -168 28 -13 29 -13 51 21 l23 35 19 -24 c9 -13 16 -26 13 -28 -2 -2 0 -9 5
-15 8 -10 30 -101 37 -151 1 -11 3 -20 4 -20 5 0 13 -116 14 -200 0 -98 -16
-181 -34 -170 -5 3 -2 21 5 39 11 26 13 66 10 168 -3 73 -7 140 -8 148 -7 28
-18 85 -21 100 -1 8 -10 41 -21 74 l-19 58 -28 -33 c-23 -28 -29 -32 -38 -19
-8 12 -10 12 -10 1 0 -51 -95 115 -134 235 -9 29 -28 65 -41 80 -31 36 -47
105 -40 173 5 47 58 197 74 211 4 3 12 16 19 30 33 65 46 82 92 123 28 25 72
59 98 76 57 37 71 49 97 80 l20 24 -25 -8 c-38 -12 -80 -10 -80 3 0 5 10 8 23
7 37 -3 102 21 140 51 80 64 112 183 71 270 -18 39 -67 95 -81 92 -5 0 -25 6
-45 15 -21 10 -44 17 -53 17 -8 0 -15 5 -15 10 0 6 -5 10 -11 10 -5 0 -8 -3
-6 -7 3 -5 -14 -9 -38 -10 -129 -5 -218 -111 -210 -248 3 -42 10 -65 30 -91
36 -47 100 -92 141 -100 19 -3 37 -10 40 -15 3 -5 -1 -7 -8 -4 -7 2 -24 6 -38
9 -67 12 -130 58 -163 121 -27 51 -29 175 -3 204 9 10 16 24 16 32 0 19 94 92
122 94 3 0 10 3 14 8 4 4 27 7 50 7 24 0 46 4 49 10 4 6 14 4 28 -5 12 -8 37
-15 54 -17z m1278 2 c-3 -5 -1 -10 5 -10 6 0 8 -5 5 -10 -4 -6 -11 -8 -16 -5
-5 4 -9 2 -9 -3 0 -6 -11 -13 -25 -16 -14 -4 -44 -23 -66 -44 -137 -125 -107
-334 62 -427 48 -27 63 -30 139 -29 76 0 90 3 130 29 25 16 48 28 52 27 8 -2
59 78 84 131 20 43 29 47 29 13 0 -13 -4 -22 -9 -19 -5 3 -7 0 -4 -8 5 -15 4
-17 -51 -80 -23 -25 -38 -49 -34 -53 4 -4 -1 -4 -11 0 -12 5 -17 4 -13 -3 3
-5 0 -10 -7 -10 -7 0 -26 -10 -42 -22 -54 -39 -201 -30 -288 18 -39 21 -86 65
-86 80 0 6 -4 11 -9 11 -16 0 -43 84 -46 140 -5 105 42 187 147 257 70 46 72
47 63 33z m213 -20 c23 -11 42 -25 42 -31 0 -6 4 -8 9 -4 5 3 12 1 15 -3 10
-16 -28 -7 -72 16 -29 15 -63 24 -103 25 -79 3 -76 17 4 17 43 0 77 -6 105
-20z m143 -134 c11 -21 22 -46 24 -55 2 -9 6 -28 10 -43 4 -17 3 -28 -3 -28
-5 0 -12 17 -15 39 -5 44 -33 107 -59 135 -10 11 -18 25 -18 30 1 15 36 -31
61 -78z m-1784 42 c31 -29 31 -81 1 -102 -54 -38 -139 0 -133 59 7 60 86 86
132 43z m1461 -33 c41 -48 22 -110 -43 -132 -36 -12 -62 -4 -93 30 -17 17 -22
33 -18 53 2 16 5 32 5 37 1 4 15 16 32 26 41 25 87 19 117 -14z m-821 -67 c-3
-8 -6 -5 -6 6 -1 11 2 17 5 13 3 -3 4 -12 1 -19z m2313 -38 c0 -5 13 -37 29
-72 26 -58 41 -97 47 -123 1 -5 11 -44 23 -85 19 -72 41 -178 46 -230 1 -14 6
-54 10 -90 8 -68 8 -250 0 -310 -2 -19 -7 -64 -10 -100 -11 -119 -44 -254 -90
-370 -48 -121 -154 -337 -186 -380 -128 -169 -180 -230 -195 -230 -9 0 8 23
61 85 122 142 258 387 320 575 10 30 20 62 23 70 3 8 7 26 9 40 2 14 6 32 10
40 3 8 7 26 8 40 1 14 5 35 9 47 4 13 9 40 11 60 2 21 7 63 10 93 10 77 10
304 1 370 -4 30 -9 70 -11 89 -3 18 -7 41 -9 50 -3 9 -8 30 -11 47 -2 17 -16
71 -31 120 -14 49 -27 94 -28 99 -11 43 -65 155 -75 155 -6 0 -8 6 -5 14 6 15
34 11 34 -4z m-1130 -50 c0 -5 -5 -10 -11 -10 -5 0 -7 5 -4 10 3 6 8 10 11 10
2 0 4 -4 4 -10z m1030 -53 c-37 -34 -127 -103 -110 -85 23 24 123 108 129 108
3 0 -5 -10 -19 -23z m-2156 -36 c-8 -9 -154 -7 -154 1 0 8 42 13 98 10 17 -1
32 3 32 8 0 6 6 5 14 -2 8 -7 12 -15 10 -17z m-169 -2 c-3 -3 -35 -6 -72 -6
l-68 0 55 6 c73 8 89 8 85 0z m615 -3 c0 -3 -4 -8 -10 -11 -5 -3 -10 -1 -10 4
0 6 5 11 10 11 6 0 10 -2 10 -4z m-315 -16 c4 -7 -15 -8 -56 -5 -82 7 -88 15
-11 15 33 0 64 -5 67 -10z m148 -14 c20 -3 45 -10 55 -16 13 -8 11 -9 -12 -4
-28 7 -49 9 -108 12 -16 1 -28 6 -28 10 0 8 24 8 93 -2z m215 -47 c2 -5 19 -9
38 -9 19 0 34 -4 34 -10 0 -5 6 -10 13 -10 6 0 23 -9 37 -20 19 -15 21 -20 9
-20 -9 0 -22 7 -29 15 -7 8 -18 14 -24 14 -6 -1 -18 0 -26 4 -79 30 -129 45
-135 39 -5 -4 -5 -2 -2 4 8 13 80 7 85 -7z m1532 17 c0 -2 -16 -13 -35 -25
-19 -11 -35 -18 -35 -16 0 5 61 45 68 45 1 0 2 -2 2 -4z m-1738 -51 c59 -8
131 -24 161 -34 97 -31 241 -132 343 -238 92 -95 186 -261 198 -348 15 -106
-1 -418 -23 -450 -4 -5 -6 -25 -6 -43 1 -18 -5 -38 -12 -44 -7 -6 -13 -22 -13
-37 0 -97 -116 -362 -195 -444 -16 -18 -43 -50 -60 -72 -16 -22 -53 -63 -83
-91 -41 -39 -60 -50 -76 -46 -19 5 -19 4 -7 -11 12 -15 11 -17 -7 -17 -11 0
-22 -4 -24 -9 -4 -11 -184 -97 -231 -109 -21 -6 -45 -8 -52 -6 -7 3 -22 1 -33
-5 -36 -19 -235 -35 -412 -33 -82 1 -137 7 -190 22 -41 11 -82 21 -90 23 -43
7 -60 34 -46 75 15 45 47 45 163 1 l107 -40 135 2 c138 2 214 16 381 71 132
43 185 83 285 213 56 74 119 219 130 304 2 15 9 50 15 80 22 116 31 323 18
411 -24 152 -109 227 -313 276 -73 17 -101 21 -165 23 -139 4 -189 13 -329 62
-46 16 -102 31 -125 33 -41 4 -147 -24 -176 -48 -62 -49 -192 -85 -313 -87
-98 -2 -117 9 -117 65 0 61 25 138 76 236 49 91 49 91 119 163 63 63 77 61
105 -12 40 -108 92 -158 188 -181 56 -13 169 -8 214 9 32 12 117 76 151 115
39 43 90 150 92 193 4 58 13 59 217 28z m443 -86 c93 -71 220 -206 255 -272 9
-17 30 -57 46 -87 41 -75 65 -154 70 -225 4 -60 4 -59 -11 19 -8 43 -22 93
-29 110 -8 17 -24 54 -36 81 -12 28 -30 59 -40 70 -10 11 -20 27 -22 35 -2 8
-15 28 -30 45 -16 16 -28 33 -28 37 0 12 -140 150 -181 181 -20 14 -40 23 -44
19 -5 -4 -5 -1 -1 6 7 11 -12 17 -37 13 -5 -1 -6 3 -2 8 8 14 33 3 90 -40z
m-1650 -29 c3 -5 1 -10 -4 -10 -6 0 -11 5 -11 10 0 6 2 10 4 10 3 0 8 -4 11
-10z m551 -45 c20 -30 10 -63 -22 -75 -26 -10 -74 2 -74 19 0 5 -3 16 -6 24
-8 21 31 57 61 57 15 0 31 -9 41 -25z m180 17 c51 -34 28 -111 -33 -112 -35 0
-65 35 -57 68 4 15 11 33 17 40 10 13 55 16 73 4z m-1008 -434 c1 -56 5 -113
8 -127 3 -15 7 -48 10 -76 2 -27 6 -61 10 -75 3 -14 6 -27 6 -30 0 -3 5 -16
10 -30 5 -14 12 -36 15 -50 6 -37 51 -170 70 -210 10 -19 18 -40 19 -46 4 -24
65 -146 103 -206 22 -34 56 -76 76 -91 34 -27 45 -47 25 -47 -5 0 -9 4 -7 9 1
4 -21 29 -49 54 -28 26 -58 59 -65 74 -8 15 -32 62 -54 103 -21 41 -40 77 -40
80 -1 3 -9 23 -19 45 -46 107 -93 268 -112 385 -3 19 -7 46 -10 60 -8 43 -13
280 -6 280 4 0 8 -46 10 -102z m59 60 c-3 -8 -6 -5 -6 6 -1 11 2 17 5 13 3 -3
4 -12 1 -19z m953 -49 c62 -23 80 -35 80 -50 0 -11 -7 -19 -17 -19 -9 0 -14
-3 -10 -6 3 -3 -6 -19 -22 -36 -18 -19 -33 -27 -44 -22 -9 3 -17 9 -17 14 0 7
-22 35 -67 83 -26 28 -26 28 -44 8 -11 -11 -19 -23 -19 -26 0 -16 -82 -125
-94 -125 -10 0 -66 82 -66 96 0 15 192 114 221 114 11 0 56 -14 99 -31z m289
-83 c12 -9 13 -8 6 3 -6 10 -4 12 4 6 7 -4 10 -16 8 -27 -4 -15 -3 -17 8 -8 8
6 11 18 8 26 -3 8 0 14 6 14 23 0 9 -29 -34 -74 -25 -25 -49 -46 -54 -46 -13
0 -54 97 -48 114 5 11 15 13 44 9 21 -3 44 -11 52 -17z m-371 -27 l25 -34 -31
33 -30 33 -20 -26 c-28 -36 -37 -31 -10 5 26 36 33 35 66 -11z m232 31 c0 -5
-4 -10 -10 -10 -5 0 -10 5 -10 10 0 6 5 10 10 10 6 0 10 -4 10 -10z m336 -6
c67 -10 86 -21 75 -43 -13 -24 -80 -83 -89 -77 -4 2 -20 29 -37 60 -25 47 -28
58 -15 66 8 5 17 7 21 4 4 -2 24 -6 45 -10z m-386 -19 c-13 -14 -27 -25 -31
-25 -11 0 33 48 45 49 5 1 -1 -10 -14 -24z m70 -30 c0 -5 -5 -3 -10 5 -5 8
-10 20 -10 25 0 6 5 3 10 -5 5 -8 10 -19 10 -25z m-741 10 c9 -5 12 -4 7 3 -7
12 107 12 120 0 3 -4 1 -22 -6 -40 -27 -74 -74 -184 -83 -195 -11 -15 -33 -7
-40 15 -3 9 -21 61 -40 114 -30 83 -33 99 -20 106 17 10 43 9 62 -3z m245 -18
c47 -81 55 -97 52 -97 -7 0 -66 90 -66 100 0 5 -8 14 -17 19 -14 8 -15 10 -3
11 8 0 23 -15 34 -33z m716 11 c0 -5 -6 -8 -14 -5 -8 3 -21 -2 -30 -12 -25
-27 -19 -33 14 -16 17 9 30 11 30 6 0 -11 -55 -34 -71 -29 -7 2 1 18 21 41 30
34 50 40 50 15z m-785 -7 c-5 -26 -44 -109 -45 -95 0 6 6 27 14 45 7 19 16 42
19 52 8 23 17 22 12 -2z m1082 -17 c58 -35 98 -93 89 -131 -9 -35 -55 -103
-70 -103 -6 0 -18 21 -25 48 -8 26 -22 63 -32 83 -10 20 -20 47 -23 60 -3 13
-7 34 -10 47 -7 30 14 29 71 -4z m-713 -19 c14 -14 22 -25 17 -25 -4 0 -18 11
-31 25 -13 14 -21 25 -17 25 3 0 17 -11 31 -25z m217 -1 c14 -38 3 -41 -16 -5
-9 18 -11 31 -5 31 6 0 15 -12 21 -26z m-381 -14 c-12 -22 -21 -26 -17 -7 2
10 17 26 25 27 1 0 -2 -9 -8 -20z m1489 -22 c1 -23 0 -40 -2 -38 -8 10 -16 80
-8 80 4 0 8 -19 10 -42z m-706 5 c5 -26 4 -26 -9 -8 -14 18 -16 17 -54 -20
-22 -22 -40 -36 -40 -32 0 10 78 87 88 87 6 0 12 -12 15 -27z m-179 -5 c-3 -4
-9 -8 -15 -8 -5 0 -9 4 -9 8 0 5 7 9 15 9 8 0 12 -4 9 -9z m-34 -2 c0 -7 -71
-46 -83 -46 -7 1 8 12 33 25 50 27 50 27 50 21z m-605 -25 c-3 -6 -14 -11 -23
-11 -13 0 -13 2 4 14 21 15 30 14 19 -3z m439 2 c4 -10 4 -15 1 -11 -3 3 -18
-5 -32 -18 -14 -13 -30 -24 -36 -24 -6 0 -24 -11 -41 -23 -17 -13 -42 -29 -56
-36 -22 -11 -21 -10 5 12 17 14 47 34 67 44 20 10 47 30 60 45 13 14 24 27 24
27 1 1 5 -7 8 -16z m245 -23 c15 -22 15 -23 -6 -12 -11 6 -23 19 -27 28 -9 23
14 12 33 -16z m177 -65 c14 -37 23 -70 20 -72 -2 -2 -12 20 -21 49 -10 29 -24
67 -32 83 -9 17 -10 25 -3 19 6 -7 23 -42 36 -79z m-1085 52 c-10 -9 -11 -8
-5 6 3 10 9 15 12 12 3 -3 0 -11 -7 -18z m714 -3 c-11 -9 -32 -21 -46 -28 -41
-18 -167 -98 -211 -133 -22 -18 -43 -33 -46 -33 -21 0 141 116 238 171 68 39
99 49 65 23z m1032 -26 c-3 -8 -6 -5 -6 6 -1 11 2 17 5 13 3 -3 4 -12 1 -19z
m-1727 -33 c14 -19 14 -19 -2 -6 -10 7 -18 18 -18 24 0 6 1 8 3 6 1 -2 9 -13
17 -24z m1719 -30 c-5 -25 -6 -51 -4 -57 3 -7 -6 -55 -18 -105 -16 -62 -20
-94 -13 -97 7 -3 4 -9 -6 -16 -10 -6 -18 -21 -18 -33 -1 -41 -106 -284 -159
-366 -28 -45 -49 -86 -46 -91 3 -6 -1 -7 -9 -4 -9 3 -16 1 -16 -5 0 -5 -13
-26 -30 -44 -16 -19 -27 -37 -23 -41 3 -3 4 -6 0 -6 -25 0 -10 31 51 105 58
71 162 264 162 301 0 9 9 31 19 48 11 17 27 63 36 101 9 39 20 84 26 102 15
48 19 72 24 133 5 63 11 96 20 110 11 19 12 10 4 -35z m-1670 -95 c24 -83 35
-150 24 -150 -4 0 -9 15 -10 34 -3 43 -25 128 -47 181 -13 34 -14 37 -1 20 9
-11 24 -49 34 -85z m1165 64 c4 -11 2 -15 -8 -11 -9 4 -17 -1 -21 -12 -3 -10
-17 -28 -30 -41 -25 -23 -25 -23 -39 -4 -8 10 -12 21 -10 24 3 2 9 -1 13 -8
11 -19 33 -6 59 33 25 40 28 41 36 19z m3 -39 c0 -8 -4 -12 -9 -9 -5 3 -6 10
-3 15 9 13 12 11 12 -6z m1443 -5 c-6 -11 -13 -20 -16 -20 -2 0 0 9 6 20 6 11
13 20 16 20 2 0 0 -9 -6 -20z m-2363 -63 c-85 -88 -127 -136 -127 -147 0 -5
-3 -10 -7 -10 -5 0 -21 -20 -38 -45 -28 -43 -45 -49 -45 -18 0 9 6 13 14 10 9
-4 26 13 46 46 32 50 187 217 202 217 4 0 -16 -24 -45 -53z m917 -24 c-7 -38
-16 -45 -10 -8 5 36 5 35 10 35 3 0 2 -12 0 -27z m-925 -40 c-8 -10 -16 -20
-20 -23 -3 -3 -18 -23 -35 -45 -16 -22 -34 -46 -41 -52 -22 -24 -99 -188 -112
-238 -7 -27 -15 -58 -18 -68 -3 -10 -6 -17 -9 -15 -20 20 98 300 145 342 11
11 21 24 21 30 0 5 17 27 37 48 39 40 55 50 32 21z m917 -65 c-9 -88 -16 -127
-27 -152 -9 -21 -9 -18 6 63 2 9 6 46 10 84 4 37 10 67 13 67 2 0 2 -28 -2
-62z m599 42 c3 -6 -1 -7 -9 -4 -18 7 -21 14 -7 14 6 0 13 -4 16 -10z m685 -5
c-7 -9 -15 -13 -19 -10 -3 3 1 10 9 15 21 14 24 12 10 -5z m-2402 -91 c-3 -14
-5 -12 -10 9 -3 19 -2 25 4 19 6 -6 8 -18 6 -28z m904 -51 c-15 -6 -40 -62
-48 -107 -3 -17 -7 -33 -10 -36 -6 -5 2 58 10 81 22 61 27 69 43 68 11 0 13
-3 5 -6z m1412 -18 c-4 -8 -11 -15 -16 -15 -6 0 -5 6 2 15 7 8 14 15 16 15 2
0 1 -7 -2 -15z m-1315 -77 l38 -82 21 39 c12 22 21 37 22 34 0 -10 -41 -101
-45 -97 -7 7 -82 188 -78 188 2 0 21 -37 42 -82z m751 47 c0 -5 -5 -3 -10 5
-5 8 -10 20 -10 25 0 6 5 3 10 -5 5 -8 10 -19 10 -25z m510 5 c0 -5 -5 -10
-11 -10 -5 0 -7 5 -4 10 3 6 8 10 11 10 2 0 4 -4 4 -10z m-1307 -57 c22 -52
43 -115 52 -165 7 -34 -64 -121 -162 -199 -74 -59 -317 -119 -497 -124 -115
-2 -139 0 -231 25 -57 15 -106 26 -109 22 -3 -3 -14 2 -23 10 -22 19 -56 32
-48 18 3 -6 12 -10 20 -10 8 0 16 -4 20 -9 12 -21 -41 0 -55 21 -19 28 -48
120 -56 180 -7 52 1 102 16 93 5 -3 33 -49 61 -103 29 -53 61 -106 71 -116 9
-10 15 -22 13 -26 -3 -4 5 -10 16 -13 12 -3 19 -10 16 -14 -3 -5 8 -10 24 -11
16 -1 29 1 29 6 0 4 12 22 28 40 l27 32 35 -33 c19 -18 47 -42 63 -52 26 -16
29 -16 46 -1 10 9 30 41 45 70 31 62 25 62 129 3 37 -22 73 -37 81 -34 7 3 26
35 42 71 15 36 35 68 42 71 8 3 47 -12 88 -32 55 -28 76 -35 85 -26 10 10 34
112 52 218 3 17 10 54 16 84 6 29 11 55 11 57 0 2 6 4 14 4 7 0 25 -26 39 -57z
m-1086 -77 c-44 -33 -53 -144 -21 -253 9 -30 13 -57 10 -60 -9 -9 -32 21 -33
42 0 11 -3 38 -6 60 -7 50 -10 125 -4 145 11 41 28 69 44 73 29 7 29 7 10 -7z
m962 -58 c-5 -24 -11 -60 -15 -81 -4 -20 -10 -40 -15 -43 -11 -6 -94 30 -103
45 -4 6 14 0 41 -13 26 -14 50 -23 54 -20 3 2 10 23 14 46 5 24 9 46 10 51 1
4 3 18 4 32 0 14 5 25 10 25 4 0 5 -19 0 -42z m-1078 -45 c13 -16 12 -17 -3
-4 -10 7 -18 15 -18 17 0 8 8 3 21 -13z m864 -40 c-14 -21 -25 -42 -25 -46 0
-22 -34 -77 -47 -77 -17 0 -69 27 -98 52 -11 9 -32 19 -47 23 -28 7 -40 -5
-77 -78 -9 -17 -23 -33 -31 -35 -9 -2 -11 0 -5 5 6 4 24 31 40 58 43 75 48 78
83 58 87 -52 125 -73 133 -73 4 0 24 34 44 75 20 41 40 75 46 75 5 0 -2 -17
-16 -37z m-569 -110 c24 -32 54 -36 54 -7 0 8 5 14 10 14 12 0 -3 -35 -20 -45
-14 -9 -44 14 -64 49 -47 79 -56 97 -56 109 0 6 12 -11 26 -38 15 -28 37 -64
50 -82z m166 3 c26 -17 50 -37 53 -45 5 -12 3 -12 -12 0 -10 8 -20 17 -23 20
-3 3 -23 17 -44 32 -32 22 -43 24 -55 14 -14 -11 -14 -10 -2 5 15 19 15 19 83
-26z m1874 3 c-38 -11 -74 -18 -80 -16 -13 4 99 35 129 35 11 0 -11 -8 -49
-19z m-111 -32 c-36 -22 -87 -76 -80 -87 3 -5 1 -10 -4 -10 -13 0 -13 0 0 39
7 20 24 39 48 51 39 21 69 26 36 7z m384 -27 c91 -22 110 -55 117 -203 4 -109
14 -153 48 -231 51 -112 51 -119 11 -197 -32 -62 -59 -76 -190 -104 -41 -8
-73 -11 -79 -5 -5 5 -8 40 -7 78 1 54 -2 71 -14 76 -22 8 -42 -31 -50 -99 -4
-33 -7 -61 -9 -62 -1 -1 -17 -5 -35 -8 l-33 -6 5 38 c2 21 7 50 11 65 4 18 1
32 -10 42 -35 35 -49 15 -61 -84 -3 -25 -7 -47 -10 -50 -7 -8 -68 -6 -74 3 -3
4 1 38 10 73 13 55 13 67 1 74 -25 16 -49 -13 -67 -82 -10 -38 -21 -68 -25
-68 -3 0 -14 7 -22 16 -26 26 -12 103 37 212 68 148 74 187 62 387 -1 28 0 55
2 62 5 13 88 48 153 63 25 6 59 15 75 19 37 9 92 6 154 -9z m-655 -5 c3 -8 1
-15 -4 -15 -6 0 -10 7 -10 15 0 8 2 15 4 15 2 0 6 -7 10 -15z m-284 -35 c0 -5
-2 -10 -4 -10 -3 0 -8 5 -11 10 -3 6 -1 10 4 10 6 0 11 -4 11 -10z m42 -14 c7
4 8 2 4 -5 -9 -14 -36 3 -36 23 0 6 5 3 11 -7 6 -9 15 -14 21 -11z m-116 -22
c85 -15 132 -67 139 -156 2 -29 7 -87 10 -128 6 -85 23 -148 67 -240 17 -36
34 -72 38 -80 11 -23 2 -57 -25 -100 -14 -22 -25 -43 -25 -46 0 -14 -52 -54
-71 -54 -10 0 -19 -4 -19 -10 0 -12 -27 -14 -33 -2 -3 4 -8 31 -11 59 -6 57
-23 93 -43 93 -16 0 -31 -30 -28 -52 21 -128 20 -130 -57 -144 l-38 -6 0 80
c0 89 -5 112 -26 112 -22 0 -34 -35 -40 -117 -3 -43 -7 -79 -9 -81 -2 -2 -20
-4 -42 -5 l-38 -2 0 80 c0 81 -8 111 -26 99 -16 -10 -28 -50 -34 -116 -4 -34
-8 -65 -10 -68 -6 -10 -64 -3 -79 9 -14 12 -12 54 6 113 8 29 8 41 -2 53 -28
34 -52 9 -65 -68 -20 -118 -22 -121 -66 -77 -29 28 -31 34 -24 76 3 25 22 82
42 127 61 141 62 149 65 335 l2 134 85 43 c47 24 97 54 111 67 87 81 102 89
161 83 30 -3 68 -8 85 -11z m550 -141 c3 -134 -2 -157 -38 -169 -13 -3 -41
-15 -63 -25 -74 -34 -164 -58 -172 -45 -3 6 -3 8 1 4 9 -8 170 47 212 73 40
24 45 46 45 187 -1 63 2 112 6 108 4 -3 8 -63 9 -133z m-1065 -82 c1 -3 2 -44
3 -91 3 -91 -5 -120 -32 -120 -15 1 -15 2 -2 13 12 9 16 32 15 102 0 50 -4 96
-8 102 -6 9 -3 11 7 7 9 -3 16 -9 17 -13z m-648 -69 c80 -49 287 -152 306
-152 5 0 22 -5 38 -12 15 -6 33 -12 38 -14 34 -8 66 -26 72 -40 5 -15 8 -81 4
-151 -3 -79 -85 -104 -348 -107 -72 0 -134 2 -138 6 -4 3 5 24 19 45 41 60 32
94 -18 71 -16 -7 -36 -32 -52 -64 -18 -36 -30 -51 -42 -49 -9 2 -23 4 -29 4
-22 2 -14 28 23 76 38 50 40 66 8 71 -33 6 -59 -15 -90 -72 -30 -55 -43 -64
-63 -40 -8 10 -4 26 19 70 33 61 32 76 -5 76 -17 0 -31 -13 -56 -52 -18 -29
-34 -47 -36 -40 -11 30 39 152 101 244 35 54 72 118 81 142 16 42 19 44 52 41
19 -2 70 -25 116 -53z m177 22 c0 -8 -5 -12 -10 -9 -6 4 -8 11 -5 16 9 14 15
11 15 -7z m60 12 c0 -2 -11 -6 -25 -8 -14 -3 -25 -1 -25 3 0 5 11 9 25 9 14 0
25 -2 25 -4z"/>
<path d="M4470 4080 c0 -5 5 -10 11 -10 5 0 7 5 4 10 -3 6 -8 10 -11 10 -2 0
-4 -4 -4 -10z"/>
<path d="M2920 1780 c0 -5 7 -10 15 -10 8 0 15 5 15 10 0 6 -7 10 -15 10 -8 0
-15 -4 -15 -10z"/>
<path d="M1590 2890 c-12 -7 -10 -9 7 -7 12 0 19 5 17 9 -6 10 -6 10 -24 -2z"/>
<path d="M2418 1773 c7 -3 16 -2 19 1 4 3 -2 6 -13 5 -11 0 -14 -3 -6 -6z"/>
</g>
</svg>
