<?xml version="1.0"?>
<svg width="500.00000000000006" height="500.00000000000006" xmlns="http://www.w3.org/2000/svg" xmlns:svg="http://www.w3.org/2000/svg">
 <g>
  <title>Layer 1</title>
  <g id="svgg">
   <path fill-rule="evenodd" fill="#ffffff" d="m211.439875,40.159875c-1.959,0.519 -2.552,2.662 -0.736,2.662c0.815,0 1.67,-0.72 1.9,-1.6c0.23,-0.88 0.362,-1.558 0.293,-1.507c-0.069,0.051 -0.724,0.251 -1.457,0.445m27.132,0.929c1.595,1.671 2.218,1.576 1.524,-0.232c-0.261,-0.679 -1.025,-1.235 -1.699,-1.235c-1.036,0 -1.01,0.226 0.175,1.467m5.963,3.297c1.104,1.767 1.881,1.547 1.161,-0.329c-0.261,-0.679 -0.848,-1.235 -1.306,-1.235c-0.526,0 -0.473,0.574 0.145,1.564m20.405,15.236c0.23,0.88 0.972,1.6 1.649,1.6c1.035,0 1.001,-0.254 -0.217,-1.6c-0.796,-0.88 -1.538,-1.6 -1.649,-1.6c-0.111,0 -0.013,0.72 0.217,1.6m-124.292,9.235c-0.745,1.941 0.128,2.129 1.72,0.37c1.325,-1.465 1.334,-1.605 0.103,-1.605c-0.742,0 -1.562,0.556 -1.823,1.235m139.787,0.937c-0.035,0.534 0.657,1.357 1.537,1.828c1.085,0.581 1.6,0.59 1.6,0.028c0,-0.455 -0.51,-0.828 -1.133,-0.828c-0.624,0 -1.315,-0.45 -1.537,-1c-0.304,-0.754 -0.419,-0.761 -0.467,-0.028m-144.263,1.892c-1.673,0.974 -1.844,2.336 -0.293,2.336c0.608,0 1.295,-0.72 1.525,-1.6c0.23,-0.88 0.362,-1.589 0.293,-1.576c-0.069,0.014 -0.755,0.392 -1.525,0.84m-11,7.269c0,0.954 0.102,1.584 0.226,1.4c0.125,-0.183 0.709,-0.963 1.298,-1.733c0.918,-1.198 0.885,-1.4 -0.226,-1.4c-0.798,0 -1.298,0.668 -1.298,1.733m161.8,6.467c0.183,0.55 1.011,1.132 1.841,1.292c1.305,0.253 1.363,0.118 0.436,-1c-1.269,-1.529 -2.753,-1.719 -2.277,-0.292m-171.4,3c0,0.88 0.1,1.6 0.222,1.6c0.122,0 0.839,-0.72 1.592,-1.6c1.304,-1.523 1.294,-1.6 -0.222,-1.6c-1.059,0 -1.592,0.536 -1.592,1.6m187.2,10.882c0,0.562 2.156,2.718 2.718,2.718c0.237,0 0.235,-0.512 -0.005,-1.138c-0.426,-1.109 -2.713,-2.441 -2.713,-1.58m3.2,9.727c0,0.409 0.734,1.407 1.63,2.218c1.604,1.451 1.619,1.444 0.924,-0.434c-0.704,-1.904 -2.554,-3.195 -2.554,-1.784m-205.558,1.712c-0.693,1.295 -0.577,1.46 0.772,1.107c0.872,-0.228 1.586,-0.913 1.586,-1.521c0,-1.605 -1.41,-1.357 -2.358,0.414m-2.776,9.932c-0.861,0.629 -1.281,1.675 -1.046,2.6c0.343,1.347 0.406,1.314 0.487,-0.253c0.053,-1.025 0.609,-1.8 1.293,-1.8c0.66,0 1.2,-0.36 1.2,-0.8c0,-1.038 -0.206,-1.011 -1.934,0.253m-3.27,8.552c-0.799,0.883 -1.215,1.843 -0.924,2.133c0.29,0.291 0.528,0.109 0.528,-0.405c0,-0.513 0.48,-0.933 1.067,-0.933c0.586,0 1.066,-0.54 1.066,-1.2c0,-1.516 0.001,-1.516 -1.737,0.405m211.871,-0.463c0,0.627 0.693,1.322 1.54,1.544c1.473,0.385 1.479,0.335 0.143,-1.142c-1.672,-1.847 -1.683,-1.85 -1.683,-0.402m-215.425,6.779c-0.693,1.295 -0.577,1.46 0.772,1.107c0.872,-0.228 1.586,-0.913 1.586,-1.521c0,-1.605 -1.41,-1.357 -2.358,0.414m218.358,-0.321c0,0.66 0.54,1.2 1.2,1.2c0.66,0 1.2,0.42 1.2,0.933c0,0.514 0.209,0.724 0.465,0.469c0.626,-0.626 -1.122,-3.802 -2.093,-3.802c-0.425,0 -0.772,0.54 -0.772,1.2m-221.6,9.333c0,0.954 0.102,1.584 0.226,1.4c0.125,-0.183 0.709,-0.963 1.298,-1.733c0.918,-1.198 0.885,-1.4 -0.226,-1.4c-0.798,0 -1.298,0.668 -1.298,1.733m224.8,-1.431c0,0.166 0.54,0.75 1.2,1.298c0.983,0.816 1.2,0.761 1.2,-0.302c0,-0.714 -0.54,-1.298 -1.2,-1.298c-0.66,0 -1.2,0.136 -1.2,0.302m-225.352,8.098c0.004,2.64 0.154,3.624 0.332,2.186c0.178,-1.438 0.174,-3.598 -0.008,-4.8c-0.183,-1.202 -0.329,-0.026 -0.324,2.614m-15.172,52.035c-0.26,0.678 -0.249,1.458 0.025,1.733c0.275,0.274 0.499,-0.075 0.499,-0.776c0,-0.701 0.63,-1.439 1.4,-1.641c1.312,-0.342 1.31,-0.371 -0.025,-0.458c-0.784,-0.051 -1.638,0.463 -1.899,1.142m246.296,-0.313c0.196,0.593 1.407,1.618 2.692,2.278c1.285,0.66 2.6,1.56 2.924,2c0.356,0.485 0.592,0.377 0.6,-0.275c0.006,-0.591 -0.708,-1.263 -1.588,-1.493c-0.88,-0.23 -1.6,-0.724 -1.6,-1.097c0,-0.373 -0.762,-1.086 -1.693,-1.585c-1.35,-0.722 -1.62,-0.687 -1.335,0.172m10.632,10.283c1.592,1.759 2.465,1.571 1.72,-0.37c-0.261,-0.679 -1.081,-1.235 -1.823,-1.235c-1.231,0 -1.222,0.14 0.103,1.605m-268.693,3.595c-0.281,0.731 -0.002,1.2 0.714,1.2c0.646,0 1.175,-0.54 1.175,-1.2c0,-0.66 -0.321,-1.2 -0.714,-1.2c-0.393,0 -0.922,0.54 -1.175,1.2m-3.711,2.498c0,1.063 0.217,1.118 1.2,0.302c0.66,-0.548 1.2,-1.132 1.2,-1.298c0,-0.166 -0.54,-0.302 -1.2,-0.302c-0.66,0 -1.2,0.584 -1.2,1.298m285.143,9.559c0.691,0.692 1.257,1.832 1.257,2.533c0,0.702 0.198,1.079 0.439,0.838c0.839,-0.84 -0.62,-4.628 -1.783,-4.628c-0.99,0 -0.977,0.193 0.087,1.257m2.057,6.25c0,0.608 0.753,1.303 1.674,1.544c1.606,0.42 1.617,0.375 0.276,-1.107c-1.663,-1.837 -1.95,-1.901 -1.95,-0.437m-298.857,2.436c-0.847,0.619 -1.262,1.404 -0.923,1.744c0.34,0.34 1.218,0.018 1.951,-0.716c1.73,-1.729 0.969,-2.489 -1.028,-1.028m302.057,2.447c0,0.289 0.579,1.103 1.286,1.811c1.182,1.181 1.263,1.166 1,-0.191c-0.265,-1.367 -2.286,-2.798 -2.286,-1.62m-306.124,7.245c-0.694,1.808 -0.071,1.903 1.524,0.232c1.185,-1.241 1.211,-1.467 0.175,-1.467c-0.674,0 -1.438,0.556 -1.699,1.235m309.324,3.467c0,0.976 0.51,1.698 1.2,1.698c0.66,0 1.2,-0.316 1.2,-0.702c0,-0.386 -0.54,-1.15 -1.2,-1.698c-1.003,-0.832 -1.2,-0.717 -1.2,0.702m-312.232,24.098c0.23,0.88 0.972,1.6 1.649,1.6c1.035,0 1.001,-0.254 -0.217,-1.6c-0.796,-0.88 -1.538,-1.6 -1.649,-1.6c-0.111,0 -0.013,0.72 0.217,1.6m9.032,36.715c0,0.768 1.769,2.485 2.56,2.485c1.368,0 0.552,-2.236 -0.96,-2.632c-0.88,-0.23 -1.6,-0.164 -1.6,0.147m280.8,6.952c0,0.696 0.428,1.124 0.95,0.95c1.483,-0.495 1.729,-2.217 0.317,-2.217c-0.697,0 -1.267,0.57 -1.267,1.267m-240,5.435c0,0.166 0.54,0.75 1.2,1.298c0.983,0.816 1.2,0.761 1.2,-0.302c0,-0.714 -0.54,-1.298 -1.2,-1.298c-0.66,0 -1.2,0.136 -1.2,0.302m8.8,14.08c0,0.45 0.334,0.818 0.743,0.818c0.408,0 1.308,0.566 2,1.257c0.691,0.692 1.257,0.913 1.257,0.492c0,-0.421 -0.9,-1.355 -2,-2.075c-1.1,-0.721 -2,-0.943 -2,-0.492m9.612,35.694c0.024,1.387 1.41,2.917 2.357,2.601c0.616,-0.205 0.366,-0.85 -0.708,-1.821c-0.913,-0.827 -1.655,-1.178 -1.649,-0.78m188.392,1.119c-1.227,1.357 -1.26,1.605 -0.214,1.605c0.682,0 1.466,-0.592 1.743,-1.315c0.756,-1.969 0.104,-2.093 -1.529,-0.29m-8.804,9.605c-0.796,0.88 -1.112,1.6 -0.702,1.6c0.411,0 1.363,-0.72 2.116,-1.6c0.754,-0.88 1.07,-1.6 0.702,-1.6c-0.367,0 -1.32,0.72 -2.116,1.6m-169.608,0.014c-0.272,0.438 0.085,1.019 0.792,1.29c1.722,0.661 2.103,0.125 0.778,-1.096c-0.685,-0.63 -1.257,-0.701 -1.57,-0.194" id="path0"/>
   <path fill-rule="evenodd" fill="#ffffff" d="m186.971875,74.587875c-3.263,7.026 2.583,13.301 9.643,10.351c3.076,-1.285 5.778,-5.846 4.427,-7.474c-3.36,-4.048 -12.644,-5.947 -14.07,-2.877m64.172,4.543c-0.853,5.688 2.226,9.509 7.662,9.509c4.051,0 4.844,-0.765 5.338,-5.153c0.814,-7.22 -11.93,-11.491 -13,-4.356m-76.372,16.891c1.493,1.54 2.894,2.8 3.114,2.8c0.22,0 -0.821,-1.26 -2.314,-2.8c-1.493,-1.54 -2.894,-2.8 -3.114,-2.8c-0.22,0 0.821,1.26 2.314,2.8m-40.338,-0.501c-0.268,0.435 -0.163,0.991 0.234,1.237c0.398,0.245 0.953,1.674 1.234,3.175c0.282,1.5 1.033,3.161 1.67,3.689c0.637,0.528 1.387,2.185 1.668,3.68c0.559,2.979 1.565,3.538 2.284,1.271c1.456,-4.589 -4.988,-16.452 -7.09,-13.052m67.088,1.901l-2.35,2.6l2.6,-2.35c2.424,-2.19 2.968,-2.85 2.35,-2.85c-0.138,0 -1.308,1.17 -2.6,2.6m-14.15,4.365c0.99,0.19 2.61,0.19 3.6,0c0.99,-0.191 0.18,-0.347 -1.8,-0.347c-1.98,0 -2.79,0.156 -1.8,0.347m69.6,1.6c0.99,0.19 2.61,0.19 3.6,0c0.99,-0.191 0.18,-0.347 -1.8,-0.347c-1.98,0 -2.79,0.156 -1.8,0.347m29.462,4.839c-0.245,0.772 -0.129,3.022 0.259,5l0.704,3.596l0.087,-5c0.089,-5.053 -0.235,-6.163 -1.05,-3.596m-172.021,8.018c-5.472,5.435 -2.765,19.084 3.359,16.934c3.029,-1.063 3.185,-2.073 0.985,-6.385c-0.888,-1.741 -1.838,-4.797 -2.112,-6.79c-0.503,-3.674 -1.176,-4.808 -2.232,-3.759m71.633,18.025c-1.94,0.964 -4.992,3.49 -6.783,5.614l-3.256,3.861l-0.017,7.773c-0.025,10.877 3.213,15.42 13.192,18.508l5.29,1.637l5.15,-1.602c17.281,-5.377 19.124,-27.497 2.977,-35.717c-4.949,-2.519 -11.574,-2.549 -16.553,-0.074m59.494,-0.223c-12.898,5.945 -15.133,24.136 -4.038,32.864c12.41,9.762 31.125,0.584 31.175,-15.288c0.042,-13.779 -14.682,-23.316 -27.137,-17.576m-42.011,13.47c3.781,3.203 5.278,6.599 3.978,9.027c-1.049,1.961 -5.393,2.017 -6.084,0.079c-1.865,-5.234 -7.151,-6.133 -11.252,-1.915c-5.303,5.456 -10.512,4.199 -8.167,-1.969c3.305,-8.692 14.284,-11.356 21.525,-5.222m56.84,-1.638c5.788,3.57 8.241,7.909 6.408,11.336c-1.212,2.264 -3.529,1.48 -7.404,-2.507c-3.904,-4.016 -6.703,-4.124 -10.362,-0.4c-5.397,5.49 -9.537,4.836 -7.797,-1.232c2.13,-7.425 12.479,-11.313 19.155,-7.197m-200.473,138.628c-2.103,2.323 -2.803,19.79 -0.859,21.404c3.104,2.576 9.523,2.089 12.757,-0.966c1.782,-1.685 3.505,-2.67 4.201,-2.402c4.931,1.892 12.705,-12.668 9.09,-17.025c-1.332,-1.605 -4.178,-1.335 -5.327,0.505c-1.275,2.04 -3.417,2.035 -6.022,-0.014c-1.988,-1.564 -2.143,-1.57 -4.989,-0.213l-2.936,1.4l-1.881,-2.186c-2.255,-2.622 -2.13,-2.606 -4.034,-0.503m266.876,1.516c-0.898,1.678 -4.331,2.206 -5.2,0.8c-0.798,-1.291 -2.675,-0.925 -4.474,0.874c-1.01,1.01 -2.291,1.513 -3.23,1.267c-5.273,-1.379 -7.941,12.587 -3.351,17.54c4.577,4.938 17.855,2.019 17.855,-3.925c0,-0.85 1.122,-2.823 2.494,-4.386c2.502,-2.849 2.892,-7.627 1.021,-12.502c-0.692,-1.804 -4.09,-1.583 -5.115,0.332" id="path1"/>
   <path opacity="0" fill-rule="evenodd" fill="#ffffff" d="m243.327875,44.375875c0.237,0.905 0.749,1.646 1.137,1.646c1.079,0 0.843,-1.292 -0.43,-2.348c-0.933,-0.774 -1.06,-0.648 -0.707,0.702m-116.823,34.179c-0.764,0.765 -0.657,1.867 0.181,1.867c0.393,0 0.922,-0.54 1.175,-1.2c0.468,-1.219 -0.384,-1.638 -1.356,-0.667m63.277,69.307c-1.645,0.46 -3.188,1.462 -3.431,2.225c-0.242,0.763 -0.966,1.589 -1.609,1.836c-0.644,0.247 -1.17,1.18 -1.17,2.074c0,2.055 3.024,2.236 3.77,0.225c2.09,-5.634 10.936,-6.368 14.23,-1.181c1.48,2.331 4.4,3.55 4.4,1.836c0,-5.462 -8.534,-9.16 -16.19,-7.015m59.934,-0.064c-3.544,0.939 -6.944,4.004 -6.944,6.26c0,2.209 0.715,1.971 4.145,-1.377c4.865,-4.751 15.055,-3.479 15.055,1.88c0,0.594 0.868,1.061 1.973,1.061l1.973,0l-2.306,-3.416c-1.834,-2.718 -3.057,-3.617 -5.984,-4.4c-4.136,-1.106 -3.773,-1.106 -7.912,-0.008m-36.661,34.789c-1.164,0.179 -2.75,1.025 -3.524,1.88c-0.774,0.855 -1.734,1.555 -2.135,1.555c-2.736,0 -8.773,10.406 -8.47,14.601l0.246,3.399l26.621,0.211c30.308,0.24 28.394,0.752 25.815,-6.905c-1.768,-5.248 -2.719,-6.692 -7.468,-11.347c-3.825,-3.749 -18.409,-5.342 -31.085,-3.394m112.521,27.44c0.799,0.883 1.618,1.44 1.82,1.238c0.433,-0.433 -1.847,-2.843 -2.691,-2.843c-0.319,0 0.073,0.722 0.871,1.605m-268,9.59c-0.798,0.883 -1.08,1.605 -0.626,1.605c1.007,0 3.002,-2.287 2.464,-2.824c-0.212,-0.212 -1.039,0.336 -1.838,1.219m2.008,98.045c-0.018,1.244 1.73,2.763 3.148,2.736c0.919,-0.018 0.826,-0.259 -0.36,-0.932c-0.88,-0.499 -1.864,-1.298 -2.188,-1.776c-0.393,-0.58 -0.592,-0.59 -0.6,-0.028" id="path2"/>
   <path opacity="0" fill-rule="evenodd" fill="#ffffff" d="m212.428875,68.439875c-4.123,0.87 -5.589,1.97 -4.319,3.24c0.611,0.611 1.867,0.578 4.36,-0.115c5.422,-1.508 18.329,-1.282 19.516,0.341c0.866,1.185 1.082,1.157 2.41,-0.31c1.065,-1.177 1.22,-1.85 0.574,-2.496c-1.149,-1.149 -17.897,-1.639 -22.541,-0.66m-55.005,3.529c-2.599,1.21 -4.59,2.786 -5.332,4.22c-0.849,1.642 -3.293,3.339 -8.652,6.006c-7.269,3.618 -14.444,9.517 -13.151,10.811c0.338,0.337 1.074,-0.016 1.637,-0.785c0.562,-0.77 1.793,-1.399 2.734,-1.399c0.942,0 1.712,-0.312 1.712,-0.694c0,-1.183 6.207,-4.872 12.24,-7.276c3.456,-1.377 6.115,-2.974 6.649,-3.992c1.703,-3.254 4.587,-5.617 7.439,-6.096c4.412,-0.74 5.672,-1.184 5.672,-1.996c0,-1.459 -6.847,-0.708 -10.948,1.201m69.106,7.198c-4.391,4.427 -4.424,4.443 -8.208,3.924c-4.715,-0.646 -4.314,0.926 0.441,1.73c3.598,0.607 4.812,-0.103 9.956,-5.82c4.579,-5.09 2.899,-4.962 -2.189,0.166m-65.477,2.435c-5.379,6.395 -10.25,10.702 -13.081,11.566c-1.76,0.536 -3.673,1.126 -4.251,1.309c-0.578,0.184 -0.835,0.683 -0.571,1.109c0.295,0.477 1.161,0.501 2.251,0.061c0.974,-0.393 2.752,-0.924 3.951,-1.18c2.314,-0.494 7.59,-5.261 11.365,-10.267c2.213,-2.935 2.503,-5.175 0.336,-2.598m-40.406,24.826c-0.75,1.618 -0.713,1.994 0.2,1.994c0.667,0 1.125,-0.815 1.125,-2c0,-2.49 -0.167,-2.489 -1.325,0.006m92.528,2.636c-1.099,0.747 -2.785,2.282 -3.747,3.41c-5.716,6.706 -21.263,12.823 -29.786,11.72c-6.702,-0.868 -15.445,-3.05 -17.431,-4.351c-2.834,-1.857 -10.967,-1.836 -12.836,0.034c-1.701,1.7 -0.829,2.536 1.4,1.343c2.126,-1.137 8.513,-1.227 9.835,-0.138c6.476,5.337 36.131,5.079 40.64,-0.354c0.505,-0.608 1.391,-1.106 1.969,-1.106c0.578,0 3.321,-2.193 6.095,-4.874l5.043,-4.874l6.477,0.274c6.433,0.272 6.509,0.301 11.382,4.274c9.665,7.88 17.103,10.429 30.156,10.335c7.515,-0.054 17.162,-1.695 19.547,-3.325c1.369,-0.936 -1.626,-1.738 -3.617,-0.969c-8.501,3.284 -14.155,4.057 -20.73,2.832c-3.52,-0.655 -7.93,-1.422 -9.8,-1.703c-1.87,-0.281 -3.4,-0.815 -3.4,-1.186c0,-0.372 -0.81,-0.916 -1.8,-1.21c-2.379,-0.706 -7.176,-3.988 -11.19,-7.657c-4.566,-4.174 -13.852,-5.436 -18.207,-2.475m-107.541,25.158c-3.127,4.791 -5.564,11.688 -6.135,17.362c-0.334,3.321 -1.217,7.658 -1.962,9.638c-1.59,4.226 -2.516,13.965 -1.394,14.659c0.484,0.299 0.371,2.352 -0.304,5.509c-0.591,2.767 -1.049,6.832 -1.019,9.032c0.031,2.2 0.075,6.014 0.099,8.475c0.045,4.648 -1.1,7.919 -2.775,7.933c-4.455,0.036 -18.528,10.012 -20.462,14.506c-0.796,1.849 -3.193,4.555 -6.11,6.896c-4.391,3.525 -4.837,4.174 -5.236,7.614c-0.324,2.793 -1.096,4.443 -3,6.407c-1.913,1.974 -2.564,3.371 -2.564,5.503c0,2.118 -0.807,3.871 -3.123,6.779c-2.804,3.522 -3.009,4.077 -2.007,5.447c0.83,1.135 0.984,2.928 0.604,7.016c-0.475,5.118 -0.373,5.637 1.508,7.657c1.11,1.192 2.372,3.247 2.804,4.567c0.814,2.485 0.947,2.516 6.337,1.494c2.035,-0.386 2.697,-0.151 3.428,1.214c1.076,2.011 3.763,2.199 5.747,0.403c1.316,-1.19 1.588,-1.16 3.571,0.4c2.67,2.101 3.695,2.117 5.531,0.089c3.089,-3.413 10,-0.274 10,4.542c0,1.546 0.5,3.767 1.112,4.935c0.611,1.167 1.487,4.598 1.945,7.622c0.621,4.099 1.36,6.049 2.903,7.66c1.44,1.502 2.339,3.686 2.952,7.166c0.709,4.022 1.452,5.596 3.785,8.013c1.597,1.655 3.884,4.694 5.083,6.753c1.199,2.059 2.819,3.971 3.6,4.248c3.749,1.331 4.22,2.543 4.22,10.864c0,5.192 0.398,8.831 1.145,10.476c0.629,1.387 1.266,5.31 1.415,8.719c0.267,6.109 0.316,6.236 3.405,8.8c4.694,3.897 5.27,3.975 32.333,4.388c37.022,0.566 40.138,0.012 41.736,-7.409c3.999,-18.576 8.696,-19.013 12.663,-1.177c1.868,8.398 1.618,8.329 31.391,8.664c30.983,0.349 37.97,-0.308 42.183,-3.967c4.06,-3.525 4.359,-4.235 4.486,-10.645c0.061,-3.108 0.566,-6.475 1.121,-7.482c0.661,-1.197 0.961,-4.694 0.868,-10.117c-0.154,-8.958 0.065,-9.793 2.848,-10.851c1.126,-0.428 2.707,-2.5 4.083,-5.35c1.235,-2.559 2.695,-4.93 3.244,-5.27c2.501,-1.545 3.33,-3.279 4.124,-8.629c0.542,-3.653 1.422,-6.36 2.421,-7.447c1.183,-1.286 1.699,-3.38 2.1,-8.506c0.701,-8.965 2.224,-12 6.023,-12c1.96,0 3.133,-0.491 3.825,-1.6c1.086,-1.738 4.836,-2.165 7.325,-0.833c1.142,0.612 1.616,0.368 2.33,-1.2c0.981,-2.151 6.653,-2.912 7.806,-1.046c0.735,1.19 2.725,-1.409 2.725,-3.558c0,-0.843 0.9,-2.602 2,-3.909c2.106,-2.503 2.481,-4.885 1.27,-8.071c-0.53,-1.392 -0.332,-2.812 0.717,-5.154l1.447,-3.233l-3.081,-4.873c-1.694,-2.68 -2.737,-5.086 -2.317,-5.345c1.479,-0.914 0.731,-3.073 -2.53,-7.3c-2.204,-2.857 -3.157,-4.797 -2.879,-5.861c0.408,-1.56 -7.986,-10.417 -9.873,-10.417c-0.415,0 -0.754,-0.877 -0.754,-1.949c0,-1.404 -1.634,-3.428 -5.846,-7.243l-5.846,-5.295l-0.958,-6.625c-0.715,-4.945 -0.73,-7.28 -0.06,-9.201c0.693,-1.988 0.622,-4.16 -0.31,-9.531c-0.686,-3.951 -1.037,-9.209 -0.812,-12.172c0.321,-4.246 -0.004,-6.404 -1.749,-11.6c-1.335,-3.972 -2.013,-7.442 -1.796,-9.184c0.696,-5.579 -5.775,-19.2 -9.122,-19.2c-1.258,0 -1.093,0.613 1.238,4.6c3.638,6.224 4.92,10.647 3.73,12.871c-0.733,1.37 -0.611,2.3 0.619,4.718c4.153,8.163 5.545,15.559 3.32,17.631c-1.57,1.464 -1.572,1.541 -0.101,5.832c2.394,6.985 2.753,11.741 1,13.242c-1.299,1.112 -1.354,1.593 -0.475,4.181c2.941,8.669 2.102,16.734 -1.643,15.794c-2.027,-0.509 -2.227,-0.171 -3.155,5.331c-0.558,3.307 -1.523,3.71 -3.847,1.607c-1.754,-1.587 -5.387,1.496 -5.387,4.572c0,3.304 -0.858,4.021 -4.807,4.021c-3.568,0 -3.897,0.173 -4.698,2.472c-1.074,3.08 -2.6,2.68 -3.529,-0.926c-0.39,-1.51 -1.216,-3.034 -1.837,-3.386c-0.621,-0.352 -1.129,-1.466 -1.129,-2.475c0,-1.01 -0.9,-2.882 -1.999,-4.161c-1.099,-1.278 -1.999,-2.774 -2,-3.324c-0.001,-0.55 -0.37,-1 -0.821,-1c-0.451,0 -1.162,-0.9 -1.58,-2c-0.418,-1.1 -1.163,-2 -1.654,-2c-0.492,0 -1.809,-0.72 -2.928,-1.6c-1.118,-0.88 -3.039,-1.6 -4.268,-1.6c-2.128,0 -2.259,-0.219 -2.742,-4.6c-1.08,-9.785 -6.492,-17.713 -14.808,-21.694c-5.624,-2.692 -22.542,-3.128 -26.8,-0.69c-1.32,0.756 -2.777,1.376 -3.237,1.379c-4.938,0.029 -13.929,12.812 -15.442,21.955c-0.458,2.771 -0.859,3.237 -3.321,3.869c-1.54,0.394 -3.368,1.227 -4.063,1.849c-0.695,0.623 -1.788,1.132 -2.429,1.132c-1.612,0 -8.708,6.835 -8.708,8.387c0,0.695 -0.53,1.467 -1.178,1.715c-0.648,0.249 -1.414,1.768 -1.702,3.375c-0.287,1.608 -1.057,3.536 -1.71,4.284c-3.127,3.584 -2.035,14.239 1.46,14.239c3.803,0 4.736,13.029 1.033,14.437c-2.189,0.832 -4.29,-0.111 -4.315,-1.935c-0.035,-2.57 -1.588,-3.318 -3.03,-1.459c-1.962,2.529 -4.568,1.446 -7.986,-3.319c-2.466,-3.438 -2.755,-3.606 -4.687,-2.726c-2.404,1.095 -4.808,-1.403 -6.314,-6.559c-0.71,-2.43 -1.132,-2.803 -2.929,-2.591c-1.716,0.203 -2.557,-0.418 -4.609,-3.4c-2.295,-3.335 -4.033,-4.629 -4.033,-3.001c0,3.595 -2.364,3.659 -5.609,0.153c-1.833,-1.98 -3.493,-3.201 -3.69,-2.713c-1.492,3.688 -2.577,3.959 -3.841,0.957c-1.158,-2.749 -1.509,-2.973 -5.031,-3.2c-3.621,-0.233 -3.822,-0.374 -4.621,-3.235c-1.33,-4.764 -3.902,-6.915 -5.999,-5.017c-2.097,1.898 -3.053,0.994 -3.857,-3.649c-0.541,-3.127 -0.834,-3.511 -2.493,-3.274c-3.385,0.484 -4.568,-8.396 -2.058,-15.444c0.982,-2.756 0.977,-3.344 -0.035,-4.463c-1.645,-1.817 -1.447,-7.177 0.474,-12.88c1.485,-4.41 1.523,-4.997 0.4,-6.238c-2.257,-2.494 -0.645,-11.363 3.328,-18.305c1.159,-2.026 1.25,-2.795 0.475,-4.041c-1.472,-2.367 3.047,-15.298 5.345,-15.298c0.419,0 0.555,-0.54 0.301,-1.2c-0.671,-1.751 -2.478,-1.467 -3.827,0.6m133.398,47.172c9.441,2.829 19.546,22.737 12.54,24.706c-2.443,0.687 -50.091,0.89 -52.574,0.225c-3.144,-0.843 -2.417,-10.289 1.011,-13.134c0.64,-0.531 1.163,-1.427 1.163,-1.993c0,-1.71 7.81,-8.175 11.42,-9.453c4.261,-1.509 21.798,-1.741 26.44,-0.351m17.337,27.902c5.66,1.214 12.605,8.072 14.065,13.889c0.265,1.057 0.99,2.116 1.61,2.354c1.945,0.746 1.549,11.035 -0.472,12.297c-1.357,0.848 -1.6,1.866 -1.6,6.698c0,6.243 -1.518,9.802 -5.214,12.224c-1.092,0.715 -1.986,1.785 -1.986,2.376c0,3.102 -3.471,9.288 -5.212,9.288c-1.97,0 -5.988,4.581 -5.988,6.827c0,1.673 -5.019,6.773 -6.666,6.773c-0.674,0 -1.995,1.081 -2.935,2.402c-2.321,3.259 -4.372,4.283 -6.402,3.196c-1.35,-0.722 -1.744,-0.55 -2.491,1.088c-2.556,5.611 -7.786,5.976 -10.234,0.714c-0.689,-1.48 -1.484,-1.8 -4.479,-1.8c-3.133,0 -3.972,-0.376 -6.007,-2.693c-1.73,-1.971 -3.242,-2.811 -5.637,-3.132c-4.359,-0.585 -7.405,-3.58 -11.571,-11.375c-0.609,-1.14 -1.535,-1.54 -3.217,-1.391c-2.826,0.249 -5.367,-3.073 -6.278,-8.209c-1.026,-5.78 -1.194,-6.069 -2.91,-4.998c-2.706,1.69 -3.538,-0.329 -3.973,-9.641l-0.4,-8.561l-2.4,0c-3.209,0 -4.033,-6.98 -1.242,-10.528c0.903,-1.148 1.642,-2.759 1.642,-3.58c0,-0.821 0.585,-2.167 1.3,-2.992c4.328,-4.993 7.649,-8.1 8.66,-8.1c0.638,0 1.448,-0.485 1.8,-1.077c1.539,-2.591 57.829,-4.281 68.237,-2.049m-161.72,3.126c0.374,2.705 1.337,3.723 4.033,4.262c1.689,0.338 2.389,1.031 2.722,2.699c0.308,1.538 1.578,2.958 4.033,4.51c3.687,2.331 4.505,3.836 4.524,8.322c0.007,1.735 -0.519,2.924 -1.589,3.593c-1.134,0.708 -1.6,1.865 -1.6,3.974c0,8.165 -1.719,15.06 -4.056,16.269c-2.212,1.144 -2.243,1.26 -1.797,6.586c0.48,5.724 -0.038,6.896 -3.315,7.504c-1.005,0.186 -1.749,1.176 -2.073,2.756c-0.722,3.533 -1.542,4.662 -2.609,3.595c-1.434,-1.434 -3.354,-0.994 -5.268,1.207c-1.333,1.534 -2.261,1.939 -3.544,1.549c-3.277,-0.996 -4.122,-0.823 -4.929,1.009c-0.899,2.039 -4.236,1.856 -5.449,-0.299c-0.843,-1.498 -3.466,-1.457 -4.049,0.064c-0.766,1.994 -2.708,1.36 -4.988,-1.629l-2.158,-2.83l-1.798,1.69c-2.102,1.974 -2.375,1.668 -3.126,-3.513c-0.543,-3.737 -0.65,-3.869 -2.902,-3.538c-2.791,0.409 -2.954,-0.515 -0.999,-5.636c0.995,-2.604 1.12,-3.864 0.486,-4.879c-1.246,-1.995 4.334,-9.665 7.031,-9.665c1.383,0 0.754,-2.198 -0.954,-3.332c-1.67,-1.108 -1.631,-1.199 2.4,-5.609c4.319,-4.727 4.866,-6.014 2.88,-6.776c-1.695,-0.651 1.765,-3.849 8.094,-7.483c4.797,-2.754 4.853,-2.825 3.38,-4.361c-1.861,-1.941 -0.83,-3.112 7.742,-8.795c6.352,-4.21 9.414,-4.596 9.878,-1.244m218.537,5.435c3.048,2.705 3.318,3.223 2.489,4.772c-0.819,1.531 -0.666,1.875 1.284,2.885c5.087,2.637 9.838,7.69 8.796,9.358c-0.851,1.363 -0.545,1.954 2.499,4.822c3.179,2.994 3.425,3.505 2.939,6.097c-0.451,2.406 -0.193,3.182 1.724,5.185c1.962,2.05 2.261,3 2.298,7.301c0.024,2.72 0.328,6.26 0.675,7.867c0.549,2.545 0.418,2.99 -1.016,3.446c-1.126,0.357 -1.801,1.457 -2.137,3.477c-0.867,5.23 -1.009,5.38 -3.177,3.343c-1.893,-1.778 -2.033,-1.795 -3.533,-0.437c-1.974,1.786 -5.618,0.792 -6.973,-1.903l-0.918,-1.825l-0.551,1.735c-1.898,5.98 -6.723,-1.411 -6.762,-10.358c-0.03,-6.768 0.322,-7.685 3.149,-8.21l2,-0.372l-2,-0.138c-3.925,-0.271 -6.626,-6.212 -6.468,-14.228c0.101,-5.105 -0.19,-7.327 -1.152,-8.794c-1.197,-1.828 -1.176,-2.175 0.304,-5.015c1.265,-2.426 1.45,-3.675 0.904,-6.095c-1.386,-6.147 0.741,-7.248 5.626,-2.913m-9.614,2.965c0,0.66 -0.339,1.2 -0.753,1.2c-1.009,0 -1.731,-1.249 -1.092,-1.888c0.901,-0.901 1.845,-0.549 1.845,0.688m-5.382,5.258c1.64,1.352 2.982,3.108 2.982,3.902c0,0.794 0.501,1.86 1.114,2.368c1.899,1.576 2.085,4.073 0.427,5.731c-1.963,1.963 -1.948,3.988 0.059,7.732c0.88,1.642 1.6,3.812 1.6,4.823c0,1.01 0.54,3.13 1.2,4.709c1.884,4.508 1.597,8.004 -0.704,8.581c-2.003,0.503 -1.559,5.893 1.052,12.76c1.401,3.684 1.085,9.926 -0.548,10.84c-1.162,0.65 -1.4,1.939 -1.4,7.572c0,7.416 -0.465,8.568 -2.855,7.076c-2.032,-1.269 -2.148,-0.899 -2.55,8.106c-0.284,6.372 -0.512,7.227 -2.349,8.8c-1.118,0.958 -2.85,3.829 -3.848,6.38l-1.814,4.638l-1.781,-1.673l-1.78,-1.672l-0.996,2.634c-4.385,11.604 -4.977,12.571 -6.78,11.074c-1.032,-0.856 -2.105,-0.194 -6.931,4.274c-6.321,5.852 -9.726,6.897 -11.776,3.614c-1.022,-1.637 -1.115,-1.603 -4.35,1.6c-3.345,3.311 -6.517,4.226 -8.338,2.405c-0.624,-0.624 -1.822,-0.266 -4.263,1.275c-3.363,2.123 -3.424,2.13 -6.451,0.765c-2.963,-1.336 -3.145,-1.326 -5.943,0.325c-3.592,2.119 -3.32,2.156 -4.766,-0.64c-1.178,-2.28 -1.276,-2.311 -3.595,-1.154c-4.324,2.157 -7.764,2.307 -8.961,0.391c-1.264,-2.023 -2.351,-2.108 -5.585,-0.436c-2.109,1.09 -2.611,1.107 -3.761,0.122c-2.529,-2.166 -4.288,-2.308 -6.211,-0.501l-1.836,1.724l-3.178,-1.656l-3.177,-1.656l-1.341,2.046c-1.49,2.274 -4.591,2.274 -9.149,0c-2.241,-1.118 -2.347,-1.08 -3.273,1.154c-0.968,2.337 -2.632,3.014 -3.592,1.46c-1.216,-1.968 -4.644,-2.47 -7.637,-1.121c-2.849,1.285 -3.011,1.267 -6.1,-0.683c-2.144,-1.353 -3.539,-1.771 -4.303,-1.287c-2.336,1.479 -5.199,0.748 -7.969,-2.035c-3.072,-3.087 -4.099,-3.387 -5.561,-1.625c-2.444,2.944 -10.356,-0.982 -14.394,-7.143l-1.994,-3.042l-1.52,2.036l-1.52,2.036l-1.788,-2.635c-0.983,-1.449 -2.2,-3.884 -2.705,-5.411c-1.033,-3.132 -4.486,-6.742 -6.856,-7.17c-1.04,-0.187 -2,-1.505 -2.825,-3.877c-0.839,-2.417 -1.959,-3.935 -3.418,-4.635c-2.489,-1.194 -2.743,-2.076 -3.267,-11.323c-0.29,-5.1 -0.715,-7.005 -1.73,-7.748c-1.24,-0.906 -1.246,-1.128 -0.065,-2.814c0.705,-1.007 1.282,-2.426 1.282,-3.154c0,-2.275 2.258,-3.593 4.142,-2.417c2.023,1.264 4.658,-0.759 4.658,-3.576c0,-1.466 -0.502,-1.875 -2.544,-2.076c-4.107,-0.405 -5.334,-7.156 -2.307,-12.69c2.015,-3.685 2.228,-3.841 3.498,-2.571c1.271,1.27 1.353,1.196 1.353,-1.219c0,-1.414 -0.321,-2.571 -0.714,-2.571c-1.407,0 -1.633,-2.501 -0.526,-5.822c0.619,-1.858 1.374,-6.798 1.677,-10.978c0.416,-5.731 0.916,-8 2.034,-9.226c0.815,-0.895 1.777,-3.055 2.137,-4.8c0.833,-4.038 4.248,-4.782 8.394,-1.83c1.426,1.015 3.067,1.737 3.646,1.604c0.58,-0.133 2.616,0.515 4.527,1.44c2.13,1.031 4.211,1.495 5.384,1.201c1.342,-0.337 2.354,0.01 3.4,1.166c0.819,0.905 1.955,1.645 2.524,1.645c1.404,0 5.848,4.793 6.397,6.9c0.493,1.889 3.927,3.876 6.179,3.575c0.839,-0.113 3.284,1.531 5.752,3.865c3.478,3.289 4.825,4.06 7.094,4.06c1.54,0 3.048,0.4 3.35,0.889c0.348,0.563 1.911,0.717 4.248,0.419c3.587,-0.457 3.767,-0.377 6.05,2.71c1.295,1.75 2.636,3.182 2.98,3.182c0.344,0 1.196,1.102 1.892,2.448c0.813,1.572 2.543,2.995 4.837,3.979c1.965,0.842 3.813,2.17 4.107,2.952c1.349,3.586 10.345,10.866 12.973,10.497c0.692,-0.097 2.634,1.151 4.316,2.774c2.356,2.275 3.492,2.843 4.95,2.476c1.399,-0.351 2.876,0.276 5.658,2.4c4.613,3.522 7.196,3.661 10.138,0.544c1.386,-1.468 3.385,-2.53 5.402,-2.871c1.762,-0.298 3.685,-1.23 4.274,-2.071c0.59,-0.841 2.626,-2.352 4.526,-3.357c1.9,-1.004 3.831,-2.534 4.292,-3.399c0.461,-0.864 1.482,-2.547 2.27,-3.74c0.788,-1.192 1.432,-2.714 1.432,-3.383c0,-0.669 1.35,-1.919 3,-2.778c3.098,-1.613 6.6,-5.995 6.6,-8.259c0,-0.709 1.162,-2.451 2.582,-3.871c3.319,-3.319 5.383,-7.915 6.255,-13.93c0.382,-2.633 1.08,-4.917 1.55,-5.073c0.471,-0.157 1.556,-1.658 2.412,-3.336c1.963,-3.848 5.17,-6.402 8.04,-6.402c2.253,0 7.161,-5.317 7.161,-7.758c0,-1.8 2.718,-1.139 5.818,1.416m-13.168,122.286c0.174,2.385 -0.167,3.88 -1.128,4.942c-1.06,1.172 -1.339,2.765 -1.209,6.918c0.154,4.92 -0.052,5.695 -2.33,8.781c-3.873,5.245 -5.032,5.415 -36.918,5.415l-27.736,0l-2.05,-1.926c-3.237,-3.041 -2.87,-11.274 0.504,-11.274c1.263,0 3.333,-0.536 4.599,-1.191c1.382,-0.715 4.164,-1.14 6.96,-1.063c2.562,0.07 5.476,-0.311 6.477,-0.848c1.507,-0.808 2.044,-0.75 3.131,0.338c1.341,1.341 5.677,1.112 6.61,-0.349c0.242,-0.378 2.85,-0.839 5.795,-1.023c3.764,-0.235 5.848,-0.78 7.014,-1.836c1.152,-1.042 3.187,-1.588 6.646,-1.781c3.359,-0.188 5.692,-0.796 7.153,-1.863c1.192,-0.871 2.524,-1.584 2.96,-1.584c0.436,0 1.116,-0.578 1.511,-1.285c0.432,-0.772 2.199,-1.451 4.427,-1.702c2.04,-0.23 4.128,-0.924 4.641,-1.542c1.542,-1.858 2.678,-0.749 2.943,2.873m-165.116,-2.45c0.236,0.382 1.987,0.869 3.891,1.084c2.273,0.256 4.949,1.435 7.791,3.433c3.845,2.703 4.851,3.039 8.983,3c2.688,-0.025 5.072,0.374 5.644,0.946c2.164,2.164 5.092,3.066 9.519,2.934c2.551,-0.077 4.638,0.203 4.638,0.621c0,1.508 4.784,1.882 6.841,0.535c1.57,-1.029 2.327,-1.107 3.688,-0.378c2.123,1.136 7.799,1.123 8.942,-0.02c1.075,-1.075 3.729,-1.11 3.729,-0.049c0,0.44 1.08,0.8 2.4,0.8c1.32,0 2.4,-0.36 2.4,-0.8c0,-0.44 1.092,-0.8 2.426,-0.8c3.035,0 4.311,2.584 2.764,5.6c-0.564,1.1 -1.332,3.406 -1.708,5.123c-1.416,6.483 -1.388,6.477 -32.941,6.477c-31.738,0 -32.757,-0.149 -36.832,-5.381c-2.56,-3.286 -2.646,-3.628 -2.233,-8.809c0.307,-3.859 0.132,-5.688 -0.618,-6.438c-1.546,-1.546 -2.191,-4.162 -1.604,-6.504c0.523,-2.081 1.485,-2.661 2.28,-1.374" id="path3"/>
   <path fill-rule="evenodd" fill="#ffffff" d="m218.771875,70.510875c-4.86,0.76 -10.4,2.061 -10.4,2.442c0,0.229 0.72,1.332 1.6,2.451c0.88,1.118 1.6,2.649 1.6,3.402c0,5.748 9.358,6.006 14.909,0.411c2.398,-2.417 4.704,-4.395 5.125,-4.395c0.901,0 1.042,-2.945 0.166,-3.454c-0.951,-0.553 -10.794,-1.201 -13,-0.857m-58,2.667c-1.81,0.741 -4.235,3.249 -5.529,5.717c-0.512,0.978 -3.245,2.608 -6.631,3.957c-5.601,2.231 -12.24,6.073 -12.24,7.082c0,0.275 1.571,1.448 3.49,2.608l3.491,2.108l4.239,-1.435c3.247,-1.099 5.233,-2.529 8.491,-6.114c2.339,-2.573 4.981,-5.412 5.871,-6.307c0.89,-0.896 1.618,-1.919 1.618,-2.274c0,-0.355 0.72,-1.561 1.6,-2.68c2.599,-3.304 0.407,-4.629 -4.4,-2.662m48.542,41.57c-2.774,2.681 -5.517,4.874 -6.095,4.874c-0.578,0 -1.464,0.498 -1.969,1.106c-4.5,5.422 -34.161,5.693 -40.619,0.371c-2.341,-1.929 -11.608,-0.323 -15.059,2.61c-2.926,2.486 -7.94,4.271 -13.19,4.694l-5.19,0.419l-0.485,3.009c-0.559,3.458 -0.269,3.112 -4.056,4.85c-3.795,1.742 -5.632,1.691 -9.27,-0.259c-4.199,-2.25 -4.74,-2.078 -6.905,2.2c-2.906,5.743 -3.811,9.65 -2.661,11.498c0.775,1.246 0.684,2.015 -0.475,4.041c-3.973,6.942 -5.585,15.811 -3.328,18.305c1.123,1.241 1.085,1.828 -0.4,6.238c-1.921,5.703 -2.119,11.063 -0.474,12.88c1.012,1.119 1.017,1.707 0.035,4.463c-2.51,7.048 -1.327,15.928 2.058,15.444c1.659,-0.237 1.952,0.147 2.493,3.274c0.804,4.643 1.76,5.547 3.857,3.649c2.097,-1.898 4.669,0.253 5.999,5.017c0.799,2.861 1,3.002 4.621,3.235c3.522,0.227 3.873,0.451 5.031,3.2c1.264,3.002 2.349,2.731 3.841,-0.957c0.197,-0.488 1.857,0.733 3.69,2.713c3.245,3.506 5.609,3.442 5.609,-0.153c0,-1.628 1.738,-0.334 4.033,3.001c2.052,2.982 2.893,3.603 4.609,3.4c1.797,-0.212 2.219,0.161 2.929,2.591c1.506,5.156 3.91,7.654 6.314,6.559c1.932,-0.88 2.221,-0.712 4.687,2.726c3.418,4.765 6.024,5.848 7.986,3.319c1.442,-1.859 2.995,-1.111 3.03,1.459c0.025,1.824 2.126,2.767 4.315,1.935c3.703,-1.408 2.77,-14.437 -1.033,-14.437c-3.495,0 -4.587,-10.655 -1.46,-14.239c0.653,-0.748 1.423,-2.676 1.71,-4.284c0.288,-1.607 1.054,-3.126 1.702,-3.375c0.648,-0.248 1.178,-1.02 1.178,-1.715c0,-1.552 7.096,-8.387 8.708,-8.387c0.641,0 1.734,-0.509 2.429,-1.132c0.695,-0.622 2.523,-1.455 4.063,-1.849c2.462,-0.632 2.863,-1.098 3.321,-3.869c1.513,-9.143 10.504,-21.926 15.442,-21.955c0.46,-0.003 1.917,-0.623 3.237,-1.379c4.258,-2.438 21.176,-2.002 26.8,0.69c8.316,3.981 13.728,11.909 14.808,21.694c0.483,4.381 0.614,4.6 2.742,4.6c1.229,0 3.15,0.72 4.268,1.6c1.119,0.88 2.436,1.6 2.928,1.6c0.491,0 1.236,0.9 1.654,2c0.418,1.1 1.129,2 1.58,2c0.451,0 0.82,0.45 0.821,1c0.001,0.55 0.901,2.046 2,3.324c1.099,1.279 1.999,3.151 1.999,4.161c0,1.009 0.508,2.123 1.129,2.475c0.621,0.352 1.447,1.876 1.837,3.386c0.929,3.606 2.455,4.006 3.529,0.926c0.801,-2.299 1.13,-2.472 4.698,-2.472c3.949,0 4.807,-0.717 4.807,-4.021c0,-3.076 3.633,-6.159 5.387,-4.572c2.324,2.103 3.289,1.7 3.847,-1.607c0.928,-5.502 1.128,-5.84 3.155,-5.331c3.745,0.94 4.584,-7.125 1.643,-15.794c-0.879,-2.588 -0.824,-3.069 0.475,-4.181c1.753,-1.501 1.394,-6.257 -1,-13.242c-1.471,-4.291 -1.469,-4.368 0.101,-5.832c2.225,-2.072 0.833,-9.468 -3.32,-17.631c-1.23,-2.418 -1.352,-3.348 -0.619,-4.718c2.127,-3.975 -3.827,-15.637 -9.349,-18.31c-2.749,-1.331 -4.04,-2.641 -5.564,-5.647c-2.296,-4.533 -2.945,-4.676 -10.157,-2.246c-12.555,4.229 -29.687,0.408 -41.555,-9.268c-4.873,-3.973 -4.949,-4.002 -11.382,-4.274l-6.477,-0.274l-5.043,4.874m-5.267,18.382c18.786,9.887 11.464,39.853 -9.689,39.653c-7.628,-0.073 -16.588,-6.232 -19.242,-13.226c-6.89,-18.156 11.95,-35.365 28.931,-26.427m59.04,-0.01c9.334,4.934 14.593,20.294 9.368,27.361c-0.926,1.252 -1.683,2.58 -1.683,2.952c0,3.372 -11.442,9.422 -17.601,9.307c-7.016,-0.132 -18.347,-7.535 -18.424,-12.038c-0.014,-0.814 -0.554,-2.179 -1.2,-3.033c-1.56,-2.061 -1.56,-10.033 0,-12.094c0.646,-0.854 1.186,-2.182 1.2,-2.951c0.057,-3.153 6.994,-8.925 13.625,-11.337c2.538,-0.923 11.648,0.212 14.715,1.833m-69.115,76.336c-2.86,0.447 -5.488,1.297 -5.84,1.889c-0.352,0.592 -1.162,1.077 -1.8,1.077c-1.011,0 -4.332,3.107 -8.66,8.1c-0.715,0.825 -1.3,2.171 -1.3,2.992c0,0.821 -0.739,2.432 -1.642,3.58c-2.791,3.548 -1.967,10.528 1.242,10.528l2.4,0l0.4,8.561c0.435,9.312 1.267,11.331 3.973,9.641c1.716,-1.071 1.884,-0.782 2.91,4.998c0.911,5.136 3.452,8.458 6.278,8.209c1.682,-0.149 2.608,0.251 3.217,1.391c4.166,7.795 7.212,10.79 11.571,11.375c2.395,0.321 3.907,1.161 5.637,3.132c2.035,2.317 2.874,2.693 6.007,2.693c2.995,0 3.79,0.32 4.479,1.8c2.448,5.262 7.678,4.897 10.234,-0.714c0.747,-1.638 1.141,-1.81 2.491,-1.088c2.03,1.087 4.081,0.063 6.402,-3.196c0.94,-1.321 2.261,-2.402 2.935,-2.402c1.647,0 6.666,-5.1 6.666,-6.773c0,-2.246 4.018,-6.827 5.988,-6.827c1.741,0 5.212,-6.186 5.212,-9.288c0,-0.591 0.894,-1.661 1.986,-2.376c3.696,-2.422 5.214,-5.981 5.214,-12.224c0,-4.832 0.243,-5.85 1.6,-6.698c2.021,-1.262 2.417,-11.551 0.472,-12.297c-0.62,-0.238 -1.345,-1.297 -1.61,-2.354c-1.46,-5.817 -8.405,-12.675 -14.065,-13.889c-5.144,-1.103 -55.124,-0.975 -62.397,0.16m-109.201,4.21c-8.572,5.683 -9.603,6.854 -7.742,8.795c1.473,1.536 1.417,1.607 -3.38,4.361c-6.329,3.634 -9.789,6.832 -8.094,7.483c1.986,0.762 1.439,2.049 -2.88,6.776c-4.031,4.41 -4.07,4.501 -2.4,5.609c1.708,1.134 2.337,3.332 0.954,3.332c-2.697,0 -8.277,7.67 -7.031,9.665c0.634,1.015 0.509,2.275 -0.486,4.879c-1.955,5.121 -1.792,6.045 0.999,5.636c2.252,-0.331 2.359,-0.199 2.902,3.538c0.751,5.181 1.024,5.487 3.126,3.513l1.798,-1.69l2.158,2.83c2.28,2.989 4.222,3.623 4.988,1.629c0.583,-1.521 3.206,-1.562 4.049,-0.064c1.213,2.155 4.55,2.338 5.449,0.299c0.807,-1.832 1.652,-2.005 4.929,-1.009c1.283,0.39 2.211,-0.015 3.544,-1.549c1.914,-2.201 3.834,-2.641 5.268,-1.207c1.067,1.067 1.887,-0.062 2.609,-3.595c0.324,-1.58 1.068,-2.57 2.073,-2.756c3.277,-0.608 3.795,-1.78 3.315,-7.504c-0.446,-5.326 -0.415,-5.442 1.797,-6.586c2.337,-1.209 4.056,-8.104 4.056,-16.269c0,-2.109 0.466,-3.266 1.6,-3.974c1.07,-0.669 1.596,-1.858 1.589,-3.593c-0.019,-4.486 -0.837,-5.991 -4.524,-8.322c-2.455,-1.552 -3.725,-2.972 -4.033,-4.51c-0.333,-1.668 -1.033,-2.361 -2.722,-2.699c-2.696,-0.539 -3.659,-1.557 -4.033,-4.262c-0.464,-3.352 -3.526,-2.966 -9.878,1.244m222.88,2.608c-0.471,0.88 -0.507,2.652 -0.091,4.496c0.546,2.42 0.361,3.669 -0.904,6.095c-1.48,2.84 -1.501,3.187 -0.304,5.015c0.962,1.467 1.253,3.689 1.152,8.794c-0.158,8.016 2.543,13.957 6.468,14.228l2,0.138l-2,0.372c-2.827,0.525 -3.179,1.442 -3.149,8.21c0.039,8.947 4.864,16.338 6.762,10.358l0.551,-1.735l0.918,1.825c1.355,2.695 4.999,3.689 6.973,1.903c1.5,-1.358 1.64,-1.341 3.533,0.437c2.168,2.037 2.31,1.887 3.177,-3.343c0.336,-2.02 1.011,-3.12 2.137,-3.477c1.434,-0.456 1.565,-0.901 1.016,-3.446c-0.347,-1.607 -0.651,-5.147 -0.675,-7.867c-0.037,-4.301 -0.336,-5.251 -2.298,-7.301c-1.917,-2.003 -2.175,-2.779 -1.724,-5.185c0.486,-2.592 0.24,-3.103 -2.939,-6.097c-3.044,-2.868 -3.35,-3.459 -2.499,-4.822c1.042,-1.668 -3.709,-6.721 -8.796,-9.358c-1.95,-1.01 -2.103,-1.354 -1.284,-2.885c0.829,-1.549 0.559,-2.067 -2.489,-4.772c-3.884,-3.447 -4.45,-3.609 -5.535,-1.583m-5.924,3.86c-0.639,0.639 0.083,1.888 1.092,1.888c0.414,0 0.753,-0.54 0.753,-1.2c0,-1.237 -0.944,-1.589 -1.845,-0.688m-9.355,4.53c0,2.441 -4.908,7.758 -7.161,7.758c-2.87,0 -6.077,2.554 -8.04,6.402c-0.856,1.678 -1.941,3.179 -2.412,3.336c-0.47,0.156 -1.168,2.44 -1.55,5.073c-0.872,6.015 -2.936,10.611 -6.255,13.93c-1.42,1.42 -2.582,3.162 -2.582,3.871c0,2.264 -3.502,6.646 -6.6,8.259c-1.65,0.859 -3,2.109 -3,2.778c0,0.669 -0.644,2.191 -1.432,3.383c-0.788,1.193 -1.809,2.876 -2.27,3.74c-0.461,0.865 -2.392,2.395 -4.292,3.399c-1.9,1.005 -3.936,2.516 -4.526,3.357c-0.589,0.841 -2.512,1.773 -4.274,2.071c-2.017,0.341 -4.016,1.403 -5.402,2.871c-2.942,3.117 -5.525,2.978 -10.138,-0.544c-2.782,-2.124 -4.259,-2.751 -5.658,-2.4c-1.458,0.367 -2.594,-0.201 -4.95,-2.476c-1.682,-1.623 -3.624,-2.871 -4.316,-2.774c-2.628,0.369 -11.624,-6.911 -12.973,-10.497c-0.294,-0.782 -2.142,-2.11 -4.107,-2.952c-2.294,-0.984 -4.024,-2.407 -4.837,-3.979c-0.696,-1.346 -1.548,-2.448 -1.892,-2.448c-0.344,0 -1.685,-1.432 -2.98,-3.182c-2.283,-3.087 -2.463,-3.167 -6.05,-2.71c-2.337,0.298 -3.9,0.144 -4.248,-0.419c-0.302,-0.489 -1.81,-0.889 -3.35,-0.889c-2.269,0 -3.616,-0.771 -7.094,-4.06c-2.468,-2.334 -4.913,-3.978 -5.752,-3.865c-2.252,0.301 -5.686,-1.686 -6.179,-3.575c-0.549,-2.107 -4.993,-6.9 -6.397,-6.9c-0.569,0 -1.705,-0.74 -2.524,-1.645c-1.046,-1.156 -2.058,-1.503 -3.4,-1.166c-1.173,0.294 -3.254,-0.17 -5.384,-1.201c-1.911,-0.925 -3.947,-1.573 -4.527,-1.44c-0.579,0.133 -2.22,-0.589 -3.646,-1.604c-4.146,-2.952 -7.561,-2.208 -8.394,1.83c-0.36,1.745 -1.322,3.905 -2.137,4.8c-1.118,1.226 -1.618,3.495 -2.034,9.226c-0.303,4.18 -1.058,9.12 -1.677,10.978c-1.107,3.321 -0.881,5.822 0.526,5.822c0.393,0 0.714,1.157 0.714,2.571c0,2.415 -0.082,2.489 -1.353,1.219c-1.27,-1.27 -1.483,-1.114 -3.498,2.571c-3.027,5.534 -1.8,12.285 2.307,12.69c2.042,0.201 2.544,0.61 2.544,2.076c0,2.817 -2.635,4.84 -4.658,3.576c-1.884,-1.176 -4.142,0.142 -4.142,2.417c0,0.728 -0.577,2.147 -1.282,3.154c-1.181,1.686 -1.175,1.908 0.065,2.814c1.015,0.743 1.44,2.648 1.73,7.748c0.524,9.247 0.778,10.129 3.267,11.323c1.459,0.7 2.579,2.218 3.418,4.635c0.825,2.372 1.785,3.69 2.825,3.877c2.37,0.428 5.823,4.038 6.856,7.17c0.505,1.527 1.722,3.962 2.705,5.411l1.788,2.635l1.52,-2.036l1.52,-2.036l1.994,3.042c4.038,6.161 11.95,10.087 14.394,7.143c1.462,-1.762 2.489,-1.462 5.561,1.625c2.77,2.783 5.633,3.514 7.969,2.035c0.764,-0.484 2.159,-0.066 4.303,1.287c3.089,1.95 3.251,1.968 6.1,0.683c2.993,-1.349 6.421,-0.847 7.637,1.121c0.96,1.554 2.624,0.877 3.592,-1.46c0.926,-2.234 1.032,-2.272 3.273,-1.154c4.558,2.274 7.659,2.274 9.149,0l1.341,-2.046l3.177,1.656l3.178,1.656l1.836,-1.724c1.923,-1.807 3.682,-1.665 6.211,0.501c1.15,0.985 1.652,0.968 3.761,-0.122c3.234,-1.672 4.321,-1.587 5.585,0.436c1.197,1.916 4.637,1.766 8.961,-0.391c2.319,-1.157 2.417,-1.126 3.595,1.154c1.446,2.796 1.174,2.759 4.766,0.64c2.798,-1.651 2.98,-1.661 5.943,-0.325c3.027,1.365 3.088,1.358 6.451,-0.765c2.441,-1.541 3.639,-1.899 4.263,-1.275c1.821,1.821 4.993,0.906 8.338,-2.405c3.235,-3.203 3.328,-3.237 4.35,-1.6c2.05,3.283 5.455,2.238 11.776,-3.614c4.826,-4.468 5.899,-5.13 6.931,-4.274c1.803,1.497 2.395,0.53 6.78,-11.074l0.996,-2.634l1.78,1.672l1.781,1.673l1.814,-4.638c0.998,-2.551 2.73,-5.422 3.848,-6.38c1.837,-1.573 2.065,-2.428 2.349,-8.8c0.402,-9.005 0.518,-9.375 2.55,-8.106c2.39,1.492 2.855,0.34 2.855,-7.076c0,-5.633 0.238,-6.922 1.4,-7.572c1.633,-0.914 1.949,-7.156 0.548,-10.84c-2.611,-6.867 -3.055,-12.257 -1.052,-12.76c2.301,-0.577 2.588,-4.073 0.704,-8.581c-0.66,-1.579 -1.2,-3.699 -1.2,-4.709c0,-1.011 -0.72,-3.181 -1.6,-4.823c-2.007,-3.744 -2.022,-5.769 -0.059,-7.732c1.658,-1.658 1.472,-4.155 -0.427,-5.731c-0.613,-0.508 -1.114,-1.574 -1.114,-2.368c0,-1.728 -5.376,-6.36 -7.382,-6.36c-0.78,0 -1.418,0.469 -1.418,1.042m-10.293,120.829c-0.513,0.618 -2.601,1.312 -4.641,1.542c-2.228,0.251 -3.995,0.93 -4.427,1.702c-0.395,0.707 -1.075,1.285 -1.511,1.285c-0.436,0 -1.768,0.713 -2.96,1.584c-1.461,1.067 -3.794,1.675 -7.153,1.863c-3.459,0.193 -5.494,0.739 -6.646,1.781c-1.166,1.056 -3.25,1.601 -7.014,1.836c-2.945,0.184 -5.553,0.645 -5.795,1.023c-0.933,1.461 -5.269,1.69 -6.61,0.349c-1.087,-1.088 -1.624,-1.146 -3.131,-0.338c-1.001,0.537 -3.915,0.918 -6.477,0.848c-2.796,-0.077 -5.578,0.348 -6.96,1.063c-1.266,0.655 -3.336,1.191 -4.599,1.191c-3.374,0 -3.741,8.233 -0.504,11.274l2.05,1.926l27.736,0c31.886,0 33.045,-0.17 36.918,-5.415c2.278,-3.086 2.484,-3.861 2.33,-8.781c-0.13,-4.153 0.149,-5.746 1.209,-6.918c0.961,-1.062 1.302,-2.557 1.128,-4.942c-0.265,-3.622 -1.401,-4.731 -2.943,-2.873m-164.453,1.797c-0.587,2.342 0.058,4.958 1.604,6.504c0.75,0.75 0.925,2.579 0.618,6.438c-0.413,5.181 -0.327,5.523 2.233,8.809c4.075,5.232 5.094,5.381 36.832,5.381c31.553,0 31.525,0.006 32.941,-6.477c0.376,-1.717 1.144,-4.023 1.708,-5.123c1.547,-3.016 0.271,-5.6 -2.764,-5.6c-1.334,0 -2.426,0.36 -2.426,0.8c0,0.44 -1.08,0.8 -2.4,0.8c-1.32,0 -2.4,-0.36 -2.4,-0.8c0,-1.061 -2.654,-1.026 -3.729,0.049c-1.143,1.143 -6.819,1.156 -8.942,0.02c-1.361,-0.729 -2.118,-0.651 -3.688,0.378c-2.057,1.347 -6.841,0.973 -6.841,-0.535c0,-0.418 -2.087,-0.698 -4.638,-0.621c-4.427,0.132 -7.355,-0.77 -9.519,-2.934c-0.572,-0.572 -2.956,-0.971 -5.644,-0.946c-4.132,0.039 -5.138,-0.297 -8.983,-3c-2.842,-1.998 -5.518,-3.177 -7.791,-3.433c-1.904,-0.215 -3.655,-0.702 -3.891,-1.084c-0.795,-1.287 -1.757,-0.707 -2.28,1.374" id="path4"/>
   <path fill-rule="evenodd" fill="#ffffff" d="m213.371875,40.151875c-0.55,0.222 -1,0.913 -1,1.537c0,0.908 -1.735,1.133 -8.753,1.133c-4.814,0 -8.967,0.346 -9.228,0.769c-0.305,0.493 -1.204,0.493 -2.499,0c-5.457,-2.074 -32.32,-0.612 -32.32,1.759c0,0.37 -1.077,0.672 -2.393,0.672c-1.527,0 -2.755,0.579 -3.393,1.6c-0.549,0.88 -1.632,1.6 -2.406,1.6c-0.977,0 -1.408,0.627 -1.408,2.047c0,1.161 -0.346,1.833 -0.8,1.553c-0.44,-0.272 -0.8,0.088 -0.8,0.8c0,0.712 -0.369,1.066 -0.82,0.788c-0.451,-0.279 -0.768,-0.21 -0.705,0.153c0.736,4.237 -0.234,10.602 -1.687,11.063c-0.886,0.281 -1.418,0.824 -1.182,1.206c0.531,0.86 -2.725,3.99 -4.15,3.99c-0.573,0 -1.492,0.72 -2.042,1.6c-0.549,0.88 -1.656,1.6 -2.459,1.6c-2.079,0 -4.686,1.541 -4.13,2.44c0.258,0.418 -0.452,0.76 -1.578,0.76c-1.126,0 -2.004,0.27 -1.952,0.6c0.27,1.711 -0.237,2.603 -1.495,2.625c-1.504,0.028 -3.757,1.481 -4.279,2.76c-0.177,0.431 -0.861,0.791 -1.521,0.8c-0.756,0.009 -1.29,0.946 -1.445,2.533c-0.164,1.696 -0.752,2.652 -1.8,2.925c-0.878,0.23 -1.555,1.095 -1.555,1.989c0,0.909 -0.681,1.759 -1.6,2c-1.155,0.302 -1.6,1.091 -1.6,2.839c0,1.719 -0.464,2.569 -1.6,2.929c-0.88,0.279 -1.6,1.035 -1.6,1.679c0,0.644 -0.526,1.373 -1.17,1.62c-0.643,0.247 -1.385,1.128 -1.648,1.959c-0.264,0.83 -0.894,1.427 -1.4,1.326c-0.506,-0.101 -1.268,1.166 -1.692,2.816c-0.425,1.65 -1.21,3 -1.746,3c-1.37,0 -1.944,1.908 -1.944,6.465c0,2.964 -0.296,3.935 -1.2,3.935c-0.66,0 -1.224,0.45 -1.254,1c-0.225,4.159 -0.989,6.62 -2.353,7.575c-0.977,0.684 -1.593,2.026 -1.593,3.47c0,1.56 -0.405,2.355 -1.2,2.355c-0.66,0 -1.245,0.54 -1.3,1.2c-0.055,0.66 -0.19,1.56 -0.3,2c-0.11,0.44 -0.245,1.674 -0.3,2.743c-0.055,1.068 -0.609,2.452 -1.232,3.075c-0.777,0.777 -1.214,3.555 -1.392,8.864c-0.22,6.539 -0.478,7.801 -1.668,8.179c-1.289,0.409 -1.408,1.967 -1.408,18.393l0,17.946l-2.393,0c-1.527,0 -2.755,0.579 -3.393,1.6c-0.549,0.88 -1.404,1.6 -1.899,1.6c-0.494,0 -1.815,0.72 -2.933,1.6c-1.119,0.88 -2.566,1.6 -3.215,1.6c-0.649,0 -1.369,0.72 -1.599,1.6c-0.23,0.88 -0.992,1.6 -1.693,1.6c-0.701,0 -1.275,0.346 -1.275,0.769c0,0.423 -0.81,1.523 -1.8,2.446c-1.822,1.697 -1.921,1.923 -2.1,4.785c-0.055,0.88 -0.553,1.6 -1.108,1.6c-0.554,0 -1.457,0.72 -2.006,1.6c-0.581,0.93 -1.866,1.6 -3.068,1.6c-1.362,0 -2.204,0.521 -2.467,1.526c-0.219,0.839 -1.019,1.688 -1.777,1.886c-1.052,0.276 -1.424,1.367 -1.572,4.621c-0.139,3.051 -0.635,4.642 -1.748,5.607c-0.855,0.741 -1.554,1.969 -1.554,2.729c0,0.759 -0.72,1.569 -1.6,1.799c-1.285,0.336 -1.6,1.091 -1.6,3.84c0,2.499 -0.371,3.563 -1.378,3.949c-1.18,0.453 -1.208,0.636 -0.2,1.274c0.989,0.625 0.953,0.746 -0.222,0.757c-0.833,0.007 -1.4,0.622 -1.4,1.519c0,0.834 -0.714,1.693 -1.6,1.925c-1.776,0.464 -2.459,10.343 -0.787,11.376c0.447,0.276 0.546,0.928 0.22,1.447c-1.494,2.381 -0.393,10.032 1.294,8.99c0.298,-0.184 0.624,0.631 0.726,1.81c0.362,4.182 0.682,5.133 1.975,5.857c0.719,0.402 1.538,1.957 1.818,3.454c0.281,1.498 1.016,2.917 1.633,3.153c0.885,0.34 1.121,2.701 1.121,11.202c0,10.069 0.104,10.804 1.6,11.279c0.88,0.279 1.6,1.024 1.6,1.654c0,2.382 3.074,4.346 6.8,4.346c1.98,0 3.6,0.302 3.6,0.672c0,1.072 3.845,2.529 6.638,2.516c2.813,-0.014 4.849,-0.968 4.43,-2.077c-0.147,-0.391 0.973,-0.829 2.489,-0.973c1.517,-0.145 3.137,-0.754 3.6,-1.354c1.176,-1.522 7.469,-2.324 8.904,-1.134c0.67,0.557 1.139,2.397 1.139,4.473c0,2.397 0.384,3.675 1.2,3.988c0.66,0.253 1.2,1.165 1.2,2.027c0,2.252 1.462,4.662 2.828,4.662c0.645,0 1.172,0.522 1.172,1.16c0,0.638 0.451,1.448 1.001,1.8c0.551,0.352 1.494,1.597 2.096,2.767c0.602,1.17 2.093,3.219 3.312,4.554c1.96,2.146 2.251,3.166 2.506,8.792c0.211,4.631 0.67,6.785 1.687,7.908c1.111,1.228 1.398,3.012 1.398,8.69c0,6.278 0.194,7.265 1.6,8.143c0.911,0.569 1.6,1.866 1.6,3.013c0,1.411 0.598,2.24 2,2.773c1.1,0.418 2,1.073 2,1.454c0,0.382 1.26,1.373 2.8,2.202c1.54,0.829 2.8,1.786 2.8,2.126c0,0.34 2.838,0.618 6.307,0.618c5.634,0 6.351,0.171 6.725,1.6c0.636,2.434 51.991,2.51 54.099,0.08c1.021,-1.177 2.67,-1.589 7.294,-1.821c4.596,-0.231 5.975,-0.572 5.975,-1.48c0,-1.784 3.492,-1.98 4.205,-0.235c0.658,1.61 0.467,1.567 7.842,1.736c2.886,0.066 5.057,0.427 4.825,0.803c-1.248,2.02 4.447,2.517 28.841,2.517c24.564,0 25.248,-0.043 25.655,-1.6c0.373,-1.427 1.091,-1.6 6.659,-1.6c3.593,0 6.357,-0.352 6.516,-0.829c0.152,-0.456 1.547,-1.266 3.101,-1.8c2.805,-0.964 3.156,-1.31 3.156,-3.104c0,-0.514 0.237,-0.697 0.526,-0.407c0.972,0.971 2.674,-1.234 2.674,-3.465c0,-1.522 0.488,-2.336 1.57,-2.619c1.401,-0.366 1.595,-1.237 1.8,-8.097c0.134,-4.483 0.563,-7.666 1.03,-7.636c1.271,0.082 1.835,-3.1 1.92,-10.851c0.07,-6.291 0.283,-7.334 1.68,-8.206c0.88,-0.55 1.6,-1.407 1.6,-1.905c0,-0.497 0.63,-1.365 1.4,-1.928c0.77,-0.563 1.445,-1.413 1.5,-1.889c0.055,-0.475 0.145,-1.404 0.2,-2.064c0.055,-0.66 0.82,-1.2 1.7,-1.2c1.037,0 1.6,-0.533 1.6,-1.514c0,-0.833 0.54,-1.722 1.2,-1.975c0.66,-0.254 1.2,-1.163 1.2,-2.02c0,-3.82 0.562,-4.091 8.486,-4.091c6.981,0 7.514,-0.114 7.514,-1.6c0,-1.333 0.533,-1.6 3.2,-1.6c2.277,0 3.2,-0.338 3.2,-1.172c0,-0.644 0.72,-1.557 1.6,-2.028c0.926,-0.496 1.6,-1.675 1.6,-2.8c0,-1.125 0.674,-2.304 1.6,-2.8c0.88,-0.471 1.6,-1.204 1.6,-1.628c0,-0.425 0.72,-1.492 1.6,-2.372c0.978,-0.978 1.6,-2.667 1.6,-4.343c0,-1.508 0.584,-3.327 1.298,-4.041c0.909,-0.909 1.166,-2.114 0.856,-4.025c-0.516,-3.176 0.762,-8.529 2.239,-9.379c0.562,-0.323 1.266,-2.22 1.566,-4.215c0.299,-1.996 0.876,-3.422 1.283,-3.171c0.407,0.251 0.525,-0.102 0.263,-0.784c-0.262,-0.683 -0.078,-1.242 0.409,-1.242c1.332,0 1.064,-3.707 -0.371,-5.143c-1.143,-1.143 -1.143,-1.257 0,-1.257c1.05,0 1.257,-1.188 1.257,-7.2c0,-5.867 -0.222,-7.2 -1.2,-7.2c-0.66,0 -1.218,-0.27 -1.24,-0.6c-0.023,-0.33 -0.124,-2.241 -0.227,-4.247c-0.127,-2.502 -0.755,-4.258 -2.001,-5.596c-1.063,-1.141 -1.654,-2.568 -1.426,-3.441c0.263,-1.007 -0.116,-1.625 -1.163,-1.899c-1.07,-0.28 -1.707,-1.36 -2.043,-3.462c-0.269,-1.681 -0.986,-3.247 -1.594,-3.481c-0.608,-0.233 -1.106,-1.515 -1.106,-2.849c0,-1.596 -0.4,-2.425 -1.172,-2.425c-0.644,0 -1.557,-0.72 -2.028,-1.6c-0.471,-0.88 -1.384,-1.6 -2.028,-1.6c-0.645,0 -1.172,-0.72 -1.172,-1.6c0,-0.88 -0.27,-1.557 -0.6,-1.505c-1.769,0.279 -2.6,-0.263 -2.6,-1.695c0,-0.9 -0.533,-1.6 -1.22,-1.6c-1.147,0 -3.215,-3.62 -2.889,-5.059c0.082,-0.363 -0.156,-0.472 -0.528,-0.241c-0.373,0.23 -1.278,-0.284 -2.012,-1.141c-0.735,-0.857 -1.069,-1.586 -0.743,-1.62c0.326,-0.033 -0.668,-0.515 -2.208,-1.071l-2.8,-1.01l-0.213,-21.329c-0.182,-18.226 -0.386,-21.329 -1.4,-21.329c-0.828,0 -1.204,-0.907 -1.243,-3c-0.201,-10.696 -0.486,-13.038 -1.7,-13.996c-0.7,-0.552 -1.514,-2.714 -1.808,-4.804c-0.355,-2.525 -0.92,-3.8 -1.685,-3.8c-0.743,0 -1.151,-0.842 -1.151,-2.372c0,-1.553 -0.552,-2.667 -1.6,-3.228c-2.009,-1.075 -2.064,-3.325 -0.112,-4.545c2.033,-1.269 1.892,-12.76 -0.176,-14.272c-0.924,-0.676 -1.312,-2.186 -1.312,-5.108c0,-3.358 -0.381,-4.529 -2,-6.148c-1.1,-1.1 -2,-2.523 -2,-3.163c0,-0.64 -0.45,-1.17 -1,-1.178c-0.55,-0.007 -1.839,-0.898 -2.864,-1.979c-1.025,-1.08 -2.105,-1.932 -2.4,-1.891c-4.062,0.557 -5.736,-0.199 -5.736,-2.591c0,-1.802 -0.435,-2.589 -1.6,-2.893c-1.371,-0.359 -1.6,-1.091 -1.6,-5.125c0,-3.552 -0.281,-4.707 -1.146,-4.707c-1.089,0 -2.252,-2.134 -1.844,-3.385c0.104,-0.321 -0.62,-1.152 -1.61,-1.845c-0.99,-0.693 -1.8,-1.78 -1.8,-2.415c0,-0.635 -0.477,-1.155 -1.061,-1.155c-0.583,0 -1.906,-0.9 -2.939,-2c-1.033,-1.1 -2.456,-2 -3.162,-2c-0.705,0 -1.899,-0.72 -2.652,-1.6c-0.754,-0.88 -2.144,-1.6 -3.09,-1.6c-0.946,0 -2.18,-0.63 -2.743,-1.4c-1.185,-1.62 -0.923,-1.57 -8.753,-1.7l-6,-0.1l0,-2.853c0,-3.368 -1.207,-5.947 -2.782,-5.947c-0.696,0 -1.008,-0.612 -0.818,-1.6c0.217,-1.128 -0.122,-1.6 -1.153,-1.6c-0.803,0 -1.649,-0.72 -1.879,-1.6c-0.23,-0.88 -0.992,-1.6 -1.693,-1.6c-0.701,0 -1.995,-0.72 -2.875,-1.6c-1.554,-1.554 -22.06,-2.418 -25.4,-1.07m23.834,11.622c3.606,2.665 4.136,8.977 1.095,13.048c-1.104,1.478 -2.287,1.619 -15.562,1.85c-11.896,0.208 -14.367,0.45 -14.367,1.41c0,0.926 0.684,1.036 3.4,0.549c3.443,-0.617 15.194,-0.731 22.698,-0.22c3.048,0.208 4.949,-0.165 7.424,-1.455c3.972,-2.07 12.361,-2.407 14.941,-0.6c0.89,0.624 2.979,1.389 4.642,1.701c1.662,0.312 3.213,1.062 3.444,1.666c0.232,0.604 0.927,1.099 1.544,1.099c0.617,0 2.232,1.061 3.589,2.358c1.358,1.297 2.704,2.467 2.993,2.6c0.956,0.44 4.125,5.358 4.13,6.41c0.003,0.567 0.721,2.112 1.595,3.432c2.187,3.302 2.187,9.878 0,12.4c-3.983,4.592 2.077,7.739 7.123,3.699c2.626,-2.103 6.868,0.464 7.521,4.551c0.224,1.403 0.792,3.99 1.262,5.75c1.263,4.722 1.122,9.163 -0.306,9.711c-1.513,0.58 -1.584,3.489 -0.086,3.489c1.532,0 2.084,1.793 1.555,5.052c-0.245,1.51 -0.091,2.963 0.341,3.231c0.867,0.535 4.108,7.112 5.971,12.117c0.656,1.76 1.035,4.46 0.842,6c-0.217,1.742 0.461,5.212 1.796,9.184c1.745,5.196 2.07,7.354 1.749,11.6c-0.225,2.963 0.126,8.221 0.812,12.172c0.932,5.371 1.003,7.543 0.31,9.531c-0.67,1.921 -0.655,4.256 0.06,9.201l0.958,6.625l5.846,5.295c4.212,3.815 5.846,5.839 5.846,7.243c0,1.072 0.339,1.949 0.754,1.949c1.887,0 10.281,8.857 9.873,10.417c-0.278,1.064 0.675,3.004 2.879,5.861c3.261,4.227 4.009,6.386 2.53,7.3c-0.42,0.259 0.623,2.665 2.317,5.345l3.081,4.873l-1.447,3.233c-1.049,2.342 -1.247,3.762 -0.717,5.154c1.211,3.186 0.836,5.568 -1.27,8.071c-1.1,1.307 -2,2.989 -2,3.738c0,0.749 -0.591,2.362 -1.314,3.586c-1.219,2.064 -1.219,2.361 0,4.102c2.92,4.169 0.576,15.12 -3.236,15.12c-0.625,0 -1.05,0.939 -1.05,2.318c0,2.738 -3.653,7.282 -5.855,7.282c-0.824,0 -2.509,0.597 -3.745,1.327c-2.093,1.237 -2.439,1.237 -5.045,0c-1.538,-0.73 -3.445,-1.327 -4.238,-1.327c-0.792,0 -2.564,-1.089 -3.937,-2.42c-3.369,-3.264 -4.949,-1.619 -6.138,6.389c-0.791,5.336 -1.62,7.068 -4.121,8.613c-0.549,0.34 -2.009,2.711 -3.244,5.27c-1.376,2.85 -2.957,4.922 -4.083,5.35c-2.783,1.058 -3.002,1.893 -2.848,10.851c0.093,5.423 -0.207,8.92 -0.868,10.117c-0.555,1.007 -1.06,4.374 -1.121,7.482c-0.127,6.41 -0.426,7.12 -4.486,10.645c-4.213,3.659 -11.2,4.316 -42.183,3.967c-29.773,-0.335 -29.523,-0.266 -31.391,-8.664c-3.967,-17.836 -8.664,-17.399 -12.663,1.177c-1.598,7.421 -4.714,7.975 -41.736,7.409c-27.063,-0.413 -27.639,-0.491 -32.333,-4.388c-3.089,-2.564 -3.138,-2.691 -3.405,-8.8c-0.149,-3.409 -0.786,-7.332 -1.415,-8.719c-0.747,-1.645 -1.145,-5.284 -1.145,-10.476c0,-8.321 -0.471,-9.533 -4.22,-10.864c-0.781,-0.277 -2.401,-2.189 -3.6,-4.248c-1.199,-2.059 -3.486,-5.098 -5.083,-6.753c-2.333,-2.417 -3.076,-3.991 -3.785,-8.013c-0.595,-3.381 -1.52,-5.674 -2.85,-7.065c-1.976,-2.067 -3.584,-7.179 -3.668,-11.66c-0.119,-6.332 -4.794,-6.377 -4.794,-0.046c0,4.642 -3.157,8.164 -8.014,8.941c-2.435,0.389 -4.387,1.395 -6.282,3.235c-4.617,4.484 -16.104,3.22 -16.104,-1.771c0,-0.53 -0.54,-1.411 -1.2,-1.959c-1.593,-1.322 -1.589,-9.234 0.005,-12.291c1.298,-2.49 1.634,-9.743 0.484,-10.454c-0.392,-0.242 -0.957,-1.433 -1.257,-2.647c-0.301,-1.215 -1.474,-3.183 -2.607,-4.375c-1.933,-2.032 -2.029,-2.507 -1.551,-7.657c0.38,-4.088 0.226,-5.881 -0.604,-7.016c-1.002,-1.37 -0.797,-1.925 2.007,-5.447c2.316,-2.908 3.123,-4.661 3.123,-6.779c0,-2.132 0.651,-3.529 2.564,-5.503c1.904,-1.964 2.676,-3.614 3,-6.407c0.399,-3.44 0.845,-4.089 5.236,-7.614c2.917,-2.341 5.314,-5.047 6.11,-6.896c1.934,-4.494 16.007,-14.47 20.462,-14.506c1.675,-0.014 2.82,-3.285 2.775,-7.933c-0.024,-2.461 -0.068,-6.275 -0.099,-8.475c-0.03,-2.2 0.428,-6.265 1.019,-9.032c0.675,-3.157 0.788,-5.21 0.304,-5.509c-1.122,-0.694 -0.196,-10.433 1.394,-14.659c0.745,-1.98 1.629,-6.323 1.963,-9.65c0.612,-6.09 4.541,-16.415 7.032,-18.483c0.832,-0.691 0.989,-1.994 0.608,-5.049c-1.311,-10.486 9.504,-23.677 13.152,-16.042c1.515,3.169 2.345,1.213 2.424,-5.715c0.092,-8.114 8.703,-18.13 20.712,-24.091c5.324,-2.643 7.817,-4.364 8.647,-5.969c0.692,-1.338 2.699,-2.97 4.932,-4.012c2.071,-0.967 3.911,-1.851 4.09,-1.965c0.179,-0.115 -0.59,-1.057 -1.709,-2.094c-9.299,-8.618 3.04,-18.014 20.606,-15.693c10.038,1.327 25.155,1.033 29.721,-0.578c8.869,-3.128 23.329,-3.184 27.491,-0.107m-11.634,30.595c-1.874,2.119 -3.276,2.847 -6.4,3.325l-4,0.611l4.102,0.951c5.807,1.346 5.766,1.288 5.303,7.357c-0.467,6.11 -1.16,7.409 -3.956,7.409c-2.998,0 -4.867,-1.351 -5.433,-3.927c-0.855,-3.891 -3.616,-4.05 -3.616,-0.207c0,1.1 -0.63,2.69 -1.4,3.532c-4.253,4.656 -8.574,8.602 -9.419,8.602c-0.531,0 -1.951,0.775 -3.156,1.723c-2.813,2.213 -19.991,2.638 -21.546,0.533c-0.483,-0.655 -1.779,-1.422 -2.879,-1.705c-2.122,-0.545 -7.2,-4.912 -7.2,-6.192c0,-0.417 -0.498,-0.759 -1.107,-0.759c-1.152,0 -2.063,-2.342 -2.082,-5.353c-0.016,-2.546 -1.478,-3.054 -2.065,-0.717c-0.296,1.179 0.022,3.042 0.777,4.555c1.894,3.797 1.716,6.616 -0.382,6.068c-1.202,-0.315 -2.525,0.431 -4.8,2.706c-1.728,1.728 -3.873,3.141 -4.767,3.141c-0.954,0 -1.902,0.743 -2.295,1.8c-1.123,3.022 -0.353,3.691 3.304,2.87c3.76,-0.845 7.011,-0.302 11.005,1.837c1.534,0.821 3.918,1.493 5.3,1.493c1.381,0 4.041,0.54 5.912,1.2c3.912,1.38 8.58,1.548 11.559,0.416c1.134,-0.432 4.165,-1.123 6.734,-1.537c4.911,-0.791 12.781,-5.422 16.36,-9.627c5.448,-6.4 15.51,-6.829 21.957,-0.935c4.014,3.669 8.811,6.951 11.19,7.657c0.99,0.294 1.8,0.848 1.8,1.231c0,0.383 1.71,0.908 3.8,1.165c2.09,0.258 6.558,1.052 9.93,1.764c5.669,1.198 6.377,1.197 9.416,-0.019c1.808,-0.723 4.149,-1.315 5.204,-1.315c2.252,0 9.255,-2.859 9.239,-3.772c-0.048,-2.746 -1.131,-4.316 -2.704,-3.921c-3.089,0.776 -3.967,-0.533 -3.371,-5.025c0.597,-4.505 -0.188,-5.215 -2.264,-2.046c-0.734,1.12 -2.306,2.466 -3.492,2.991c-1.187,0.524 -2.557,1.468 -3.045,2.097c-1.342,1.73 -17.359,1.624 -19.303,-0.128c-0.775,-0.699 -2.424,-1.524 -3.663,-1.834c-2.282,-0.569 -11.747,-9.063 -11.747,-10.542c0,-0.442 -0.774,-1.789 -1.721,-2.992c-1.467,-1.865 -1.732,-3.296 -1.8,-9.706c-0.09,-8.522 -0.035,-8.443 -3.279,-4.775m-64.411,1.053c-0.007,0.33 -1.447,2.191 -3.2,4.136c-1.754,1.944 -3.189,3.834 -3.189,4.2c0,0.365 -0.54,0.664 -1.2,0.664c-0.66,0 -1.2,0.529 -1.2,1.175c0,1.277 0.633,1.146 6.094,-1.265c3.284,-1.449 4.306,-3.351 4.306,-8.01c0,-1.378 -1.586,-2.263 -1.611,-0.9m-15.794,11.931c-1.535,0.619 -0.34,1.869 1.787,1.869c2.407,0 4.418,-0.767 4.418,-1.686c0,-0.748 -4.474,-0.88 -6.205,-0.183m-23.395,11.069c0,1.185 -0.458,2 -1.125,2c-0.913,0 -0.95,-0.376 -0.2,-1.994c1.158,-2.495 1.325,-2.496 1.325,-0.006m13.562,9.241c-0.639,0.404 -1.972,0.74 -2.962,0.747c-2.194,0.015 -2.224,0.639 -0.15,3.129l1.597,1.918l1.976,-1.857c2.791,-2.621 2.423,-5.762 -0.461,-3.937m-14.362,10.401c0,1.252 0.559,1.558 2.847,1.558c3.267,0 3.06,-1.058 -0.446,-2.28c-2.133,-0.743 -2.401,-0.663 -2.401,0.722m69.2,20.874c-2.625,1.301 -2.769,1.475 -0.8,0.972c3.05,-0.78 7.32,-0.784 10.4,-0.011c2.371,0.595 2.366,0.583 -0.4,-1.004c-3.463,-1.986 -5.122,-1.979 -9.2,0.043m59.2,0.005l-3.2,1.55l2.8,-0.601c3.462,-0.745 6.085,-0.737 9.2,0.025l2.4,0.588l-2,-1.131c-3.435,-1.942 -5.847,-2.055 -9.2,-0.431m-64.626,3.542c-1.074,1.436 -1.138,1.796 -0.262,1.46c0.64,-0.246 1.381,-1.01 1.645,-1.699c0.748,-1.949 0.181,-1.851 -1.383,0.239m17.826,-1.526c0,0.466 0.72,1.763 1.6,2.881c1.971,2.506 2.04,3.792 0.2,3.751c-0.77,-0.017 -2.12,-1.161 -3,-2.544c-0.88,-1.382 -2.14,-2.651 -2.8,-2.82c-0.76,-0.195 -0.583,0.237 0.483,1.177c0.925,0.816 2.119,2.301 2.654,3.3c0.643,1.201 1.559,1.731 2.709,1.567c2.462,-0.353 2.523,-2.238 0.177,-5.418c-1.113,-1.508 -2.023,-2.36 -2.023,-1.894m60.108,2.266c1.644,2.786 3.092,4.235 3.092,3.094c0,-0.913 -3.522,-5.885 -4.173,-5.892c-0.315,-0.003 0.171,1.256 1.081,2.798m-73.714,0.402c-1.018,0.883 -1.687,1.768 -1.488,1.968c0.2,0.199 1.393,-0.523 2.653,-1.605c1.259,-1.083 1.929,-1.968 1.488,-1.968c-0.441,0 -1.635,0.722 -2.653,1.605m57.037,1.615c-1.853,1.749 -3.053,3.18 -2.667,3.18c0.386,0 2.246,-1.44 4.134,-3.2c1.887,-1.76 3.087,-3.191 2.667,-3.18c-0.421,0.011 -2.281,1.451 -4.134,3.2m12.726,-1.42c1.103,0.99 2.227,2.43 2.499,3.2c0.327,0.926 1.247,1.359 2.719,1.28l2.225,-0.12l-2.2,-0.333c-1.21,-0.183 -2.2,-0.787 -2.2,-1.341c0,-1.104 -3.299,-4.486 -4.376,-4.486c-0.37,0 0.23,0.81 1.333,1.8m-75.952,3c0.403,1.478 2.869,2.046 3.995,0.92c0.574,-0.574 0.275,-0.685 -0.967,-0.361c-1.093,0.286 -2.102,0.034 -2.576,-0.644c-0.647,-0.926 -0.723,-0.912 -0.452,0.085m29.615,26.923c-3.61,1.278 -11.42,7.743 -11.42,9.453c0,0.566 -0.523,1.462 -1.163,1.993c-3.428,2.845 -4.155,12.291 -1.011,13.134c2.483,0.665 50.131,0.462 52.574,-0.225c7.006,-1.969 -3.099,-21.877 -12.54,-24.706c-4.642,-1.39 -22.179,-1.158 -26.44,0.351m26.048,0.771c2.279,0.455 6.562,3.982 9.923,8.17c1.792,2.233 4.826,11.216 4.274,12.654c-0.35,0.914 -5.007,1.067 -27.044,0.893l-26.621,-0.211l-0.246,-3.399c-0.303,-4.195 5.734,-14.601 8.47,-14.601c0.401,0 1.361,-0.7 2.135,-1.555c1.949,-2.153 21.535,-3.466 29.109,-1.951" id="path5"/>
   <path opacity="0" fill-rule="evenodd" fill="#ffffff" d="m217.571875,49.932875c-2.2,0.323 -5.735,1.2 -7.857,1.948c-4.566,1.611 -19.683,1.905 -29.721,0.578c-10.82,-1.43 -21.923,1.872 -23.184,6.895c-1.41,5.621 2.381,10.668 8.012,10.668c2.022,0 3.553,0.408 3.751,1c0.184,0.55 0.519,0.033 0.746,-1.148c0.407,-2.125 0.371,-2.143 -3.268,-1.718c-5.035,0.588 -8.079,-1.698 -8.079,-6.068c0,-7.234 12.223,-10.633 27.632,-7.685c7.968,1.525 15.571,0.95 28.199,-2.132c17.272,-4.215 27.973,-0.551 24.97,8.548c-1.306,3.956 -3.426,4.477 -17.737,4.362c-8.93,-0.073 -13.075,0.186 -13.895,0.867c-1.479,1.228 -1.527,5.266 -0.068,5.825c0.605,0.232 1.088,0.001 1.074,-0.514c-0.134,-4.717 -1.08,-4.413 14.592,-4.687c15.808,-0.275 16.053,-0.356 17.272,-5.713c2.056,-9.027 -6.714,-13.337 -22.439,-11.026m24.4,17.018c-1.54,0.9 -2.08,1.435 -1.2,1.188c0.88,-0.246 3.123,-0.896 4.985,-1.443c2.691,-0.792 4.248,-0.794 7.6,-0.009c4.979,1.166 8.953,1.893 6.615,1.21c-0.88,-0.257 -2.31,-0.964 -3.178,-1.571c-2.485,-1.739 -11.424,-1.362 -14.822,0.625m-7.434,4.271c-2.864,3.589 -1.787,3.574 1.795,-0.025c1.683,-1.691 2.308,-2.775 1.6,-2.775c-0.638,0 -2.166,1.26 -3.395,2.8m29.252,-1.2c1.119,0.88 2.28,1.6 2.58,1.6c0.905,0 5.164,4.177 8.07,7.915c1.502,1.933 2.732,3.089 2.732,2.568c0,-0.986 -3.206,-5.902 -4.125,-6.325c-0.289,-0.133 -1.635,-1.303 -2.993,-2.6c-1.357,-1.297 -2.972,-2.358 -3.589,-2.358c-0.617,0 -1.329,-0.54 -1.582,-1.2c-0.254,-0.66 -1.061,-1.2 -1.794,-1.2c-1.01,0 -0.84,0.387 0.701,1.6m-33.934,7.712c-2.1,2.375 -1.52,16.172 0.804,19.127c0.941,1.197 1.712,2.539 1.712,2.981c0,1.479 9.465,9.973 11.747,10.542c1.239,0.31 2.888,1.135 3.663,1.834c1.944,1.752 17.961,1.858 19.303,0.128c0.488,-0.629 1.858,-1.573 3.045,-2.097c1.186,-0.525 2.758,-1.871 3.492,-2.991c2.076,-3.169 2.861,-2.459 2.264,2.046c-0.597,4.495 0.281,5.801 3.377,5.024c1.708,-0.429 3.386,2.751 2.343,4.439c-0.228,0.369 -0.001,1.858 0.504,3.308c1.535,4.401 2.526,0.051 1.498,-6.573c-1.165,-7.505 -1.086,-8.3 1.066,-10.802c3.068,-3.567 5.642,-1.9 5.872,3.803c0.477,11.837 0.924,14.855 2.631,17.747c2.005,3.399 1.716,5.091 -0.956,5.601c-1.453,0.277 -1.313,0.376 0.651,0.462c2.17,0.095 2.563,-0.206 2.978,-2.282c0.577,-2.883 -0.05,-4.809 -1.564,-4.809c-1.498,0 -1.427,-2.909 0.086,-3.489c1.428,-0.548 1.569,-4.989 0.306,-9.711c-0.47,-1.76 -1.038,-4.347 -1.262,-5.75c-0.653,-4.087 -4.895,-6.654 -7.521,-4.551c-2.578,2.064 -8.717,2.169 -8.786,0.15c-0.04,-1.18 -0.221,-1.415 -0.498,-0.649c-0.836,2.306 -5.471,6.523 -9.439,8.587c-6.556,3.411 -12.189,3.042 -22.4,-1.469c-9.624,-4.251 -17.32,-19.104 -14.022,-27.064c1.41,-3.405 0.872,-5.539 -0.894,-3.542m-15.353,8.739c0.408,2.976 0.185,4.07 -1.216,5.964c-1.812,2.451 -2.099,3.246 -1.115,3.09c1.788,-0.282 2.525,0.332 3.001,2.502c0.58,2.637 2.43,3.993 5.448,3.993c2.797,0 3.489,-1.299 3.956,-7.42c0.469,-6.139 0.306,-6.347 -5.805,-7.435c-3.476,-0.619 -3.517,-0.659 -1.2,-1.167c2.11,-0.463 2.207,-0.597 0.8,-1.111c-0.88,-0.321 -2.223,-0.916 -2.984,-1.322c-1.247,-0.666 -1.335,-0.378 -0.885,2.906m62.703,-2.051c0.012,0.66 0.537,2.1 1.166,3.2c0.629,1.1 1.143,3.08 1.143,4.4c0,1.32 -0.514,3.3 -1.143,4.4c-1.659,2.903 -1.451,3.735 0.4,1.6c2.187,-2.522 2.187,-9.098 0,-12.4c-0.874,-1.32 -1.579,-1.86 -1.566,-1.2m-115.142,4.58c-0.107,2.068 -9.692,7.033 -9.692,5.02c0,-0.412 -0.57,-0.531 -1.267,-0.264c-1.022,0.392 -1.061,0.62 -0.2,1.175c0.873,0.564 0.849,0.832 -0.133,1.477c-2.241,1.471 -5.597,0.898 -7.638,-1.305c-1.079,-1.164 -1.962,-1.938 -1.962,-1.719c0,0.713 1.733,5.779 2.817,8.236c1.778,4.029 3.293,18.599 2.129,20.464c-0.906,1.451 -0.856,1.494 0.645,0.556c1.671,-1.044 2.79,-3.335 2.155,-4.413c-0.763,-1.295 1.056,-4.207 2.628,-4.207c0.894,0 3.039,-1.413 4.767,-3.141c2.275,-2.275 3.598,-3.021 4.8,-2.706c2.098,0.548 2.276,-2.271 0.382,-6.068c-0.755,-1.513 -1.073,-3.376 -0.777,-4.555c0.587,-2.337 2.049,-1.829 2.065,0.717c0.019,3.011 0.93,5.353 2.082,5.353c0.609,0 1.107,0.342 1.107,0.759c0,1.28 5.078,5.647 7.2,6.192c1.1,0.283 2.396,1.05 2.879,1.705c1.555,2.105 18.733,1.68 21.546,-0.533c1.205,-0.948 2.625,-1.723 3.156,-1.723c0.845,0 5.166,-3.946 9.419,-8.602c0.77,-0.842 1.4,-2.203 1.4,-3.023c0,-1.063 -0.682,-0.563 -2.378,1.743c-2.754,3.745 -9.302,9.08 -11.153,9.087c-0.698,0.003 -2.349,0.61 -3.669,1.349c-1.611,0.902 -4.241,1.344 -8,1.344c-3.759,0 -6.389,-0.442 -8,-1.344c-1.32,-0.739 -2.779,-1.346 -3.242,-1.349c-1.389,-0.008 -7.558,-4.865 -7.558,-5.95c0,-0.554 -0.675,-1.617 -1.499,-2.364c-0.825,-0.746 -1.722,-2.692 -1.995,-4.324c-0.96,-5.744 -1.922,-9.369 -2.014,-7.587m-29.981,3.02c-0.254,0.66 -1.029,1.2 -1.724,1.2c-1.249,0 -5.113,3.786 -5.162,5.057c-0.014,0.362 -0.565,1.197 -1.225,1.857c-0.792,0.793 -1.219,2.879 -1.256,6.143c-0.079,6.931 -0.909,8.889 -2.424,5.719c-2.447,-5.121 -7.868,-1.852 -11.589,6.987c-2.532,6.018 -2.229,11.522 0.815,14.806l1.871,2.018l-1.482,-4.294c-1.813,-5.25 -1.832,-5.804 -0.362,-10.748c2.366,-7.96 8.427,-11.878 8.427,-5.447c0,1.046 0.432,1.902 0.96,1.902c0.747,0 0.747,0.213 0,0.96c-1.297,1.297 -1.208,2.906 0.24,4.354c0.66,0.66 1.2,2.08 1.2,3.156c0,1.443 0.725,2.302 2.767,3.275c1.522,0.726 2.92,1.89 3.107,2.587c0.187,0.698 0.382,0.098 0.433,-1.332c0.088,-2.456 -0.062,-2.6 -2.707,-2.6c-2.255,0 -2.8,-0.308 -2.8,-1.58c0,-1.726 0.838,-1.566 6.25,1.195c3.505,1.788 4.372,0.739 1.372,-1.659c-1.699,-1.357 -2.661,-3.109 -3.366,-6.128c-1.217,-5.207 -1.398,-13.595 -0.256,-11.828c0.427,0.66 0.781,1.93 0.788,2.822c0.006,0.892 0.732,2.239 1.612,2.992c0.88,0.754 1.6,2.045 1.6,2.87c0,2.062 3.01,5.716 4.708,5.716c5.239,0 6.801,-9.842 2.357,-14.852c-0.806,-0.908 -1.471,-2.708 -1.477,-4c-0.021,-3.934 -1.075,-4.892 -4.119,-3.744c-1.431,0.541 -2.905,0.68 -3.275,0.31c-0.966,-0.966 5.048,-6.638 8.277,-7.806l2.729,-0.986l-2.914,-0.061c-1.896,-0.04 -3.076,0.358 -3.375,1.139m5.889,24.708c0,0.557 -0.889,1.849 -1.977,2.87l-1.976,1.857l-1.597,-1.918c-2.074,-2.49 -2.044,-3.114 0.15,-3.129c0.99,-0.007 2.323,-0.343 2.962,-0.747c1.352,-0.856 2.438,-0.38 2.438,1.067m117.737,29.275c1.176,0.355 2.616,0.89 3.2,1.19c0.585,0.3 0.364,-0.021 -0.49,-0.714c-0.854,-0.692 -2.294,-1.228 -3.2,-1.19c-1.322,0.055 -1.225,0.196 0.49,0.714m-197.537,135.242c-1.546,0.621 -1.781,1.264 -1.666,4.549c0.122,3.462 0.165,3.541 0.448,0.838c0.492,-4.696 5.148,-7.15 7.232,-3.812c1.183,1.893 4.373,2.098 6.08,0.391c1.079,-1.078 1.533,-0.989 4.207,0.826l2.998,2.034l1.772,-2.223l1.773,-2.223l3.678,1.787c4.023,1.955 4.261,2.617 2.478,6.885c-0.66,1.579 -1.2,4.137 -1.2,5.683c0,2.117 -0.675,3.506 -2.733,5.625c-1.504,1.548 -2.346,2.815 -1.872,2.815c2.148,0 5.405,-5.089 5.405,-8.446c0,-2.009 0.482,-3.758 1.2,-4.354c0.681,-0.565 1.2,-2.309 1.2,-4.033c0,-5.032 -6.819,-8.282 -10,-4.767c-1.836,2.028 -2.861,2.012 -5.531,-0.089c-1.983,-1.56 -2.255,-1.59 -3.571,-0.4c-1.951,1.766 -4.666,1.618 -5.698,-0.311c-0.907,-1.694 -3.2,-1.981 -6.2,-0.775m267.712,1.775c-0.929,1.77 -0.917,1.776 0.706,0.336c6.239,-5.536 12.252,9.467 6.262,15.624c-1.584,1.629 -2.88,3.702 -2.88,4.608c0,1.704 -3.492,5.85 -5.6,6.65c-0.861,0.327 -0.742,0.474 0.422,0.519c2.276,0.088 5.978,-4.382 5.978,-7.219c0,-1.379 0.425,-2.318 1.05,-2.318c3.703,0 6.016,-10.217 3.413,-15.077c-0.626,-1.167 -1.334,-2.753 -1.575,-3.523c-0.7,-2.238 -6.55,-1.937 -7.776,0.4m-9.675,2.104c-0.58,0.828 -1.77,1.686 -2.645,1.908c-1.501,0.379 -1.494,0.408 0.116,0.495c1.009,0.055 2.244,-0.726 3.018,-1.907c1.515,-2.311 1.087,-2.745 -0.489,-0.496m4.414,-0.691c1.238,0.372 2.768,1.105 3.4,1.629c0.776,0.645 1.149,0.672 1.149,0.084c0,-1.196 -2.706,-2.54 -4.947,-2.457c-1.668,0.062 -1.628,0.136 0.398,0.744m-12.297,4.587c-1.856,3.703 -1.841,3.89 0.11,1.4c1.034,-1.32 2.253,-2.664 2.708,-2.988c0.496,-0.351 0.317,-0.592 -0.444,-0.6c-0.699,-0.006 -1.767,0.978 -2.374,2.188m-253.574,3.852c-1.231,3.238 -0.971,10.394 0.42,11.548c0.66,0.548 1.2,1.429 1.2,1.959c0,5.04 11.491,6.251 16.173,1.704c1.549,-1.505 3.855,-2.891 5.122,-3.08l2.305,-0.343l-2.499,-0.12c-1.842,-0.088 -3.304,0.617 -5.557,2.68c-8.184,7.496 -16.958,1.221 -15.79,-11.293c0.499,-5.335 -0.046,-6.546 -1.374,-3.055m251.364,9.504c-0.161,4.419 2.602,8.439 5.806,8.449c0.907,0.003 2.681,0.543 3.941,1.2c2.854,1.488 3.698,1.47 5.709,-0.123c1.539,-1.219 1.509,-1.25 -0.8,-0.83c-6.987,1.27 -13.738,-2.986 -14.217,-8.964l-0.295,-3.688l-0.144,3.956" id="path6"/>
   <path opacity="0" fill-rule="evenodd" fill="#ffffff" d="m213.571875,52.291875c-11.432,2.973 -20.075,3.621 -28.02,2.101c-15.356,-2.938 -27.58,0.472 -27.58,7.695c0,4.37 3.044,6.656 8.079,6.068c3.554,-0.415 3.667,-0.364 3.307,1.518c-0.205,1.071 -0.627,1.948 -0.937,1.948c-5.394,0 -7.377,24.74 -2.348,29.291c0.824,0.747 1.499,1.81 1.499,2.364c0,1.085 6.169,5.942 7.558,5.95c0.463,0.003 1.922,0.61 3.242,1.349c2.838,1.59 13.137,1.953 14.877,0.524c0.618,-0.507 2.629,-1.324 4.47,-1.816c3.994,-1.068 12.704,-9.182 13.563,-12.635c0.304,-1.225 1.266,-3.196 2.137,-4.379c1.786,-2.428 1.478,-8.652 -0.544,-10.99c-0.598,-0.692 -1.303,-2.158 -1.566,-3.258c-0.263,-1.1 -1.571,-3.192 -2.908,-4.649c-6.013,-6.559 -3.295,-8.321 12.635,-8.192c14.392,0.116 16.428,-0.395 17.767,-4.454c2.945,-8.923 -8.563,-12.771 -25.231,-8.435m19.158,1.714c2.818,1.072 3.982,3.818 2.863,6.761l-0.874,2.3l-14.674,-0.463c-16.384,-0.516 -16.473,-0.491 -16.473,4.61c0,2.682 0.564,3.895 3.127,6.727c11.975,13.233 1.741,32.881 -17.127,32.881c-23.276,0 -34.129,-27.599 -15.051,-38.275c2.658,-1.488 0.107,-2.525 -6.213,-2.525c-5.974,0 -6.426,-0.121 -7.258,-1.949c-2.936,-6.444 8.384,-9.425 25.722,-6.773c3.74,0.572 7.16,0.928 7.6,0.79c0.44,-0.137 3.32,-0.374 6.4,-0.527c3.08,-0.153 8.48,-1.169 12,-2.257c6.815,-2.107 16.224,-2.72 19.958,-1.3m-43.958,10.416c-1.235,0.531 -0.813,0.7 1.847,0.744c2.107,0.034 3.255,-0.255 2.953,-0.744c-0.588,-0.951 -2.586,-0.951 -4.8,0m53.815,3.125c-17.263,6.319 -15.843,32.83 2.185,40.793c10.211,4.511 15.844,4.88 22.4,1.469c7.068,-3.677 13.235,-13.223 12.153,-18.813c-1.767,-9.137 -8.436,-17.659 -16.953,-21.663c-7.074,-3.326 -13.897,-3.942 -19.785,-1.786m19.353,3.813c22.939,10.847 18.111,39.313 -6.077,35.826c-4.269,-0.615 -11.562,-3.722 -13.107,-5.583c-0.539,-0.65 -1.319,-1.181 -1.734,-1.181c-0.857,0 -4.278,-3.883 -6.641,-7.539c-1.259,-1.949 -1.59,-3.829 -1.588,-9.039l0.002,-6.578l3.538,-3.604c5.679,-5.787 16.231,-6.735 25.607,-2.302m-80.874,0.295c-3.914,1.551 -8.503,5.225 -7.624,6.103c0.286,0.287 1.152,-0.017 1.925,-0.675c2.283,-1.944 8.115,-4.66 10.03,-4.672c2.627,-0.016 5.375,-0.876 5.375,-1.682c0,-1.184 -5.775,-0.633 -9.706,0.926m64.273,2.567c-0.825,0.996 -0.435,1.024 9.633,0.676c1.21,-0.042 2.2,-0.436 2.2,-0.876c0,-1.196 -10.828,-1.013 -11.833,0.2m19.033,5.062c0,0.929 4.888,5.317 5.378,4.827c0.278,-0.278 -0.526,-1.582 -1.786,-2.897c-2.136,-2.23 -3.592,-3.012 -3.592,-1.93m6.007,7.538c0.953,3.25 2.177,4.792 1.587,2c-0.279,-1.32 -0.882,-2.76 -1.341,-3.2c-0.574,-0.551 -0.65,-0.178 -0.246,1.2m-136.108,5.588c-5.356,2.163 -8.895,9.004 -3.63,7.016c3.044,-1.148 4.098,-0.19 4.119,3.744c0.006,1.292 0.671,3.092 1.477,4c4.444,5.01 2.882,14.852 -2.357,14.852c-1.698,0 -4.708,-3.654 -4.708,-5.716c0,-0.825 -0.72,-2.116 -1.6,-2.87c-0.88,-0.753 -1.606,-2.1 -1.612,-2.992c-0.007,-0.892 -0.361,-2.162 -0.788,-2.822c-1.133,-1.753 -0.966,6.611 0.234,11.695c1.157,4.905 5.102,9.105 8.551,9.105c3.538,0 10.706,-3.554 11.984,-5.943c1.315,-2.457 -0.002,-16.458 -1.962,-20.857c-0.588,-1.32 -1.489,-3.753 -2.002,-5.406c-1.288,-4.149 -3.793,-5.386 -7.706,-3.806m4.82,4.212c1.448,2.255 3.244,11.301 2.584,13.019c-0.719,1.876 -1.847,0.796 -2.433,-2.33c-0.282,-1.5 -1.033,-3.161 -1.67,-3.689c-0.637,-0.528 -1.393,-2.213 -1.68,-3.744c-0.287,-1.531 -1.047,-2.985 -1.688,-3.231c-0.954,-0.366 -0.972,-0.571 -0.099,-1.124c1.865,-1.182 3.794,-0.757 4.986,1.099m145.267,8.399c-1.552,1.974 -1.665,2.734 -1.096,7.4c0.349,2.861 0.652,7.181 0.672,9.601c0.055,6.422 3.576,10.649 8.143,9.776c2.838,-0.543 3.144,-2.083 1.1,-5.548c-1.703,-2.885 -2.145,-5.857 -2.631,-17.657c-0.247,-6.003 -3.018,-7.602 -6.188,-3.572m3.106,10.001l-0.108,9.8l-0.74,-7.2c-0.664,-6.465 -0.381,-12.4 0.592,-12.4c0.2,0 0.316,4.41 0.256,9.8m-175.043,-0.141c-9.126,12.598 0.975,29.675 12.148,20.538c2.815,-2.302 2.277,-4.684 -1.459,-6.466c-2.015,-0.96 -2.738,-1.822 -2.738,-3.261c0,-1.076 -0.54,-2.496 -1.2,-3.156c-0.738,-0.738 -1.2,-2.699 -1.2,-5.097c0,-6.461 -2.042,-7.402 -5.551,-2.558m4.267,5.425c0.291,1.916 1.104,4.595 1.807,5.953c2.663,5.15 2.782,6.906 0.508,7.477c-7.156,1.796 -10.623,-8.283 -5.641,-16.401c1.885,-3.074 2.488,-2.535 3.326,2.971m71.647,11.224c-14.826,4.85 -19.733,23.938 -8.865,34.485c20.308,19.709 47.923,-7.893 29.392,-29.377c-3.77,-4.371 -14.567,-7.057 -20.527,-5.108m60.037,-0.243c-6.631,2.412 -13.568,8.184 -13.625,11.337c-0.014,0.769 -0.554,2.097 -1.2,2.951c-1.56,2.061 -1.56,10.033 0,12.094c0.646,0.854 1.186,2.219 1.2,3.033c0.077,4.503 11.408,11.906 18.424,12.038c6.159,0.115 17.601,-5.935 17.601,-9.307c0,-0.372 0.757,-1.7 1.683,-2.952c3.887,-5.258 1.584,-17.302 -4.573,-23.911c-3.792,-4.07 -14.714,-7.027 -19.51,-5.283m-45.773,3.056c16.147,8.22 14.304,30.34 -2.977,35.717l-5.15,1.602l-5.29,-1.637c-9.979,-3.088 -13.217,-7.631 -13.192,-18.508l0.017,-7.773l3.256,-3.861c6.215,-7.369 15.44,-9.559 23.336,-5.54m59.023,-0.005c13.141,6.377 15.096,23.479 3.695,32.321c-14.793,11.472 -35.039,-1.883 -30.31,-19.993c3.015,-11.543 15.916,-17.519 26.615,-12.328m-73.492,11.637c-5.282,3.383 -7.73,8.189 -5.669,11.131c1.154,1.648 5.911,1.061 5.911,-0.73c0,-4.806 7.806,-5.78 11.966,-1.494c4.183,4.311 6.717,4.168 7.091,-0.4c0.611,-7.48 -12.132,-13.097 -19.299,-8.507m58.509,0.463c-4.981,3.264 -7.032,8.099 -4.507,10.624c1.558,1.558 2.721,1.141 6.24,-2.24c2.542,-2.442 3.969,-3.2 6.028,-3.2c2.184,0 3.185,0.608 5.268,3.2c2.843,3.538 5.708,4.209 7.073,1.658c1.253,-2.342 -2.66,-9.658 -5.166,-9.658c-0.554,0 -1.455,-0.54 -2.003,-1.2c-1.655,-1.994 -9.39,-1.505 -12.933,0.816m-46.245,0.107c6.65,4.447 8.867,9.877 4.032,9.877c-1.624,0 -2.499,-0.481 -2.841,-1.56c-1.571,-4.948 -7.738,-5.81 -11.709,-1.635c-3.752,3.944 -6.593,4.553 -6.948,1.491c-0.71,-6.126 11.784,-11.973 17.466,-8.173m58.81,0.192c3.426,1.836 6.61,5.142 6.807,7.069c0.47,4.586 -1.264,4.532 -5.914,-0.184c-2.23,-2.263 -4.255,-3.6 -5.451,-3.6c-1.945,0 -7.874,3.54 -7.874,4.7c0,2.041 -3.994,2.404 -4.494,0.409c-1.567,-6.243 10.123,-12.04 16.926,-8.394m-200.298,135.885c-2.095,1.785 -3.79,16.482 -2.457,21.308c1.769,6.407 10.124,8.186 15.467,3.292c2.261,-2.071 3.778,-2.8 5.823,-2.8c3.879,0 8.233,-4.464 8.233,-8.44c0,-1.546 0.54,-4.104 1.2,-5.683c1.783,-4.268 1.545,-4.93 -2.478,-6.885l-3.678,-1.787l-1.773,2.223l-1.772,2.223l-2.998,-2.034c-2.674,-1.815 -3.128,-1.904 -4.207,-0.826c-1.707,1.707 -4.897,1.502 -6.08,-0.391c-1.231,-1.972 -3.117,-2.043 -5.28,-0.2m267.624,0.825c-0.747,0.826 -1.358,1.967 -1.358,2.536c0,0.797 -0.258,0.821 -1.122,0.103c-2.792,-2.316 -6.039,-2.467 -7.429,-0.345c-0.938,1.431 -1.846,1.915 -3.133,1.669c-6.239,-1.193 -9.909,15.35 -4.516,20.354c6.343,5.885 21,2.972 21,-4.174c0,-0.906 1.296,-2.979 2.88,-4.608c2.62,-2.693 2.848,-3.285 2.52,-6.56c-0.815,-8.155 -5.385,-12.794 -8.842,-8.975m-262.6,1.562l1.881,2.186l2.936,-1.4c2.846,-1.357 3.001,-1.351 4.989,0.213c2.605,2.049 4.747,2.054 6.022,0.014c1.149,-1.84 3.995,-2.11 5.327,-0.505c3.615,4.357 -4.159,18.917 -9.09,17.025c-0.696,-0.268 -2.419,0.717 -4.201,2.402c-3.234,3.055 -9.653,3.542 -12.757,0.966c-1.944,-1.614 -1.244,-19.081 0.859,-21.404c1.904,-2.103 1.779,-2.119 4.034,0.503m267.957,0.681c1.871,4.875 1.481,9.653 -1.021,12.502c-1.372,1.563 -2.494,3.536 -2.494,4.386c0,5.944 -13.278,8.863 -17.855,3.925c-4.59,-4.953 -1.922,-18.919 3.351,-17.54c0.939,0.246 2.22,-0.257 3.23,-1.267c1.799,-1.799 3.676,-2.165 4.474,-0.874c0.869,1.406 4.302,0.878 5.2,-0.8c1.025,-1.915 4.423,-2.136 5.115,-0.332" id="path7"/>
   <path fill-rule="evenodd" fill="#ffffff" d="m212.771875,55.305875c-3.52,1.088 -8.92,2.104 -12,2.257c-3.08,0.153 -5.96,0.39 -6.4,0.527c-0.44,0.138 -3.86,-0.218 -7.6,-0.79c-17.338,-2.652 -28.658,0.329 -25.722,6.773c0.832,1.828 1.284,1.949 7.258,1.949c6.32,0 8.871,1.037 6.213,2.525c-19.078,10.676 -8.225,38.275 15.051,38.275c18.868,0 29.102,-19.648 17.127,-32.881c-2.563,-2.832 -3.127,-4.045 -3.127,-6.727c0,-5.101 0.089,-5.126 16.473,-4.61l14.674,0.463l0.874,-2.3c2.767,-7.279 -8.342,-9.937 -22.821,-5.461m-19.2,9.116c0.302,0.489 -0.846,0.778 -2.953,0.744c-2.66,-0.044 -3.082,-0.213 -1.847,-0.744c2.214,-0.951 4.212,-0.951 4.8,0m49.549,4.855c-2.171,0.521 -4.425,1.977 -6.788,4.385l-3.538,3.604l-0.002,6.578c-0.002,5.21 0.329,7.09 1.588,9.039c2.363,3.656 5.784,7.539 6.641,7.539c0.415,0 1.195,0.531 1.734,1.181c5.143,6.197 21.505,7.645 28.26,2.501c17.07,-12.998 -4.846,-40.36 -27.895,-34.827m-52.349,1.486c0,0.408 -0.63,0.906 -1.4,1.108c-1.031,0.269 -0.916,0.39 0.44,0.458c1.012,0.051 2.873,0.628 4.137,1.281c1.77,0.915 2.389,0.961 2.697,0.2c0.248,-0.613 0.424,-0.492 0.463,0.319c0.035,0.718 0.693,1.544 1.463,1.835c12.158,4.586 9.077,22.496 -4.352,25.292c-18.73,3.901 -31.38,-13.746 -18.826,-26.262c3.372,-3.362 15.378,-6.665 15.378,-4.231m66.4,3.206c0,0.411 -0.99,0.897 -2.2,1.08c-2.076,0.314 -2.055,0.34 0.364,0.453c1.411,0.066 3.884,1.015 5.495,2.109c1.612,1.093 3.275,1.776 3.695,1.516c2.042,-1.262 7.846,7.642 7.846,12.035c0,14.501 -21.856,16.292 -31.552,2.585c-6.896,-9.749 -1.206,-20.391 10.952,-20.484c2.97,-0.022 5.4,0.295 5.4,0.706" id="path8"/>
   <path opacity="0" fill-rule="evenodd" fill="#ffffff" d="m179.419875,74.498875c-11.032,5.734 -12.356,12.743 -3.989,21.11c10.977,10.975 30.811,5.613 30.48,-8.239c-0.162,-6.798 -3.488,-10.514 -5.443,-6.082c-3.106,7.039 -14.496,5.029 -14.496,-2.558c0,-1.658 0.36,-3.236 0.8,-3.508c4.554,-2.815 -2.074,-3.466 -7.352,-0.723m64.552,1.135c-10.877,4.831 -6.249,20.251 7.665,25.54c15.663,5.953 26.968,-7.567 15.611,-18.669l-2.447,-2.392l-0.597,3.497c-1.678,9.827 -14.3,5.485 -13.054,-4.49l0.537,-4.298l-3.057,0.051c-1.682,0.028 -3.778,0.37 -4.658,0.761m-104.703,22.788c0.285,1.32 0.835,2.94 1.222,3.6c0.45,0.768 0.516,0.336 0.184,-1.2c-0.285,-1.32 -0.835,-2.94 -1.222,-3.6c-0.45,-0.768 -0.516,-0.336 -0.184,1.2m147.743,22c0,2.42 0.15,3.41 0.333,2.2c0.183,-1.21 0.183,-3.19 0,-4.4c-0.183,-1.21 -0.333,-0.22 -0.333,2.2m-169.44,12.8l-1.6,0.688l1.6,0.044c0.88,0.024 2.14,-0.305 2.8,-0.732c1.59,-1.028 -0.408,-1.028 -2.8,0" id="path9"/>
  </g>
 </g>
</svg>