<?xml version="1.0"?>
<svg width="500.00000000000006" height="500.00000000000006" xmlns="http://www.w3.org/2000/svg" xmlns:svg="http://www.w3.org/2000/svg">
 <g>
  <title>Layer 1</title>
  <g id="svgg">
   <path id="path0" d="m177.146,98.771c-17.621,8.483 -23.681,36.786 -9.361,43.719c6.432,3.113 25.815,0.44 25.815,-3.561c0,-0.414 0.629,-1.213 1.399,-1.775c0.769,-0.563 1.1,-1.322 0.734,-1.687c-0.365,-0.366 -1.124,-0.035 -1.687,0.734c-2.666,3.647 -13.079,0.878 -17.412,-4.631c-2.678,-3.404 -2.665,-15.913 0.021,-21.003c3.663,-6.943 8.552,-10.567 14.253,-10.567c4.719,0 6.258,-1.196 3.088,-2.401c-4.032,-1.533 -12.447,-0.948 -16.85,1.172m74.538,-0.464c-1.655,0.65 1.669,4.093 3.952,4.093c6.364,0 13.489,11.676 13.531,22.173l0.033,8.174l-2.8,2.394c-1.794,1.534 -3.71,2.406 -5.335,2.426c-6.357,0.082 -6.514,1.69 -0.383,3.926c25.299,9.224 30.887,-22.032 6.841,-38.261c-5.917,-3.993 -12.777,-6.126 -15.839,-4.925m-55.536,11.04c-1.568,0.627 -2.572,3.931 -2.026,6.663c0.714,3.572 3.921,4.166 6.474,1.199c3.471,-4.036 0.245,-9.739 -4.448,-7.862m47.407,3.81c-0.721,3.846 0.542,7.09 3.114,7.999c2.822,0.997 3.949,-0.189 3.949,-4.154c0,-6.681 -5.925,-9.907 -7.063,-3.845m-22.155,34.594c-2.449,0.641 1.438,5.486 6.629,8.265c2.706,1.448 8.771,-3.47 8.771,-7.111c0,-1.484 -10.987,-2.307 -15.4,-1.154m-23.267,37.582c-0.981,0.982 -0.547,3.726 0.832,5.249c3.633,4.015 1.044,15.262 -4.669,20.285c-10.327,9.079 -28.696,1.673 -28.696,-11.57c0,-6.095 -1.037,-6.541 -6.2,-2.661c-5.261,3.954 0.918,15.42 10.984,20.382c18.741,9.237 43.768,-10.333 36.766,-28.75c-1.199,-3.153 -6.932,-5.019 -9.017,-2.935m52.267,0.849c-4.115,0.749 -5.022,2.465 -4.554,8.618c2.063,27.151 36.709,34.164 48.995,9.918c2.538,-5.006 2.469,-6.44 -0.409,-8.568c-3.835,-2.835 -7.654,-2.261 -6.478,0.975c0.763,2.098 -0.217,7.939 -1.609,9.591c-3.07,3.644 -5.442,5.56 -8.611,6.957c-3.617,1.593 -10.108,2.063 -10.896,0.789c-0.251,-0.407 -1.478,-0.963 -2.726,-1.237c-7.279,-1.599 -12.838,-14.308 -9.414,-21.524c0.678,-1.427 1.026,-3.384 0.774,-4.348c-0.453,-1.733 -1.128,-1.889 -5.072,-1.171m-58.803,5.824c-0.626,1.012 1.601,1.92 3.203,1.305c0.66,-0.254 1.2,-0.832 1.2,-1.286c0,-1.063 -3.748,-1.079 -4.403,-0.019m90.407,3.188c-0.973,1.573 0.777,3.475 1.925,2.092c1.012,-1.22 0.591,-2.886 -0.729,-2.886c-0.388,0 -0.926,0.357 -1.196,0.794m-62.957,48.262c-6.849,1.095 -7.775,1.602 -6.545,3.582c4.005,6.45 33.098,5.236 33.098,-1.381c0,-2.618 -15.772,-3.925 -26.553,-2.201m-9.847,17.438c-1.32,0.416 -4.38,1.125 -6.8,1.575c-13.192,2.456 -28.102,10.881 -35.273,19.931c-17.251,21.771 -11.794,45.774 11.914,52.409c18.153,5.079 56.346,3.421 70.559,-3.064c27.33,-12.469 28.815,-53.474 2.4,-66.29c-10.396,-5.043 -33.466,-7.502 -42.8,-4.561" fill="#ffffff" fill-rule="evenodd"/>
   <path id="path1" d="m177.786,40.8c0.549,0.88 1.316,1.6 1.704,1.6c0.388,0 0.305,-0.483 -0.185,-1.074c-0.49,-0.59 -0.654,-1.31 -0.365,-1.6c0.29,-0.289 -0.076,-0.526 -0.813,-0.526c-1.14,0 -1.191,0.239 -0.341,1.6m17.414,9.181c0,0.722 0.329,1.11 0.732,0.861c0.402,-0.248 0.936,0 1.186,0.553c0.249,0.553 0.37,0.315 0.268,-0.529c-0.23,-1.9 -2.186,-2.693 -2.186,-0.885m15.195,12.41c0.468,0.874 1.729,1.81 2.801,2.08c1.073,0.269 1.873,0.777 1.777,1.129c-0.265,0.981 1.347,1.039 1.674,0.06c0.157,-0.472 -0.346,-1.102 -1.119,-1.398c-0.773,-0.297 -2.063,-1.197 -2.867,-2.001c-2.005,-2.005 -3.367,-1.927 -2.266,0.13m-70.795,2.409c-0.272,0.44 0.268,0.8 1.2,0.8c0.932,0 1.472,-0.36 1.2,-0.8c-0.272,-0.44 -0.812,-0.8 -1.2,-0.8c-0.388,0 -0.928,0.36 -1.2,0.8m77.353,3.26c0.158,0.473 0.638,0.859 1.067,0.857c0.429,-0.002 1.068,0.511 1.42,1.14c0.352,0.629 1.135,1.143 1.741,1.143c0.606,0 1.266,0.63 1.468,1.4c0.275,1.054 0.388,0.955 0.458,-0.4c0.065,-1.262 -0.357,-1.8 -1.414,-1.8c-0.834,0 -1.693,-0.714 -1.925,-1.6c-0.23,-0.88 -1.022,-1.6 -1.76,-1.6c-0.738,0 -1.212,0.387 -1.055,0.86m16.646,6.703c2.139,1.184 2.887,1.07 2.034,-0.31c-0.29,-0.469 -1.316,-0.84 -2.28,-0.825c-1.691,0.028 -1.682,0.068 0.246,1.135m11.895,2.755c0.602,0.381 1.407,1.186 1.788,1.788c0.511,0.806 0.697,0.62 0.706,-0.706c0.009,-1.341 -0.447,-1.797 -1.788,-1.788c-1.326,0.009 -1.512,0.195 -0.706,0.706m8.906,3.329c0,0.466 0.36,0.625 0.8,0.353c0.44,-0.272 0.8,-0.113 0.8,0.353c0,0.466 0.36,0.847 0.8,0.847c0.44,0 0.8,-0.54 0.8,-1.2c0,-0.667 -0.711,-1.2 -1.6,-1.2c-0.88,0 -1.6,0.381 -1.6,0.847m-121.36,3.436c-0.352,0.595 -1.18,1.287 -1.84,1.537c-0.969,0.366 -0.936,0.466 0.172,0.517c0.754,0.035 1.757,-0.657 2.228,-1.537c0.95,-1.774 0.453,-2.233 -0.56,-0.517m-38.84,5.381c-1.673,0.974 -1.844,2.336 -0.293,2.336c0.608,0 1.295,-0.72 1.525,-1.6c0.23,-0.88 0.362,-1.589 0.293,-1.576c-0.069,0.014 -0.755,0.392 -1.525,0.84m179.4,-0.407c0,0.252 0.557,1.014 1.238,1.695c1.541,1.541 2.561,0.733 1.178,-0.933c-0.999,-1.203 -2.416,-1.65 -2.416,-0.762m8.049,6.217c1.481,1.305 4.105,2.187 3.801,1.277c-0.184,-0.552 -1.194,-1.136 -2.244,-1.296c-1.05,-0.16 -1.751,-0.152 -1.557,0.019m-198.356,28.726c-0.062,1.463 0.309,2.2 1.107,2.2c0.66,0 1.2,-0.36 1.2,-0.8c0,-0.44 -0.334,-0.8 -0.741,-0.8c-0.408,0 -0.906,-0.63 -1.108,-1.4c-0.225,-0.861 -0.401,-0.554 -0.458,0.8m234.893,16.6c0.753,0.88 1.47,1.6 1.592,1.6c0.122,0 0.222,-0.72 0.222,-1.6c0,-1.064 -0.533,-1.6 -1.592,-1.6c-1.516,0 -1.526,0.077 -0.222,1.6m-240.549,9.155c-0.785,0.946 -0.658,1.132 0.703,1.03c0.913,-0.069 1.66,-0.589 1.66,-1.155c0,-1.37 -1.174,-1.307 -2.363,0.125m-6.961,5.68c-0.694,1.808 -0.071,1.903 1.524,0.232c1.185,-1.241 1.211,-1.467 0.175,-1.467c-0.674,0 -1.438,0.556 -1.699,1.235m256.675,0.107c0.743,0.196 1.511,0.964 1.707,1.707c0.253,0.957 0.383,0.826 0.449,-0.449c0.072,-1.386 -0.321,-1.779 -1.707,-1.707c-1.275,0.066 -1.406,0.196 -0.449,0.449m-259.618,2.391c-0.293,0.294 -0.533,1.039 -0.533,1.657c0,0.932 0.206,0.919 1.2,-0.076c0.66,-0.66 1.2,-1.405 1.2,-1.657c0,-0.626 -1.214,-0.576 -1.867,0.076m-2.333,5.381c-0.77,0.584 -1.4,1.337 -1.4,1.672c0,0.336 0.483,0.209 1.074,-0.281c0.59,-0.49 1.31,-0.654 1.6,-0.365c0.289,0.29 0.526,-0.073 0.526,-0.807c0,-1.58 -0.007,-1.58 -1.8,-0.219m267.4,2.086c0,0.44 0.72,1.52 1.6,2.4c1.72,1.72 2.119,0.865 0.772,-1.653c-0.873,-1.631 -2.372,-2.104 -2.372,-0.747m-146,21.648c-1.32,0.31 -3.66,0.618 -5.2,0.684c-1.54,0.067 -4.24,0.818 -6,1.668c-1.76,0.85 -3.81,1.558 -4.555,1.573c-3.267,0.065 -5.077,6.893 -2.67,10.074c0.646,0.854 1.186,2.124 1.2,2.822c0.19,9.5 26.425,9.662 26.425,0.163c0,-0.611 0.574,-2.221 1.275,-3.578c1.515,-2.929 0.465,-4.132 -2.976,-3.411c-3.378,0.708 -4.983,-1.527 -4.433,-6.171c0.512,-4.326 0.285,-4.609 -3.066,-3.824m154.012,0.105c0.024,2.008 1.562,3.663 1.576,1.694c0.006,-0.964 -0.348,-1.975 -0.788,-2.247c-0.44,-0.272 -0.794,-0.023 -0.788,0.553m-81.344,0.793c-4.385,2.121 -3.331,15.415 1.585,19.999c5.817,5.425 21.892,4.38 22.113,-1.437c0.019,-0.491 0.754,-1.808 1.634,-2.926c2.236,-2.843 2.009,-3.508 -1.075,-3.148c-2.313,0.27 -2.909,-0.05 -4.398,-2.361l-1.722,-2.673l1.991,-1.756c1.462,-1.29 1.728,-1.927 0.998,-2.396c-5.347,-3.439 -17.058,-5.269 -21.126,-3.302m-192.256,1.207c-0.006,0.964 0.348,1.975 0.788,2.247c1.019,0.629 1.019,-1.224 0,-2.8c-0.63,-0.976 -0.778,-0.872 -0.788,0.553m6.683,9.258c0.395,2.603 2.905,4.173 2.905,1.817c0,-0.644 -0.687,-1.54 -1.528,-1.989c-1.128,-0.604 -1.488,-0.559 -1.377,0.172m267.814,13.726c-0.06,0.845 -0.705,2.195 -1.433,3c-1.234,1.363 -1.231,1.463 0.047,1.463c0.754,0 1.168,-0.329 0.919,-0.732c-0.248,-0.402 -0.054,-0.864 0.431,-1.026c0.486,-0.162 0.718,-1.183 0.514,-2.268c-0.262,-1.401 -0.401,-1.528 -0.478,-0.437m-273.976,12.196c-1.068,1.069 -0.497,5.789 0.867,7.153c1.982,1.982 2.466,-0.55 0.638,-3.34c-1.154,-1.761 -1.161,-2.026 -0.066,-2.446c0.675,-0.259 1.228,-0.793 1.228,-1.186c0,-0.832 -1.887,-0.96 -2.667,-0.181m270.73,0.467c-0.035,0.77 -0.603,1.4 -1.263,1.4c-0.66,0 -1.2,0.54 -1.2,1.2c0,0.66 0.347,1.2 0.772,1.2c1.065,0 2.618,-3.076 2.143,-4.244c-0.214,-0.526 -0.417,-0.326 -0.452,0.444m-4.3,9.074c-1.254,1.68 -1.277,1.926 -0.175,1.926c1.299,0 2.375,-1.767 1.887,-3.1c-0.151,-0.413 -0.922,0.115 -1.712,1.174m-4.196,5.179c-0.848,1.372 -0.088,1.507 1.587,0.282c1.298,-0.949 1.338,-1.135 0.246,-1.135c-0.718,0 -1.543,0.384 -1.833,0.853m-4.134,6.947c-0.284,0.77 -0.903,1.697 -1.375,2.061c-0.553,0.426 -0.459,0.553 0.266,0.359c1.04,-0.28 2.917,-3.82 2.025,-3.82c-0.22,0 -0.632,0.63 -0.916,1.4m-242.233,2.6c-0.602,0.974 3.271,3.462 4.574,2.938c0.644,-0.258 0.504,-0.435 -0.374,-0.475c-0.77,-0.035 -1.4,-0.564 -1.4,-1.177c0,-1.333 -2.158,-2.324 -2.8,-1.286m230.556,7.247c-0.321,1.227 -0.093,1.581 0.898,1.39c1.673,-0.322 2.297,-3.037 0.698,-3.037c-0.641,0 -1.359,0.741 -1.596,1.647m-230.589,3.206c-0.938,1.518 0.43,1.893 1.823,0.499c1.248,-1.247 1.25,-1.352 0.029,-1.352c-0.729,0 -1.562,0.384 -1.852,0.853m221.233,2.845c0,1.063 0.217,1.118 1.2,0.302c0.66,-0.548 1.2,-1.132 1.2,-1.298c0,-0.166 -0.54,-0.302 -1.2,-0.302c-0.66,0 -1.2,0.584 -1.2,1.298m-6.4,3.2c0,1.063 0.217,1.118 1.2,0.302c0.66,-0.548 1.2,-1.132 1.2,-1.298c0,-0.166 -0.54,-0.302 -1.2,-0.302c-0.66,0 -1.2,0.584 -1.2,1.298m0,5.601c0,0.247 0.72,1.364 1.6,2.483c0.88,1.118 1.6,1.646 1.6,1.173c0,-0.473 -0.366,-1.087 -0.813,-1.363c-0.447,-0.276 -0.629,-0.8 -0.405,-1.163c0.225,-0.364 -0.129,-0.868 -0.787,-1.12c-0.657,-0.252 -1.195,-0.257 -1.195,-0.01m-215.2,3.526c0,1.033 0.542,1.575 1.575,1.575c1.033,0 1.425,-0.391 1.138,-1.138c-0.726,-1.892 -2.713,-2.212 -2.713,-0.437m220.012,6.175c0.036,1.754 1.564,2.917 1.576,1.2c0.006,-0.99 -0.348,-1.8 -0.788,-1.8c-0.44,0 -0.794,0.27 -0.788,0.6m-210.701,3.8c0.522,1.362 2.689,1.646 2.689,0.353c0,-0.466 -0.36,-0.625 -0.8,-0.353c-0.44,0.272 -0.8,0.113 -0.8,-0.353c0,-0.466 -0.349,-0.847 -0.775,-0.847c-0.426,0 -0.568,0.54 -0.314,1.2m3.175,3.265c-0.88,2.292 -0.51,2.74 1.114,1.349c0.88,-0.753 1.6,-1.65 1.6,-1.992c0,-1.158 -2.225,-0.631 -2.714,0.643m209.114,0.36c0,0.867 0.54,1.575 1.2,1.575c0.66,0 1.2,-0.501 1.2,-1.114c0,-0.613 -0.54,-1.322 -1.2,-1.575c-0.816,-0.314 -1.2,0.043 -1.2,1.114m3.227,9.422c-0.015,1.016 0.311,1.639 0.724,1.383c0.413,-0.255 1.122,0.174 1.576,0.953c0.453,0.779 0.835,1.007 0.849,0.506c0.013,-0.502 -0.684,-1.762 -1.549,-2.8l-1.574,-1.889l-0.026,1.847m-208.886,10.486c-0.033,0.257 -0.195,1.367 -0.359,2.467c-0.298,1.985 -0.293,1.987 0.581,0.2c0.485,-0.99 1.186,-1.8 1.559,-1.8c0.373,0 0.678,-0.3 0.678,-0.667c0,-0.743 -2.366,-0.936 -2.459,-0.2m210.698,15.448c-1.702,2.196 -1.914,3.019 -0.78,3.019c0.635,0 1.362,-0.794 1.616,-1.765c0.559,-2.137 0.229,-2.631 -0.836,-1.254m-7.394,13.771c-1.058,1.127 -2.401,2.048 -2.984,2.048c-1.261,0 -1.408,1.291 -0.231,2.018c1.038,0.642 5.855,-3.964 5.442,-5.203c-0.175,-0.525 -1.117,-0.044 -2.227,1.137m-203.907,5.772c0.154,0.802 0.906,1.578 1.671,1.725c1.937,0.373 1.743,-1.204 -0.28,-2.287c-1.432,-0.766 -1.632,-0.686 -1.391,0.562m192.462,1.143c-0.77,0.843 -1.096,1.533 -0.724,1.533c0.372,0 1.328,-0.72 2.124,-1.6c0.796,-0.88 1.122,-1.57 0.724,-1.533c-0.398,0.036 -1.354,0.756 -2.124,1.6m-13.128,5.326c0.285,0.461 -0.019,1.046 -0.677,1.298c-0.657,0.252 -1.167,0.92 -1.132,1.484c0.05,0.803 0.151,0.808 0.467,0.025c0.222,-0.55 0.913,-1 1.537,-1c1.365,0 1.495,-1.282 0.209,-2.076c-0.539,-0.334 -0.707,-0.222 -0.404,0.269m-148.26,15.16c-0.007,0.964 0.372,1.99 0.841,2.28c1.31,0.81 1.382,0.163 0.225,-2.033c-1.011,-1.918 -1.055,-1.928 -1.066,-0.247m3.188,9.597c0,0.66 0.72,1.388 1.6,1.618c0.88,0.23 1.6,0.926 1.6,1.545c0,0.62 0.95,1.488 2.111,1.929c2.79,1.061 3.219,0.512 0.666,-0.854c-1.111,-0.595 -2.221,-1.881 -2.466,-2.859c-0.521,-2.073 -3.511,-3.248 -3.511,-1.379m131.2,0.709c0,0.745 0.544,1.153 1.334,1c2.007,-0.39 2.282,-2.259 0.333,-2.259c-0.983,0 -1.667,0.517 -1.667,1.259m-2.347,3.077c-0.757,0.912 -0.667,1.095 0.459,0.93c0.771,-0.113 1.541,-0.624 1.711,-1.136c0.434,-1.301 -1.034,-1.162 -2.17,0.206m-65.15,3.2l-2.298,1.879l2.098,-0.401c1.153,-0.22 2.097,-0.899 2.097,-1.507c0,-0.609 0.72,-1.107 1.6,-1.107c0.889,0 1.6,0.533 1.6,1.2c0,0.66 0.36,1.2 0.8,1.2c1.291,0 0.917,-2.184 -0.465,-2.714c-2.054,-0.788 -3.006,-0.534 -5.432,1.45m-38.392,3.264c0.253,0.66 0.987,1.2 1.632,1.2c1.016,0 1.012,-0.159 -0.029,-1.2c-0.66,-0.66 -1.394,-1.2 -1.632,-1.2c-0.237,0 -0.225,0.54 0.029,1.2m81.889,0c-0.818,0.986 -0.756,1.2 0.349,1.2c0.74,0 1.142,-0.329 0.893,-0.732c-0.248,-0.402 0,-0.914 0.553,-1.137c0.626,-0.252 0.665,-0.428 0.103,-0.468c-0.496,-0.035 -1.35,0.477 -1.898,1.137" fill="#ffffff" fill-rule="evenodd"/>
   <path id="path2" fill="#ffffff" fill-rule="evenodd"/>
   <path id="path3" d="m158.954,40.896c-0.516,0.827 -1.606,1.504 -2.421,1.504c-0.816,0 -1.671,0.72 -1.901,1.6c-0.23,0.88 -0.892,1.6 -1.471,1.6c-0.579,0 -1.271,0.687 -1.538,1.526c-0.266,0.839 -1.01,1.728 -1.653,1.975c-0.644,0.247 -1.17,0.868 -1.17,1.38c0,0.512 -0.63,1.514 -1.4,2.225c-0.77,0.712 -1.51,2.014 -1.645,2.894c-0.135,0.88 -0.961,2.21 -1.835,2.957c-0.875,0.746 -1.574,1.556 -1.555,1.8c0.323,4.086 -0.065,5.244 -1.765,5.255c-1.456,0.01 -1.57,0.161 -0.6,0.788c0.8,0.517 0.867,0.78 0.2,0.788c-0.621,0.007 -1,1.156 -1,3.034c0,2.032 -0.524,3.471 -1.6,4.392c-1.106,0.948 -1.6,2.36 -1.6,4.578c0,6.112 -1.407,6.689 -16.644,6.825c-11.357,0.101 -13.245,0.298 -13.889,1.45c-0.557,0.994 -1.874,1.333 -5.182,1.333c-3.762,0 -4.498,0.243 -4.853,1.6c-0.236,0.902 -1.091,1.6 -1.962,1.6c-0.848,0 -2.443,0.9 -3.543,2c-1.1,1.1 -2.312,2 -2.693,2c-0.381,0 -0.937,1.44 -1.234,3.2c-0.297,1.759 -1.079,3.501 -1.738,3.869c-1.587,0.888 -1.271,20.998 0.338,21.532c0.573,0.19 1.025,1.756 1.059,3.666c0.1,5.625 1.137,10.548 2.176,10.333c0.64,-0.133 0.965,1.013 0.965,3.4c0,3.591 -0.803,4.282 -4.269,3.672c-0.368,-0.065 -0.86,0.612 -1.093,1.505c-0.237,0.906 -1.09,1.623 -1.931,1.623c-0.829,0 -1.507,0.54 -1.507,1.2c0,0.66 -0.27,1.157 -0.6,1.105c-1.908,-0.301 -3.227,0.566 -7.483,4.915c-3.246,3.318 -4.717,5.453 -4.717,6.848c0,1.114 -0.319,1.829 -0.709,1.588c-2.839,-1.754 -3.577,18.584 -0.75,20.656c0.667,0.488 1.694,2.219 2.281,3.845c0.588,1.627 1.325,2.799 1.638,2.606c0.313,-0.194 0.795,0.546 1.07,1.643c0.275,1.096 1.034,1.994 1.685,1.994c0.652,0 1.185,0.496 1.185,1.102c0,0.607 0.734,1.597 1.632,2.2c2.405,1.618 2.452,8.328 0.071,9.996c-1.066,0.747 -1.703,2.053 -1.703,3.493c0,1.599 -0.489,2.456 -1.6,2.809c-1.378,0.437 -1.6,1.21 -1.6,5.568c0,3.85 -0.299,5.176 -1.25,5.54c-1.132,0.435 -1.132,0.647 0,2.264c0.745,1.063 1.25,3.468 1.25,5.952c0,3.466 0.27,4.254 1.6,4.676c0.88,0.279 1.6,1.057 1.6,1.729c0,0.671 0.72,1.409 1.6,1.639c0.88,0.23 1.6,0.917 1.6,1.525c0,0.609 0.496,1.107 1.102,1.107c0.607,0 1.617,0.775 2.246,1.722c0.629,0.948 2.023,1.818 3.098,1.934c1.075,0.116 2.224,0.241 2.554,0.277c0.33,0.037 0.6,0.581 0.6,1.208c0,0.628 0.63,1.306 1.4,1.508c1.196,0.312 1.209,0.379 0.089,0.458c-1.359,0.096 -2.8,5.019 -1.897,6.48c0.259,0.419 -0.264,1.219 -1.161,1.779c-2.129,1.33 -2.459,12.091 -0.406,13.24c0.674,0.377 1.413,1.72 1.642,2.984c0.529,2.92 1.052,3.755 1.988,3.176c0.41,-0.253 0.745,0.071 0.745,0.72c0,0.649 1.08,1.658 2.4,2.242c1.32,0.585 2.4,1.356 2.4,1.715c0,0.358 0.36,0.429 0.8,0.157c0.44,-0.272 0.8,-0.113 0.8,0.353c0,0.466 0.72,0.847 1.6,0.847c1.952,0 2.111,2.034 0.241,3.081c-1.706,0.955 -2.066,8.688 -0.534,11.451c0.57,1.028 1.084,1.508 1.143,1.068c0.059,-0.44 0.555,0.82 1.101,2.8c0.547,1.98 1.412,3.51 1.922,3.4c0.51,-0.11 0.927,0.16 0.927,0.6c0,0.44 -0.302,0.8 -0.672,0.8c-2.635,0 -3.68,32.076 -1.092,33.524c0.672,0.376 1.631,1.897 2.132,3.38c0.5,1.483 1.342,2.606 1.871,2.496c0.529,-0.11 0.961,0.52 0.961,1.4c0,1.048 0.533,1.6 1.546,1.6c0.85,0 1.775,0.72 2.054,1.6c0.373,1.176 1.21,1.6 3.161,1.6c1.98,0 2.759,0.406 3.071,1.6c0.355,1.359 1.091,1.6 4.893,1.6c3.292,0 4.475,0.295 4.475,1.114c0,1.275 1.698,2.086 4.365,2.086c1.43,0 1.835,0.447 1.835,2.027c0,1.114 0.585,2.672 1.3,3.463c0.715,0.79 1.3,2.611 1.3,4.048c0,1.9 0.417,2.721 1.532,3.012c0.843,0.221 1.728,1.181 1.967,2.134c0.239,0.953 1.58,2.408 2.979,3.235c1.398,0.826 3.163,2.122 3.921,2.88c1.066,1.066 2.968,1.414 8.39,1.533c4.88,0.108 7.364,0.506 8.169,1.311c1.73,1.73 24.887,1.691 25.553,-0.043c0.325,-0.847 1.647,-1.2 4.499,-1.2c3.115,0 4.662,-0.475 6.76,-2.075c2.944,-2.246 6.63,-2.17 6.63,0.137c0,0.678 0.335,1.025 0.745,0.772c0.409,-0.253 0.93,-0.159 1.157,0.208c0.227,0.368 2.32,0.755 4.651,0.862c2.691,0.122 4.473,0.613 4.882,1.344c0.945,1.69 23.458,1.678 25.326,-0.013c0.905,-0.819 3.492,-1.205 8.719,-1.3c6.311,-0.115 7.573,-0.362 8.368,-1.635c0.515,-0.825 1.57,-1.5 2.344,-1.5c0.775,0 1.408,-0.381 1.408,-0.847c0,-0.466 0.416,-0.591 0.924,-0.277c0.574,0.355 0.706,0.22 0.349,-0.358c-0.322,-0.52 -0.024,-1.141 0.676,-1.409c0.688,-0.264 1.251,-1.162 1.251,-1.995c0,-0.981 0.563,-1.514 1.6,-1.514c1.316,0 1.6,-0.533 1.6,-3.008c0,-2.051 0.467,-3.299 1.469,-3.925c1.171,-0.731 1.487,-2.005 1.558,-6.283c0.102,-6.153 -0.009,-5.921 2.932,-6.164c1.227,-0.102 2.421,-0.733 2.652,-1.402c0.232,-0.67 1.11,-1.776 1.952,-2.457c1.302,-1.054 1.843,-2.257 2.176,-4.836c0.033,-0.261 2.29,-0.42 5.013,-0.352c3.826,0.095 5.282,-0.207 6.4,-1.325c0.797,-0.797 2.078,-1.453 2.848,-1.459c2.739,-0.021 4.885,-0.957 4.499,-1.963c-0.34,-0.887 1.594,-1.981 4.101,-2.318c0.44,-0.06 0.831,-0.468 0.869,-0.908c0.13,-1.5 1.406,-3.875 2.87,-5.339c0.803,-0.803 1.461,-2.492 1.461,-3.753c0,-1.261 0.707,-3.19 1.57,-4.288c2.681,-3.408 1.926,-26.686 -0.81,-24.995c-0.617,0.381 -1.257,-6.079 -0.855,-8.625c0.052,-0.33 -0.625,-0.6 -1.505,-0.6c-1.291,0 -1.6,-0.533 -1.6,-2.762c0,-3.174 -1.508,-6.989 -2.517,-6.366c-0.376,0.232 -0.683,-0.81 -0.683,-2.317c0,-1.528 -0.708,-3.639 -1.6,-4.773c-1.072,-1.364 -1.6,-3.246 -1.6,-5.708l0,-3.674l3.2,0c2.667,0 3.2,-0.267 3.2,-1.6c0,-1.084 0.533,-1.6 1.653,-1.6c2.238,0 4.901,-1.503 4.322,-2.44c-0.258,-0.418 0.306,-0.76 1.253,-0.76c1.049,0 1.885,-0.625 2.14,-1.6c0.269,-1.027 1.091,-1.6 2.297,-1.6c1.06,0 2.252,-0.697 2.735,-1.6c0.471,-0.88 1.564,-1.6 2.428,-1.6c0.865,0 1.572,-0.522 1.572,-1.16c0,-0.638 0.477,-1.448 1.06,-1.8c0.584,-0.352 1.292,-1.27 1.575,-2.04c0.283,-0.77 1.087,-1.4 1.787,-1.4c0.7,0 1.05,-0.36 0.778,-0.8c-0.272,-0.44 -0.113,-0.8 0.353,-0.8c0.466,0 0.847,-0.934 0.847,-2.075c0,-1.402 0.519,-2.21 1.6,-2.493c0.88,-0.23 1.6,-0.95 1.6,-1.599c0,-0.649 0.72,-2.096 1.6,-3.215c0.88,-1.119 1.6,-3.245 1.6,-4.726c0,-1.822 0.376,-2.692 1.164,-2.692c1.159,0 1.807,-2.325 2.228,-8c0.114,-1.54 0.598,-2.73 1.075,-2.644c1.12,0.201 1.128,0.137 1.654,-12.49c0.438,-10.524 -0.51,-17.461 -2.24,-16.392c-0.375,0.231 -0.71,-1.311 -0.746,-3.427c-0.119,-7.017 -0.382,-8.386 -1.765,-9.16c-0.753,-0.421 -1.37,-1.649 -1.37,-2.727c0,-1.078 -0.72,-2.68 -1.6,-3.56c-0.88,-0.88 -1.6,-2.456 -1.6,-3.502c0,-1.881 -1.746,-4.085 -2.578,-3.254c-0.236,0.237 -0.669,-0.846 -0.962,-2.407c-0.297,-1.581 -1.009,-2.837 -1.61,-2.837c-0.592,0 -1.302,-0.9 -1.579,-2c-0.276,-1.1 -1.035,-2 -1.686,-2c-0.652,0 -1.185,-0.498 -1.185,-1.107c0,-0.608 -0.72,-1.295 -1.6,-1.525c-1.255,-0.328 -1.6,-1.091 -1.6,-3.542c0,-2.019 -0.566,-3.732 -1.6,-4.842c-0.88,-0.945 -1.6,-2.823 -1.6,-4.176c0,-1.447 -0.494,-2.648 -1.2,-2.919c-0.66,-0.253 -1.207,-1.052 -1.215,-1.775c-0.014,-1.339 -4.253,-8.091 -5.602,-8.925c-0.625,-0.386 -1.28,-2.529 -1.524,-4.989c-0.032,-0.33 -0.329,-0.516 -0.659,-0.413c-0.774,0.241 -4.619,-3.639 -5.259,-5.307c-0.27,-0.704 -1.042,-1.28 -1.716,-1.28c-0.674,0 -1.225,-0.574 -1.225,-1.275c0,-0.701 -0.72,-1.463 -1.6,-1.693c-0.88,-0.23 -1.6,-0.95 -1.6,-1.6c0,-0.65 -0.72,-1.37 -1.6,-1.6c-0.886,-0.232 -1.6,-1.091 -1.6,-1.925c0,-0.974 -0.566,-1.507 -1.6,-1.507c-0.889,0 -1.6,-0.533 -1.6,-1.2c0,-0.667 -0.711,-1.2 -1.6,-1.2c-0.88,0 -1.6,-0.353 -1.6,-0.784c0,-0.431 -1.44,-1.518 -3.2,-2.416c-1.76,-0.898 -3.2,-1.961 -3.2,-2.362c0,-0.402 -0.782,-0.978 -1.739,-1.282c-0.956,-0.303 -2.464,-1.228 -3.35,-2.054c-0.887,-0.826 -2.265,-1.502 -3.062,-1.502c-0.797,0 -1.359,-0.42 -1.249,-0.933c0.11,-0.512 -0.985,-1.19 -2.433,-1.505c-1.448,-0.315 -3.276,-1.156 -4.063,-1.868c-0.786,-0.712 -2.366,-1.294 -3.51,-1.294c-1.144,0 -2.603,-0.523 -3.242,-1.162c-0.639,-0.639 -1.384,-0.939 -1.657,-0.667c-0.272,0.273 -0.495,0.076 -0.495,-0.438c0,-0.555 -1.295,-0.933 -3.2,-0.933c-2.133,0 -3.733,-0.533 -4.8,-1.6c-1.171,-1.171 -2.667,-1.6 -5.581,-1.6c-2.57,0 -4.909,-0.566 -6.6,-1.597c-1.813,-1.106 -4.034,-1.598 -7.219,-1.6c-3.554,-0.002 -4.6,-0.276 -4.6,-1.203c0,-0.66 -0.551,-1.2 -1.225,-1.2c-0.674,0 -1.432,-0.538 -1.684,-1.195c-0.252,-0.658 -0.784,-0.995 -1.182,-0.749c-0.397,0.246 -1.031,-0.386 -1.407,-1.405c-0.377,-1.018 -1.004,-1.797 -1.394,-1.731c-0.389,0.066 -0.618,-0.204 -0.508,-0.6c0.11,-0.396 -0.346,-0.72 -1.014,-0.72c-1.292,0 -6.786,-5.237 -6.786,-6.469c0,-0.402 -0.46,-0.731 -1.022,-0.731c-0.562,0 -1.652,-0.735 -2.422,-1.634c-0.786,-0.919 -1.827,-1.388 -2.377,-1.072c-0.539,0.309 -0.726,0.282 -0.417,-0.061c0.745,-0.826 -1.313,-2.833 -2.905,-2.833c-0.691,0 -1.257,-0.381 -1.257,-0.847c0,-0.466 -0.36,-0.625 -0.8,-0.353c-0.44,0.272 -0.8,-0.067 -0.8,-0.753c0,-0.732 -0.691,-1.247 -1.675,-1.247c-1.002,0 -1.843,-0.643 -2.093,-1.6c-0.311,-1.188 -1.091,-1.6 -3.032,-1.6c-1.941,0 -2.721,-0.412 -3.032,-1.6c-0.334,-1.28 -1.091,-1.6 -3.779,-1.6c-2.708,0 -3.268,-0.241 -2.884,-1.242c0.262,-0.682 0.146,-1.037 -0.259,-0.787c-0.404,0.251 -0.972,0.072 -1.261,-0.395c-1.014,-1.641 -17.14,-0.827 -18.231,0.92m20.646,13.512c8.158,4.083 18.75,12.069 27.857,21.002c3.93,3.856 7.91,7.197 8.844,7.424c0.935,0.227 4.939,0.935 8.899,1.572c15.093,2.428 26.61,6.531 43.19,15.387c9.447,5.046 24.551,19.027 30.918,28.62c4.95,7.457 10.292,17.95 10.292,20.215c0,1.684 3.445,7.724 6.343,11.119c3.956,4.636 5.979,7.445 7.381,10.253c0.659,1.32 1.818,3.63 2.576,5.133c1.223,2.426 2.178,6.045 4.553,17.267c4.2,19.844 -9.154,49.761 -25.685,57.541c-1.522,0.716 -4.568,2.347 -6.768,3.623c-2.2,1.276 -4.953,2.547 -6.117,2.823c-4.835,1.15 -7.065,11.41 -3.838,17.661c0.895,1.733 2.532,5.492 3.639,8.352c1.107,2.86 2.667,6.82 3.468,8.8c4.692,11.604 4.848,12.269 4.848,20.642c0,11.039 -4.475,20.05 -10.568,21.282c-7.544,1.526 -11.171,0.934 -14.231,-2.323c-3.604,-3.836 -6.396,-2.253 -4.41,2.501c2.137,5.114 -1.777,11.337 -9.847,15.661l-2.544,1.363l0,6.877c0,12.64 -2.549,14.769 -19.6,16.37c-22.202,2.084 -34.539,-1.104 -36.081,-9.322c-0.877,-4.674 -3.748,-4.341 -5.23,0.605c-2.039,6.805 -12.27,10.101 -28.662,9.236c-22.982,-1.214 -27.227,-3.654 -27.227,-15.654c0,-7.051 -0.641,-7.685 -8.504,-8.422c-17.327,-1.624 -28.682,-12.807 -21.838,-21.508c1.507,-1.916 1.543,-2.221 0.4,-3.365c-1.865,-1.865 -1.712,-9.736 0.231,-11.891c3.776,-4.188 4.265,-10.317 0.96,-12.027c-6.127,-3.168 -6.392,-10.136 -0.569,-14.928c2.01,-1.654 -1.133,-9.288 -3.651,-8.869c-3.846,0.641 -13.429,-6.539 -13.429,-10.06c0.001,-2.893 3.048,-10.804 4.472,-11.609c2.294,-1.298 -0.989,-14.159 -3.614,-14.159c-1.245,0 -8.648,-4.49 -12.127,-7.355c-3.444,-2.836 -3.966,-7.231 -1.598,-13.461c2.009,-5.29 6.339,-11.984 7.75,-11.984c0.824,0 1.096,-1.101 1.037,-4.2c-0.068,-3.593 -1.206,-9.529 -1.44,-7.513c-0.343,2.949 -13.587,-16.984 -14.185,-21.349c-0.835,-6.093 5.569,-13.704 15.899,-18.895c7.435,-3.736 10.89,-11.795 8.261,-19.268c-1.189,-3.379 -3.714,-14.883 -4.837,-22.035c-1.171,-7.459 2.44,-13.676 9.007,-15.509c8.555,-2.388 23.737,-2.588 32.223,-0.425c3.58,0.913 7.65,-2.454 8.227,-6.806c1.133,-8.533 11.128,-31.546 16.354,-37.65c4.939,-5.771 8.636,-5.915 18.971,-0.742m5.971,48.217c-6.862,4.304 -9.971,10.221 -9.971,18.975c0,16.944 17.603,20.384 25.8,5.042c2.91,-5.446 2.293,-9.273 -1.133,-7.029c-3.815,2.5 -7.467,-0.132 -7.467,-5.382c0,-3.335 1.615,-5.712 4.768,-7.018c3.234,-1.339 3.058,-2.449 -0.733,-4.613c-3.961,-2.262 -7.632,-2.254 -11.264,0.025m60.584,0.335c-1.283,0.333 -2.955,3.174 -2.955,5.022c0,0.372 1.421,0.917 3.158,1.211c7.941,1.341 8.285,13.207 0.384,13.207c-2.911,0 -3.158,0.406 -2.036,3.348c4.157,10.904 20.256,14.164 23.391,4.736c4.552,-13.687 -9.127,-30.845 -21.942,-27.524m-56.358,87.38c-0.239,5.57 1.096,7.617 4.502,6.903c3.441,-0.721 4.491,0.482 2.976,3.411c-0.701,1.357 -1.275,2.967 -1.275,3.578c0,9.499 -26.235,9.337 -26.425,-0.163c-0.014,-0.698 -0.554,-1.968 -1.2,-2.822c-1.554,-2.054 -1.493,-6.038 0.129,-8.353c1.266,-1.807 1.254,-1.835 -0.4,-0.95c-2.292,1.227 -2.394,8.374 -0.182,12.688c6.151,11.996 24.201,11.855 29.694,-0.232c3.005,-6.61 2.995,-13.925 -0.015,-11.201c-1.947,1.762 -5.576,1.908 -6.642,0.268c-1.149,-1.768 0.554,-3.867 3.139,-3.867c2.043,0 2.502,-1.48 0.942,-3.04c-2.789,-2.789 -5.031,-1.173 -5.243,3.78m68.954,-3.171c-1.111,0.45 -2.12,2.225 -3.096,5.451c-5.498,18.157 18.867,29.191 29.584,13.399c2.893,-4.263 2.536,-11.095 -0.391,-7.48c-1.547,1.911 -2.988,1.473 -4.015,-1.221c-0.912,-2.389 1.16,-4.651 3.679,-4.018c2.424,0.608 2.508,-1.014 0.088,-1.71c-4.8,-1.379 -5.03,-1.401 -4.065,-0.385c0.72,0.759 0.491,1.375 -0.998,2.69l-1.932,1.705l1.722,2.673c1.489,2.311 2.085,2.631 4.398,2.361c3.084,-0.36 3.311,0.305 1.075,3.148c-0.88,1.118 -1.615,2.435 -1.634,2.926c-0.228,6.008 -16.317,6.842 -22.409,1.161l-3.557,-3.318l0.027,-7.435c0.029,-8.326 -0.086,-8.057 4.113,-9.555c2.448,-0.872 2.66,-1.088 1.06,-1.075c-1.1,0.008 -2.742,0.316 -3.649,0.683" fill="#ffffff" fill-rule="evenodd"/>
   <path id="path4" d="m165.124,51.143c-4.629,1.971 -11.714,14.211 -17.412,30.079c-5.113,14.238 -4.989,14.691 2.913,10.704c1.663,-0.839 3.469,-1.526 4.011,-1.526c0.543,0 2.331,-0.72 3.973,-1.6c1.642,-0.88 3.527,-1.6 4.188,-1.6c1.026,0 1.203,-2.1 1.203,-14.241c0,-17.397 0.353,-18.544 5.702,-18.553c2.206,-0.003 4.078,0.447 4.633,1.116c0.512,0.616 1.879,1.359 3.038,1.65c3.621,0.909 10.939,6.097 24.826,17.601c3.404,2.82 5.595,5.167 5.196,5.565c-0.254,0.254 0.678,0.462 2.072,0.462c3.699,0 3.242,-0.834 -4.144,-7.557c-17.536,-15.964 -33.719,-24.86 -40.199,-22.1m-52.814,47.273c-14.105,1.912 -19.078,6.776 -17.509,17.124c1.917,12.645 5.105,24.46 6.599,24.46c0.55,0 1,-0.524 1,-1.164c0,-1.057 2.764,-5.791 4.789,-8.202c0.446,-0.532 0.811,-1.292 0.811,-1.69c0,-0.398 1.08,-2.083 2.4,-3.744c2.616,-3.292 2.96,-4.4 1.364,-4.4c-1.102,0 -10.628,-9.198 -11.923,-11.513c-1.837,-3.281 1.144,-5.107 12.559,-7.692c5.96,-1.35 19.323,-0.689 18.337,0.907c-0.86,1.392 1.305,0.656 2.971,-1.01c1.368,-1.368 1.487,-1.826 0.6,-2.302c-1.802,-0.967 -16.706,-1.491 -21.998,-0.774m26.789,41.384c-1.055,0.77 -2.633,1.795 -3.508,2.278c-6.093,3.362 -7.436,13.982 -1.76,13.91c0.679,-0.009 0.705,-0.189 0.089,-0.6c-4.974,-3.321 -1.401,-11.21 6.637,-14.655c1.894,-0.812 3.443,-1.669 3.443,-1.905c0,-0.955 -3.106,-0.339 -4.901,0.972m16.101,-0.923c0,0.262 0.612,1.511 1.359,2.777c1.389,2.352 -0.035,7.946 -2.024,7.946c-0.379,0 -1.52,0.72 -2.535,1.6c-1.015,0.88 -2.6,1.615 -3.522,1.634c-0.923,0.018 -2.938,0.756 -4.478,1.64l-2.8,1.606l3.508,-0.466c1.929,-0.257 4.408,-1.175 5.508,-2.041c1.1,-0.865 2.503,-1.573 3.117,-1.573c0.614,0 1.319,-0.526 1.566,-1.17c0.247,-0.643 1.136,-1.387 1.975,-1.653c2.773,-0.881 1.824,-10.777 -1.034,-10.777c-0.352,0 -0.64,0.214 -0.64,0.477m130.841,1.233c-3.03,2.384 -3.708,4.637 -2.131,7.081c1.513,2.344 4.971,5.547 6.027,5.584c0.405,0.014 1.305,0.525 2,1.136c0.695,0.611 2.523,1.356 4.063,1.657l2.8,0.545l-2.4,-1.651c-1.32,-0.908 -2.834,-1.654 -3.364,-1.657c-3.397,-0.018 -8.207,-5.043 -8.224,-8.59c-0.015,-3.201 1.782,-3.811 9.415,-3.198l5.289,0.424l-3.158,-1.493c-4.188,-1.981 -7.661,-1.926 -10.317,0.162m13.959,2.262c0,0.424 0.685,1.138 1.521,1.586c1.295,0.693 1.46,0.577 1.107,-0.772c-0.415,-1.586 -2.628,-2.272 -2.628,-0.814m-209.072,14.617c-18.573,9.78 -19.708,18.722 -4.665,36.778l3.138,3.767l0.491,-2.967c1.169,-7.07 0.594,-19.894 -0.892,-19.888c-6.383,0.028 -9.8,-1.16 -9.8,-3.406c0,-1.967 12.262,-11.7 13.655,-10.839c0.41,0.253 0.745,-0.201 0.745,-1.009c0,-0.808 0.56,-2.269 1.245,-3.247c0.685,-0.978 1.135,-1.749 1,-1.714c-0.135,0.036 -2.347,1.172 -4.917,2.525m-4.514,55.789c-6.304,9.824 -7.201,17.582 -2.483,21.467c2.573,2.12 10.741,7.355 11.474,7.355c0.92,0 0.362,-5.894 -0.872,-9.2c-0.492,-1.32 -1.096,-3.73 -1.342,-5.355l-0.447,-2.954l-3.315,1.169c-4.607,1.626 -6.196,-1.993 -2.661,-6.06c0.573,-0.66 1.291,-2.015 1.595,-3.012c0.304,-0.996 0.886,-1.605 1.295,-1.352c0.408,0.252 0.742,-0.802 0.742,-2.342c0,-4.206 -1.158,-4.123 -3.986,0.284m10.493,47.904c-2.965,8.132 -1.865,10.68 6.466,14.973c5.94,3.061 6.605,2.496 3.827,-3.255c-0.85,-1.76 -1.558,-3.574 -1.573,-4.031c-0.015,-0.457 -0.747,-2.243 -1.627,-3.969c-0.88,-1.726 -1.6,-3.89 -1.6,-4.809c0,-1.836 -1.394,-3.591 -2.853,-3.591c-0.513,0 -1.701,2.107 -2.64,4.682m12.772,28.564c-2.753,4.665 -1.787,9.355 2.386,11.589c2.965,1.587 4.999,-6.343 3.057,-11.916c-1.178,-3.379 -3.333,-3.25 -5.443,0.327m1.681,24.514c-0.981,0.981 -1.331,8.343 -0.499,10.512c1.434,3.735 5.322,-0.283 4.745,-4.903c-0.839,-6.715 -1.83,-8.025 -4.246,-5.609" fill="#ffffff" fill-rule="evenodd"/>
   <path id="path5" d="m184.8,81.732c-1.54,0.422 -5.86,1.224 -9.6,1.783c-3.74,0.558 -7.88,1.614 -9.2,2.345c-1.32,0.732 -2.851,1.332 -3.403,1.335c-0.551,0.003 -2.346,0.725 -3.988,1.605c-1.642,0.88 -3.541,1.6 -4.219,1.6c-0.679,0 -1.944,0.489 -2.812,1.086c-0.868,0.598 -2.928,1.525 -4.578,2.062c-1.65,0.537 -3,1.308 -3,1.714c0,0.913 0.435,0.925 2.211,0.064c6.688,-3.244 8.698,-4.134 9.389,-4.155c0.44,-0.014 2.24,-0.721 4,-1.571c1.76,-0.85 3.74,-1.553 4.4,-1.561c0.66,-0.009 3.54,-0.72 6.4,-1.581c6.953,-2.094 23.299,-4.089 33.353,-4.072c4.588,0.008 8.369,-0.336 8.647,-0.786c0.644,-1.042 -23.743,-0.926 -27.6,0.132m-4,14.162c-4.477,1.329 -7.835,3.231 -10.781,6.106c-3.145,3.07 -7.394,8.815 -7.988,10.8c-0.329,1.1 -1.188,2.9 -1.91,4c-1,1.524 -1.345,4.191 -1.449,11.2c-0.075,5.06 -0.437,9.119 -0.804,9.02c-0.367,-0.099 -2.343,-0.803 -4.389,-1.565c-11.938,-4.445 -31.977,12.829 -23.762,20.482c3.167,2.951 17.897,2.735 20.939,-0.307c0.56,-0.56 1.744,-1.249 2.63,-1.53c4.179,-1.327 7.119,-5.909 7.026,-10.948c-0.088,-4.719 0.715,-6.218 1.688,-3.152c0.279,0.88 0.858,1.6 1.286,1.6c0.428,0 1.754,0.674 2.946,1.497c3.342,2.307 10.931,3.773 14.023,2.708c1.4,-0.482 4.054,-1.113 5.899,-1.403c1.845,-0.29 3.779,-1.039 4.298,-1.665c0.519,-0.625 1.409,-1.137 1.978,-1.137c1.494,0 7.57,-7.154 7.57,-8.913c0,-1.703 -2.005,-2.003 -2.96,-0.442c-3.709,6.057 -14.773,5.073 -19.44,-1.73c-8.545,-12.454 7.048,-35.869 18.75,-28.155c3.863,2.546 5.127,0.116 1.804,-3.47c-3.827,-4.128 -9.968,-5.189 -17.354,-2.996m13.196,1.705c3.17,1.205 1.631,2.401 -3.088,2.401c-15.679,0 -22.955,27.435 -9.474,35.726c3.805,2.34 11.049,2.613 12.612,0.475c0.563,-0.769 1.322,-1.1 1.687,-0.734c0.366,0.365 0.035,1.124 -0.734,1.687c-0.77,0.562 -1.399,1.361 -1.399,1.775c0,4.001 -19.383,6.674 -25.815,3.561c-22.141,-10.719 2.97,-53.728 26.211,-44.891m54.065,1.272c-3.142,2.644 -3.108,3.524 0.139,3.549c10.93,0.082 19.319,8.509 20.371,20.464c0.904,10.275 -5.504,16.756 -12.571,12.716c-3.003,-1.716 -5.6,-1.531 -5.6,0.4c0,0.88 0.307,1.6 0.683,1.6c0.376,0 1.654,0.9 2.841,2c1.187,1.1 2.693,2 3.345,2c0.653,0 2.109,0.604 3.236,1.342c2.939,1.926 13.6,1.959 16.512,0.052c3.053,-2.001 3.52,-1.781 4.012,1.885c0.901,6.716 12.92,14.291 22.713,14.315c3.584,0.009 6.129,-3.228 4.914,-6.25c-0.475,-1.179 -1.45,-3.727 -2.168,-5.661c-3.161,-8.521 -18.494,-14.219 -22.828,-8.483l-1.209,1.6l0.003,-1.6c0.001,-0.88 0.517,-2.5 1.146,-3.6c1.475,-2.58 1.506,-7.952 0.068,-11.784c-0.622,-1.659 -1.337,-3.916 -1.588,-5.016c-0.644,-2.823 -6.727,-10.64 -10.501,-13.495c-1.749,-1.322 -3.809,-2.967 -4.579,-3.655c-0.77,-0.687 -1.761,-1.25 -2.203,-1.25c-0.441,0 -2.146,-0.72 -3.788,-1.6c-4.376,-2.345 -9.837,-2.147 -12.948,0.471m11.305,0.314c12.111,4.257 20.286,13.261 22.669,24.968c3.089,15.168 -6.33,22.817 -21.353,17.34c-6.131,-2.236 -5.974,-3.844 0.383,-3.926c1.625,-0.02 3.541,-0.892 5.335,-2.426l2.8,-2.394l-0.033,-8.174c-0.042,-10.497 -7.167,-22.173 -13.531,-22.173c-2.283,0 -5.607,-3.443 -3.952,-4.093c2.284,-0.896 2.802,-0.837 7.682,0.878m-125.854,2.282c-0.708,0.733 -2.669,2.413 -4.357,3.733c-3.805,2.975 -12.143,11.241 -14.55,14.425c-0.987,1.306 -2.877,3.775 -4.2,5.485c-1.323,1.711 -2.405,3.436 -2.405,3.834c0,0.398 -0.365,1.158 -0.811,1.69c-2.025,2.411 -4.789,7.145 -4.789,8.202c0,0.64 -0.36,1.164 -0.8,1.164c-0.44,0 -0.8,0.36 -0.8,0.8c0,1.631 1.345,0.721 2.661,-1.8c0.747,-1.43 2.064,-3.68 2.926,-5c0.862,-1.32 2.262,-3.66 3.109,-5.2c2.532,-4.597 13.356,-16.2 21.925,-23.501c2.519,-2.146 4.579,-4.216 4.579,-4.6c0,-1.05 -1.044,-0.728 -2.488,0.768m63.108,6.18c-5.377,2.918 -5.256,11.472 0.18,12.727c5.591,1.291 9.112,-7.384 4.842,-11.929c-2.22,-2.364 -2.155,-2.354 -5.022,-0.798m3.583,2.153c2.353,1.797 2.52,4.936 0.393,7.409c-2.553,2.967 -5.76,2.373 -6.474,-1.199c-1.04,-5.202 2.572,-8.891 6.081,-6.21m43.079,0.518c-1.829,1.829 -2.909,5.148 -2.173,6.68c2.853,5.941 6.905,7.271 10.033,3.294c2.467,-3.136 0.519,-10.692 -2.756,-10.692c-0.58,0 -1.597,-0.208 -2.259,-0.462c-0.662,-0.254 -1.942,0.277 -2.845,1.18m6.399,1.833c1.195,2.233 1.214,7.674 0.032,8.856c-2.881,2.881 -7.15,-2.56 -6.158,-7.85c0.64,-3.408 4.501,-4.042 6.126,-1.006m-92.473,27.055c1.896,1.574 1.636,9.345 -0.334,9.971c-0.839,0.266 -1.728,1.01 -1.975,1.653c-0.247,0.644 -0.952,1.17 -1.566,1.17c-0.614,0 -2.129,0.796 -3.366,1.769c-3.549,2.792 -16.221,3.179 -18.652,0.571c-2.833,-3.042 -0.345,-9.982 4.434,-12.365c0.924,-0.46 2.278,-1.333 3.008,-1.939c2.903,-2.41 15.846,-2.992 18.451,-0.83m139.192,0.794c1.76,0.85 3.74,1.572 4.4,1.604c1.365,0.066 6.4,10.519 6.4,13.287c0,2.344 -13.202,1.517 -15.254,-0.956c-0.518,-0.624 -1.348,-1.146 -1.844,-1.16c-2.781,-0.078 -7.766,-6.815 -6.859,-9.269c1.753,-4.737 7.46,-6.258 13.157,-3.506m-76.8,7.157c-1.32,0.36 -4.267,0.696 -6.548,0.748c-2.281,0.052 -5.029,0.43 -6.105,0.839c-1.077,0.41 -4.635,1.117 -7.906,1.572c-3.272,0.455 -7.004,1.378 -8.295,2.051c-1.29,0.673 -3.027,1.225 -3.858,1.228c-0.832,0.003 -3.172,0.773 -5.2,1.711c-10.024,4.639 -12.52,5.866 -12.888,6.34c-0.22,0.283 -1.277,0.977 -2.35,1.542c-3.949,2.083 -14.38,12.11 -16.262,15.632c-7.701,14.42 -9.014,22.408 -6.229,37.926c0.507,2.83 1.442,6.07 2.076,7.2c0.635,1.13 1.532,2.954 1.994,4.054c2.447,5.828 10.096,13.657 14.887,15.238c1.561,0.516 3.794,1.436 4.961,2.045c3.389,1.768 16.733,1.479 22.315,-0.483c2.504,-0.88 5.393,-1.6 6.42,-1.6c1.027,0 2.923,-0.546 4.214,-1.213c1.291,-0.668 4.063,-1.428 6.16,-1.689c2.098,-0.261 5.434,-1.023 7.414,-1.694c5.409,-1.832 30.421,-1.791 34.698,0.057c1.703,0.737 3.888,1.339 4.854,1.339c0.966,0 4.432,0.712 7.702,1.581c11.32,3.01 22.043,1.13 30.184,-5.292c3.577,-2.822 8.162,-8.724 8.162,-10.507c0,-0.446 0.495,-1.001 1.099,-1.233c0.604,-0.231 1.351,-1.763 1.658,-3.402c0.308,-1.64 1.163,-3.902 1.901,-5.029c3.525,-5.379 1.599,-26.804 -3.103,-34.518c-0.402,-0.66 -1.229,-2.301 -1.838,-3.646c-1.342,-2.966 -12.595,-14.417 -14.881,-15.142c-0.9,-0.286 -1.636,-0.82 -1.636,-1.188c0,-0.367 -0.99,-1.057 -2.2,-1.534c-1.21,-0.477 -2.74,-1.21 -3.4,-1.63c-2.583,-1.642 -10.379,-4.86 -11.772,-4.86c-0.81,0 -2.242,-0.539 -3.184,-1.199c-0.941,-0.659 -4.525,-1.59 -7.965,-2.068c-3.44,-0.479 -6.62,-1.101 -7.066,-1.383c-2.327,-1.469 -24.088,-2.862 -28.013,-1.793m15.4,0.547c2.747,0.736 0.445,6.225 -3.5,8.345c-2.265,1.218 -11.5,-4.631 -11.5,-7.283c0,-1.342 11.041,-2.123 15,-1.062m-140.446,8.864c-0.537,0.972 -1.183,3.492 -1.437,5.6c-0.254,2.107 -0.946,5.452 -1.539,7.432c-0.621,2.076 -1.189,8.639 -1.341,15.505c-0.146,6.548 -0.024,11.048 0.27,10c0.293,-1.048 0.569,-4.979 0.613,-8.737c0.044,-3.757 0.579,-8.797 1.188,-11.2c0.609,-2.402 1.348,-6.168 1.643,-8.368c0.294,-2.2 0.903,-5.167 1.352,-6.594c1.131,-3.591 0.614,-6.106 -0.749,-3.638m97.725,11.813c4.963,2.194 12.771,9.205 14.054,12.619l0.827,2.2l-4.032,0c-5.557,0 -7.279,1.05 -6.972,4.252c0.221,2.312 0.038,2.548 -1.982,2.548c-2.68,0 -3.98,1.72 -2.869,3.795c0.866,1.619 3.26,1.322 5.558,-0.69c1.657,-1.45 2.144,-1.394 2.586,0.295c0.29,1.112 0.384,1.05 0.458,-0.302c0.051,-0.936 -0.465,-2.165 -1.147,-2.732c-2.106,-1.747 -1.151,-5.121 1.537,-5.428c6.987,-0.799 9.311,4.598 6.659,15.462c-5.527,22.638 -37.924,25.733 -48.472,4.632c-2.292,-4.585 -2.126,-6.11 0.916,-8.396c5.163,-3.88 6.2,-3.434 6.2,2.661c0,20.574 32.744,20.364 34.739,-0.222c0.39,-4.022 0.372,-4.079 -0.308,-0.95c-4.356,20.056 -33.582,20.989 -33.644,1.075c-0.02,-6.399 -3.264,-8.693 -6.787,-4.8c-0.796,0.88 -2.082,1.6 -2.857,1.6c-0.775,0 -1.591,0.45 -1.813,1c-1.037,2.569 -0.38,-6.479 0.76,-10.477c1.981,-6.946 3.794,-9.594 10.478,-15.3c5.766,-4.922 18.318,-6.289 26.111,-2.842m89.019,-0.256c8.889,3.93 13.559,9.237 16.428,18.668c2.823,9.283 2.218,10.346 -4.041,7.099c-3.523,-1.828 -4.24,-1.96 -5.407,-1c-0.74,0.61 -2.635,1.108 -4.211,1.108c-3.254,0 -4.196,2.024 -2.207,4.743c1.097,1.501 1.15,1.497 2.573,-0.164c3.519,-4.111 3.979,3.513 0.5,8.301c-12.795,17.612 -37.553,0.667 -27.781,-19.014c1.482,-2.984 0.281,-3.866 -5.265,-3.866c-2.526,0 -4.762,-0.274 -4.968,-0.608c-1.524,-2.465 8.258,-13.264 13.247,-14.626c1.632,-0.445 3.183,-1.16 3.447,-1.588c0.972,-1.572 13.505,-0.901 17.685,0.947m-25.826,19.228c0.252,0.964 -0.096,2.921 -0.774,4.348c-3.424,7.216 2.135,19.925 9.414,21.524c1.248,0.274 2.475,0.83 2.726,1.237c0.788,1.274 7.279,0.804 10.896,-0.789c3.169,-1.397 5.541,-3.313 8.611,-6.957c1.392,-1.652 2.372,-7.493 1.609,-9.591c-1.176,-3.236 2.643,-3.81 6.478,-0.975c2.878,2.128 2.947,3.562 0.409,8.568c-8.541,16.857 -30.386,19.824 -42.865,5.823c-7.961,-8.931 -8.873,-23.031 -1.576,-24.359c3.944,-0.718 4.619,-0.562 5.072,1.171m-59.472,4.672c0,0.454 -0.54,1.032 -1.2,1.286c-1.602,0.615 -3.829,-0.293 -3.203,-1.305c0.655,-1.06 4.403,-1.044 4.403,0.019m88.422,3.21c0.284,0.459 0.062,1.382 -0.493,2.051c-0.901,1.085 -1.084,1.08 -1.712,-0.042c-1.165,-2.081 0.962,-4.019 2.205,-2.009m-193.952,18.165c0.316,2.53 1.15,6.746 1.853,9.368c0.702,2.623 1.277,5.616 1.277,6.653c0,1.036 0.433,2.671 0.963,3.632c0.53,0.961 1.202,3.367 1.493,5.347l0.53,3.6l0.107,-3.702c0.059,-2.037 -0.393,-4.917 -1.005,-6.4c-0.611,-1.484 -1.347,-5.038 -1.635,-7.898c-0.592,-5.875 -2.816,-15.2 -3.625,-15.2c-0.294,0 -0.275,2.07 0.042,4.6m130.73,28.28c-6.737,0.962 -11.824,2.983 -11.253,4.472c0.249,0.648 0.453,1.494 0.453,1.88c0,4.847 26.65,7.064 33.005,2.746c10.233,-6.954 -2.03,-11.978 -22.205,-9.098m22.2,2.338c2.779,1.312 2.755,1.773 -0.224,4.279c-6.641,5.588 -36.589,2.449 -30.901,-3.239c2.35,-2.35 26.631,-3.161 31.125,-1.04m-142.324,12.645c0.728,0.805 1.324,2.169 1.324,3.031c0,0.862 0.72,2.98 1.6,4.706c0.88,1.726 1.613,3.512 1.629,3.969c0.015,0.457 0.894,2.631 1.953,4.831c2.28,4.737 2.711,2.787 0.482,-2.179c-2.321,-5.167 -4.598,-11.159 -5.177,-13.621c-0.304,-1.293 -1.057,-2.2 -1.826,-2.2c-1.206,0 -1.205,0.115 0.015,1.463m108.924,2.54c-5.384,0.778 -14.648,3.113 -17.6,4.437c-1.32,0.591 -4.527,2.032 -7.127,3.201c-9.117,4.1 -20.421,13.736 -23.414,19.959c-0.635,1.32 -1.668,3.3 -2.295,4.4c-0.627,1.1 -1.158,2.72 -1.181,3.6c-0.022,0.88 -0.554,2.5 -1.183,3.6c-2.021,3.535 -1.594,16.84 0.701,21.858c3.002,6.565 12.989,14.942 17.813,14.942c0.641,0 2.257,0.564 3.591,1.254c7.557,3.908 51.537,3.888 60.908,-0.028c1.615,-0.674 3.542,-1.226 4.284,-1.226c6.444,0 19.325,-10.211 23.212,-18.4c17.193,-36.229 -10.981,-64.349 -57.709,-57.597m31.876,2.457c23.103,6.702 33.264,23.546 27.472,45.54c-5.925,22.495 -19.508,29.602 -57.748,30.215c-22.949,0.367 -31.843,-0.933 -40.867,-5.977c-16.71,-9.339 -18.268,-30.534 -3.606,-49.038c7.171,-9.05 22.081,-17.475 35.273,-19.931c2.42,-0.45 5.48,-1.159 6.8,-1.575c4.927,-1.553 26.42,-1.048 32.676,0.766m-104.076,7.704c-2.75,2.845 -5,5.626 -5,6.18c0,0.554 -0.72,1.66 -1.6,2.456c-0.88,0.796 -1.6,2.088 -1.6,2.87c0,0.782 -0.72,1.651 -1.6,1.93c-1.053,0.334 -1.6,1.21 -1.6,2.562c0,1.164 -0.867,2.858 -2,3.908c-1.394,1.292 -2,2.696 -2,4.635c0,1.529 -0.58,3.361 -1.29,4.071c-0.851,0.85 -1.376,3.044 -1.542,6.44c-0.139,2.833 -0.486,5.528 -0.771,5.989c-0.286,0.462 0.589,1.874 1.942,3.138c2.111,1.972 2.461,2.866 2.461,6.285c0,3.273 0.278,4.058 1.554,4.392c1.855,0.485 2.446,0.013 2.446,-1.953c0,-2.439 4.638,-1.997 5.6,0.533c0.418,1.1 1.09,2 1.493,2c0.404,0 0.997,0.99 1.319,2.2c0.322,1.21 0.751,1.75 0.953,1.2c0.203,-0.55 0.857,-1 1.453,-1c0.677,0 1.179,-1.13 1.334,-3c0.242,-2.922 0.338,-3.006 3.715,-3.249c2.716,-0.196 3.365,-0.513 3,-1.466c-0.257,-0.669 -0.467,-2.224 -0.467,-3.457c0,-1.569 -0.48,-2.367 -1.6,-2.66c-1.471,-0.385 -1.6,-1.091 -1.6,-8.785c0,-7.156 0.232,-8.662 1.6,-10.401c1.009,-1.284 1.6,-3.246 1.6,-5.316c0,-2.292 0.483,-3.695 1.6,-4.652c1.432,-1.226 1.6,-2.36 1.6,-10.792l0,-9.422l-3,0.095c-2.589,0.083 -3.686,0.805 -8,5.269m-24.6,16.236c-0.272,0.44 -0.148,0.8 0.275,0.8c2.26,0 3.16,8.132 1.373,12.408c-0.683,1.634 -0.846,2.946 -0.4,3.222c0.414,0.255 0.752,0.017 0.752,-0.53c0,-0.547 0.757,-2.559 1.683,-4.471l1.682,-3.476l-2.072,-4.376c-2.158,-4.559 -2.474,-4.902 -3.293,-3.577m172.509,5.425c-0.084,5.079 -0.389,6.733 -1.309,7.086c-0.774,0.297 -1.2,1.535 -1.2,3.489c0,1.954 0.426,3.192 1.2,3.489c0.862,0.331 1.2,1.68 1.2,4.793c0,3.985 0.16,4.362 2,4.714c1.484,0.284 2,0.039 2,-0.947c0,-2.854 2.387,-3.948 4.343,-1.992c1.143,1.143 1.257,1.006 1.257,-1.502c0,-1.517 -0.501,-3.175 -1.113,-3.683c-0.612,-0.508 -1.366,-2.609 -1.675,-4.669c-0.309,-2.06 -1.068,-4.469 -1.687,-5.352c-0.619,-0.884 -1.125,-2.925 -1.125,-4.536c0,-2.212 -0.375,-3.026 -1.532,-3.329c-0.843,-0.22 -1.694,-1.252 -1.891,-2.293c-0.198,-1.041 -0.408,1.088 -0.468,4.732m-172.467,20.907c-0.248,0.402 -0.056,0.863 0.428,1.025c0.485,0.161 1.191,1.902 1.571,3.868c1.151,5.97 0.969,6.965 -1.441,7.845c-1.483,0.542 -1.727,0.824 -0.747,0.867c3.598,0.156 4.337,-1.136 3.625,-6.34c-0.843,-6.169 -2.261,-9.166 -3.436,-7.265m33.758,44.384c-2.839,4.025 -0.434,11.037 4.096,11.943c5.752,1.151 28.803,1.541 33.924,0.575c5.782,-1.091 7.451,-2.375 9.186,-7.068c2.264,-6.123 3.501,-5.832 -29.406,-6.901l-16.4,-0.533l-1.4,1.984m67.4,-1.383c-4.703,0.741 -5.634,1.213 -6.785,3.439c-4.964,9.599 5.86,12.857 34.763,10.465c11.04,-0.914 16.412,-6.912 11.18,-12.482l-1.837,-1.955l-17.66,0.109c-9.714,0.06 -18.561,0.251 -19.661,0.424" fill="#ffffff" fill-rule="evenodd"/>
   <path id="path6" d="m165,56.566c-1.45,3.122 -1.414,29.834 0.04,29.834c0.572,0 1.479,-0.439 2.015,-0.975c0.536,-0.536 4.118,-1.409 7.96,-1.939c3.842,-0.531 8.425,-1.344 10.185,-1.806c1.76,-0.463 7.37,-0.85 12.467,-0.861c11.625,-0.024 11.693,-0.114 4.532,-6.046c-13.887,-11.504 -21.205,-16.692 -24.826,-17.601c-1.159,-0.291 -2.526,-1.034 -3.038,-1.65c-1.789,-2.156 -8.181,-1.441 -9.335,1.044m-53,45.078c-11.145,2.627 -13.972,4.404 -12.159,7.643c3.131,5.595 14.559,14.037 14.559,10.755c0,-1.016 13.436,-14.442 14.452,-14.442c2.115,0 2.156,-3.598 0.048,-4.105c-3.003,-0.723 -13.598,-0.629 -16.9,0.149m34.8,36.786c-6.681,1.199 -14.213,6.674 -15.025,10.922c-1.159,6.065 5.136,8.665 12.225,5.048c1.725,-0.88 3.816,-1.6 4.646,-1.6c0.83,0 2.339,-0.72 3.354,-1.6c1.015,-0.88 2.156,-1.6 2.535,-1.6c0.38,0 1.287,-1.25 2.016,-2.778c2.747,-5.761 -1.938,-9.793 -9.751,-8.392m139,2.852c-3.821,1.724 2.315,11.496 7.236,11.523c0.53,0.003 2.044,0.721 3.364,1.595c8.796,5.825 13.521,-2.247 5.794,-9.898c-3.178,-3.146 -12.501,-4.977 -16.394,-3.22m-197,20.809c-3.345,2.335 -9.6,8.317 -9.6,9.182c0,1.449 2.722,3.137 5.257,3.26c1.509,0.074 3.342,0.164 4.074,0.2c1.67,0.084 4.119,-6.513 4.207,-11.333c0.071,-3.896 -0.134,-3.964 -3.938,-1.309m-0.415,54.028c-0.316,1.035 -1.044,2.421 -1.617,3.081c-3.271,3.763 -1.981,7.66 2.085,6.3c3.935,-1.316 4.027,-1.515 2.71,-5.891c-1.479,-4.912 -2.426,-5.953 -3.178,-3.49" fill="#ffffff" fill-rule="evenodd"/>
   <path id="path7" d="m212.8,81.99c0,3.264 1.597,4.181 8.934,5.132c8.242,1.069 12.219,2.057 24.667,6.13c4.62,1.511 9.314,2.748 10.431,2.748c1.116,0 3.368,0.682 5.004,1.516c4.216,2.15 5.525,2.592 4.959,1.675c-2.255,-3.648 -27.375,-12.519 -41.995,-14.829c-4.18,-0.661 -8.59,-1.534 -9.8,-1.94c-1.21,-0.406 -2.2,-0.601 -2.2,-0.432m-38.184,4.735c1.439,1.092 6.006,0.962 11.784,-0.335c2.038,-0.458 0.624,-0.644 -5.2,-0.684c-6.858,-0.047 -7.798,0.098 -6.584,1.019m-12.244,3.241c0.656,0.791 1.781,1.013 3.498,0.69c4.928,-0.927 5.04,-1.807 0.232,-1.832c-4.026,-0.021 -4.559,0.143 -3.73,1.142m-6.972,1.799c-2.728,0.525 -2.153,1.837 0.8,1.823c3.309,-0.016 5.336,-1.134 3.402,-1.877c-0.733,-0.281 -1.573,-0.462 -1.867,-0.402c-0.294,0.06 -1.345,0.265 -2.335,0.456m-8.537,3.886c-0.688,0.688 -1.571,1.053 -1.962,0.811c-0.391,-0.241 -2.03,0.456 -3.642,1.549c-1.611,1.094 -3.274,1.989 -3.695,1.989c-0.42,0 -0.764,0.514 -0.764,1.142c0,0.628 -0.955,1.893 -2.122,2.811c-1.167,0.918 -1.937,1.854 -1.711,2.081c0.605,0.605 4.633,-1.07 4.633,-1.927c0,-0.404 0.9,-0.959 2,-1.236c1.1,-0.276 2,-0.827 2,-1.224c0,-0.398 1.26,-1.139 2.8,-1.647c1.54,-0.508 2.8,-1.246 2.8,-1.639c0,-0.393 1.146,-1.012 2.546,-1.375c1.4,-0.363 2.69,-1.093 2.866,-1.623c0.48,-1.439 -4.259,-1.202 -5.749,0.288m123.916,6.883c9.418,7.898 29.221,30.348 29.221,33.125c0,0.225 1.433,2.35 3.185,4.721c3.543,4.796 5.605,9.602 6.186,14.42c0.275,2.285 1.251,4.115 3.411,6.4c3.054,3.23 8.818,11.142 8.818,12.104c0,0.286 0.681,2 1.514,3.808c0.833,1.809 2.109,6.014 2.835,9.345c6.369,29.22 -4.793,52.521 -31.149,65.028c-11.615,5.512 -10.324,4.181 -11.01,11.347c-0.335,3.502 -0.965,8.805 -1.4,11.783c-0.978,6.703 -1.032,16.585 -0.09,16.585c0.827,0 1.7,-3.919 1.7,-7.635c0,-3.003 0.674,-5.165 1.61,-5.165c0.792,0 4.377,6.094 5.177,8.8c0.325,1.1 1.05,3.08 1.611,4.4c7.158,16.843 6.476,32.236 -1.663,37.569c-2.371,1.553 -7.436,0.119 -7.615,-2.156c-0.044,-0.557 -0.328,-0.113 -0.633,0.987c-0.762,2.759 -3.317,2.923 -5.716,0.368c-2.693,-2.868 -2.739,-11.831 -0.078,-15.214c0.986,-1.253 1.707,-3.324 1.707,-4.902c0,-1.502 0.507,-3.711 1.126,-4.908c1.06,-2.051 1.559,-6.017 1.326,-10.544c-0.188,-3.653 -2.452,0.618 -2.452,4.627c0,2.309 -0.55,4.22 -1.6,5.555c-0.88,1.118 -1.6,3.08 -1.6,4.358c0,1.278 -0.72,3.735 -1.6,5.46c-0.88,1.725 -1.6,3.845 -1.6,4.711c0,0.866 -0.462,2.05 -1.028,2.632c-2.864,2.947 -5.537,12.766 -3.772,13.857c1.461,0.903 0.849,4.875 -1.023,6.634c-2.858,2.685 -8.241,4.199 -17.777,4.999c-4.84,0.407 -11.5,1.094 -14.8,1.528c-9.621,1.266 -67.851,1.048 -78.559,-0.294c-4.973,-0.623 -12.461,-1.37 -16.641,-1.66c-19.902,-1.382 -29.815,-7.633 -23.942,-15.099c2.291,-2.912 4.263,-2.644 8.037,1.092l3.232,3.2l7.104,0c7.3,0 11.169,-1.877 11.169,-5.417c0,-0.568 0.63,-1.266 1.4,-1.55c6.86,-2.53 10.077,-9.442 6.2,-13.319c-0.66,-0.66 -1.2,-1.769 -1.2,-2.465c0,-0.695 -0.72,-1.881 -1.6,-2.635c-1.655,-1.417 -2.382,-8.214 -0.878,-8.214c0.906,0 2.478,-4.408 2.478,-6.948c0,-1.049 0.506,-2.706 1.124,-3.68c1.458,-2.299 2.328,-9.434 1.334,-10.949c-1.26,-1.923 -1.965,-0.288 -2.327,5.396c-0.227,3.561 -0.75,5.658 -1.56,6.25c-0.746,0.545 -1.365,2.647 -1.594,5.411c-0.259,3.122 -0.716,4.52 -1.476,4.52c-1.847,0 -1.692,7.173 0.178,8.24c0.616,0.352 1.121,1.345 1.121,2.208c0,0.862 0.72,2.184 1.6,2.938c2.457,2.103 2.214,7.168 -0.4,8.36c-1.1,0.501 -2,1.213 -2,1.582c0,0.37 -1.044,0.672 -2.321,0.672c-2.013,0 -2.412,0.389 -3.015,2.938c-0.871,3.685 -4.246,5.25 -6.644,3.08c-1.16,-1.05 -1.841,-1.156 -3.101,-0.482c-2.473,1.324 -6.519,1.1 -6.519,-0.361c0,-0.674 -0.536,-1.431 -1.191,-1.682c-0.656,-0.252 -1.589,-1.933 -2.075,-3.737c-0.876,-3.254 -0.893,-3.266 -2.208,-1.549c-0.729,0.952 -2.652,2.279 -4.272,2.95c-8.684,3.595 -7.13,14.707 2.718,19.438c7.016,3.37 9.287,4.055 15.324,4.621c7.863,0.737 8.504,1.371 8.504,8.422c0,12 4.245,14.44 27.227,15.654c16.392,0.865 26.623,-2.431 28.662,-9.236c1.482,-4.946 4.353,-5.279 5.23,-0.605c1.542,8.218 13.879,11.406 36.081,9.322c17.051,-1.601 19.6,-3.73 19.6,-16.37l0,-6.877l2.544,-1.363c8.07,-4.324 11.984,-10.547 9.847,-15.661c-1.986,-4.754 0.806,-6.337 4.41,-2.501c3.06,3.257 6.687,3.849 14.231,2.323c6.093,-1.232 10.568,-10.243 10.568,-21.282c0,-8.373 -0.156,-9.038 -4.848,-20.642c-0.801,-1.98 -2.361,-5.94 -3.468,-8.8c-1.107,-2.86 -2.744,-6.619 -3.639,-8.352c-3.227,-6.251 -0.997,-16.511 3.838,-17.661c1.164,-0.276 3.917,-1.547 6.117,-2.823c2.2,-1.276 5.246,-2.907 6.768,-3.623c16.531,-7.78 29.885,-37.697 25.685,-57.541c-2.375,-11.222 -3.33,-14.841 -4.553,-17.267c-0.758,-1.503 -1.917,-3.813 -2.576,-5.133c-1.402,-2.808 -3.425,-5.617 -7.381,-10.253c-2.898,-3.395 -6.343,-9.435 -6.343,-11.119c0,-1.005 -2.309,-6.357 -4.929,-11.428c-5.751,-11.126 -16.76,-23.623 -28.125,-31.924c-6.989,-5.104 -10.67,-6.855 -5.767,-2.742m-27.934,2.444c-1.299,1.856 -1.788,5.539 -0.554,4.182c0.784,-0.863 2.591,-5.96 2.113,-5.96c-0.172,0 -0.874,0.8 -1.559,1.778m-113.611,2.967c-0.817,1.322 0.884,1.639 2.448,0.455c1.468,-1.111 1.46,-1.15 -0.235,-1.175c-0.964,-0.014 -1.96,0.31 -2.213,0.72m-3.634,3.655c0,0.66 0.316,1.2 0.702,1.2c0.386,0 1.15,-0.54 1.698,-1.2c0.832,-1.003 0.717,-1.2 -0.702,-1.2c-0.976,0 -1.698,0.51 -1.698,1.2m-2.645,2.512c-0.613,0.612 0.067,1.888 1.007,1.888c0.367,0 0.874,-0.54 1.127,-1.2c0.457,-1.189 -1.123,-1.699 -2.134,-0.688m-3.755,3.441c0,1.386 1.408,1.642 2.407,0.438c0.823,-0.991 0.704,-1.191 -0.709,-1.191c-0.934,0 -1.698,0.339 -1.698,0.753m-2.4,4.047c0,1.067 -0.533,1.6 -1.6,1.6c-0.88,0 -1.6,0.331 -1.6,0.735c0,0.404 -0.219,1.304 -0.486,2c-0.318,0.83 -0.043,1.265 0.8,1.265c0.707,0 1.286,-0.496 1.286,-1.102c0,-0.606 0.56,-1.567 1.244,-2.134c2.123,-1.762 3.003,-3.964 1.584,-3.964c-0.695,0 -1.228,0.695 -1.228,1.6m86.305,0.625c-0.264,1.59 -0.146,2.336 0.298,1.892c0.403,-0.403 0.599,-1.584 0.435,-2.625c-0.252,-1.601 -0.365,-1.488 -0.733,0.733m-92.702,6.569c-1.123,2.098 -0.29,3.64 1.268,2.347c1.297,-1.076 1.481,-2.829 0.369,-3.516c-0.418,-0.258 -1.154,0.268 -1.637,1.169m-2.67,3.739c-0.789,0.789 -0.647,4.267 0.174,4.267c0.625,0 1.652,-2.565 1.682,-4.2c0.014,-0.744 -1.137,-0.785 -1.856,-0.067m-4.434,7.527c-0.472,1.353 -1.209,2.243 -1.638,1.978c-0.429,-0.265 -1.033,0.878 -1.343,2.54c-0.309,1.662 -1.258,4.362 -2.109,5.999c-1.067,2.054 -1.382,3.725 -1.016,5.391c0.72,3.277 1.859,3.776 2.433,1.065c0.738,-3.49 4.557,-13.295 5.723,-14.696c1.391,-1.672 1.346,-4.737 -0.071,-4.737c-0.617,0 -1.507,1.107 -1.979,2.46m100.889,4.506c-3.909,0.752 -0.554,1.834 5.659,1.825c8.293,-0.011 13.566,-0.787 11.318,-1.666c-1.643,-0.643 -13.865,-0.757 -16.977,-0.159m29.554,0.13c-1.331,0.843 4.515,1.704 11.57,1.704c5.052,0 6.737,-0.971 3.288,-1.896c-2.689,-0.72 -13.643,-0.579 -14.858,0.192m-43.142,3.034c-2.138,0.863 -0.839,1.869 2.4,1.859c4.247,-0.014 7.118,-0.751 6.544,-1.68c-0.459,-0.742 -7.214,-0.877 -8.944,-0.179m63.456,0.179c-0.574,0.929 2.297,1.666 6.544,1.68c3.4,0.011 4.52,-0.988 2.135,-1.903c-1.928,-0.74 -8.183,-0.579 -8.679,0.223m-71.19,2.386c-3.155,0.683 -3.691,2.508 -0.733,2.494c4.058,-0.019 6.02,-0.841 4.986,-2.087c-0.503,-0.606 -1.141,-1.059 -1.417,-1.007c-0.276,0.052 -1.552,0.322 -2.836,0.6m83.081,0.192c-0.768,1.241 1.163,2.286 4.253,2.301c2.523,0.012 3.621,-1.324 1.6,-1.946c-3.309,-1.02 -5.366,-1.145 -5.853,-0.355m-91.347,3.138c-2.49,1.001 -2.257,2.378 0.4,2.363c3.152,-0.018 5.012,-1.318 3.4,-2.376c-1.411,-0.926 -1.465,-0.926 -3.8,0.013m99.8,-0.013c-1.53,1.005 0.192,2.357 3.025,2.376c1.004,0.006 2.024,0.53 2.267,1.163c0.243,0.633 1.492,1.382 2.775,1.664c1.283,0.282 2.333,1.024 2.333,1.649c0,0.625 0.487,1.136 1.083,1.136c0.596,0 1.995,0.81 3.109,1.8c6.235,5.539 7.593,6.89 9.467,9.42c1.132,1.529 2.291,3.41 2.575,4.18c0.284,0.77 0.887,1.4 1.341,1.4c1.429,0 0.895,-3.155 -0.775,-4.586c-0.88,-0.753 -1.6,-1.827 -1.6,-2.385c0,-0.558 -0.72,-1.465 -1.6,-2.015c-0.88,-0.549 -1.6,-1.452 -1.6,-2.006c0,-0.555 -0.345,-1.008 -0.768,-1.008c-0.422,0 -1.592,-0.857 -2.6,-1.904c-2.384,-2.477 -9.434,-7.335 -11.677,-8.047c-0.965,-0.306 -1.755,-0.835 -1.755,-1.174c0,-0.34 -0.917,-1.036 -2.038,-1.547c-2.415,-1.1 -2.079,-1.089 -3.562,-0.116m-106.2,3.364c-0.99,0.478 -1.8,1.173 -1.8,1.546c0,0.373 -0.485,0.678 -1.078,0.678c-0.593,0 -2.843,1.612 -5,3.582c-2.157,1.971 -4.282,3.607 -4.722,3.637c-0.44,0.03 -1.88,1.475 -3.2,3.211c-1.32,1.736 -3.236,4.105 -4.257,5.266c-1.218,1.384 -1.586,2.381 -1.07,2.897c0.974,0.974 2.527,0.106 2.527,-1.412c0,-0.619 0.72,-1.51 1.6,-1.981c0.88,-0.471 1.6,-1.384 1.6,-2.028c0,-0.645 0.516,-1.172 1.146,-1.172c0.63,0 1.375,-0.72 1.654,-1.6c0.279,-0.88 1.024,-1.6 1.654,-1.6c0.63,0 1.146,-0.501 1.146,-1.113c0,-0.613 0.9,-1.339 2,-1.616c1.1,-0.276 2,-1.035 2,-1.686c0,-0.652 0.54,-1.185 1.2,-1.185c0.66,0 1.883,-0.683 2.719,-1.519c0.835,-0.835 2.614,-1.759 3.954,-2.053c1.67,-0.367 2.297,-0.896 1.996,-1.682c-0.512,-1.333 -1.565,-1.377 -4.069,-0.17m-73.299,7.919c-0.698,3.49 0.361,9.931 1.168,7.105c0.83,-2.904 0.847,-8.634 0.028,-9.14c-0.386,-0.239 -0.924,0.677 -1.196,2.035m-3.364,20.775c-0.715,9.108 -0.6,22.857 0.202,24.154c1.828,2.959 2.55,-2.555 2.109,-16.113c-0.542,-16.637 -1.401,-19.627 -2.311,-8.041m53.463,-6.357c-1.186,1.194 -1.327,4.391 -0.223,5.073c0.874,0.54 1.909,-2.763 1.494,-4.77c-0.218,-1.052 -0.468,-1.111 -1.271,-0.303m158.833,-0.479c-0.669,0.669 0.484,5.229 1.367,5.406c1.263,0.253 1.403,-3.875 0.167,-4.902c-0.613,-0.508 -1.303,-0.735 -1.534,-0.504m-118.57,6.354c-1.725,0.615 -4.605,1.342 -6.4,1.616c-3.477,0.531 -12.463,4.359 -12.463,5.309c0,0.313 2.25,-0.346 5,-1.463c4.582,-1.861 10.817,-3.369 19.582,-4.735c1.859,-0.29 3.188,-0.84 2.952,-1.221c-0.637,-1.032 -5.104,-0.777 -8.671,0.494m74.314,0.656c-1.298,1.516 -1.297,1.573 0.032,1.063c2.337,-0.896 14.447,1.108 21.271,3.521c3.836,1.357 6.294,1.888 6.107,1.321c-0.172,-0.522 -1.184,-1.072 -2.25,-1.222c-1.065,-0.15 -2.531,-0.803 -3.257,-1.452c-0.726,-0.648 -4.146,-1.679 -7.6,-2.29c-3.454,-0.612 -7.777,-1.434 -9.606,-1.828c-2.864,-0.616 -3.516,-0.493 -4.697,0.887m-117.777,0.303c-1.187,2.075 -1.323,6.359 -0.223,7.039c1.013,0.626 1.81,-2.641 1.482,-6.075c-0.248,-2.599 -0.3,-2.639 -1.259,-0.964m165.412,3.606c0.015,5.135 1.193,7.7 2.021,4.4c0.629,-2.506 -0.14,-7.477 -1.264,-8.172c-0.456,-0.282 -0.764,1.255 -0.757,3.772m-168.274,6.871c-0.732,1.132 -0.896,16.085 -0.185,16.796c1.057,1.056 1.29,-0.921 1.075,-9.115c-0.13,-4.973 -0.512,-8.266 -0.89,-7.681m168.804,12.494c-0.831,2.166 -0.655,10.246 0.212,9.711c1.155,-0.714 1.94,-7.519 1.087,-9.43c-0.688,-1.541 -0.805,-1.567 -1.299,-0.281m-212.896,10.272c-0.686,5.013 -0.012,10.531 1.194,9.785c0.861,-0.532 0.862,-8.344 0.002,-11.975c-0.508,-2.147 -0.634,-1.916 -1.196,2.19m46.499,-2.069c-1.197,1.198 -0.215,8.279 1.148,8.279c0.881,0 0.914,-6.435 0.04,-7.812c-0.353,-0.557 -0.888,-0.767 -1.188,-0.467m163.188,3.212c-1.235,1.236 -0.593,6.113 0.667,5.067c0.66,-0.548 1.2,-2.032 1.2,-3.298c0,-2.207 -0.733,-2.902 -1.867,-1.769m-160.533,8.089c0,1.232 0.713,2.833 1.6,3.592c0.88,0.754 1.6,1.901 1.6,2.55c0,0.649 0.72,1.565 1.6,2.036c0.88,0.471 1.6,1.395 1.6,2.053c0,0.659 0.602,1.428 1.339,1.711c0.736,0.283 1.906,1 2.6,1.595c0.693,0.595 2.321,1.988 3.616,3.096c1.295,1.109 3.095,1.91 4,1.78c2.482,-0.355 1.975,-1.738 -0.955,-2.6c-1.43,-0.421 -2.6,-1.231 -2.6,-1.8c0,-0.569 -0.499,-1.035 -1.109,-1.035c-1.413,0 -6.804,-5.432 -7.74,-7.8c-0.391,-0.99 -1.26,-1.8 -1.931,-1.8c-0.671,0 -1.22,-0.691 -1.22,-1.535c0,-2.09 -0.819,-4.065 -1.686,-4.065c-0.393,0 -0.714,1 -0.714,2.222m156.78,-0.17c-0.429,1.129 -0.78,2.389 -0.78,2.8c0,0.411 -0.54,0.748 -1.2,0.748c-0.667,0 -1.2,0.711 -1.2,1.6c0,1.067 -0.533,1.6 -1.6,1.6c-0.9,0 -1.6,0.533 -1.6,1.22c0,0.671 -0.862,1.547 -1.916,1.948c-1.054,0.401 -2.054,1.141 -2.222,1.645c-0.168,0.504 -1.484,1.157 -2.924,1.452c-1.441,0.294 -2.585,0.895 -2.542,1.335c0.124,1.28 4.994,0.662 5.774,-0.732c0.39,-0.697 1.136,-1.268 1.657,-1.268c1.703,0 10.973,-10.62 10.973,-12.57c0,-2.457 -1.452,-2.324 -2.42,0.222m-202.595,4.048c-1.051,1.702 -0.718,9.604 0.526,12.474c0.709,1.636 1.295,3.976 1.301,5.2c0.015,2.603 0.672,3.753 2.54,4.441c0.921,0.339 1.431,1.596 1.6,3.941c0.136,1.894 0.608,3.342 1.048,3.217c1.304,-0.37 0.798,-6.29 -0.663,-7.75c-0.767,-0.767 -1.337,-2.598 -1.337,-4.292c0,-1.625 -0.72,-4.298 -1.6,-5.94c-0.88,-1.642 -1.625,-4.337 -1.656,-5.988c-0.066,-3.49 -1.048,-6.453 -1.759,-5.303m131.197,6.477c1.42,0.177 3.94,0.18 5.6,0.007c1.66,-0.173 0.498,-0.318 -2.582,-0.321c-3.08,-0.004 -4.438,0.138 -3.018,0.314m-25.382,3.823c-0.548,0.66 -1.807,1.2 -2.798,1.2c-3.684,0 -6.802,1.013 -6.802,2.21c0,2.252 9.3,0.852 13.959,-2.102l3.954,-2.508l-3.658,0c-2.277,0 -4.035,0.453 -4.655,1.2m44.8,-0.524c0,3.048 12.992,5.454 25.572,4.737c14.163,-0.808 10.628,-2.763 -5.274,-2.918c-7.563,-0.074 -9.922,-0.36 -10.698,-1.295c-1.073,-1.293 -9.6,-1.758 -9.6,-0.524m-82.551,5.814c-4.085,1.082 1.455,1.91 12.551,1.875c10.459,-0.033 19.728,-1.668 11.6,-2.047c-7.811,-0.364 -22.524,-0.259 -24.151,0.172m-27.849,12.71c-0.88,0.88 -1.836,1.6 -2.125,1.6c-0.698,0 -8.264,8.233 -8.27,9c-0.003,0.33 -0.725,1.32 -1.605,2.2c-0.88,0.88 -1.6,2.281 -1.6,3.114c0,0.833 -0.52,1.714 -1.156,1.958c-0.636,0.244 -1.401,1.75 -1.7,3.347c-0.719,3.832 -5.878,3.039 -5.932,-0.911c-0.006,-0.491 -0.685,-1.751 -1.508,-2.8c-0.822,-1.049 -1.75,-3.074 -2.061,-4.499c-0.798,-3.655 -1.871,-3.938 -2.487,-0.657c-0.583,3.11 1.897,9.101 5.088,12.292c0.966,0.966 1.756,2.418 1.756,3.228c0,0.809 0.87,1.867 1.933,2.352c2.146,0.978 2.867,0.108 2.867,-3.461c0,-1.088 0.687,-2.274 1.6,-2.763c0.891,-0.477 1.6,-1.675 1.6,-2.704c0,-1.016 0.72,-2.5 1.6,-3.296c0.88,-0.796 1.6,-1.914 1.6,-2.484c0,-0.57 0.487,-1.324 1.083,-1.676c0.596,-0.352 1.545,-1.517 2.108,-2.59c1.125,-2.138 2.247,-3.616 3.866,-5.088c0.582,-0.529 1.777,-1.617 2.655,-2.417c7.649,-6.965 15.888,-3.485 15.888,6.712c0,3.489 0.318,6.343 0.707,6.343c1.999,0 2.468,-14.153 0.493,-14.911c-0.66,-0.253 -1.2,-0.923 -1.2,-1.489c0,-2.632 -12.636,-2.964 -15.2,-0.4m-31.053,5.2c0.139,1.76 0.613,3.09 1.053,2.957c1.035,-0.315 0.729,-4.153 -0.422,-5.285c-0.645,-0.636 -0.816,-0.005 -0.631,2.328m9.453,32.706c0,1.1 -0.312,2.193 -0.694,2.428c-0.382,0.236 -0.882,1.968 -1.112,3.848c-0.229,1.88 -0.676,4.048 -0.991,4.818c-0.903,2.202 0.988,1.662 2.555,-0.729c1.477,-2.254 2.166,-11.176 0.922,-11.945c-0.374,-0.231 -0.68,0.48 -0.68,1.58m165.343,14.147c-1.734,6.48 1.248,10.651 6.253,8.748c2.529,-0.961 2.046,-2.089 -1.199,-2.802c-1.994,-0.438 -2.561,-1.127 -3.459,-4.208c-0.957,-3.28 -1.132,-3.471 -1.595,-1.738m-165.474,0.059c-0.204,0.599 -0.136,2.168 0.151,3.488l0.52,2.4l0.602,-2.142c0.637,-2.266 -0.57,-5.815 -1.273,-3.746m136.919,38.281c3.076,1.647 3.53,11.36 0.708,15.176c-2.897,3.919 -7.84,4.941 -24.525,5.072c-20.39,0.16 -24.315,-1.698 -25.272,-11.963c-0.588,-6.315 -1.781,-5.935 21.101,-6.714c10.34,-0.352 19.7,-1.005 20.8,-1.451c2.615,-1.061 5.344,-1.106 7.188,-0.12m-71.067,2.093l14.122,0.479l0.335,2.284c0.375,2.557 -1.802,8.967 -3.792,11.167c-3.053,3.373 -8.71,4.394 -23.443,4.229c-20.852,-0.233 -25.667,-2.413 -25.718,-11.645c-0.046,-8.473 -3.242,-7.932 38.496,-6.514" fill="#ffffff" fill-rule="evenodd"/>
  </g>
 </g>
</svg>