<?xml version="1.0"?>
<svg width="500" height="500" xmlns="http://www.w3.org/2000/svg" xmlns:svg="http://www.w3.org/2000/svg">
 <g>
  <title>Layer 1</title>
  <g id="svgg">
   <path id="path1" d="m177.786,40.8c0.549,0.88 1.316,1.6 1.704,1.6c0.388,0 0.305,-0.483 -0.185,-1.074c-0.49,-0.59 -0.654,-1.31 -0.365,-1.6c0.29,-0.289 -0.076,-0.526 -0.813,-0.526c-1.14,0 -1.191,0.239 -0.341,1.6m17.414,9.181c0,0.722 0.329,1.11 0.732,0.861c0.402,-0.248 0.936,0 1.186,0.553c0.249,0.553 0.37,0.315 0.268,-0.529c-0.23,-1.9 -2.186,-2.693 -2.186,-0.885m15.195,12.41c0.468,0.874 1.729,1.81 2.801,2.08c1.073,0.269 1.873,0.777 1.777,1.129c-0.265,0.981 1.347,1.039 1.674,0.06c0.157,-0.472 -0.346,-1.102 -1.119,-1.398c-0.773,-0.297 -2.063,-1.197 -2.867,-2.001c-2.005,-2.005 -3.367,-1.927 -2.266,0.13m-70.795,2.409c-0.272,0.44 0.268,0.8 1.2,0.8c0.932,0 1.472,-0.36 1.2,-0.8c-0.272,-0.44 -0.812,-0.8 -1.2,-0.8c-0.388,0 -0.928,0.36 -1.2,0.8m77.353,3.26c0.158,0.473 0.638,0.859 1.067,0.857c0.429,-0.002 1.068,0.511 1.42,1.14c0.352,0.629 1.135,1.143 1.741,1.143c0.606,0 1.266,0.63 1.468,1.4c0.275,1.054 0.388,0.955 0.458,-0.4c0.065,-1.262 -0.357,-1.8 -1.414,-1.8c-0.834,0 -1.693,-0.714 -1.925,-1.6c-0.23,-0.88 -1.022,-1.6 -1.76,-1.6c-0.738,0 -1.212,0.387 -1.055,0.86m16.646,6.703c2.139,1.184 2.887,1.07 2.034,-0.31c-0.29,-0.469 -1.316,-0.84 -2.28,-0.825c-1.691,0.028 -1.682,0.068 0.246,1.135m11.895,2.755c0.602,0.381 1.407,1.186 1.788,1.788c0.511,0.806 0.697,0.62 0.706,-0.706c0.009,-1.341 -0.447,-1.797 -1.788,-1.788c-1.326,0.009 -1.512,0.195 -0.706,0.706m8.906,3.329c0,0.466 0.36,0.625 0.8,0.353c0.44,-0.272 0.8,-0.113 0.8,0.353c0,0.466 0.36,0.847 0.8,0.847c0.44,0 0.8,-0.54 0.8,-1.2c0,-0.667 -0.711,-1.2 -1.6,-1.2c-0.88,0 -1.6,0.381 -1.6,0.847m-121.36,3.436c-0.352,0.595 -1.18,1.287 -1.84,1.537c-0.969,0.366 -0.936,0.466 0.172,0.517c0.754,0.035 1.757,-0.657 2.228,-1.537c0.95,-1.774 0.453,-2.233 -0.56,-0.517m-38.84,5.381c-1.673,0.974 -1.844,2.336 -0.293,2.336c0.608,0 1.295,-0.72 1.525,-1.6c0.23,-0.88 0.362,-1.589 0.293,-1.576c-0.069,0.014 -0.755,0.392 -1.525,0.84m179.4,-0.407c0,0.252 0.557,1.014 1.238,1.695c1.541,1.541 2.561,0.733 1.178,-0.933c-0.999,-1.203 -2.416,-1.65 -2.416,-0.762m8.049,6.217c1.481,1.305 4.105,2.187 3.801,1.277c-0.184,-0.552 -1.194,-1.136 -2.244,-1.296c-1.05,-0.16 -1.751,-0.152 -1.557,0.019m-198.356,28.726c-0.062,1.463 0.309,2.2 1.107,2.2c0.66,0 1.2,-0.36 1.2,-0.8c0,-0.44 -0.334,-0.8 -0.741,-0.8c-0.408,0 -0.906,-0.63 -1.108,-1.4c-0.225,-0.861 -0.401,-0.554 -0.458,0.8m234.893,16.6c0.753,0.88 1.47,1.6 1.592,1.6c0.122,0 0.222,-0.72 0.222,-1.6c0,-1.064 -0.533,-1.6 -1.592,-1.6c-1.516,0 -1.526,0.077 -0.222,1.6m-240.549,9.155c-0.785,0.946 -0.658,1.132 0.703,1.03c0.913,-0.069 1.66,-0.589 1.66,-1.155c0,-1.37 -1.174,-1.307 -2.363,0.125m-6.961,5.68c-0.694,1.808 -0.071,1.903 1.524,0.232c1.185,-1.241 1.211,-1.467 0.175,-1.467c-0.674,0 -1.438,0.556 -1.699,1.235m256.675,0.107c0.743,0.196 1.511,0.964 1.707,1.707c0.253,0.957 0.383,0.826 0.449,-0.449c0.072,-1.386 -0.321,-1.779 -1.707,-1.707c-1.275,0.066 -1.406,0.196 -0.449,0.449m-259.618,2.391c-0.293,0.294 -0.533,1.039 -0.533,1.657c0,0.932 0.206,0.919 1.2,-0.076c0.66,-0.66 1.2,-1.405 1.2,-1.657c0,-0.626 -1.214,-0.576 -1.867,0.076m-2.333,5.381c-0.77,0.584 -1.4,1.337 -1.4,1.672c0,0.336 0.483,0.209 1.074,-0.281c0.59,-0.49 1.31,-0.654 1.6,-0.365c0.289,0.29 0.526,-0.073 0.526,-0.807c0,-1.58 -0.007,-1.58 -1.8,-0.219m267.4,2.086c0,0.44 0.72,1.52 1.6,2.4c1.72,1.72 2.119,0.865 0.772,-1.653c-0.873,-1.631 -2.372,-2.104 -2.372,-0.747m-146,21.648c-1.32,0.31 -3.66,0.618 -5.2,0.684c-1.54,0.067 -4.24,0.818 -6,1.668c-1.76,0.85 -3.81,1.558 -4.555,1.573c-3.267,0.065 -5.077,6.893 -2.67,10.074c0.646,0.854 1.186,2.124 1.2,2.822c0.19,9.5 26.425,9.662 26.425,0.163c0,-0.611 0.574,-2.221 1.275,-3.578c1.515,-2.929 0.465,-4.132 -2.976,-3.411c-3.378,0.708 -4.983,-1.527 -4.433,-6.171c0.512,-4.326 0.285,-4.609 -3.066,-3.824m154.012,0.105c0.024,2.008 1.562,3.663 1.576,1.694c0.006,-0.964 -0.348,-1.975 -0.788,-2.247c-0.44,-0.272 -0.794,-0.023 -0.788,0.553m-81.344,0.793c-4.385,2.121 -3.331,15.415 1.585,19.999c5.817,5.425 21.892,4.38 22.113,-1.437c0.019,-0.491 0.754,-1.808 1.634,-2.926c2.236,-2.843 2.009,-3.508 -1.075,-3.148c-2.313,0.27 -2.909,-0.05 -4.398,-2.361l-1.722,-2.673l1.991,-1.756c1.462,-1.29 1.728,-1.927 0.998,-2.396c-5.347,-3.439 -17.058,-5.269 -21.126,-3.302m-192.256,1.207c-0.006,0.964 0.348,1.975 0.788,2.247c1.019,0.629 1.019,-1.224 0,-2.8c-0.63,-0.976 -0.778,-0.872 -0.788,0.553m6.683,9.258c0.395,2.603 2.905,4.173 2.905,1.817c0,-0.644 -0.687,-1.54 -1.528,-1.989c-1.128,-0.604 -1.488,-0.559 -1.377,0.172m267.814,13.726c-0.06,0.845 -0.705,2.195 -1.433,3c-1.234,1.363 -1.231,1.463 0.047,1.463c0.754,0 1.168,-0.329 0.919,-0.732c-0.248,-0.402 -0.054,-0.864 0.431,-1.026c0.486,-0.162 0.718,-1.183 0.514,-2.268c-0.262,-1.401 -0.401,-1.528 -0.478,-0.437m-273.976,12.196c-1.068,1.069 -0.497,5.789 0.867,7.153c1.982,1.982 2.466,-0.55 0.638,-3.34c-1.154,-1.761 -1.161,-2.026 -0.066,-2.446c0.675,-0.259 1.228,-0.793 1.228,-1.186c0,-0.832 -1.887,-0.96 -2.667,-0.181m270.73,0.467c-0.035,0.77 -0.603,1.4 -1.263,1.4c-0.66,0 -1.2,0.54 -1.2,1.2c0,0.66 0.347,1.2 0.772,1.2c1.065,0 2.618,-3.076 2.143,-4.244c-0.214,-0.526 -0.417,-0.326 -0.452,0.444m-4.3,9.074c-1.254,1.68 -1.277,1.926 -0.175,1.926c1.299,0 2.375,-1.767 1.887,-3.1c-0.151,-0.413 -0.922,0.115 -1.712,1.174m-4.196,5.179c-0.848,1.372 -0.088,1.507 1.587,0.282c1.298,-0.949 1.338,-1.135 0.246,-1.135c-0.718,0 -1.543,0.384 -1.833,0.853m-4.134,6.947c-0.284,0.77 -0.903,1.697 -1.375,2.061c-0.553,0.426 -0.459,0.553 0.266,0.359c1.04,-0.28 2.917,-3.82 2.025,-3.82c-0.22,0 -0.632,0.63 -0.916,1.4m-242.233,2.6c-0.602,0.974 3.271,3.462 4.574,2.938c0.644,-0.258 0.504,-0.435 -0.374,-0.475c-0.77,-0.035 -1.4,-0.564 -1.4,-1.177c0,-1.333 -2.158,-2.324 -2.8,-1.286m230.556,7.247c-0.321,1.227 -0.093,1.581 0.898,1.39c1.673,-0.322 2.297,-3.037 0.698,-3.037c-0.641,0 -1.359,0.741 -1.596,1.647m-230.589,3.206c-0.938,1.518 0.43,1.893 1.823,0.499c1.248,-1.247 1.25,-1.352 0.029,-1.352c-0.729,0 -1.562,0.384 -1.852,0.853m221.233,2.845c0,1.063 0.217,1.118 1.2,0.302c0.66,-0.548 1.2,-1.132 1.2,-1.298c0,-0.166 -0.54,-0.302 -1.2,-0.302c-0.66,0 -1.2,0.584 -1.2,1.298m-6.4,3.2c0,1.063 0.217,1.118 1.2,0.302c0.66,-0.548 1.2,-1.132 1.2,-1.298c0,-0.166 -0.54,-0.302 -1.2,-0.302c-0.66,0 -1.2,0.584 -1.2,1.298m0,5.601c0,0.247 0.72,1.364 1.6,2.483c0.88,1.118 1.6,1.646 1.6,1.173c0,-0.473 -0.366,-1.087 -0.813,-1.363c-0.447,-0.276 -0.629,-0.8 -0.405,-1.163c0.225,-0.364 -0.129,-0.868 -0.787,-1.12c-0.657,-0.252 -1.195,-0.257 -1.195,-0.01m-215.2,3.526c0,1.033 0.542,1.575 1.575,1.575c1.033,0 1.425,-0.391 1.138,-1.138c-0.726,-1.892 -2.713,-2.212 -2.713,-0.437m220.012,6.175c0.036,1.754 1.564,2.917 1.576,1.2c0.006,-0.99 -0.348,-1.8 -0.788,-1.8c-0.44,0 -0.794,0.27 -0.788,0.6m-210.701,3.8c0.522,1.362 2.689,1.646 2.689,0.353c0,-0.466 -0.36,-0.625 -0.8,-0.353c-0.44,0.272 -0.8,0.113 -0.8,-0.353c0,-0.466 -0.349,-0.847 -0.775,-0.847c-0.426,0 -0.568,0.54 -0.314,1.2m3.175,3.265c-0.88,2.292 -0.51,2.74 1.114,1.349c0.88,-0.753 1.6,-1.65 1.6,-1.992c0,-1.158 -2.225,-0.631 -2.714,0.643m209.114,0.36c0,0.867 0.54,1.575 1.2,1.575c0.66,0 1.2,-0.501 1.2,-1.114c0,-0.613 -0.54,-1.322 -1.2,-1.575c-0.816,-0.314 -1.2,0.043 -1.2,1.114m3.227,9.422c-0.015,1.016 0.311,1.639 0.724,1.383c0.413,-0.255 1.122,0.174 1.576,0.953c0.453,0.779 0.835,1.007 0.849,0.506c0.013,-0.502 -0.684,-1.762 -1.549,-2.8l-1.574,-1.889l-0.026,1.847m-208.886,10.486c-0.033,0.257 -0.195,1.367 -0.359,2.467c-0.298,1.985 -0.293,1.987 0.581,0.2c0.485,-0.99 1.186,-1.8 1.559,-1.8c0.373,0 0.678,-0.3 0.678,-0.667c0,-0.743 -2.366,-0.936 -2.459,-0.2m210.698,15.448c-1.702,2.196 -1.914,3.019 -0.78,3.019c0.635,0 1.362,-0.794 1.616,-1.765c0.559,-2.137 0.229,-2.631 -0.836,-1.254m-7.394,13.771c-1.058,1.127 -2.401,2.048 -2.984,2.048c-1.261,0 -1.408,1.291 -0.231,2.018c1.038,0.642 5.855,-3.964 5.442,-5.203c-0.175,-0.525 -1.117,-0.044 -2.227,1.137m-203.907,5.772c0.154,0.802 0.906,1.578 1.671,1.725c1.937,0.373 1.743,-1.204 -0.28,-2.287c-1.432,-0.766 -1.632,-0.686 -1.391,0.562m192.462,1.143c-0.77,0.843 -1.096,1.533 -0.724,1.533c0.372,0 1.328,-0.72 2.124,-1.6c0.796,-0.88 1.122,-1.57 0.724,-1.533c-0.398,0.036 -1.354,0.756 -2.124,1.6m-13.128,5.326c0.285,0.461 -0.019,1.046 -0.677,1.298c-0.657,0.252 -1.167,0.92 -1.132,1.484c0.05,0.803 0.151,0.808 0.467,0.025c0.222,-0.55 0.913,-1 1.537,-1c1.365,0 1.495,-1.282 0.209,-2.076c-0.539,-0.334 -0.707,-0.222 -0.404,0.269m-148.26,15.16c-0.007,0.964 0.372,1.99 0.841,2.28c1.31,0.81 1.382,0.163 0.225,-2.033c-1.011,-1.918 -1.055,-1.928 -1.066,-0.247m3.188,9.597c0,0.66 0.72,1.388 1.6,1.618c0.88,0.23 1.6,0.926 1.6,1.545c0,0.62 0.95,1.488 2.111,1.929c2.79,1.061 3.219,0.512 0.666,-0.854c-1.111,-0.595 -2.221,-1.881 -2.466,-2.859c-0.521,-2.073 -3.511,-3.248 -3.511,-1.379m131.2,0.709c0,0.745 0.544,1.153 1.334,1c2.007,-0.39 2.282,-2.259 0.333,-2.259c-0.983,0 -1.667,0.517 -1.667,1.259m-2.347,3.077c-0.757,0.912 -0.667,1.095 0.459,0.93c0.771,-0.113 1.541,-0.624 1.711,-1.136c0.434,-1.301 -1.034,-1.162 -2.17,0.206m-65.15,3.2l-2.298,1.879l2.098,-0.401c1.153,-0.22 2.097,-0.899 2.097,-1.507c0,-0.609 0.72,-1.107 1.6,-1.107c0.889,0 1.6,0.533 1.6,1.2c0,0.66 0.36,1.2 0.8,1.2c1.291,0 0.917,-2.184 -0.465,-2.714c-2.054,-0.788 -3.006,-0.534 -5.432,1.45m-38.392,3.264c0.253,0.66 0.987,1.2 1.632,1.2c1.016,0 1.012,-0.159 -0.029,-1.2c-0.66,-0.66 -1.394,-1.2 -1.632,-1.2c-0.237,0 -0.225,0.54 0.029,1.2m82.238,1.2c0.74,0 1.142,-0.329 0.893,-0.732c-0.248,-0.402 0,-0.914 0.553,-1.137c0.626,-0.252 0.665,-0.428 0.103,-0.468c-0.496,-0.035 -1.35,0.477 -1.898,1.137" fill="#f0f0f0" fill-rule="evenodd"/>
   <path id="path2" fill="#992020" fill-rule="evenodd"/>
   <path id="path4" d="m165.124,51.143c-4.629,1.971 -11.714,14.211 -17.412,30.079c-5.113,14.238 -4.989,14.691 2.913,10.704c1.663,-0.839 3.469,-1.526 4.011,-1.526c0.543,0 2.331,-0.72 3.973,-1.6c1.642,-0.88 3.527,-1.6 4.188,-1.6c1.026,0 1.203,-2.1 1.203,-14.241c0,-17.397 0.353,-18.544 5.702,-18.553c2.206,-0.003 4.078,0.447 4.633,1.116c0.512,0.616 1.879,1.359 3.038,1.65c3.621,0.909 10.939,6.097 24.826,17.601c3.404,2.82 5.595,5.167 5.196,5.565c-0.254,0.254 0.678,0.462 2.072,0.462c3.699,0 3.242,-0.834 -4.144,-7.557c-17.536,-15.964 -33.719,-24.86 -40.199,-22.1m-52.814,47.273c-14.105,1.912 -19.078,6.776 -17.509,17.124c1.917,12.645 5.105,24.46 6.599,24.46c0.55,0 1,-0.524 1,-1.164c0,-1.057 2.764,-5.791 4.789,-8.202c0.446,-0.532 0.811,-1.292 0.811,-1.69c0,-0.398 1.08,-2.083 2.4,-3.744c2.616,-3.292 2.96,-4.4 1.364,-4.4c-1.102,0 -10.628,-9.198 -11.923,-11.513c-1.837,-3.281 1.144,-5.107 12.559,-7.692c5.96,-1.35 19.323,-0.689 18.337,0.907c-0.86,1.392 1.305,0.656 2.971,-1.01c1.368,-1.368 1.487,-1.826 0.6,-2.302c-1.802,-0.967 -16.706,-1.491 -21.998,-0.774m26.789,41.384c-1.055,0.77 -2.633,1.795 -3.508,2.278c-6.093,3.362 -7.436,13.982 -1.76,13.91c0.679,-0.009 0.705,-0.189 0.089,-0.6c-4.974,-3.321 -1.401,-11.21 6.637,-14.655c1.894,-0.812 3.443,-1.669 3.443,-1.905c0,-0.955 -3.106,-0.339 -4.901,0.972m16.101,-0.923c0,0.262 0.612,1.511 1.359,2.777c1.389,2.352 -0.035,7.946 -2.024,7.946c-0.379,0 -1.52,0.72 -2.535,1.6c-1.015,0.88 -2.6,1.615 -3.522,1.634c-0.923,0.018 -2.938,0.756 -4.478,1.64l-2.8,1.606l3.508,-0.466c1.929,-0.257 4.408,-1.175 5.508,-2.041c1.1,-0.865 2.503,-1.573 3.117,-1.573c0.614,0 1.319,-0.526 1.566,-1.17c0.247,-0.643 1.136,-1.387 1.975,-1.653c2.773,-0.881 1.824,-10.777 -1.034,-10.777c-0.352,0 -0.64,0.214 -0.64,0.477m130.841,1.233c-3.03,2.384 -3.708,4.637 -2.131,7.081c1.513,2.344 4.971,5.547 6.027,5.584c0.405,0.014 1.305,0.525 2,1.136c0.695,0.611 2.523,1.356 4.063,1.657l2.8,0.545l-2.4,-1.651c-1.32,-0.908 -2.834,-1.654 -3.364,-1.657c-3.397,-0.018 -8.207,-5.043 -8.224,-8.59c-0.015,-3.201 1.782,-3.811 9.415,-3.198l5.289,0.424l-3.158,-1.493c-4.188,-1.981 -7.661,-1.926 -10.317,0.162m13.959,2.262c0,0.424 0.685,1.138 1.521,1.586c1.295,0.693 1.46,0.577 1.107,-0.772c-0.415,-1.586 -2.628,-2.272 -2.628,-0.814m-209.072,14.617c-18.573,9.78 -19.708,18.722 -4.665,36.778l3.138,3.767l0.491,-2.967c1.169,-7.07 0.594,-19.894 -0.892,-19.888c-6.383,0.028 -9.8,-1.16 -9.8,-3.406c0,-1.967 12.262,-11.7 13.655,-10.839c0.41,0.253 0.745,-0.201 0.745,-1.009c0,-0.808 0.56,-2.269 1.245,-3.247c0.685,-0.978 1.135,-1.749 1,-1.714c-0.135,0.036 -2.347,1.172 -4.917,2.525m-4.514,55.789c-6.304,9.824 -7.201,17.582 -2.483,21.467c2.573,2.12 10.741,7.355 11.474,7.355c0.92,0 0.362,-5.894 -0.872,-9.2c-0.492,-1.32 -1.096,-3.73 -1.342,-5.355l-0.447,-2.954l-3.315,1.169c-4.607,1.626 -6.196,-1.993 -2.661,-6.06c0.573,-0.66 1.291,-2.015 1.595,-3.012c0.304,-0.996 0.886,-1.605 1.295,-1.352c0.408,0.252 0.742,-0.802 0.742,-2.342c0,-4.206 -1.158,-4.123 -3.986,0.284m10.493,47.904c-2.965,8.132 -1.865,10.68 6.466,14.973c5.94,3.061 6.605,2.496 3.827,-3.255c-0.85,-1.76 -1.558,-3.574 -1.573,-4.031c-0.015,-0.457 -0.747,-2.243 -1.627,-3.969c-0.88,-1.726 -1.6,-3.89 -1.6,-4.809c0,-1.836 -1.394,-3.591 -2.853,-3.591c-0.513,0 -1.701,2.107 -2.64,4.682m12.772,28.564c-2.753,4.665 -1.787,9.355 2.386,11.589c2.965,1.587 4.999,-6.343 3.057,-11.916c-1.178,-3.379 -3.333,-3.25 -5.443,0.327m1.681,24.514c-0.981,0.981 -1.331,8.343 -0.499,10.512c1.434,3.735 5.322,-0.283 4.745,-4.903c-0.839,-6.715 -1.83,-8.025 -4.246,-5.609" fill="#a89ec6" fill-rule="evenodd"/>
   <path id="path6" d="m165,56.566c-1.45,3.122 -1.414,29.834 0.04,29.834c0.572,0 1.479,-0.439 2.015,-0.975c0.536,-0.536 4.118,-1.409 7.96,-1.939c3.842,-0.531 8.425,-1.344 10.185,-1.806c1.76,-0.463 7.37,-0.85 12.467,-0.861c11.625,-0.024 11.693,-0.114 4.532,-6.046c-13.887,-11.504 -21.205,-16.692 -24.826,-17.601c-1.159,-0.291 -2.526,-1.034 -3.038,-1.65c-1.789,-2.156 -8.181,-1.441 -9.335,1.044m-53,45.078c-11.145,2.627 -13.972,4.404 -12.159,7.643c3.131,5.595 14.559,14.037 14.559,10.755c0,-1.016 13.436,-14.442 14.452,-14.442c2.115,0 2.156,-3.598 0.048,-4.105c-3.003,-0.723 -13.598,-0.629 -16.9,0.149m34.8,36.786c-6.681,1.199 -14.213,6.674 -15.025,10.922c-1.159,6.065 5.136,8.665 12.225,5.048c1.725,-0.88 3.816,-1.6 4.646,-1.6c0.83,0 2.339,-0.72 3.354,-1.6c1.015,-0.88 2.156,-1.6 2.535,-1.6c0.38,0 1.287,-1.25 2.016,-2.778c2.747,-5.761 -1.938,-9.793 -9.751,-8.392m139,2.852c-3.821,1.724 2.315,11.496 7.236,11.523c0.53,0.003 2.044,0.721 3.364,1.595c8.796,5.825 13.521,-2.247 5.794,-9.898c-3.178,-3.146 -12.501,-4.977 -16.394,-3.22m-197,20.809c-3.345,2.335 -9.6,8.317 -9.6,9.182c0,1.449 2.722,3.137 5.257,3.26c1.509,0.074 3.342,0.164 4.074,0.2c1.67,0.084 4.119,-6.513 4.207,-11.333c0.071,-3.896 -0.134,-3.964 -3.938,-1.309m-0.415,54.028c-0.316,1.035 -1.044,2.421 -1.617,3.081c-3.271,3.763 -1.981,7.66 2.085,6.3c3.935,-1.316 4.027,-1.515 2.71,-5.891c-1.479,-4.912 -2.426,-5.953 -3.178,-3.49" fill="#ffffff" fill-rule="evenodd"/>
   <path id="path7" d="m212.8,81.99c0,3.264 1.597,4.181 8.934,5.132c8.242,1.069 12.219,2.057 24.667,6.13c4.62,1.511 9.314,2.748 10.431,2.748c1.116,0 3.368,0.682 5.004,1.516c4.216,2.15 5.525,2.592 4.959,1.675c-2.255,-3.648 -27.375,-12.519 -41.995,-14.829c-4.18,-0.661 -8.59,-1.534 -9.8,-1.94c-1.21,-0.406 -2.2,-0.601 -2.2,-0.432m-38.184,4.735c1.439,1.092 6.006,0.962 11.784,-0.335c2.038,-0.458 0.624,-0.644 -5.2,-0.684c-6.858,-0.047 -7.798,0.098 -6.584,1.019m-12.244,3.241c0.656,0.791 1.781,1.013 3.498,0.69c4.928,-0.927 5.04,-1.807 0.232,-1.832c-4.026,-0.021 -4.559,0.143 -3.73,1.142m-6.972,1.799c-2.728,0.525 -2.153,1.837 0.8,1.823c3.309,-0.016 5.336,-1.134 3.402,-1.877c-0.733,-0.281 -1.573,-0.462 -1.867,-0.402c-0.294,0.06 -1.345,0.265 -2.335,0.456m-8.537,3.886c-0.688,0.688 -1.571,1.053 -1.962,0.811c-0.391,-0.241 -2.03,0.456 -3.642,1.549c-1.611,1.094 -3.274,1.989 -3.695,1.989c-0.42,0 -0.764,0.514 -0.764,1.142c0,0.628 -0.955,1.893 -2.122,2.811c-1.167,0.918 -1.937,1.854 -1.711,2.081c0.605,0.605 4.633,-1.07 4.633,-1.927c0,-0.404 0.9,-0.959 2,-1.236c1.1,-0.276 2,-0.827 2,-1.224c0,-0.398 1.26,-1.139 2.8,-1.647c1.54,-0.508 2.8,-1.246 2.8,-1.639c0,-0.393 1.146,-1.012 2.546,-1.375c1.4,-0.363 2.69,-1.093 2.866,-1.623c0.48,-1.439 -4.259,-1.202 -5.749,0.288m123.916,6.883c9.418,7.898 29.221,30.348 29.221,33.125c0,0.225 1.433,2.35 3.185,4.721c3.543,4.796 5.605,9.602 6.186,14.42c0.275,2.285 1.251,4.115 3.411,6.4c3.054,3.23 8.818,11.142 8.818,12.104c0,0.286 0.681,2 1.514,3.808c0.833,1.809 2.109,6.014 2.835,9.345c6.369,29.22 -4.793,52.521 -31.149,65.028c-11.615,5.512 -10.324,4.181 -11.01,11.347c-0.335,3.502 -0.965,8.805 -1.4,11.783c-0.978,6.703 -1.032,16.585 -0.09,16.585c0.827,0 1.7,-3.919 1.7,-7.635c0,-3.003 0.674,-5.165 1.61,-5.165c0.792,0 4.377,6.094 5.177,8.8c0.325,1.1 1.05,3.08 1.611,4.4c7.158,16.843 6.476,32.236 -1.663,37.569c-2.371,1.553 -7.436,0.119 -7.615,-2.156c-0.044,-0.557 -0.328,-0.113 -0.633,0.987c-0.762,2.759 -3.317,2.923 -5.716,0.368c-2.693,-2.868 -2.739,-11.831 -0.078,-15.214c0.986,-1.253 1.707,-3.324 1.707,-4.902c0,-1.502 0.507,-3.711 1.126,-4.908c1.06,-2.051 1.559,-6.017 1.326,-10.544c-0.188,-3.653 -2.452,0.618 -2.452,4.627c0,2.309 -0.55,4.22 -1.6,5.555c-0.88,1.118 -1.6,3.08 -1.6,4.358c0,1.278 -0.72,3.735 -1.6,5.46c-0.88,1.725 -1.6,3.845 -1.6,4.711c0,0.866 -0.462,2.05 -1.028,2.632c-2.864,2.947 -5.537,12.766 -3.772,13.857c1.461,0.903 0.849,4.875 -1.023,6.634c-2.858,2.685 -8.241,4.199 -17.777,4.999c-4.84,0.407 -11.5,1.094 -14.8,1.528c-9.621,1.266 -67.851,1.048 -78.559,-0.294c-4.973,-0.623 -12.461,-1.37 -16.641,-1.66c-19.902,-1.382 -29.815,-7.633 -23.942,-15.099c2.291,-2.912 4.263,-2.644 8.037,1.092l3.232,3.2l7.104,0c7.3,0 11.169,-1.877 11.169,-5.417c0,-0.568 0.63,-1.266 1.4,-1.55c6.86,-2.53 10.077,-9.442 6.2,-13.319c-0.66,-0.66 -1.2,-1.769 -1.2,-2.465c0,-0.695 -0.72,-1.881 -1.6,-2.635c-1.655,-1.417 -2.382,-8.214 -0.878,-8.214c0.906,0 2.478,-4.408 2.478,-6.948c0,-1.049 0.506,-2.706 1.124,-3.68c1.458,-2.299 2.328,-9.434 1.334,-10.949c-1.26,-1.923 -1.965,-0.288 -2.327,5.396c-0.227,3.561 -0.75,5.658 -1.56,6.25c-0.746,0.545 -1.365,2.647 -1.594,5.411c-0.259,3.122 -0.716,4.52 -1.476,4.52c-1.847,0 -1.692,7.173 0.178,8.24c0.616,0.352 1.121,1.345 1.121,2.208c0,0.862 0.72,2.184 1.6,2.938c2.457,2.103 2.214,7.168 -0.4,8.36c-1.1,0.501 -2,1.213 -2,1.582c0,0.37 -1.044,0.672 -2.321,0.672c-2.013,0 -2.412,0.389 -3.015,2.938c-0.871,3.685 -4.246,5.25 -6.644,3.08c-1.16,-1.05 -1.841,-1.156 -3.101,-0.482c-2.473,1.324 -6.519,1.1 -6.519,-0.361c0,-0.674 -0.536,-1.431 -1.191,-1.682c-0.656,-0.252 -1.589,-1.933 -2.075,-3.737c-0.876,-3.254 -0.893,-3.266 -2.208,-1.549c-0.729,0.952 -2.652,2.279 -4.272,2.95c-8.684,3.595 -7.13,14.707 2.718,19.438c7.016,3.37 9.287,4.055 15.324,4.621c7.863,0.737 8.504,1.371 8.504,8.422c0,12 4.245,14.44 27.227,15.654c16.392,0.865 26.623,-2.431 28.662,-9.236c1.482,-4.946 4.353,-5.279 5.23,-0.605c1.542,8.218 13.879,11.406 36.081,9.322c17.051,-1.601 19.6,-3.73 19.6,-16.37l0,-6.877l2.544,-1.363c8.07,-4.324 11.984,-10.547 9.847,-15.661c-1.986,-4.754 0.806,-6.337 4.41,-2.501c3.06,3.257 6.687,3.849 14.231,2.323c6.093,-1.232 10.568,-10.243 10.568,-21.282c0,-8.373 -0.156,-9.038 -4.848,-20.642c-0.801,-1.98 -2.361,-5.94 -3.468,-8.8c-1.107,-2.86 -2.744,-6.619 -3.639,-8.352c-3.227,-6.251 -0.997,-16.511 3.838,-17.661c1.164,-0.276 3.917,-1.547 6.117,-2.823c2.2,-1.276 5.246,-2.907 6.768,-3.623c16.531,-7.78 29.885,-37.697 25.685,-57.541c-2.375,-11.222 -3.33,-14.841 -4.553,-17.267c-0.758,-1.503 -1.917,-3.813 -2.576,-5.133c-1.402,-2.808 -3.425,-5.617 -7.381,-10.253c-2.898,-3.395 -6.343,-9.435 -6.343,-11.119c0,-1.005 -2.309,-6.357 -4.929,-11.428c-5.751,-11.126 -16.76,-23.623 -28.125,-31.924c-6.989,-5.104 -10.67,-6.855 -5.767,-2.742m-27.934,2.444c-1.299,1.856 -1.788,5.539 -0.554,4.182c0.784,-0.863 2.591,-5.96 2.113,-5.96c-0.172,0 -0.874,0.8 -1.559,1.778m-113.611,2.967c-0.817,1.322 0.884,1.639 2.448,0.455c1.468,-1.111 1.46,-1.15 -0.235,-1.175c-0.964,-0.014 -1.96,0.31 -2.213,0.72m-3.634,3.655c0,0.66 0.316,1.2 0.702,1.2c0.386,0 1.15,-0.54 1.698,-1.2c0.832,-1.003 0.717,-1.2 -0.702,-1.2c-0.976,0 -1.698,0.51 -1.698,1.2m-2.645,2.512c-0.613,0.612 0.067,1.888 1.007,1.888c0.367,0 0.874,-0.54 1.127,-1.2c0.457,-1.189 -1.123,-1.699 -2.134,-0.688m-3.755,3.441c0,1.386 1.408,1.642 2.407,0.438c0.823,-0.991 0.704,-1.191 -0.709,-1.191c-0.934,0 -1.698,0.339 -1.698,0.753m-2.4,4.047c0,1.067 -0.533,1.6 -1.6,1.6c-0.88,0 -1.6,0.331 -1.6,0.735c0,0.404 -0.219,1.304 -0.486,2c-0.318,0.83 -0.043,1.265 0.8,1.265c0.707,0 1.286,-0.496 1.286,-1.102c0,-0.606 0.56,-1.567 1.244,-2.134c2.123,-1.762 3.003,-3.964 1.584,-3.964c-0.695,0 -1.228,0.695 -1.228,1.6m86.305,0.625c-0.264,1.59 -0.146,2.336 0.298,1.892c0.403,-0.403 0.599,-1.584 0.435,-2.625c-0.252,-1.601 -0.365,-1.488 -0.733,0.733m-92.702,6.569c-1.123,2.098 -0.29,3.64 1.268,2.347c1.297,-1.076 1.481,-2.829 0.369,-3.516c-0.418,-0.258 -1.154,0.268 -1.637,1.169m-2.67,3.739c-0.789,0.789 -0.647,4.267 0.174,4.267c0.625,0 1.652,-2.565 1.682,-4.2c0.014,-0.744 -1.137,-0.785 -1.856,-0.067m-4.434,7.527c-0.472,1.353 -1.209,2.243 -1.638,1.978c-0.429,-0.265 -1.033,0.878 -1.343,2.54c-0.309,1.662 -1.258,4.362 -2.109,5.999c-1.067,2.054 -1.382,3.725 -1.016,5.391c0.72,3.277 1.859,3.776 2.433,1.065c0.738,-3.49 4.557,-13.295 5.723,-14.696c1.391,-1.672 1.346,-4.737 -0.071,-4.737c-0.617,0 -1.507,1.107 -1.979,2.46m100.889,4.506c-3.909,0.752 -0.554,1.834 5.659,1.825c8.293,-0.011 13.566,-0.787 11.318,-1.666c-1.643,-0.643 -13.865,-0.757 -16.977,-0.159m29.554,0.13c-1.331,0.843 4.515,1.704 11.57,1.704c5.052,0 6.737,-0.971 3.288,-1.896c-2.689,-0.72 -13.643,-0.579 -14.858,0.192m-43.142,3.034c-2.138,0.863 -0.839,1.869 2.4,1.859c4.247,-0.014 7.118,-0.751 6.544,-1.68c-0.459,-0.742 -7.214,-0.877 -8.944,-0.179m63.456,0.179c-0.574,0.929 2.297,1.666 6.544,1.68c3.4,0.011 4.52,-0.988 2.135,-1.903c-1.928,-0.74 -8.183,-0.579 -8.679,0.223m-71.19,2.386c-3.155,0.683 -3.691,2.508 -0.733,2.494c4.058,-0.019 6.02,-0.841 4.986,-2.087c-0.503,-0.606 -1.141,-1.059 -1.417,-1.007c-0.276,0.052 -1.552,0.322 -2.836,0.6m83.081,0.192c-0.768,1.241 1.163,2.286 4.253,2.301c2.523,0.012 3.621,-1.324 1.6,-1.946c-3.309,-1.02 -5.366,-1.145 -5.853,-0.355m-91.347,3.138c-2.49,1.001 -2.257,2.378 0.4,2.363c3.152,-0.018 5.012,-1.318 3.4,-2.376c-1.411,-0.926 -1.465,-0.926 -3.8,0.013m99.8,-0.013c-1.53,1.005 0.192,2.357 3.025,2.376c1.004,0.006 2.024,0.53 2.267,1.163c0.243,0.633 1.492,1.382 2.775,1.664c1.283,0.282 2.333,1.024 2.333,1.649c0,0.625 0.487,1.136 1.083,1.136c0.596,0 1.995,0.81 3.109,1.8c6.235,5.539 7.593,6.89 9.467,9.42c1.132,1.529 2.291,3.41 2.575,4.18c0.284,0.77 0.887,1.4 1.341,1.4c1.429,0 0.895,-3.155 -0.775,-4.586c-0.88,-0.753 -1.6,-1.827 -1.6,-2.385c0,-0.558 -0.72,-1.465 -1.6,-2.015c-0.88,-0.549 -1.6,-1.452 -1.6,-2.006c0,-0.555 -0.345,-1.008 -0.768,-1.008c-0.422,0 -1.592,-0.857 -2.6,-1.904c-2.384,-2.477 -9.434,-7.335 -11.677,-8.047c-0.965,-0.306 -1.755,-0.835 -1.755,-1.174c0,-0.34 -0.917,-1.036 -2.038,-1.547c-2.415,-1.1 -2.079,-1.089 -3.562,-0.116m-106.2,3.364c-0.99,0.478 -1.8,1.173 -1.8,1.546c0,0.373 -0.485,0.678 -1.078,0.678c-0.593,0 -2.843,1.612 -5,3.582c-2.157,1.971 -4.282,3.607 -4.722,3.637c-0.44,0.03 -1.88,1.475 -3.2,3.211c-1.32,1.736 -3.236,4.105 -4.257,5.266c-1.218,1.384 -1.586,2.381 -1.07,2.897c0.974,0.974 2.527,0.106 2.527,-1.412c0,-0.619 0.72,-1.51 1.6,-1.981c0.88,-0.471 1.6,-1.384 1.6,-2.028c0,-0.645 0.516,-1.172 1.146,-1.172c0.63,0 1.375,-0.72 1.654,-1.6c0.279,-0.88 1.024,-1.6 1.654,-1.6c0.63,0 1.146,-0.501 1.146,-1.113c0,-0.613 0.9,-1.339 2,-1.616c1.1,-0.276 2,-1.035 2,-1.686c0,-0.652 0.54,-1.185 1.2,-1.185c0.66,0 1.883,-0.683 2.719,-1.519c0.835,-0.835 2.614,-1.759 3.954,-2.053c1.67,-0.367 2.297,-0.896 1.996,-1.682c-0.512,-1.333 -1.565,-1.377 -4.069,-0.17m-73.299,7.919c-0.698,3.49 0.361,9.931 1.168,7.105c0.83,-2.904 0.847,-8.634 0.028,-9.14c-0.386,-0.239 -0.924,0.677 -1.196,2.035m-3.364,20.775c-0.715,9.108 -0.6,22.857 0.202,24.154c1.828,2.959 2.55,-2.555 2.109,-16.113c-0.542,-16.637 -1.401,-19.627 -2.311,-8.041m53.463,-6.357c-1.186,1.194 -1.327,4.391 -0.223,5.073c0.874,0.54 1.909,-2.763 1.494,-4.77c-0.218,-1.052 -0.468,-1.111 -1.271,-0.303m158.833,-0.479c-0.669,0.669 0.484,5.229 1.367,5.406c1.263,0.253 1.403,-3.875 0.167,-4.902c-0.613,-0.508 -1.303,-0.735 -1.534,-0.504m-118.57,6.354c-1.725,0.615 -4.605,1.342 -6.4,1.616c-3.477,0.531 -12.463,4.359 -12.463,5.309c0,0.313 2.25,-0.346 5,-1.463c4.582,-1.861 10.817,-3.369 19.582,-4.735c1.859,-0.29 3.188,-0.84 2.952,-1.221c-0.637,-1.032 -5.104,-0.777 -8.671,0.494m74.314,0.656c-1.298,1.516 -1.297,1.573 0.032,1.063c2.337,-0.896 14.447,1.108 21.271,3.521c3.836,1.357 6.294,1.888 6.107,1.321c-0.172,-0.522 -1.184,-1.072 -2.25,-1.222c-1.065,-0.15 -2.531,-0.803 -3.257,-1.452c-0.726,-0.648 -4.146,-1.679 -7.6,-2.29c-3.454,-0.612 -7.777,-1.434 -9.606,-1.828c-2.864,-0.616 -3.516,-0.493 -4.697,0.887m-117.777,0.303c-1.187,2.075 -1.323,6.359 -0.223,7.039c1.013,0.626 1.81,-2.641 1.482,-6.075c-0.248,-2.599 -0.3,-2.639 -1.259,-0.964m165.412,3.606c0.015,5.135 1.193,7.7 2.021,4.4c0.629,-2.506 -0.14,-7.477 -1.264,-8.172c-0.456,-0.282 -0.764,1.255 -0.757,3.772m-168.274,6.871c-0.732,1.132 -0.896,16.085 -0.185,16.796c1.057,1.056 1.29,-0.921 1.075,-9.115c-0.13,-4.973 -0.512,-8.266 -0.89,-7.681m168.804,12.494c-0.831,2.166 -0.655,10.246 0.212,9.711c1.155,-0.714 1.94,-7.519 1.087,-9.43c-0.688,-1.541 -0.805,-1.567 -1.299,-0.281m-212.896,10.272c-0.686,5.013 -0.012,10.531 1.194,9.785c0.861,-0.532 0.862,-8.344 0.002,-11.975c-0.508,-2.147 -0.634,-1.916 -1.196,2.19m46.499,-2.069c-1.197,1.198 -0.215,8.279 1.148,8.279c0.881,0 0.914,-6.435 0.04,-7.812c-0.353,-0.557 -0.888,-0.767 -1.188,-0.467m163.188,3.212c-1.235,1.236 -0.593,6.113 0.667,5.067c0.66,-0.548 1.2,-2.032 1.2,-3.298c0,-2.207 -0.733,-2.902 -1.867,-1.769m-160.533,8.089c0,1.232 0.713,2.833 1.6,3.592c0.88,0.754 1.6,1.901 1.6,2.55c0,0.649 0.72,1.565 1.6,2.036c0.88,0.471 1.6,1.395 1.6,2.053c0,0.659 0.602,1.428 1.339,1.711c0.736,0.283 1.906,1 2.6,1.595c0.693,0.595 2.321,1.988 3.616,3.096c1.295,1.109 3.095,1.91 4,1.78c2.482,-0.355 1.975,-1.738 -0.955,-2.6c-1.43,-0.421 -2.6,-1.231 -2.6,-1.8c0,-0.569 -0.499,-1.035 -1.109,-1.035c-1.413,0 -6.804,-5.432 -7.74,-7.8c-0.391,-0.99 -1.26,-1.8 -1.931,-1.8c-0.671,0 -1.22,-0.691 -1.22,-1.535c0,-2.09 -0.819,-4.065 -1.686,-4.065c-0.393,0 -0.714,1 -0.714,2.222m156.78,-0.17c-0.429,1.129 -0.78,2.389 -0.78,2.8c0,0.411 -0.54,0.748 -1.2,0.748c-0.667,0 -1.2,0.711 -1.2,1.6c0,1.067 -0.533,1.6 -1.6,1.6c-0.9,0 -1.6,0.533 -1.6,1.22c0,0.671 -0.862,1.547 -1.916,1.948c-1.054,0.401 -2.054,1.141 -2.222,1.645c-0.168,0.504 -1.484,1.157 -2.924,1.452c-1.441,0.294 -2.585,0.895 -2.542,1.335c0.124,1.28 4.994,0.662 5.774,-0.732c0.39,-0.697 1.136,-1.268 1.657,-1.268c1.703,0 10.973,-10.62 10.973,-12.57c0,-2.457 -1.452,-2.324 -2.42,0.222m-202.595,4.048c-1.051,1.702 -0.718,9.604 0.526,12.474c0.709,1.636 1.295,3.976 1.301,5.2c0.015,2.603 0.672,3.753 2.54,4.441c0.921,0.339 1.431,1.596 1.6,3.941c0.136,1.894 0.608,3.342 1.048,3.217c1.304,-0.37 0.798,-6.29 -0.663,-7.75c-0.767,-0.767 -1.337,-2.598 -1.337,-4.292c0,-1.625 -0.72,-4.298 -1.6,-5.94c-0.88,-1.642 -1.625,-4.337 -1.656,-5.988c-0.066,-3.49 -1.048,-6.453 -1.759,-5.303m131.197,6.477c1.42,0.177 3.94,0.18 5.6,0.007c1.66,-0.173 0.498,-0.318 -2.582,-0.321c-3.08,-0.004 -4.438,0.138 -3.018,0.314m-25.382,3.823c-0.548,0.66 -1.807,1.2 -2.798,1.2c-3.684,0 -6.802,1.013 -6.802,2.21c0,2.252 9.3,0.852 13.959,-2.102l3.954,-2.508l-3.658,0c-2.277,0 -4.035,0.453 -4.655,1.2m44.8,-0.524c0,3.048 12.992,5.454 25.572,4.737c14.163,-0.808 10.628,-2.763 -5.274,-2.918c-7.563,-0.074 -9.922,-0.36 -10.698,-1.295c-1.073,-1.293 -9.6,-1.758 -9.6,-0.524m-82.551,5.814c-4.085,1.082 1.455,1.91 12.551,1.875c10.459,-0.033 19.728,-1.668 11.6,-2.047c-7.811,-0.364 -22.524,-0.259 -24.151,0.172m-27.849,12.71c-0.88,0.88 -1.836,1.6 -2.125,1.6c-0.698,0 -8.264,8.233 -8.27,9c-0.003,0.33 -0.725,1.32 -1.605,2.2c-0.88,0.88 -1.6,2.281 -1.6,3.114c0,0.833 -0.52,1.714 -1.156,1.958c-0.636,0.244 -1.401,1.75 -1.7,3.347c-0.719,3.832 -5.878,3.039 -5.932,-0.911c-0.006,-0.491 -0.685,-1.751 -1.508,-2.8c-0.822,-1.049 -1.75,-3.074 -2.061,-4.499c-0.798,-3.655 -1.871,-3.938 -2.487,-0.657c-0.583,3.11 1.897,9.101 5.088,12.292c0.966,0.966 1.756,2.418 1.756,3.228c0,0.809 0.87,1.867 1.933,2.352c2.146,0.978 2.867,0.108 2.867,-3.461c0,-1.088 0.687,-2.274 1.6,-2.763c0.891,-0.477 1.6,-1.675 1.6,-2.704c0,-1.016 0.72,-2.5 1.6,-3.296c0.88,-0.796 1.6,-1.914 1.6,-2.484c0,-0.57 0.487,-1.324 1.083,-1.676c0.596,-0.352 1.545,-1.517 2.108,-2.59c1.125,-2.138 2.247,-3.616 3.866,-5.088c0.582,-0.529 1.777,-1.617 2.655,-2.417c7.649,-6.965 15.888,-3.485 15.888,6.712c0,3.489 0.318,6.343 0.707,6.343c1.999,0 2.468,-14.153 0.493,-14.911c-0.66,-0.253 -1.2,-0.923 -1.2,-1.489c0,-2.632 -12.636,-2.964 -15.2,-0.4m-31.053,5.2c0.139,1.76 0.613,3.09 1.053,2.957c1.035,-0.315 0.729,-4.153 -0.422,-5.285c-0.645,-0.636 -0.816,-0.005 -0.631,2.328m9.453,32.706c0,1.1 -0.312,2.193 -0.694,2.428c-0.382,0.236 -0.882,1.968 -1.112,3.848c-0.229,1.88 -0.676,4.048 -0.991,4.818c-0.903,2.202 0.988,1.662 2.555,-0.729c1.477,-2.254 2.166,-11.176 0.922,-11.945c-0.374,-0.231 -0.68,0.48 -0.68,1.58m165.343,14.147c-1.734,6.48 1.248,10.651 6.253,8.748c2.529,-0.961 2.046,-2.089 -1.199,-2.802c-1.994,-0.438 -2.561,-1.127 -3.459,-4.208c-0.957,-3.28 -1.132,-3.471 -1.595,-1.738m-165.474,0.059c-0.204,0.599 -0.136,2.168 0.151,3.488l0.52,2.4l0.602,-2.142c0.637,-2.266 -0.57,-5.815 -1.273,-3.746m136.919,38.281c3.076,1.647 3.53,11.36 0.708,15.176c-2.897,3.919 -7.84,4.941 -24.525,5.072c-20.39,0.16 -24.315,-1.698 -25.272,-11.963c-0.588,-6.315 -1.781,-5.935 21.101,-6.714c10.34,-0.352 19.7,-1.005 20.8,-1.451c2.615,-1.061 5.344,-1.106 7.188,-0.12m-71.067,2.093l14.122,0.479l0.335,2.284c0.375,2.557 -1.802,8.967 -3.792,11.167c-3.053,3.373 -8.71,4.394 -23.443,4.229c-20.852,-0.233 -25.667,-2.413 -25.718,-11.645c-0.046,-8.473 -3.242,-7.932 38.496,-6.514" fill="#a89dc6" fill-rule="evenodd"/>
   <path id="path8" d="m201.2,82.5c-11.769,0.526 -28.375,2.496 -30.118,3.573c-0.563,0.348 -2.838,1.074 -5.053,1.612l-4.029,0.979l4.333,0.068c4.821,0.076 4.94,0.659 0.346,1.695c-2.305,0.52 -3.363,0.402 -4.343,-0.485c-1.138,-1.03 -1.576,-1.025 -3.616,0.038c-1.276,0.666 -2.761,1.212 -3.301,1.215c-0.539,0.003 -2.159,0.724 -3.6,1.602c-2.393,1.459 -2.458,1.597 -0.752,1.6c2.661,0.004 1.748,1.794 -1.321,2.589c-1.4,0.363 -2.546,0.982 -2.546,1.375c0,0.393 -1.26,1.131 -2.8,1.639c-1.54,0.508 -2.8,1.249 -2.8,1.647c0,0.397 -0.9,0.948 -2,1.224c-1.1,0.277 -2,0.832 -2,1.236c0,0.857 -4.028,2.532 -4.633,1.927c-0.226,-0.227 0.544,-1.163 1.711,-2.081c1.167,-0.918 2.122,-2.113 2.122,-2.655c0,-1.616 -16.216,13.628 -23.06,21.678c-2.5,2.941 -5.802,7.927 -7.035,10.624c-0.301,0.66 -1.089,1.83 -1.751,2.6c-1.076,1.254 -1.064,1.4 0.122,1.4c1.541,0 1.829,3.175 0.417,4.587c-1.166,1.166 -5.489,11.899 -5.505,13.667c-0.03,3.254 -1.509,3.808 -2.527,0.946l-0.997,-2.8l-0.627,3.2c-0.748,3.823 -1.385,8.591 -0.879,6.588c0.639,-2.532 1.844,-0.577 1.762,2.859c-0.148,6.213 -1.136,7.945 -1.913,3.353l-0.676,-4l-0.759,4c-0.418,2.2 -0.72,4.9 -0.673,6c0.048,1.1 0.432,8.628 0.853,16.728c0.75,14.407 0.368,18.459 -1.624,17.227c-0.811,-0.5 -0.344,2.282 0.989,5.897c0.376,1.019 0.722,3.359 0.77,5.2c0.084,3.223 0.123,3.168 1.028,-1.452l0.94,-4.8l0.564,3.2c0.821,4.663 0.705,10.629 -0.219,11.2c-0.44,0.272 -0.8,-0.127 -0.8,-0.886c0,-0.759 -0.222,-1.159 -0.492,-0.888c-0.271,0.271 -0.039,1.681 0.516,3.133c0.555,1.453 1.266,4.441 1.58,6.641l0.571,4l0.112,-4.153c0.184,-6.785 2.473,-5.728 2.502,1.156c0.006,1.431 0.731,3.946 1.611,5.588c0.88,1.642 1.6,4.315 1.6,5.94c0,1.694 0.57,3.525 1.337,4.292c1.605,1.605 2.004,8.084 0.478,7.782c-0.994,-0.197 -0.658,0.813 2.999,8.995c1.423,3.185 1.433,3.191 2.225,1.2l0.796,-2l0.883,2.252c0.485,1.239 0.882,2.725 0.882,3.302c0,0.578 0.522,1.483 1.159,2.012c0.638,0.529 1.553,2.155 2.034,3.614c0.761,2.303 2.468,3.557 4.918,3.609c0.281,0.006 0.751,-1.268 1.044,-2.831c0.293,-1.563 1.053,-3.042 1.689,-3.286c0.636,-0.244 1.156,-1.125 1.156,-1.958c0,-0.833 0.72,-2.234 1.6,-3.114c0.88,-0.88 1.602,-1.87 1.605,-2.2c0.006,-0.767 7.572,-9 8.27,-9c0.289,0 1.245,-0.72 2.125,-1.6c2.564,-2.564 15.2,-2.232 15.2,0.4c0,0.566 0.54,1.236 1.2,1.489c1.975,0.758 1.506,14.911 -0.493,14.911c-0.389,0 -0.707,-2.854 -0.707,-6.343c0,-10.197 -8.239,-13.677 -15.888,-6.712c-0.878,0.8 -2.073,1.888 -2.655,2.417c-1.619,1.472 -2.741,2.95 -3.866,5.088c-0.563,1.073 -1.512,2.238 -2.108,2.59c-0.596,0.352 -1.083,1.106 -1.083,1.676c0,0.57 -0.72,1.688 -1.6,2.484c-0.88,0.796 -1.6,2.28 -1.6,3.296c0,1.029 -0.709,2.227 -1.6,2.704c-0.99,0.53 -1.605,1.684 -1.612,3.028c-0.017,2.991 -0.94,4.271 -2.409,3.342c-1.913,-1.21 -2.463,-0.882 -1.393,0.83c0.774,1.24 0.786,1.941 0.054,3.114c-0.52,0.832 -0.706,1.753 -0.414,2.045c1.438,1.438 0.764,9.327 -1.021,11.958c-1.211,1.784 -1.584,3.053 -1.114,3.784c0.601,0.931 0.818,0.93 1.422,-0.007c1.224,-1.9 1.956,2.124 0.865,4.759c-0.532,1.284 -0.788,3.273 -0.568,4.42c0.333,1.742 -0.014,2.264 -2.106,3.175c-1.377,0.599 -2.03,1.103 -1.451,1.121c1.619,0.048 4.403,-1.575 5.873,-3.425c1.303,-1.64 1.34,-1.613 2.208,1.612c0.486,1.804 1.419,3.485 2.075,3.737c0.655,0.251 1.191,1.008 1.191,1.682c0,1.461 4.046,1.685 6.519,0.361c1.26,-0.674 1.941,-0.568 3.101,0.482c2.398,2.17 5.773,0.605 6.644,-3.08c0.603,-2.549 1.002,-2.938 3.015,-2.938c1.277,0 2.321,-0.302 2.321,-0.672c0,-0.369 0.9,-1.081 2,-1.582c2.614,-1.192 2.857,-6.257 0.4,-8.36c-0.88,-0.754 -1.6,-2.076 -1.6,-2.938c0,-0.863 -0.505,-1.856 -1.121,-2.208c-1.87,-1.067 -2.025,-8.24 -0.178,-8.24c0.76,0 1.217,-1.398 1.476,-4.52c0.229,-2.764 0.848,-4.866 1.594,-5.411c0.81,-0.592 1.333,-2.689 1.56,-6.25c0.362,-5.684 1.067,-7.319 2.327,-5.396c0.994,1.515 0.124,8.65 -1.334,10.949c-0.618,0.974 -1.124,2.631 -1.124,3.68c0,2.54 -1.572,6.948 -2.478,6.948c-1.504,0 -0.777,6.797 0.878,8.214c0.88,0.754 1.6,1.94 1.6,2.635c0,0.696 0.54,1.805 1.2,2.465c3.877,3.877 0.66,10.789 -6.2,13.319c-0.77,0.284 -1.4,0.982 -1.4,1.55c0,3.54 -3.869,5.417 -11.169,5.417l-7.104,0l-3.232,-3.2c-3.774,-3.736 -5.746,-4.004 -8.037,-1.092c-5.873,7.466 4.04,13.717 23.942,15.099c4.18,0.29 11.668,1.037 16.641,1.66c10.708,1.342 68.938,1.56 78.559,0.294c3.3,-0.434 9.96,-1.121 14.8,-1.528c9.536,-0.8 14.919,-2.314 17.777,-4.999c1.872,-1.759 2.484,-5.731 1.023,-6.634c-1.765,-1.091 0.908,-10.91 3.772,-13.857c0.566,-0.582 1.028,-1.766 1.028,-2.632c0,-0.866 0.72,-2.986 1.6,-4.711c0.88,-1.725 1.6,-4.182 1.6,-5.46c0,-1.278 0.72,-3.24 1.6,-4.358c1.05,-1.335 1.6,-3.246 1.6,-5.555c0,-4.009 2.264,-8.28 2.452,-4.627c0.233,4.527 -0.266,8.493 -1.326,10.544c-0.619,1.197 -1.126,3.406 -1.126,4.908c0,1.578 -0.721,3.649 -1.707,4.902c-2.661,3.383 -2.615,12.346 0.078,15.214c2.399,2.555 4.954,2.391 5.716,-0.368c0.305,-1.1 0.589,-1.544 0.633,-0.987c0.179,2.275 5.244,3.709 7.615,2.156c8.139,-5.333 8.821,-20.726 1.663,-37.569c-0.561,-1.32 -1.286,-3.3 -1.611,-4.4c-0.8,-2.706 -4.385,-8.8 -5.177,-8.8c-0.936,0 -1.61,2.162 -1.61,5.165c0,3.716 -0.873,7.635 -1.7,7.635c-0.942,0 -0.888,-9.882 0.09,-16.585c0.435,-2.978 1.065,-8.281 1.4,-11.783c0.686,-7.166 -0.605,-5.835 11.01,-11.347c26.356,-12.507 37.518,-35.808 31.149,-65.028c-0.726,-3.331 -2.002,-7.536 -2.835,-9.345c-0.833,-1.808 -1.514,-3.522 -1.514,-3.808c0,-0.997 -5.813,-8.926 -8.896,-12.134c-1.707,-1.777 -3.104,-3.895 -3.104,-4.708c0,-1.234 -0.273,-1.13 -1.658,0.63c-4.94,6.28 -25.696,-3.139 -26.913,-12.213c-0.492,-3.666 -0.959,-3.886 -4.012,-1.885c-2.912,1.907 -13.573,1.874 -16.512,-0.052c-1.127,-0.738 -2.583,-1.342 -3.236,-1.342c-0.652,0 -2.158,-0.9 -3.345,-2c-1.187,-1.1 -2.465,-2 -2.841,-2c-0.913,0 -0.879,-2.994 0.038,-3.333c0.397,-0.147 0.217,-0.731 -0.4,-1.299c-0.647,-0.595 -1.121,-0.68 -1.121,-0.2c0,0.458 -0.39,0.832 -0.867,0.832c-0.476,0 -0.705,-0.45 -0.507,-1c0.198,-0.55 -0.911,-2.573 -2.465,-4.496c-2.39,-2.957 -2.681,-3.728 -1.887,-5c0.517,-0.827 0.618,-1.504 0.226,-1.504c-0.392,0 -0.925,-0.63 -1.183,-1.4c-0.259,-0.77 -0.894,-1.974 -1.412,-2.676c-1.218,-1.653 -0.351,-5.078 1.842,-7.271l1.706,-1.706l-1.727,0.452c-1.263,0.33 -1.726,0.09 -1.726,-0.896c0,-2.18 2.351,-4.902 4.245,-4.915c1.438,-0.01 1.538,-0.157 0.555,-0.812c-1.006,-0.671 -0.777,-1.186 1.413,-3.188c3.235,-2.957 8.556,-3.275 13.196,-0.788c1.642,0.88 3.347,1.6 3.788,1.6c0.442,0 1.433,0.563 2.203,1.25c0.77,0.688 2.83,2.333 4.579,3.655c3.774,2.855 9.857,10.672 10.501,13.495c0.251,1.1 0.966,3.357 1.588,5.016c1.438,3.832 1.407,9.204 -0.068,11.784c-0.629,1.1 -1.145,2.72 -1.146,3.6l-0.003,1.6l1.209,-1.6c3.657,-4.84 19.354,-0.324 21.93,6.308c1.67,4.301 4.069,9.529 3.713,8.092c-1.1,-4.436 -3.245,-8.931 -6.118,-12.82c-1.752,-2.371 -3.185,-4.496 -3.185,-4.721c0,-1.347 -7.768,-11.381 -13.326,-17.212c-3.589,-3.766 -7.729,-8.122 -9.2,-9.681c-6.203,-6.575 -16.266,-12.766 -20.751,-12.766c-1.057,0 -5.702,-1.237 -10.322,-2.748c-12.444,-4.072 -16.425,-5.061 -24.648,-6.127c-6.809,-0.882 -7.528,-1.143 -8.4,-3.045l-0.953,-2.08l-11.2,0.5m-14.8,3.89c-5.778,1.297 -10.345,1.427 -11.784,0.335c-1.214,-0.921 -0.274,-1.066 6.584,-1.019c5.824,0.04 7.238,0.226 5.2,0.684m-26.798,5.321c1.934,0.743 -0.093,1.861 -3.402,1.877c-2.953,0.014 -3.528,-1.298 -0.8,-1.823c0.99,-0.191 2.041,-0.396 2.335,-0.456c0.294,-0.06 1.134,0.121 1.867,0.402m33.152,3.95c4.745,1.652 7.086,4.281 7.086,7.957c0,1.816 0.609,3.561 1.621,4.645c2.171,2.327 2.816,5.305 1.754,8.098c-0.604,1.588 -0.618,2.556 -0.045,3.129c1.388,1.388 0.939,3.674 -1.298,6.607c-1.414,1.853 -2.094,3.688 -2.027,5.465c0.106,2.823 -5.223,10.038 -7.415,10.038c-0.569,0 -1.459,0.512 -1.978,1.137c-0.519,0.626 -2.453,1.375 -4.298,1.665c-1.845,0.29 -4.499,0.921 -5.899,1.403c-3.092,1.065 -10.681,-0.401 -14.023,-2.708c-1.192,-0.823 -2.518,-1.497 -2.946,-1.497c-0.428,0 -1.007,-0.72 -1.286,-1.6c-0.973,-3.066 -1.776,-1.567 -1.688,3.152c0.093,5.039 -2.847,9.621 -7.026,10.948c-0.886,0.281 -2.07,0.97 -2.63,1.53c-3.042,3.042 -17.772,3.258 -20.939,0.307c-8.215,-7.653 11.824,-24.927 23.762,-20.482c2.046,0.762 4.022,1.466 4.389,1.565c0.367,0.099 0.729,-3.96 0.804,-9.02c0.104,-7.009 0.449,-9.676 1.449,-11.2c0.722,-1.1 1.581,-2.9 1.91,-4c0.594,-1.985 4.843,-7.73 7.988,-10.8c6.231,-6.082 15.807,-8.752 22.735,-6.339m-61.072,12.739c-0.835,0.632 -1.831,0.955 -2.213,0.719c-1.154,-0.713 0.107,-1.921 1.978,-1.894c1.695,0.025 1.703,0.064 0.235,1.175m-3.682,3.2c-0.548,0.66 -1.312,1.2 -1.698,1.2c-0.386,0 -0.702,-0.54 -0.702,-1.2c0,-0.69 0.722,-1.2 1.698,-1.2c1.419,0 1.534,0.197 0.702,1.2m-2.911,3.2c-0.51,1.329 -1.565,1.572 -2.22,0.512c-0.535,-0.866 0.275,-1.712 1.639,-1.712c0.597,0 0.845,0.512 0.581,1.2m-3.482,3.191c-0.999,1.204 -2.407,0.948 -2.407,-0.438c0,-0.414 0.764,-0.753 1.698,-0.753c1.413,0 1.532,0.2 0.709,1.191m-3.135,3.475c-0.432,0.806 -1.344,1.93 -2.028,2.498c-0.684,0.567 -1.244,1.528 -1.244,2.134c0,0.606 -0.579,1.102 -1.286,1.102c-0.843,0 -1.118,-0.435 -0.8,-1.265c0.267,-0.696 0.486,-1.596 0.486,-2c0,-0.404 0.72,-0.735 1.6,-0.735c1.067,0 1.6,-0.533 1.6,-1.6c0,-0.905 0.533,-1.6 1.228,-1.6c0.943,0 1.046,0.341 0.444,1.466m-5.672,7.683c0,0.58 -0.508,1.477 -1.129,1.992c-1.558,1.293 -2.391,-0.249 -1.268,-2.347c0.911,-1.703 2.397,-1.483 2.397,0.355m-3.211,3.451c-0.03,1.635 -1.057,4.2 -1.682,4.2c-0.821,0 -0.963,-3.478 -0.174,-4.267c0.719,-0.718 1.87,-0.677 1.856,0.067m111.576,12.125c2.248,0.879 -3.025,1.655 -11.318,1.666c-6.213,0.009 -9.568,-1.073 -5.659,-1.825c3.112,-0.598 15.334,-0.484 16.977,0.159m27.435,-0.221c3.449,0.925 1.764,1.896 -3.288,1.896c-7.055,0 -12.901,-0.861 -11.57,-1.704c1.215,-0.771 12.169,-0.912 14.858,-0.192m-6.6,3.3c2.64,0.348 5.166,0.863 5.613,1.146c0.446,0.282 3.626,0.904 7.066,1.383c3.44,0.478 7.024,1.409 7.965,2.068c0.942,0.66 2.374,1.199 3.184,1.199c1.393,0 9.189,3.218 11.772,4.86c0.66,0.42 2.19,1.153 3.4,1.63c1.21,0.477 2.2,1.167 2.2,1.534c0,0.368 0.736,0.902 1.636,1.188c2.286,0.725 13.539,12.176 14.881,15.142c0.609,1.345 1.436,2.986 1.838,3.646c4.702,7.714 6.628,29.139 3.103,34.518c-0.738,1.127 -1.593,3.389 -1.901,5.029c-0.307,1.639 -1.054,3.171 -1.658,3.402c-0.604,0.232 -1.099,0.787 -1.099,1.233c0,1.783 -4.585,7.685 -8.162,10.507c-8.141,6.422 -18.864,8.302 -30.184,5.292c-3.27,-0.869 -6.736,-1.581 -7.702,-1.581c-0.966,0 -3.151,-0.602 -4.854,-1.339c-4.277,-1.848 -29.289,-1.889 -34.698,-0.057c-1.98,0.671 -5.316,1.433 -7.414,1.694c-2.097,0.261 -4.869,1.021 -6.16,1.689c-1.291,0.667 -3.187,1.213 -4.214,1.213c-1.027,0 -3.916,0.72 -6.42,1.6c-5.582,1.962 -18.926,2.251 -22.315,0.483c-1.167,-0.609 -3.4,-1.529 -4.961,-2.045c-4.791,-1.581 -12.44,-9.41 -14.887,-15.238c-0.462,-1.1 -1.359,-2.924 -1.994,-4.054c-2.934,-5.226 -4.212,-19.894 -2.469,-28.346c1.184,-5.742 2.478,-9.02 6.622,-16.78c1.882,-3.522 12.313,-13.549 16.262,-15.632c1.073,-0.565 2.13,-1.259 2.35,-1.542c0.368,-0.474 2.864,-1.701 12.888,-6.34c2.028,-0.938 4.368,-1.708 5.2,-1.711c0.831,-0.003 2.568,-0.555 3.858,-1.228c1.291,-0.673 5.023,-1.596 8.295,-2.051c3.271,-0.455 6.829,-1.162 7.906,-1.572c1.076,-0.409 3.824,-0.787 6.105,-0.839c2.281,-0.052 5.228,-0.388 6.548,-0.748c2.615,-0.712 14.755,-0.362 22.4,0.647m-42.456,0.105c0.574,0.929 -2.297,1.666 -6.544,1.68c-3.239,0.01 -4.538,-0.996 -2.4,-1.859c1.73,-0.698 8.485,-0.563 8.944,0.179m63.191,-0.223c2.385,0.915 1.265,1.914 -2.135,1.903c-4.247,-0.014 -7.118,-0.751 -6.544,-1.68c0.496,-0.802 6.751,-0.963 8.679,-0.223m-75.616,3.016c1.034,1.246 -0.928,2.068 -4.986,2.087c-4.403,0.021 -2.027,-2.039 3.569,-3.094c0.276,-0.052 0.914,0.401 1.417,1.007m84.681,0.14c2.021,0.622 0.923,1.958 -1.6,1.946c-3.09,-0.015 -5.021,-1.06 -4.253,-2.301c0.487,-0.79 2.544,-0.665 5.853,0.355m-93.4,2.77c1.612,1.058 -0.248,2.358 -3.4,2.376c-2.657,0.015 -2.89,-1.362 -0.4,-2.363c2.335,-0.939 2.389,-0.939 3.8,-0.013m99.562,0.116c1.121,0.511 2.038,1.207 2.038,1.547c0,0.339 0.79,0.868 1.755,1.174c2.243,0.712 9.293,5.57 11.677,8.047c1.008,1.047 2.178,1.904 2.6,1.904c0.423,0 0.768,0.453 0.768,1.008c0,0.554 0.72,1.457 1.6,2.006c0.88,0.55 1.6,1.457 1.6,2.015c0,0.558 0.72,1.632 1.6,2.385c1.67,1.431 2.204,4.586 0.775,4.586c-0.454,0 -1.057,-0.63 -1.341,-1.4c-0.284,-0.77 -1.443,-2.651 -2.575,-4.18c-1.874,-2.53 -3.232,-3.881 -9.467,-9.42c-1.114,-0.99 -2.513,-1.8 -3.109,-1.8c-0.596,0 -1.083,-0.511 -1.083,-1.136c0,-0.625 -1.05,-1.367 -2.333,-1.649c-1.283,-0.282 -2.532,-1.031 -2.775,-1.664c-0.243,-0.633 -1.263,-1.157 -2.267,-1.163c-2.833,-0.019 -4.555,-1.371 -3.025,-2.376c1.483,-0.973 1.147,-0.984 3.562,0.116m-105.693,3.418c0.301,0.786 -0.326,1.315 -1.996,1.682c-1.34,0.294 -3.119,1.218 -3.954,2.053c-0.836,0.836 -2.059,1.519 -2.719,1.519c-0.66,0 -1.2,0.533 -1.2,1.185c0,0.651 -0.9,1.41 -2,1.686c-1.1,0.277 -2,1.003 -2,1.616c0,0.612 -0.516,1.113 -1.146,1.113c-0.63,0 -1.375,0.72 -1.654,1.6c-0.279,0.88 -1.024,1.6 -1.654,1.6c-0.63,0 -1.146,0.527 -1.146,1.172c0,0.644 -0.72,1.557 -1.6,2.028c-0.88,0.471 -1.6,1.362 -1.6,1.981c0,1.518 -1.553,2.386 -2.527,1.412c-0.516,-0.516 -0.148,-1.513 1.07,-2.897c1.021,-1.161 2.937,-3.53 4.257,-5.266c1.32,-1.736 2.76,-3.181 3.2,-3.211c0.44,-0.03 2.565,-1.666 4.722,-3.637c2.157,-1.97 4.407,-3.582 5,-3.582c0.593,0 1.078,-0.305 1.078,-0.678c0,-1.826 5.226,-3.051 5.869,-1.376m-0.901,11.318c-2.328,1.063 -4.668,2.305 -5.2,2.759c-6.684,5.706 -8.497,8.354 -10.478,15.3c-1.14,3.998 -1.797,13.046 -0.76,10.477c0.222,-0.55 1.038,-1 1.813,-1c0.775,0 2.061,-0.72 2.857,-1.6c1.825,-2.016 5.741,-2.141 6.249,-0.2c0.244,0.936 0.396,0.729 0.458,-0.627c0.105,-2.298 6.589,-5.808 12.493,-6.766c1.76,-0.285 4.743,-1.033 6.628,-1.663c4.978,-1.661 7.753,-1.464 9.232,0.656c1.032,1.479 1.264,1.555 1.298,0.428c0.061,-1.977 2.549,-3.028 7.17,-3.028l4.032,0l-0.827,-2.2c-4.184,-11.131 -23.152,-17.931 -34.965,-12.536m92.245,-1.286c-0.264,0.428 -1.815,1.143 -3.447,1.588c-4.989,1.362 -14.771,12.161 -13.247,14.626c0.206,0.334 2.47,0.608 5.03,0.608c5.074,0 7.184,1.251 5.432,3.22c-0.74,0.832 -0.588,0.817 0.619,-0.059c0.88,-0.638 1.862,-1.564 2.182,-2.057c0.405,-0.624 1.617,-0.674 4,-0.164c1.88,0.403 6.244,1.233 9.698,1.845c3.454,0.611 6.902,1.675 7.663,2.363c0.761,0.689 2.143,1.252 3.073,1.252c2.36,0 3.117,1.632 1.353,2.921c-0.987,0.722 -1.114,1.079 -0.385,1.079c0.6,0 1.745,-0.593 2.546,-1.317c1.359,-1.231 1.726,-1.178 5.537,0.8c6.279,3.257 6.884,2.2 4.059,-7.09c-4.037,-13.27 -13.46,-20.393 -26.98,-20.393c-3.659,0 -6.868,0.35 -7.133,0.778m-172.184,14.822c0.006,2.2 0.161,3.005 0.345,1.789c0.184,-1.216 0.179,-3.016 -0.011,-4c-0.19,-0.984 -0.34,0.011 -0.334,2.211m54.618,0.896c-0.586,2.337 -2.047,1.779 -2.047,-0.783c0,-2.341 1.877,-4.404 2.271,-2.497c0.149,0.721 0.048,2.197 -0.224,3.28m160.193,-0.564c-0.132,1.137 -0.6,1.996 -1.04,1.908c-0.883,-0.177 -2.036,-4.737 -1.367,-5.406c0.924,-0.925 2.633,1.558 2.407,3.498m-163.405,9.411c-0.643,2.566 -2.035,1.579 -2.035,-1.443c0,-3.955 1.926,-6.675 2.259,-3.189c0.142,1.491 0.042,3.575 -0.224,4.632m166.422,-2.52c0.286,1.521 0.275,3.74 -0.024,4.93c-0.828,3.3 -2.006,0.735 -2.021,-4.4c-0.013,-4.692 1.205,-5.008 2.045,-0.53m-169.629,24.216c-1.006,1.006 -1.322,-0.915 -1.337,-8.128c-0.022,-10.806 1.258,-11.644 1.537,-1.006c0.126,4.788 0.036,8.898 -0.2,9.134m169.625,1.29c-0.3,1.998 -0.885,3.843 -1.299,4.1c-0.867,0.535 -1.043,-7.545 -0.212,-9.711c0.992,-2.584 2.114,1.586 1.511,5.611m-166.065,7.471c0.006,1.87 -0.306,3.4 -0.695,3.4c-1.363,0 -2.345,-7.081 -1.148,-8.279c0.954,-0.954 1.83,1.365 1.843,4.879m163.212,0.102c0,1.266 -0.54,2.75 -1.2,3.298c-1.26,1.046 -1.902,-3.831 -0.667,-5.067c1.134,-1.133 1.867,-0.438 1.867,1.769m-160.486,5.363c0.267,0.696 0.486,1.956 0.486,2.8c0,0.844 0.549,1.535 1.22,1.535c0.671,0 1.54,0.81 1.931,1.8c0.936,2.368 6.327,7.8 7.74,7.8c0.61,0 1.109,0.466 1.109,1.035c0,0.569 1.17,1.379 2.6,1.8c2.93,0.862 3.437,2.245 0.955,2.6c-0.905,0.13 -2.705,-0.671 -4,-1.78c-1.295,-1.108 -2.923,-2.501 -3.616,-3.096c-0.694,-0.595 -1.864,-1.312 -2.6,-1.595c-0.737,-0.283 -1.339,-1.052 -1.339,-1.711c0,-0.658 -0.72,-1.582 -1.6,-2.053c-0.88,-0.471 -1.6,-1.387 -1.6,-2.036c0,-0.649 -0.72,-1.796 -1.6,-2.55c-0.887,-0.759 -1.6,-2.36 -1.6,-3.592c0,-2.417 1.136,-2.985 1.914,-0.957m157.286,0.565c0,1.95 -9.27,12.57 -10.973,12.57c-0.521,0 -1.267,0.571 -1.657,1.268c-0.78,1.394 -5.65,2.012 -5.774,0.732c-0.043,-0.44 1.101,-1.041 2.542,-1.335c1.44,-0.295 2.756,-0.948 2.924,-1.452c0.168,-0.504 1.168,-1.244 2.222,-1.645c1.054,-0.401 1.916,-1.277 1.916,-1.948c0,-0.687 0.7,-1.22 1.6,-1.22c1.067,0 1.6,-0.533 1.6,-1.6c0,-0.889 0.533,-1.6 1.2,-1.6c0.66,0 1.2,-0.337 1.2,-0.748c0,-1.59 1.6,-4.852 2.38,-4.852c0.451,0 0.82,0.823 0.82,1.83m-68.218,10.754c-1.66,0.173 -4.18,0.17 -5.6,-0.007c-1.42,-0.176 -0.062,-0.318 3.018,-0.314c3.08,0.003 4.242,0.148 2.582,0.321m5.233,2.527c7.796,0.974 9.236,5.158 3.19,9.267c-6.355,4.318 -33.005,2.101 -33.005,-2.746c0,-0.386 -0.204,-1.232 -0.453,-1.88c-1.308,-3.411 17.285,-6.262 30.268,-4.641m-31.856,2.597c-4.659,2.954 -13.959,4.354 -13.959,2.102c0,-1.197 3.118,-2.21 6.802,-2.21c0.991,0 2.25,-0.54 2.798,-1.2c0.62,-0.747 2.378,-1.2 4.655,-1.2l3.658,0l-3.954,2.508m50.041,-1.308c0.776,0.935 3.135,1.221 10.698,1.295c15.902,0.155 19.437,2.11 5.274,2.918c-12.58,0.717 -25.572,-1.689 -25.572,-4.737c0,-1.234 8.527,-0.769 9.6,0.524m-68,5.118c8.128,0.379 -1.141,2.014 -11.6,2.047c-11.096,0.035 -16.636,-0.793 -12.551,-1.875c1.627,-0.431 16.34,-0.536 24.151,-0.172m-88.966,7.107c0.569,0.391 1.363,1.761 1.765,3.043l0.731,2.332l-0.165,-2.793c-0.124,-2.108 -0.558,-2.855 -1.765,-3.043c-1.137,-0.178 -1.301,-0.044 -0.566,0.461m136.566,4.165c29.142,4.905 42.463,30.736 29.709,57.61c-3.887,8.189 -16.768,18.4 -23.212,18.4c-0.742,0 -2.669,0.552 -4.284,1.226c-9.371,3.916 -53.351,3.936 -60.908,0.028c-1.334,-0.69 -2.95,-1.254 -3.591,-1.254c-4.824,0 -14.811,-8.377 -17.813,-14.942c-2.295,-5.018 -2.722,-18.323 -0.701,-21.858c0.629,-1.1 1.161,-2.72 1.183,-3.6c0.023,-0.88 0.554,-2.5 1.181,-3.6c0.627,-1.1 1.66,-3.08 2.295,-4.4c2.993,-6.223 14.297,-15.859 23.414,-19.959c2.6,-1.169 5.807,-2.61 7.127,-3.201c9.44,-4.232 33.149,-6.546 45.6,-4.45m-128.968,7.438c0.092,1.147 -0.192,2.195 -0.632,2.329c-0.44,0.133 -0.914,-1.197 -1.053,-2.957c-0.185,-2.333 -0.014,-2.964 0.631,-2.328c0.487,0.479 0.961,1.81 1.054,2.956m39.768,6.794c0,8.432 -0.168,9.566 -1.6,10.792c-1.117,0.957 -1.6,2.36 -1.6,4.652c0,2.07 -0.591,4.032 -1.6,5.316c-1.368,1.739 -1.6,3.245 -1.6,10.401c0,7.694 0.129,8.4 1.6,8.785c1.12,0.293 1.6,1.091 1.6,2.66c0,1.233 0.21,2.788 0.467,3.457c0.365,0.953 -0.284,1.27 -3,1.466c-3.377,0.243 -3.473,0.327 -3.715,3.249c-0.155,1.87 -0.657,3 -1.334,3c-0.596,0 -1.25,0.45 -1.453,1c-0.202,0.55 -0.631,0.01 -0.953,-1.2c-0.322,-1.21 -0.915,-2.2 -1.319,-2.2c-0.403,0 -1.075,-0.9 -1.493,-2c-0.962,-2.53 -5.6,-2.972 -5.6,-0.533c0,1.966 -0.591,2.438 -2.446,1.953c-1.276,-0.334 -1.554,-1.119 -1.554,-4.392c0,-3.419 -0.35,-4.313 -2.461,-6.285c-1.353,-1.264 -2.228,-2.676 -1.942,-3.138c0.285,-0.461 0.632,-3.156 0.771,-5.989c0.166,-3.396 0.691,-5.59 1.542,-6.44c0.71,-0.71 1.29,-2.542 1.29,-4.071c0,-1.939 0.606,-3.343 2,-4.635c1.133,-1.05 2,-2.744 2,-3.908c0,-1.352 0.547,-2.228 1.6,-2.562c0.88,-0.279 1.6,-1.148 1.6,-1.93c0,-0.782 0.72,-2.074 1.6,-2.87c0.88,-0.796 1.6,-1.902 1.6,-2.456c0,-2.601 9.936,-11.351 13,-11.449l3,-0.095l0,9.422m139.268,15.164c1.157,0.303 1.532,1.117 1.532,3.329c0,1.611 0.506,3.652 1.125,4.536c0.619,0.883 1.378,3.292 1.687,5.352c0.309,2.06 1.063,4.161 1.675,4.669c0.612,0.508 1.113,2.166 1.113,3.683c0,2.508 -0.114,2.645 -1.257,1.502c-1.956,-1.956 -4.343,-0.862 -4.343,1.992c0,0.986 -0.516,1.231 -2,0.947c-1.84,-0.352 -2,-0.729 -2,-4.714c0,-3.113 -0.338,-4.462 -1.2,-4.793c-0.774,-0.297 -1.2,-1.535 -1.2,-3.489c0,-1.954 0.426,-3.192 1.2,-3.489c0.92,-0.353 1.225,-2.007 1.309,-7.086c0.06,-3.644 0.27,-5.773 0.468,-4.732c0.197,1.041 1.048,2.073 1.891,2.293m-171.975,9.549c-0.051,0.514 -0.326,1.594 -0.611,2.4c-0.401,1.137 -0.295,1.26 0.475,0.55c0.546,-0.503 0.821,-1.583 0.611,-2.4c-0.21,-0.817 -0.424,-1.064 -0.475,-0.55m171.104,20.664c3.245,0.713 3.728,1.841 1.199,2.802c-5.005,1.903 -7.987,-2.268 -6.253,-8.748c0.463,-1.733 0.638,-1.542 1.595,1.738c0.898,3.081 1.465,3.77 3.459,4.208m-40.797,32.514c-1.1,0.446 -10.46,1.099 -20.8,1.451c-22.882,0.779 -21.689,0.399 -21.101,6.714c0.957,10.265 4.882,12.123 25.272,11.963c21.158,-0.166 26.362,-2.354 26.362,-11.085c0,-8.974 -3.009,-11.77 -9.733,-9.043m-100.864,2.351c-2.335,2.335 -2.121,10.015 0.358,12.828c5.892,6.686 41.404,7.23 47.292,0.724c1.99,-2.2 4.167,-8.61 3.792,-11.167l-0.335,-2.284l-14.122,-0.479c-37.502,-1.275 -35.31,-1.297 -36.985,0.378m42.864,2.235c7.911,0.551 7.81,0.448 5.806,5.867c-1.735,4.693 -3.404,5.977 -9.186,7.068c-5.121,0.966 -28.172,0.576 -33.924,-0.575c-4.53,-0.906 -6.935,-7.918 -4.096,-11.943l1.4,-1.984l16.4,0.533c9.02,0.293 19.64,0.758 23.6,1.034m65.158,0.456c5.232,5.57 -0.14,11.568 -11.18,12.482c-28.903,2.392 -39.727,-0.866 -34.763,-10.465c1.803,-3.487 3.406,-3.721 26.446,-3.863l17.66,-0.109l1.837,1.955" fill="#ffffff" fill-rule="evenodd"/>
  </g>
 </g>
</svg>