<svg id="svg" version="1.1" width="500" height="500" xmlns="http://www.w3.org/2000/svg" xmlns:xlink="http://www.w3.org/1999/xlink" style="display: block;"><g id="svgg"><path id="path0" d="M210.268 39.738 C 208.309 40.257,207.716 42.400,209.532 42.400 C 210.347 42.400,211.202 41.680,211.432 40.800 C 211.662 39.920,211.794 39.242,211.725 39.293 C 211.656 39.344,211.001 39.544,210.268 39.738 M237.400 40.667 C 238.995 42.338,239.618 42.243,238.924 40.435 C 238.663 39.756,237.899 39.200,237.225 39.200 C 236.189 39.200,236.215 39.426,237.400 40.667 M243.363 43.964 C 244.467 45.731,245.244 45.511,244.524 43.635 C 244.263 42.956,243.676 42.400,243.218 42.400 C 242.692 42.400,242.745 42.974,243.363 43.964 M263.768 59.200 C 263.998 60.080,264.740 60.800,265.417 60.800 C 266.452 60.800,266.418 60.546,265.200 59.200 C 264.404 58.320,263.662 57.600,263.551 57.600 C 263.440 57.600,263.538 58.320,263.768 59.200 M139.476 68.435 C 138.731 70.376,139.604 70.564,141.196 68.805 C 142.521 67.340,142.530 67.200,141.299 67.200 C 140.557 67.200,139.737 67.756,139.476 68.435 M279.263 69.372 C 279.228 69.906,279.920 70.729,280.800 71.200 C 281.885 71.781,282.400 71.790,282.400 71.228 C 282.400 70.773,281.890 70.400,281.267 70.400 C 280.643 70.400,279.952 69.950,279.730 69.400 C 279.426 68.646,279.311 68.639,279.263 69.372 M135.000 71.264 C 133.327 72.238,133.156 73.600,134.707 73.600 C 135.315 73.600,136.002 72.880,136.232 72.000 C 136.462 71.120,136.594 70.411,136.525 70.424 C 136.456 70.438,135.770 70.816,135.000 71.264 M124.000 78.533 C 124.000 79.487,124.102 80.117,124.226 79.933 C 124.351 79.750,124.935 78.970,125.524 78.200 C 126.442 77.002,126.409 76.800,125.298 76.800 C 124.500 76.800,124.000 77.468,124.000 78.533 M285.800 85.000 C 285.983 85.550,286.811 86.132,287.641 86.292 C 288.946 86.545,289.004 86.410,288.077 85.292 C 286.808 83.763,285.324 83.573,285.800 85.000 M114.400 88.000 C 114.400 88.880,114.500 89.600,114.622 89.600 C 114.744 89.600,115.461 88.880,116.214 88.000 C 117.518 86.477,117.508 86.400,115.992 86.400 C 114.933 86.400,114.400 86.936,114.400 88.000 M301.600 98.882 C 301.600 99.444,303.756 101.600,304.318 101.600 C 304.555 101.600,304.553 101.088,304.313 100.462 C 303.887 99.353,301.600 98.021,301.600 98.882 M304.800 108.609 C 304.800 109.018,305.534 110.016,306.430 110.827 C 308.034 112.278,308.049 112.271,307.354 110.393 C 306.650 108.489,304.800 107.198,304.800 108.609 M99.242 110.321 C 98.549 111.616,98.665 111.781,100.014 111.428 C 100.886 111.200,101.600 110.515,101.600 109.907 C 101.600 108.302,100.190 108.550,99.242 110.321 M96.466 120.253 C 95.605 120.882,95.185 121.928,95.420 122.853 C 95.763 124.200,95.826 124.167,95.907 122.600 C 95.960 121.575,96.516 120.800,97.200 120.800 C 97.860 120.800,98.400 120.440,98.400 120.000 C 98.400 118.962,98.194 118.989,96.466 120.253 M93.196 128.805 C 92.397 129.688,91.981 130.648,92.272 130.938 C 92.562 131.229,92.800 131.047,92.800 130.533 C 92.800 130.020,93.280 129.600,93.867 129.600 C 94.453 129.600,94.933 129.060,94.933 128.400 C 94.933 126.884,94.934 126.884,93.196 128.805 M305.067 128.342 C 305.067 128.969,305.760 129.664,306.607 129.886 C 308.080 130.271,308.086 130.221,306.750 128.744 C 305.078 126.897,305.067 126.894,305.067 128.342 M89.642 135.121 C 88.949 136.416,89.065 136.581,90.414 136.228 C 91.286 136.000,92.000 135.315,92.000 134.707 C 92.000 133.102,90.590 133.350,89.642 135.121 M308.000 134.800 C 308.000 135.460,308.540 136.000,309.200 136.000 C 309.860 136.000,310.400 136.420,310.400 136.933 C 310.400 137.447,310.609 137.657,310.865 137.402 C 311.491 136.776,309.743 133.600,308.772 133.600 C 308.347 133.600,308.000 134.140,308.000 134.800 M86.400 144.133 C 86.400 145.087,86.502 145.717,86.626 145.533 C 86.751 145.350,87.335 144.570,87.924 143.800 C 88.842 142.602,88.809 142.400,87.698 142.400 C 86.900 142.400,86.400 143.068,86.400 144.133 M311.200 142.702 C 311.200 142.868,311.740 143.452,312.400 144.000 C 313.383 144.816,313.600 144.761,313.600 143.698 C 313.600 142.984,313.060 142.400,312.400 142.400 C 311.740 142.400,311.200 142.536,311.200 142.702 M85.848 150.800 C 85.852 153.440,86.002 154.424,86.180 152.986 C 86.358 151.548,86.354 149.388,86.172 148.186 C 85.989 146.984,85.843 148.160,85.848 150.800 M70.676 202.835 C 70.416 203.513,70.427 204.293,70.701 204.568 C 70.976 204.842,71.200 204.493,71.200 203.792 C 71.200 203.091,71.830 202.353,72.600 202.151 C 73.912 201.809,73.910 201.780,72.575 201.693 C 71.791 201.642,70.937 202.156,70.676 202.835 M316.972 202.522 C 317.168 203.115,318.379 204.140,319.664 204.800 C 320.949 205.460,322.264 206.360,322.588 206.800 C 322.944 207.285,323.180 207.177,323.188 206.525 C 323.194 205.934,322.480 205.262,321.600 205.032 C 320.720 204.802,320.000 204.308,320.000 203.935 C 320.000 203.562,319.238 202.849,318.307 202.350 C 316.957 201.628,316.687 201.663,316.972 202.522 M327.604 212.805 C 329.196 214.564,330.069 214.376,329.324 212.435 C 329.063 211.756,328.243 211.200,327.501 211.200 C 326.270 211.200,326.279 211.340,327.604 212.805 M58.911 216.400 C 58.630 217.131,58.909 217.600,59.625 217.600 C 60.271 217.600,60.800 217.060,60.800 216.400 C 60.800 215.740,60.479 215.200,60.086 215.200 C 59.693 215.200,59.164 215.740,58.911 216.400 M55.200 218.898 C 55.200 219.961,55.417 220.016,56.400 219.200 C 57.060 218.652,57.600 218.068,57.600 217.902 C 57.600 217.736,57.060 217.600,56.400 217.600 C 55.740 217.600,55.200 218.184,55.200 218.898 M340.343 228.457 C 341.034 229.149,341.600 230.289,341.600 230.990 C 341.600 231.692,341.798 232.069,342.039 231.828 C 342.878 230.988,341.419 227.200,340.256 227.200 C 339.266 227.200,339.279 227.393,340.343 228.457 M342.400 234.707 C 342.400 235.315,343.153 236.010,344.074 236.251 C 345.680 236.671,345.691 236.626,344.350 235.144 C 342.687 233.307,342.400 233.243,342.400 234.707 M43.543 237.143 C 42.696 237.762,42.281 238.547,42.620 238.887 C 42.960 239.227,43.838 238.905,44.571 238.171 C 46.301 236.442,45.540 235.682,43.543 237.143 M345.600 239.590 C 345.600 239.879,346.179 240.693,346.886 241.401 C 348.068 242.582,348.149 242.567,347.886 241.210 C 347.621 239.843,345.600 238.412,345.600 239.590 M39.476 246.835 C 38.782 248.643,39.405 248.738,41.000 247.067 C 42.185 245.826,42.211 245.600,41.175 245.600 C 40.501 245.600,39.737 246.156,39.476 246.835 M348.800 250.302 C 348.800 251.278,349.310 252.000,350.000 252.000 C 350.660 252.000,351.200 251.684,351.200 251.298 C 351.200 250.912,350.660 250.148,350.000 249.600 C 348.997 248.768,348.800 248.883,348.800 250.302 M36.568 274.400 C 36.798 275.280,37.540 276.000,38.217 276.000 C 39.252 276.000,39.218 275.746,38.000 274.400 C 37.204 273.520,36.462 272.800,36.351 272.800 C 36.240 272.800,36.338 273.520,36.568 274.400 M45.600 311.115 C 45.600 311.883,47.369 313.600,48.160 313.600 C 49.528 313.600,48.712 311.364,47.200 310.968 C 46.320 310.738,45.600 310.804,45.600 311.115 M326.400 318.067 C 326.400 318.763,326.828 319.191,327.350 319.017 C 328.833 318.522,329.079 316.800,327.667 316.800 C 326.970 316.800,326.400 317.370,326.400 318.067 M86.400 323.502 C 86.400 323.668,86.940 324.252,87.600 324.800 C 88.583 325.616,88.800 325.561,88.800 324.498 C 88.800 323.784,88.260 323.200,87.600 323.200 C 86.940 323.200,86.400 323.336,86.400 323.502 M95.200 337.582 C 95.200 338.032,95.534 338.400,95.943 338.400 C 96.351 338.400,97.251 338.966,97.943 339.657 C 98.634 340.349,99.200 340.570,99.200 340.149 C 99.200 339.728,98.300 338.794,97.200 338.074 C 96.100 337.353,95.200 337.131,95.200 337.582 M104.812 373.276 C 104.836 374.663,106.222 376.193,107.169 375.877 C 107.785 375.672,107.535 375.027,106.461 374.056 C 105.548 373.229,104.806 372.878,104.812 373.276 M293.204 374.395 C 291.977 375.752,291.944 376.000,292.990 376.000 C 293.672 376.000,294.456 375.408,294.733 374.685 C 295.489 372.716,294.837 372.592,293.204 374.395 M284.400 384.000 C 283.604 384.880,283.288 385.600,283.698 385.600 C 284.109 385.600,285.061 384.880,285.814 384.000 C 286.568 383.120,286.884 382.400,286.516 382.400 C 286.149 382.400,285.196 383.120,284.400 384.000 M114.792 384.014 C 114.520 384.452,114.877 385.033,115.584 385.304 C 117.306 385.965,117.687 385.429,116.362 384.208 C 115.677 383.578,115.105 383.507,114.792 384.014 " stroke="none" fill="#000000" fill-rule="evenodd"></path><path id="path1" d="M185.800 74.166 C 182.537 81.192,188.383 87.467,195.443 84.517 C 198.519 83.232,201.221 78.671,199.870 77.043 C 196.510 72.995,187.226 71.096,185.800 74.166 M249.972 78.709 C 249.119 84.397,252.198 88.218,257.634 88.218 C 261.685 88.218,262.478 87.453,262.972 83.065 C 263.786 75.845,251.042 71.574,249.972 78.709 M173.600 95.600 C 175.093 97.140,176.494 98.400,176.714 98.400 C 176.934 98.400,175.893 97.140,174.400 95.600 C 172.907 94.060,171.506 92.800,171.286 92.800 C 171.066 92.800,172.107 94.060,173.600 95.600 M133.262 95.099 C 132.994 95.534,133.099 96.090,133.496 96.336 C 133.894 96.581,134.449 98.010,134.730 99.511 C 135.012 101.011,135.763 102.672,136.400 103.200 C 137.037 103.728,137.787 105.385,138.068 106.880 C 138.627 109.859,139.633 110.418,140.352 108.151 C 141.808 103.562,135.364 91.699,133.262 95.099 M200.350 97.000 L 198.000 99.600 200.600 97.250 C 203.024 95.060,203.568 94.400,202.950 94.400 C 202.812 94.400,201.642 95.570,200.350 97.000 M186.200 101.365 C 187.190 101.555,188.810 101.555,189.800 101.365 C 190.790 101.174,189.980 101.018,188.000 101.018 C 186.020 101.018,185.210 101.174,186.200 101.365 M255.800 102.965 C 256.790 103.155,258.410 103.155,259.400 102.965 C 260.390 102.774,259.580 102.618,257.600 102.618 C 255.620 102.618,254.810 102.774,255.800 102.965 M285.262 107.804 C 285.017 108.576,285.133 110.826,285.521 112.804 L 286.225 116.400 286.312 111.400 C 286.401 106.347,286.077 105.237,285.262 107.804 M113.241 115.822 C 107.769 121.257,110.476 134.906,116.600 132.756 C 119.629 131.693,119.785 130.683,117.585 126.371 C 116.697 124.630,115.747 121.574,115.473 119.581 C 114.970 115.907,114.297 114.773,113.241 115.822 M184.874 133.847 C 182.934 134.811,179.882 137.337,178.091 139.461 L 174.835 143.322 174.818 151.095 C 174.793 161.972,178.031 166.515,188.010 169.603 L 193.300 171.240 198.450 169.638 C 215.731 164.261,217.574 142.141,201.427 133.921 C 196.478 131.402,189.853 131.372,184.874 133.847 M244.368 133.624 C 231.470 139.569,229.235 157.760,240.330 166.488 C 252.740 176.250,271.455 167.072,271.505 151.200 C 271.547 137.421,256.823 127.884,244.368 133.624 M202.357 147.094 C 206.138 150.297,207.635 153.693,206.335 156.121 C 205.286 158.082,200.942 158.138,200.251 156.200 C 198.386 150.966,193.100 150.067,188.999 154.285 C 183.696 159.741,178.487 158.484,180.832 152.316 C 184.137 143.624,195.116 140.960,202.357 147.094 M259.197 145.456 C 264.985 149.026,267.438 153.365,265.605 156.792 C 264.393 159.056,262.076 158.272,258.201 154.285 C 254.297 150.269,251.498 150.161,247.839 153.885 C 242.442 159.375,238.302 158.721,240.042 152.653 C 242.172 145.228,252.521 141.340,259.197 145.456 M58.724 284.084 C 56.621 286.407,55.921 303.874,57.865 305.488 C 60.969 308.064,67.388 307.577,70.622 304.522 C 72.404 302.837,74.127 301.852,74.823 302.120 C 79.754 304.012,87.528 289.452,83.913 285.095 C 82.581 283.490,79.735 283.760,78.586 285.600 C 77.311 287.640,75.169 287.635,72.564 285.586 C 70.576 284.022,70.421 284.016,67.575 285.373 L 64.639 286.773 62.758 284.587 C 60.503 281.965,60.628 281.981,58.724 284.084 M325.600 285.600 C 324.702 287.278,321.269 287.806,320.400 286.400 C 319.602 285.109,317.725 285.475,315.926 287.274 C 314.916 288.284,313.635 288.787,312.696 288.541 C 307.423 287.162,304.755 301.128,309.345 306.081 C 313.922 311.019,327.200 308.100,327.200 302.156 C 327.200 301.306,328.322 299.333,329.694 297.770 C 332.196 294.921,332.586 290.143,330.715 285.268 C 330.023 283.464,326.625 283.685,325.600 285.600 " stroke="none" fill="#ffffff" fill-rule="evenodd"></path><path id="path2" d="M242.156 43.954 C 242.393 44.859,242.905 45.600,243.293 45.600 C 244.372 45.600,244.136 44.308,242.863 43.252 C 241.930 42.478,241.803 42.604,242.156 43.954 M125.333 78.133 C 124.569 78.898,124.676 80.000,125.514 80.000 C 125.907 80.000,126.436 79.460,126.689 78.800 C 127.157 77.581,126.305 77.162,125.333 78.133 M188.610 147.440 C 186.965 147.900,185.422 148.902,185.179 149.665 C 184.937 150.428,184.213 151.254,183.570 151.501 C 182.926 151.748,182.400 152.681,182.400 153.575 C 182.400 155.630,185.424 155.811,186.170 153.800 C 188.260 148.166,197.106 147.432,200.400 152.619 C 201.880 154.950,204.800 156.169,204.800 154.455 C 204.800 148.993,196.266 145.295,188.610 147.440 M248.544 147.376 C 245.000 148.315,241.600 151.380,241.600 153.636 C 241.600 155.845,242.315 155.607,245.745 152.259 C 250.610 147.508,260.800 148.780,260.800 154.139 C 260.800 154.733,261.668 155.200,262.773 155.200 L 264.746 155.200 262.440 151.784 C 260.606 149.066,259.383 148.167,256.456 147.384 C 252.320 146.278,252.683 146.278,248.544 147.376 M211.883 182.165 C 210.719 182.344,209.133 183.190,208.359 184.045 C 207.585 184.900,206.625 185.600,206.224 185.600 C 203.488 185.600,197.451 196.006,197.754 200.201 L 198.000 203.600 224.621 203.811 C 254.929 204.051,253.015 204.563,250.436 196.906 C 248.668 191.658,247.717 190.214,242.968 185.559 C 239.143 181.810,224.559 180.217,211.883 182.165 M324.404 209.605 C 325.203 210.488,326.022 211.045,326.224 210.843 C 326.657 210.410,324.377 208.000,323.533 208.000 C 323.214 208.000,323.606 208.722,324.404 209.605 M56.404 219.195 C 55.606 220.078,55.324 220.800,55.778 220.800 C 56.785 220.800,58.780 218.513,58.242 217.976 C 58.030 217.764,57.203 218.312,56.404 219.195 M58.412 317.240 C 58.394 318.484,60.142 320.003,61.560 319.976 C 62.479 319.958,62.386 319.717,61.200 319.044 C 60.320 318.545,59.336 317.746,59.012 317.268 C 58.619 316.688,58.420 316.678,58.412 317.240 " stroke="none" fill="#231815" fill-rule="evenodd"></path><path id="path3" d="M211.257 68.018 C 207.134 68.888,205.668 69.988,206.938 71.258 C 207.549 71.869,208.805 71.836,211.298 71.143 C 216.720 69.635,229.627 69.861,230.814 71.484 C 231.680 72.669,231.896 72.641,233.224 71.174 C 234.289 69.997,234.444 69.324,233.798 68.678 C 232.649 67.529,215.901 67.039,211.257 68.018 M156.252 71.547 C 153.653 72.757,151.662 74.333,150.920 75.767 C 150.071 77.409,147.627 79.106,142.268 81.773 C 134.999 85.391,127.824 91.290,129.117 92.584 C 129.455 92.921,130.191 92.568,130.754 91.799 C 131.316 91.029,132.547 90.400,133.488 90.400 C 134.430 90.400,135.200 90.088,135.200 89.706 C 135.200 88.523,141.407 84.834,147.440 82.430 C 150.896 81.053,153.555 79.456,154.089 78.438 C 155.792 75.184,158.676 72.821,161.528 72.342 C 165.940 71.602,167.200 71.158,167.200 70.346 C 167.200 68.887,160.353 69.638,156.252 71.547 M225.358 78.745 C 220.967 83.172,220.934 83.188,217.150 82.669 C 212.435 82.023,212.836 83.595,217.591 84.399 C 221.189 85.006,222.403 84.296,227.547 78.579 C 232.126 73.489,230.446 73.617,225.358 78.745 M159.881 81.180 C 154.502 87.575,149.631 91.882,146.800 92.746 C 145.040 93.282,143.127 93.872,142.549 94.055 C 141.971 94.239,141.714 94.738,141.978 95.164 C 142.273 95.641,143.139 95.665,144.229 95.225 C 145.203 94.832,146.981 94.301,148.180 94.045 C 150.494 93.551,155.770 88.784,159.545 83.778 C 161.758 80.843,162.048 78.603,159.881 81.180 M119.475 106.006 C 118.725 107.624,118.762 108.000,119.675 108.000 C 120.342 108.000,120.800 107.185,120.800 106.000 C 120.800 103.510,120.633 103.511,119.475 106.006 M212.003 108.642 C 210.904 109.389,209.218 110.924,208.256 112.052 C 202.540 118.758,186.993 124.875,178.470 123.772 C 171.768 122.904,163.025 120.722,161.039 119.421 C 158.205 117.564,150.072 117.585,148.203 119.455 C 146.502 121.155,147.374 121.991,149.603 120.798 C 151.729 119.661,158.116 119.571,159.438 120.660 C 165.914 125.997,195.569 125.739,200.078 120.306 C 200.583 119.698,201.469 119.200,202.047 119.200 C 202.625 119.200,205.368 117.007,208.142 114.326 L 213.185 109.452 219.662 109.726 C 226.095 109.998,226.171 110.027,231.044 114.000 C 240.709 121.880,248.147 124.429,261.200 124.335 C 268.715 124.281,278.362 122.640,280.747 121.010 C 282.116 120.074,279.121 119.272,277.130 120.041 C 268.629 123.325,262.975 124.098,256.400 122.873 C 252.880 122.218,248.470 121.451,246.600 121.170 C 244.730 120.889,243.200 120.355,243.200 119.984 C 243.200 119.612,242.390 119.068,241.400 118.774 C 239.021 118.068,234.224 114.786,230.210 111.117 C 225.644 106.943,216.358 105.681,212.003 108.642 M104.462 133.800 C 101.335 138.591,98.898 145.488,98.327 151.162 C 97.993 154.483,97.110 158.820,96.365 160.800 C 94.775 165.026,93.849 174.765,94.971 175.459 C 95.455 175.758,95.342 177.811,94.667 180.968 C 94.076 183.735,93.618 187.800,93.648 190.000 C 93.679 192.200,93.723 196.014,93.747 198.475 C 93.792 203.123,92.647 206.394,90.972 206.408 C 86.517 206.444,72.444 216.420,70.510 220.914 C 69.714 222.763,67.317 225.469,64.400 227.810 C 60.009 231.335,59.563 231.984,59.164 235.424 C 58.840 238.217,58.068 239.867,56.164 241.831 C 54.251 243.805,53.600 245.202,53.600 247.334 C 53.600 249.452,52.793 251.205,50.477 254.113 C 47.673 257.635,47.468 258.190,48.470 259.560 C 49.300 260.695,49.454 262.488,49.074 266.576 C 48.599 271.694,48.701 272.213,50.582 274.233 C 51.692 275.425,52.954 277.480,53.386 278.800 C 54.200 281.285,54.333 281.316,59.723 280.294 C 61.758 279.908,62.420 280.143,63.151 281.508 C 64.227 283.519,66.914 283.707,68.898 281.911 C 70.214 280.721,70.486 280.751,72.469 282.311 C 75.139 284.412,76.164 284.428,78.000 282.400 C 81.089 278.987,88.000 282.126,88.000 286.942 C 88.000 288.488,88.500 290.709,89.112 291.877 C 89.723 293.044,90.599 296.475,91.057 299.499 C 91.678 303.598,92.417 305.548,93.960 307.159 C 95.400 308.661,96.299 310.845,96.912 314.325 C 97.621 318.347,98.364 319.921,100.697 322.338 C 102.294 323.993,104.581 327.032,105.780 329.091 C 106.979 331.150,108.599 333.062,109.380 333.339 C 113.129 334.670,113.600 335.882,113.600 344.203 C 113.600 349.395,113.998 353.034,114.745 354.679 C 115.374 356.066,116.011 359.989,116.160 363.398 C 116.427 369.507,116.476 369.634,119.565 372.198 C 124.259 376.095,124.835 376.173,151.898 376.586 C 188.920 377.152,192.036 376.598,193.634 369.177 C 197.633 350.601,202.330 350.164,206.297 368.000 C 208.165 376.398,207.915 376.329,237.688 376.664 C 268.671 377.013,275.658 376.356,279.871 372.697 C 283.931 369.172,284.230 368.462,284.357 362.052 C 284.418 358.944,284.923 355.577,285.478 354.570 C 286.139 353.373,286.439 349.876,286.346 344.453 C 286.192 335.495,286.411 334.660,289.194 333.602 C 290.320 333.174,291.901 331.102,293.277 328.252 C 294.512 325.693,295.972 323.322,296.521 322.982 C 299.022 321.437,299.851 319.703,300.645 314.353 C 301.187 310.700,302.067 307.993,303.066 306.906 C 304.249 305.620,304.765 303.526,305.166 298.400 C 305.867 289.435,307.390 286.400,311.189 286.400 C 313.149 286.400,314.322 285.909,315.014 284.800 C 316.100 283.062,319.850 282.635,322.339 283.967 C 323.481 284.579,323.955 284.335,324.669 282.767 C 325.650 280.616,331.322 279.855,332.475 281.721 C 333.210 282.911,335.200 280.312,335.200 278.163 C 335.200 277.320,336.100 275.561,337.200 274.254 C 339.306 271.751,339.681 269.369,338.470 266.183 C 337.940 264.791,338.138 263.371,339.187 261.029 L 340.634 257.796 337.553 252.923 C 335.859 250.243,334.816 247.837,335.236 247.578 C 336.715 246.664,335.967 244.505,332.706 240.278 C 330.502 237.421,329.549 235.481,329.827 234.417 C 330.235 232.857,321.841 224.000,319.954 224.000 C 319.539 224.000,319.200 223.123,319.200 222.051 C 319.200 220.647,317.566 218.623,313.354 214.808 L 307.508 209.513 306.550 202.888 C 305.835 197.943,305.820 195.608,306.490 193.687 C 307.183 191.699,307.112 189.527,306.180 184.156 C 305.494 180.205,305.143 174.947,305.368 171.984 C 305.689 167.738,305.364 165.580,303.619 160.384 C 302.284 156.412,301.606 152.942,301.823 151.200 C 302.519 145.621,296.048 132.000,292.701 132.000 C 291.443 132.000,291.608 132.613,293.939 136.600 C 297.577 142.824,298.859 147.247,297.669 149.471 C 296.936 150.841,297.058 151.771,298.288 154.189 C 302.441 162.352,303.833 169.748,301.608 171.820 C 300.038 173.284,300.036 173.361,301.507 177.652 C 303.901 184.637,304.260 189.393,302.507 190.894 C 301.208 192.006,301.153 192.487,302.032 195.075 C 304.973 203.744,304.134 211.809,300.389 210.869 C 298.362 210.360,298.162 210.698,297.234 216.200 C 296.676 219.507,295.711 219.910,293.387 217.807 C 291.633 216.220,288.000 219.303,288.000 222.379 C 288.000 225.683,287.142 226.400,283.193 226.400 C 279.625 226.400,279.296 226.573,278.495 228.872 C 277.421 231.952,275.895 231.552,274.966 227.946 C 274.576 226.436,273.750 224.912,273.129 224.560 C 272.508 224.208,272.000 223.094,272.000 222.085 C 272.000 221.075,271.100 219.203,270.001 217.924 C 268.902 216.646,268.002 215.150,268.001 214.600 C 268.000 214.050,267.631 213.600,267.180 213.600 C 266.729 213.600,266.018 212.700,265.600 211.600 C 265.182 210.500,264.437 209.600,263.946 209.600 C 263.454 209.600,262.137 208.880,261.018 208.000 C 259.900 207.120,257.979 206.400,256.750 206.400 C 254.622 206.400,254.491 206.181,254.008 201.800 C 252.928 192.015,247.516 184.087,239.200 180.106 C 233.576 177.414,216.658 176.978,212.400 179.416 C 211.080 180.172,209.623 180.792,209.163 180.795 C 204.225 180.824,195.234 193.607,193.721 202.750 C 193.263 205.521,192.862 205.987,190.400 206.619 C 188.860 207.013,187.032 207.846,186.337 208.468 C 185.642 209.091,184.549 209.600,183.908 209.600 C 182.296 209.600,175.200 216.435,175.200 217.987 C 175.200 218.682,174.670 219.454,174.022 219.702 C 173.374 219.951,172.608 221.470,172.320 223.077 C 172.033 224.685,171.263 226.613,170.610 227.361 C 167.483 230.945,168.575 241.600,172.070 241.600 C 175.873 241.600,176.806 254.629,173.103 256.037 C 170.914 256.869,168.813 255.926,168.788 254.102 C 168.753 251.532,167.200 250.784,165.758 252.643 C 163.796 255.172,161.190 254.089,157.772 249.324 C 155.306 245.886,155.017 245.718,153.085 246.598 C 150.681 247.693,148.277 245.195,146.771 240.039 C 146.061 237.609,145.639 237.236,143.842 237.448 C 142.126 237.651,141.285 237.030,139.233 234.048 C 136.938 230.713,135.200 229.419,135.200 231.047 C 135.200 234.642,132.836 234.706,129.591 231.200 C 127.758 229.220,126.098 227.999,125.901 228.487 C 124.409 232.175,123.324 232.446,122.060 229.444 C 120.902 226.695,120.551 226.471,117.029 226.244 C 113.408 226.011,113.207 225.870,112.408 223.009 C 111.078 218.245,108.506 216.094,106.409 217.992 C 104.312 219.890,103.356 218.986,102.552 214.343 C 102.011 211.216,101.718 210.832,100.059 211.069 C 96.674 211.553,95.491 202.673,98.001 195.625 C 98.983 192.869,98.978 192.281,97.966 191.162 C 96.321 189.345,96.519 183.985,98.440 178.282 C 99.925 173.872,99.963 173.285,98.840 172.044 C 96.583 169.550,98.195 160.681,102.168 153.739 C 103.327 151.713,103.418 150.944,102.643 149.698 C 101.171 147.331,105.690 134.400,107.988 134.400 C 108.407 134.400,108.543 133.860,108.289 133.200 C 107.618 131.449,105.811 131.733,104.462 133.800 M237.860 180.972 C 247.301 183.801,257.406 203.709,250.400 205.678 C 247.957 206.365,200.309 206.568,197.826 205.903 C 194.682 205.060,195.409 195.614,198.837 192.769 C 199.477 192.238,200.000 191.342,200.000 190.776 C 200.000 189.066,207.810 182.601,211.420 181.323 C 215.681 179.814,233.218 179.582,237.860 180.972 M255.197 208.874 C 260.857 210.088,267.802 216.946,269.262 222.763 C 269.527 223.820,270.252 224.879,270.872 225.117 C 272.817 225.863,272.421 236.152,270.400 237.414 C 269.043 238.262,268.800 239.280,268.800 244.112 C 268.800 250.355,267.282 253.914,263.586 256.336 C 262.494 257.051,261.600 258.121,261.600 258.712 C 261.600 261.814,258.129 268.000,256.388 268.000 C 254.418 268.000,250.400 272.581,250.400 274.827 C 250.400 276.500,245.381 281.600,243.734 281.600 C 243.060 281.600,241.739 282.681,240.799 284.002 C 238.478 287.261,236.427 288.285,234.397 287.198 C 233.047 286.476,232.653 286.648,231.906 288.286 C 229.350 293.897,224.120 294.262,221.672 289.000 C 220.983 287.520,220.188 287.200,217.193 287.200 C 214.060 287.200,213.221 286.824,211.186 284.507 C 209.456 282.536,207.944 281.696,205.549 281.375 C 201.190 280.790,198.144 277.795,193.978 270.000 C 193.369 268.860,192.443 268.460,190.761 268.609 C 187.935 268.858,185.394 265.536,184.483 260.400 C 183.457 254.620,183.289 254.331,181.573 255.402 C 178.867 257.092,178.035 255.073,177.600 245.761 L 177.200 237.200 174.800 237.200 C 171.591 237.200,170.767 230.220,173.558 226.672 C 174.461 225.524,175.200 223.913,175.200 223.092 C 175.200 222.271,175.785 220.925,176.500 220.100 C 180.828 215.107,184.149 212.000,185.160 212.000 C 185.798 212.000,186.608 211.515,186.960 210.923 C 188.499 208.332,244.789 206.642,255.197 208.874 M93.477 212.000 C 93.851 214.705,94.814 215.723,97.510 216.262 C 99.199 216.600,99.899 217.293,100.232 218.961 C 100.540 220.499,101.810 221.919,104.265 223.471 C 107.952 225.802,108.770 227.307,108.789 231.793 C 108.796 233.528,108.270 234.717,107.200 235.386 C 106.066 236.094,105.600 237.251,105.600 239.360 C 105.600 247.525,103.881 254.420,101.544 255.629 C 99.332 256.773,99.301 256.889,99.747 262.215 C 100.227 267.939,99.709 269.111,96.432 269.719 C 95.427 269.905,94.683 270.895,94.359 272.475 C 93.637 276.008,92.817 277.137,91.750 276.070 C 90.316 274.636,88.396 275.076,86.482 277.277 C 85.149 278.811,84.221 279.216,82.938 278.826 C 79.661 277.830,78.816 278.003,78.009 279.835 C 77.110 281.874,73.773 281.691,72.560 279.536 C 71.717 278.038,69.094 278.079,68.511 279.600 C 67.745 281.594,65.803 280.960,63.523 277.971 L 61.365 275.141 59.567 276.831 C 57.465 278.805,57.192 278.499,56.441 273.318 C 55.898 269.581,55.791 269.449,53.539 269.780 C 50.748 270.189,50.585 269.265,52.540 264.144 C 53.535 261.540,53.660 260.280,53.026 259.265 C 51.780 257.270,57.360 249.600,60.057 249.600 C 61.440 249.600,60.811 247.402,59.103 246.268 C 57.433 245.160,57.472 245.069,61.503 240.659 C 65.822 235.932,66.369 234.645,64.383 233.883 C 62.688 233.232,66.148 230.034,72.477 226.400 C 77.274 223.646,77.330 223.575,75.857 222.039 C 73.996 220.098,75.027 218.927,83.599 213.244 C 89.951 209.034,93.013 208.648,93.477 212.000 M312.014 217.435 C 315.062 220.140,315.332 220.658,314.503 222.207 C 313.684 223.738,313.837 224.082,315.787 225.092 C 320.874 227.729,325.625 232.782,324.583 234.450 C 323.732 235.813,324.038 236.404,327.082 239.272 C 330.261 242.266,330.507 242.777,330.021 245.369 C 329.570 247.775,329.828 248.551,331.745 250.554 C 333.707 252.604,334.006 253.554,334.043 257.855 C 334.067 260.575,334.371 264.115,334.718 265.722 C 335.267 268.267,335.136 268.712,333.702 269.168 C 332.576 269.525,331.901 270.625,331.565 272.645 C 330.698 277.875,330.556 278.025,328.388 275.988 C 326.495 274.210,326.355 274.193,324.855 275.551 C 322.881 277.337,319.237 276.343,317.882 273.648 L 316.964 271.823 316.413 273.558 C 314.515 279.538,309.690 272.147,309.651 263.200 C 309.621 256.432,309.973 255.515,312.800 254.990 L 314.800 254.618 312.800 254.480 C 308.875 254.209,306.174 248.268,306.332 240.252 C 306.433 235.147,306.142 232.925,305.180 231.458 C 303.983 229.630,304.004 229.283,305.484 226.443 C 306.749 224.017,306.934 222.768,306.388 220.348 C 305.002 214.201,307.129 213.100,312.014 217.435 M302.400 220.400 C 302.400 221.060,302.061 221.600,301.647 221.600 C 300.638 221.600,299.916 220.351,300.555 219.712 C 301.456 218.811,302.400 219.163,302.400 220.400 M297.018 225.658 C 298.658 227.010,300.000 228.766,300.000 229.560 C 300.000 230.354,300.501 231.420,301.114 231.928 C 303.013 233.504,303.199 236.001,301.541 237.659 C 299.578 239.622,299.593 241.647,301.600 245.391 C 302.480 247.033,303.200 249.203,303.200 250.214 C 303.200 251.224,303.740 253.344,304.400 254.923 C 306.284 259.431,305.997 262.927,303.696 263.504 C 301.693 264.007,302.137 269.397,304.748 276.264 C 306.149 279.948,305.833 286.190,304.200 287.104 C 303.038 287.754,302.800 289.043,302.800 294.676 C 302.800 302.092,302.335 303.244,299.945 301.752 C 297.913 300.483,297.797 300.853,297.395 309.858 C 297.111 316.230,296.883 317.085,295.046 318.658 C 293.928 319.616,292.196 322.487,291.198 325.038 L 289.384 329.676 287.603 328.003 L 285.823 326.331 284.827 328.965 C 280.442 340.569,279.850 341.536,278.047 340.039 C 277.015 339.183,275.942 339.845,271.116 344.313 C 264.795 350.165,261.390 351.210,259.340 347.927 C 258.318 346.290,258.225 346.324,254.990 349.527 C 251.645 352.838,248.473 353.753,246.652 351.932 C 246.028 351.308,244.830 351.666,242.389 353.207 C 239.026 355.330,238.965 355.337,235.938 353.972 C 232.975 352.636,232.793 352.646,229.995 354.297 C 226.403 356.416,226.675 356.453,225.229 353.657 C 224.051 351.377,223.953 351.346,221.634 352.503 C 217.310 354.660,213.870 354.810,212.673 352.894 C 211.409 350.871,210.322 350.786,207.088 352.458 C 204.979 353.548,204.477 353.565,203.327 352.580 C 200.798 350.414,199.039 350.272,197.116 352.079 L 195.280 353.803 192.102 352.147 L 188.925 350.491 187.584 352.537 C 186.094 354.811,182.993 354.811,178.435 352.537 C 176.194 351.419,176.088 351.457,175.162 353.691 C 174.194 356.028,172.530 356.705,171.570 355.151 C 170.354 353.183,166.926 352.681,163.933 354.030 C 161.084 355.315,160.922 355.297,157.833 353.347 C 155.689 351.994,154.294 351.576,153.530 352.060 C 151.194 353.539,148.331 352.808,145.561 350.025 C 142.489 346.938,141.462 346.638,140.000 348.400 C 137.556 351.344,129.644 347.418,125.606 341.257 L 123.612 338.215 122.092 340.251 L 120.572 342.287 118.784 339.652 C 117.801 338.203,116.584 335.768,116.079 334.241 C 115.046 331.109,111.593 327.499,109.223 327.071 C 108.183 326.884,107.223 325.566,106.398 323.194 C 105.559 320.777,104.439 319.259,102.980 318.559 C 100.491 317.365,100.237 316.483,99.713 307.236 C 99.423 302.136,98.998 300.231,97.983 299.488 C 96.743 298.582,96.737 298.360,97.918 296.674 C 98.623 295.667,99.200 294.248,99.200 293.520 C 99.200 291.245,101.458 289.927,103.342 291.103 C 105.365 292.367,108.000 290.344,108.000 287.527 C 108.000 286.061,107.498 285.652,105.456 285.451 C 101.349 285.046,100.122 278.295,103.149 272.761 C 105.164 269.076,105.377 268.920,106.647 270.190 C 107.918 271.460,108.000 271.386,108.000 268.971 C 108.000 267.557,107.679 266.400,107.286 266.400 C 105.879 266.400,105.653 263.899,106.760 260.578 C 107.379 258.720,108.134 253.780,108.437 249.600 C 108.853 243.869,109.353 241.600,110.471 240.374 C 111.286 239.479,112.248 237.319,112.608 235.574 C 113.441 231.536,116.856 230.792,121.002 233.744 C 122.428 234.759,124.069 235.481,124.648 235.348 C 125.228 235.215,127.264 235.863,129.175 236.788 C 131.305 237.819,133.386 238.283,134.559 237.989 C 135.901 237.652,136.913 237.999,137.959 239.155 C 138.778 240.060,139.914 240.800,140.483 240.800 C 141.887 240.800,146.331 245.593,146.880 247.700 C 147.373 249.589,150.807 251.576,153.059 251.275 C 153.898 251.162,156.343 252.806,158.811 255.140 C 162.289 258.429,163.636 259.200,165.905 259.200 C 167.445 259.200,168.953 259.600,169.255 260.089 C 169.603 260.652,171.166 260.806,173.503 260.508 C 177.090 260.051,177.270 260.131,179.553 263.218 C 180.848 264.968,182.189 266.400,182.533 266.400 C 182.877 266.400,183.729 267.502,184.425 268.848 C 185.238 270.420,186.968 271.843,189.262 272.827 C 191.227 273.669,193.075 274.997,193.369 275.779 C 194.718 279.365,203.714 286.645,206.342 286.276 C 207.034 286.179,208.976 287.427,210.658 289.050 C 213.014 291.325,214.150 291.893,215.608 291.526 C 217.007 291.175,218.484 291.802,221.266 293.926 C 225.879 297.448,228.462 297.587,231.404 294.470 C 232.790 293.002,234.789 291.940,236.806 291.599 C 238.568 291.301,240.491 290.369,241.080 289.528 C 241.670 288.687,243.706 287.176,245.606 286.171 C 247.506 285.167,249.437 283.637,249.898 282.772 C 250.359 281.908,251.380 280.225,252.168 279.032 C 252.956 277.840,253.600 276.318,253.600 275.649 C 253.600 274.980,254.950 273.730,256.600 272.871 C 259.698 271.258,263.200 266.876,263.200 264.612 C 263.200 263.903,264.362 262.161,265.782 260.741 C 269.101 257.422,271.165 252.826,272.037 246.811 C 272.419 244.178,273.117 241.894,273.587 241.738 C 274.058 241.581,275.143 240.080,275.999 238.402 C 277.962 234.554,281.169 232.000,284.039 232.000 C 286.292 232.000,291.200 226.683,291.200 224.242 C 291.200 222.442,293.918 223.103,297.018 225.658 M283.850 347.944 C 284.024 350.329,283.683 351.824,282.722 352.886 C 281.662 354.058,281.383 355.651,281.513 359.804 C 281.667 364.724,281.461 365.499,279.183 368.585 C 275.310 373.830,274.151 374.000,242.265 374.000 L 214.529 374.000 212.479 372.074 C 209.242 369.033,209.609 360.800,212.983 360.800 C 214.246 360.800,216.316 360.264,217.582 359.609 C 218.964 358.894,221.746 358.469,224.542 358.546 C 227.104 358.616,230.018 358.235,231.019 357.698 C 232.526 356.890,233.063 356.948,234.150 358.036 C 235.491 359.377,239.827 359.148,240.760 357.687 C 241.002 357.309,243.610 356.848,246.555 356.664 C 250.319 356.429,252.403 355.884,253.569 354.828 C 254.721 353.786,256.756 353.240,260.215 353.047 C 263.574 352.859,265.907 352.251,267.368 351.184 C 268.560 350.313,269.892 349.600,270.328 349.600 C 270.764 349.600,271.444 349.022,271.839 348.315 C 272.271 347.543,274.038 346.864,276.266 346.613 C 278.306 346.383,280.394 345.689,280.907 345.071 C 282.449 343.213,283.585 344.322,283.850 347.944 M118.734 345.494 C 118.970 345.876,120.721 346.363,122.625 346.578 C 124.898 346.834,127.574 348.013,130.416 350.011 C 134.261 352.714,135.267 353.050,139.399 353.011 C 142.087 352.986,144.471 353.385,145.043 353.957 C 147.207 356.121,150.135 357.023,154.562 356.891 C 157.113 356.814,159.200 357.094,159.200 357.512 C 159.200 359.020,163.984 359.394,166.041 358.047 C 167.611 357.018,168.368 356.940,169.729 357.669 C 171.852 358.805,177.528 358.792,178.671 357.649 C 179.746 356.574,182.400 356.539,182.400 357.600 C 182.400 358.040,183.480 358.400,184.800 358.400 C 186.120 358.400,187.200 358.040,187.200 357.600 C 187.200 357.160,188.292 356.800,189.626 356.800 C 192.661 356.800,193.937 359.384,192.390 362.400 C 191.826 363.500,191.058 365.806,190.682 367.523 C 189.266 374.006,189.294 374.000,157.741 374.000 C 126.003 374.000,124.984 373.851,120.909 368.619 C 118.349 365.333,118.263 364.991,118.676 359.810 C 118.983 355.951,118.808 354.122,118.058 353.372 C 116.512 351.826,115.867 349.210,116.454 346.868 C 116.977 344.787,117.939 344.207,118.734 345.494 " stroke="none" fill="#9e0d15" fill-rule="evenodd"></path><path id="path4" d="M217.600 70.089 C 212.740 70.849,207.200 72.150,207.200 72.531 C 207.200 72.760,207.920 73.863,208.800 74.982 C 209.680 76.100,210.400 77.631,210.400 78.384 C 210.400 84.132,219.758 84.390,225.309 78.795 C 227.707 76.378,230.013 74.400,230.434 74.400 C 231.335 74.400,231.476 71.455,230.600 70.946 C 229.649 70.393,219.806 69.745,217.600 70.089 M159.600 72.756 C 157.790 73.497,155.365 76.005,154.071 78.473 C 153.559 79.451,150.826 81.081,147.440 82.430 C 141.839 84.661,135.200 88.503,135.200 89.512 C 135.200 89.787,136.771 90.960,138.690 92.120 L 142.181 94.228 146.420 92.793 C 149.667 91.694,151.653 90.264,154.911 86.679 C 157.250 84.106,159.892 81.267,160.782 80.372 C 161.672 79.476,162.400 78.453,162.400 78.098 C 162.400 77.743,163.120 76.537,164.000 75.418 C 166.599 72.114,164.407 70.789,159.600 72.756 M208.142 114.326 C 205.368 117.007,202.625 119.200,202.047 119.200 C 201.469 119.200,200.583 119.698,200.078 120.306 C 195.578 125.728,165.917 125.999,159.459 120.677 C 157.118 118.748,147.851 120.354,144.400 123.287 C 141.474 125.773,136.460 127.558,131.210 127.981 L 126.020 128.400 125.535 131.409 C 124.976 134.867,125.266 134.521,121.479 136.259 C 117.684 138.001,115.847 137.950,112.209 136.000 C 108.010 133.750,107.469 133.922,105.304 138.200 C 102.398 143.943,101.493 147.850,102.643 149.698 C 103.418 150.944,103.327 151.713,102.168 153.739 C 98.195 160.681,96.583 169.550,98.840 172.044 C 99.963 173.285,99.925 173.872,98.440 178.282 C 96.519 183.985,96.321 189.345,97.966 191.162 C 98.978 192.281,98.983 192.869,98.001 195.625 C 95.491 202.673,96.674 211.553,100.059 211.069 C 101.718 210.832,102.011 211.216,102.552 214.343 C 103.356 218.986,104.312 219.890,106.409 217.992 C 108.506 216.094,111.078 218.245,112.408 223.009 C 113.207 225.870,113.408 226.011,117.029 226.244 C 120.551 226.471,120.902 226.695,122.060 229.444 C 123.324 232.446,124.409 232.175,125.901 228.487 C 126.098 227.999,127.758 229.220,129.591 231.200 C 132.836 234.706,135.200 234.642,135.200 231.047 C 135.200 229.419,136.938 230.713,139.233 234.048 C 141.285 237.030,142.126 237.651,143.842 237.448 C 145.639 237.236,146.061 237.609,146.771 240.039 C 148.277 245.195,150.681 247.693,153.085 246.598 C 155.017 245.718,155.306 245.886,157.772 249.324 C 161.190 254.089,163.796 255.172,165.758 252.643 C 167.200 250.784,168.753 251.532,168.788 254.102 C 168.813 255.926,170.914 256.869,173.103 256.037 C 176.806 254.629,175.873 241.600,172.070 241.600 C 168.575 241.600,167.483 230.945,170.610 227.361 C 171.263 226.613,172.033 224.685,172.320 223.077 C 172.608 221.470,173.374 219.951,174.022 219.702 C 174.670 219.454,175.200 218.682,175.200 217.987 C 175.200 216.435,182.296 209.600,183.908 209.600 C 184.549 209.600,185.642 209.091,186.337 208.468 C 187.032 207.846,188.860 207.013,190.400 206.619 C 192.862 205.987,193.263 205.521,193.721 202.750 C 195.234 193.607,204.225 180.824,209.163 180.795 C 209.623 180.792,211.080 180.172,212.400 179.416 C 216.658 176.978,233.576 177.414,239.200 180.106 C 247.516 184.087,252.928 192.015,254.008 201.800 C 254.491 206.181,254.622 206.400,256.750 206.400 C 257.979 206.400,259.900 207.120,261.018 208.000 C 262.137 208.880,263.454 209.600,263.946 209.600 C 264.437 209.600,265.182 210.500,265.600 211.600 C 266.018 212.700,266.729 213.600,267.180 213.600 C 267.631 213.600,268.000 214.050,268.001 214.600 C 268.002 215.150,268.902 216.646,270.001 217.924 C 271.100 219.203,272.000 221.075,272.000 222.085 C 272.000 223.094,272.508 224.208,273.129 224.560 C 273.750 224.912,274.576 226.436,274.966 227.946 C 275.895 231.552,277.421 231.952,278.495 228.872 C 279.296 226.573,279.625 226.400,283.193 226.400 C 287.142 226.400,288.000 225.683,288.000 222.379 C 288.000 219.303,291.633 216.220,293.387 217.807 C 295.711 219.910,296.676 219.507,297.234 216.200 C 298.162 210.698,298.362 210.360,300.389 210.869 C 304.134 211.809,304.973 203.744,302.032 195.075 C 301.153 192.487,301.208 192.006,302.507 190.894 C 304.260 189.393,303.901 184.637,301.507 177.652 C 300.036 173.361,300.038 173.284,301.608 171.820 C 303.833 169.748,302.441 162.352,298.288 154.189 C 297.058 151.771,296.936 150.841,297.669 149.471 C 299.796 145.496,293.842 133.834,288.320 131.161 C 285.571 129.830,284.280 128.520,282.756 125.514 C 280.460 120.981,279.811 120.838,272.599 123.268 C 260.044 127.497,242.912 123.676,231.044 114.000 C 226.171 110.027,226.095 109.998,219.662 109.726 L 213.185 109.452 208.142 114.326 M202.875 132.708 C 221.661 142.595,214.339 172.561,193.186 172.361 C 185.558 172.288,176.598 166.129,173.944 159.135 C 167.054 140.979,185.894 123.770,202.875 132.708 M261.915 132.698 C 271.249 137.632,276.508 152.992,271.283 160.059 C 270.357 161.311,269.600 162.639,269.600 163.011 C 269.600 166.383,258.158 172.433,251.999 172.318 C 244.983 172.186,233.652 164.783,233.575 160.280 C 233.561 159.466,233.021 158.101,232.375 157.247 C 230.815 155.186,230.815 147.214,232.375 145.153 C 233.021 144.299,233.561 142.971,233.575 142.202 C 233.632 139.049,240.569 133.277,247.200 130.865 C 249.738 129.942,258.848 131.077,261.915 132.698 M192.800 209.034 C 189.940 209.481,187.312 210.331,186.960 210.923 C 186.608 211.515,185.798 212.000,185.160 212.000 C 184.149 212.000,180.828 215.107,176.500 220.100 C 175.785 220.925,175.200 222.271,175.200 223.092 C 175.200 223.913,174.461 225.524,173.558 226.672 C 170.767 230.220,171.591 237.200,174.800 237.200 L 177.200 237.200 177.600 245.761 C 178.035 255.073,178.867 257.092,181.573 255.402 C 183.289 254.331,183.457 254.620,184.483 260.400 C 185.394 265.536,187.935 268.858,190.761 268.609 C 192.443 268.460,193.369 268.860,193.978 270.000 C 198.144 277.795,201.190 280.790,205.549 281.375 C 207.944 281.696,209.456 282.536,211.186 284.507 C 213.221 286.824,214.060 287.200,217.193 287.200 C 220.188 287.200,220.983 287.520,221.672 289.000 C 224.120 294.262,229.350 293.897,231.906 288.286 C 232.653 286.648,233.047 286.476,234.397 287.198 C 236.427 288.285,238.478 287.261,240.799 284.002 C 241.739 282.681,243.060 281.600,243.734 281.600 C 245.381 281.600,250.400 276.500,250.400 274.827 C 250.400 272.581,254.418 268.000,256.388 268.000 C 258.129 268.000,261.600 261.814,261.600 258.712 C 261.600 258.121,262.494 257.051,263.586 256.336 C 267.282 253.914,268.800 250.355,268.800 244.112 C 268.800 239.280,269.043 238.262,270.400 237.414 C 272.421 236.152,272.817 225.863,270.872 225.117 C 270.252 224.879,269.527 223.820,269.262 222.763 C 267.802 216.946,260.857 210.088,255.197 208.874 C 250.053 207.771,200.073 207.899,192.800 209.034 M83.599 213.244 C 75.027 218.927,73.996 220.098,75.857 222.039 C 77.330 223.575,77.274 223.646,72.477 226.400 C 66.148 230.034,62.688 233.232,64.383 233.883 C 66.369 234.645,65.822 235.932,61.503 240.659 C 57.472 245.069,57.433 245.160,59.103 246.268 C 60.811 247.402,61.440 249.600,60.057 249.600 C 57.360 249.600,51.780 257.270,53.026 259.265 C 53.660 260.280,53.535 261.540,52.540 264.144 C 50.585 269.265,50.748 270.189,53.539 269.780 C 55.791 269.449,55.898 269.581,56.441 273.318 C 57.192 278.499,57.465 278.805,59.567 276.831 L 61.365 275.141 63.523 277.971 C 65.803 280.960,67.745 281.594,68.511 279.600 C 69.094 278.079,71.717 278.038,72.560 279.536 C 73.773 281.691,77.110 281.874,78.009 279.835 C 78.816 278.003,79.661 277.830,82.938 278.826 C 84.221 279.216,85.149 278.811,86.482 277.277 C 88.396 275.076,90.316 274.636,91.750 276.070 C 92.817 277.137,93.637 276.008,94.359 272.475 C 94.683 270.895,95.427 269.905,96.432 269.719 C 99.709 269.111,100.227 267.939,99.747 262.215 C 99.301 256.889,99.332 256.773,101.544 255.629 C 103.881 254.420,105.600 247.525,105.600 239.360 C 105.600 237.251,106.066 236.094,107.200 235.386 C 108.270 234.717,108.796 233.528,108.789 231.793 C 108.770 227.307,107.952 225.802,104.265 223.471 C 101.810 221.919,100.540 220.499,100.232 218.961 C 99.899 217.293,99.199 216.600,97.510 216.262 C 94.814 215.723,93.851 214.705,93.477 212.000 C 93.013 208.648,89.951 209.034,83.599 213.244 M306.479 215.852 C 306.008 216.732,305.972 218.504,306.388 220.348 C 306.934 222.768,306.749 224.017,305.484 226.443 C 304.004 229.283,303.983 229.630,305.180 231.458 C 306.142 232.925,306.433 235.147,306.332 240.252 C 306.174 248.268,308.875 254.209,312.800 254.480 L 314.800 254.618 312.800 254.990 C 309.973 255.515,309.621 256.432,309.651 263.200 C 309.690 272.147,314.515 279.538,316.413 273.558 L 316.964 271.823 317.882 273.648 C 319.237 276.343,322.881 277.337,324.855 275.551 C 326.355 274.193,326.495 274.210,328.388 275.988 C 330.556 278.025,330.698 277.875,331.565 272.645 C 331.901 270.625,332.576 269.525,333.702 269.168 C 335.136 268.712,335.267 268.267,334.718 265.722 C 334.371 264.115,334.067 260.575,334.043 257.855 C 334.006 253.554,333.707 252.604,331.745 250.554 C 329.828 248.551,329.570 247.775,330.021 245.369 C 330.507 242.777,330.261 242.266,327.082 239.272 C 324.038 236.404,323.732 235.813,324.583 234.450 C 325.625 232.782,320.874 227.729,315.787 225.092 C 313.837 224.082,313.684 223.738,314.503 222.207 C 315.332 220.658,315.062 220.140,312.014 217.435 C 308.130 213.988,307.564 213.826,306.479 215.852 M300.555 219.712 C 299.916 220.351,300.638 221.600,301.647 221.600 C 302.061 221.600,302.400 221.060,302.400 220.400 C 302.400 219.163,301.456 218.811,300.555 219.712 M291.200 224.242 C 291.200 226.683,286.292 232.000,284.039 232.000 C 281.169 232.000,277.962 234.554,275.999 238.402 C 275.143 240.080,274.058 241.581,273.587 241.738 C 273.117 241.894,272.419 244.178,272.037 246.811 C 271.165 252.826,269.101 257.422,265.782 260.741 C 264.362 262.161,263.200 263.903,263.200 264.612 C 263.200 266.876,259.698 271.258,256.600 272.871 C 254.950 273.730,253.600 274.980,253.600 275.649 C 253.600 276.318,252.956 277.840,252.168 279.032 C 251.380 280.225,250.359 281.908,249.898 282.772 C 249.437 283.637,247.506 285.167,245.606 286.171 C 243.706 287.176,241.670 288.687,241.080 289.528 C 240.491 290.369,238.568 291.301,236.806 291.599 C 234.789 291.940,232.790 293.002,231.404 294.470 C 228.462 297.587,225.879 297.448,221.266 293.926 C 218.484 291.802,217.007 291.175,215.608 291.526 C 214.150 291.893,213.014 291.325,210.658 289.050 C 208.976 287.427,207.034 286.179,206.342 286.276 C 203.714 286.645,194.718 279.365,193.369 275.779 C 193.075 274.997,191.227 273.669,189.262 272.827 C 186.968 271.843,185.238 270.420,184.425 268.848 C 183.729 267.502,182.877 266.400,182.533 266.400 C 182.189 266.400,180.848 264.968,179.553 263.218 C 177.270 260.131,177.090 260.051,173.503 260.508 C 171.166 260.806,169.603 260.652,169.255 260.089 C 168.953 259.600,167.445 259.200,165.905 259.200 C 163.636 259.200,162.289 258.429,158.811 255.140 C 156.343 252.806,153.898 251.162,153.059 251.275 C 150.807 251.576,147.373 249.589,146.880 247.700 C 146.331 245.593,141.887 240.800,140.483 240.800 C 139.914 240.800,138.778 240.060,137.959 239.155 C 136.913 237.999,135.901 237.652,134.559 237.989 C 133.386 238.283,131.305 237.819,129.175 236.788 C 127.264 235.863,125.228 235.215,124.648 235.348 C 124.069 235.481,122.428 234.759,121.002 233.744 C 116.856 230.792,113.441 231.536,112.608 235.574 C 112.248 237.319,111.286 239.479,110.471 240.374 C 109.353 241.600,108.853 243.869,108.437 249.600 C 108.134 253.780,107.379 258.720,106.760 260.578 C 105.653 263.899,105.879 266.400,107.286 266.400 C 107.679 266.400,108.000 267.557,108.000 268.971 C 108.000 271.386,107.918 271.460,106.647 270.190 C 105.377 268.920,105.164 269.076,103.149 272.761 C 100.122 278.295,101.349 285.046,105.456 285.451 C 107.498 285.652,108.000 286.061,108.000 287.527 C 108.000 290.344,105.365 292.367,103.342 291.103 C 101.458 289.927,99.200 291.245,99.200 293.520 C 99.200 294.248,98.623 295.667,97.918 296.674 C 96.737 298.360,96.743 298.582,97.983 299.488 C 98.998 300.231,99.423 302.136,99.713 307.236 C 100.237 316.483,100.491 317.365,102.980 318.559 C 104.439 319.259,105.559 320.777,106.398 323.194 C 107.223 325.566,108.183 326.884,109.223 327.071 C 111.593 327.499,115.046 331.109,116.079 334.241 C 116.584 335.768,117.801 338.203,118.784 339.652 L 120.572 342.287 122.092 340.251 L 123.612 338.215 125.606 341.257 C 129.644 347.418,137.556 351.344,140.000 348.400 C 141.462 346.638,142.489 346.938,145.561 350.025 C 148.331 352.808,151.194 353.539,153.530 352.060 C 154.294 351.576,155.689 351.994,157.833 353.347 C 160.922 355.297,161.084 355.315,163.933 354.030 C 166.926 352.681,170.354 353.183,171.570 355.151 C 172.530 356.705,174.194 356.028,175.162 353.691 C 176.088 351.457,176.194 351.419,178.435 352.537 C 182.993 354.811,186.094 354.811,187.584 352.537 L 188.925 350.491 192.102 352.147 L 195.280 353.803 197.116 352.079 C 199.039 350.272,200.798 350.414,203.327 352.580 C 204.477 353.565,204.979 353.548,207.088 352.458 C 210.322 350.786,211.409 350.871,212.673 352.894 C 213.870 354.810,217.310 354.660,221.634 352.503 C 223.953 351.346,224.051 351.377,225.229 353.657 C 226.675 356.453,226.403 356.416,229.995 354.297 C 232.793 352.646,232.975 352.636,235.938 353.972 C 238.965 355.337,239.026 355.330,242.389 353.207 C 244.830 351.666,246.028 351.308,246.652 351.932 C 248.473 353.753,251.645 352.838,254.990 349.527 C 258.225 346.324,258.318 346.290,259.340 347.927 C 261.390 351.210,264.795 350.165,271.116 344.313 C 275.942 339.845,277.015 339.183,278.047 340.039 C 279.850 341.536,280.442 340.569,284.827 328.965 L 285.823 326.331 287.603 328.003 L 289.384 329.676 291.198 325.038 C 292.196 322.487,293.928 319.616,295.046 318.658 C 296.883 317.085,297.111 316.230,297.395 309.858 C 297.797 300.853,297.913 300.483,299.945 301.752 C 302.335 303.244,302.800 302.092,302.800 294.676 C 302.800 289.043,303.038 287.754,304.200 287.104 C 305.833 286.190,306.149 279.948,304.748 276.264 C 302.137 269.397,301.693 264.007,303.696 263.504 C 305.997 262.927,306.284 259.431,304.400 254.923 C 303.740 253.344,303.200 251.224,303.200 250.214 C 303.200 249.203,302.480 247.033,301.600 245.391 C 299.593 241.647,299.578 239.622,301.541 237.659 C 303.199 236.001,303.013 233.504,301.114 231.928 C 300.501 231.420,300.000 230.354,300.000 229.560 C 300.000 227.832,294.624 223.200,292.618 223.200 C 291.838 223.200,291.200 223.669,291.200 224.242 M280.907 345.071 C 280.394 345.689,278.306 346.383,276.266 346.613 C 274.038 346.864,272.271 347.543,271.839 348.315 C 271.444 349.022,270.764 349.600,270.328 349.600 C 269.892 349.600,268.560 350.313,267.368 351.184 C 265.907 352.251,263.574 352.859,260.215 353.047 C 256.756 353.240,254.721 353.786,253.569 354.828 C 252.403 355.884,250.319 356.429,246.555 356.664 C 243.610 356.848,241.002 357.309,240.760 357.687 C 239.827 359.148,235.491 359.377,234.150 358.036 C 233.063 356.948,232.526 356.890,231.019 357.698 C 230.018 358.235,227.104 358.616,224.542 358.546 C 221.746 358.469,218.964 358.894,217.582 359.609 C 216.316 360.264,214.246 360.800,212.983 360.800 C 209.609 360.800,209.242 369.033,212.479 372.074 L 214.529 374.000 242.265 374.000 C 274.151 374.000,275.310 373.830,279.183 368.585 C 281.461 365.499,281.667 364.724,281.513 359.804 C 281.383 355.651,281.662 354.058,282.722 352.886 C 283.683 351.824,284.024 350.329,283.850 347.944 C 283.585 344.322,282.449 343.213,280.907 345.071 M116.454 346.868 C 115.867 349.210,116.512 351.826,118.058 353.372 C 118.808 354.122,118.983 355.951,118.676 359.810 C 118.263 364.991,118.349 365.333,120.909 368.619 C 124.984 373.851,126.003 374.000,157.741 374.000 C 189.294 374.000,189.266 374.006,190.682 367.523 C 191.058 365.806,191.826 363.500,192.390 362.400 C 193.937 359.384,192.661 356.800,189.626 356.800 C 188.292 356.800,187.200 357.160,187.200 357.600 C 187.200 358.040,186.120 358.400,184.800 358.400 C 183.480 358.400,182.400 358.040,182.400 357.600 C 182.400 356.539,179.746 356.574,178.671 357.649 C 177.528 358.792,171.852 358.805,169.729 357.669 C 168.368 356.940,167.611 357.018,166.041 358.047 C 163.984 359.394,159.200 359.020,159.200 357.512 C 159.200 357.094,157.113 356.814,154.562 356.891 C 150.135 357.023,147.207 356.121,145.043 353.957 C 144.471 353.385,142.087 352.986,139.399 353.011 C 135.267 353.050,134.261 352.714,130.416 350.011 C 127.574 348.013,124.898 346.834,122.625 346.578 C 120.721 346.363,118.970 345.876,118.734 345.494 C 117.939 344.207,116.977 344.787,116.454 346.868 " stroke="none" fill="#d50b13" fill-rule="evenodd"></path><path id="path5" d="M212.200 39.730 C 211.650 39.952,211.200 40.643,211.200 41.267 C 211.200 42.175,209.465 42.400,202.447 42.400 C 197.633 42.400,193.480 42.746,193.219 43.169 C 192.914 43.662,192.015 43.662,190.720 43.169 C 185.263 41.095,158.400 42.557,158.400 44.928 C 158.400 45.298,157.323 45.600,156.007 45.600 C 154.480 45.600,153.252 46.179,152.614 47.200 C 152.065 48.080,150.982 48.800,150.208 48.800 C 149.231 48.800,148.800 49.427,148.800 50.847 C 148.800 52.008,148.454 52.680,148.000 52.400 C 147.560 52.128,147.200 52.488,147.200 53.200 C 147.200 53.912,146.831 54.266,146.380 53.988 C 145.929 53.709,145.612 53.778,145.675 54.141 C 146.411 58.378,145.441 64.743,143.988 65.204 C 143.102 65.485,142.570 66.028,142.806 66.410 C 143.337 67.270,140.081 70.400,138.656 70.400 C 138.083 70.400,137.164 71.120,136.614 72.000 C 136.065 72.880,134.958 73.600,134.155 73.600 C 132.076 73.600,129.469 75.141,130.025 76.040 C 130.283 76.458,129.573 76.800,128.447 76.800 C 127.321 76.800,126.443 77.070,126.495 77.400 C 126.765 79.111,126.258 80.003,125.000 80.025 C 123.496 80.053,121.243 81.506,120.721 82.785 C 120.544 83.216,119.860 83.576,119.200 83.585 C 118.444 83.594,117.910 84.531,117.755 86.118 C 117.591 87.814,117.003 88.770,115.955 89.043 C 115.077 89.273,114.400 90.138,114.400 91.032 C 114.400 91.941,113.719 92.791,112.800 93.032 C 111.645 93.334,111.200 94.123,111.200 95.871 C 111.200 97.590,110.736 98.440,109.600 98.800 C 108.720 99.079,108.000 99.835,108.000 100.479 C 108.000 101.123,107.474 101.852,106.830 102.099 C 106.187 102.346,105.445 103.227,105.182 104.058 C 104.918 104.888,104.288 105.485,103.782 105.384 C 103.276 105.283,102.514 106.550,102.090 108.200 C 101.665 109.850,100.880 111.200,100.344 111.200 C 98.974 111.200,98.400 113.108,98.400 117.665 C 98.400 120.629,98.104 121.600,97.200 121.600 C 96.540 121.600,95.976 122.050,95.946 122.600 C 95.721 126.759,94.957 129.220,93.593 130.175 C 92.616 130.859,92.000 132.201,92.000 133.645 C 92.000 135.205,91.595 136.000,90.800 136.000 C 90.140 136.000,89.555 136.540,89.500 137.200 C 89.445 137.860,89.310 138.760,89.200 139.200 C 89.090 139.640,88.955 140.874,88.900 141.943 C 88.845 143.011,88.291 144.395,87.668 145.018 C 86.891 145.795,86.454 148.573,86.276 153.882 C 86.056 160.421,85.798 161.683,84.608 162.061 C 83.319 162.470,83.200 164.028,83.200 180.454 L 83.200 198.400 80.807 198.400 C 79.280 198.400,78.052 198.979,77.414 200.000 C 76.865 200.880,76.010 201.600,75.515 201.600 C 75.021 201.600,73.700 202.320,72.582 203.200 C 71.463 204.080,70.016 204.800,69.367 204.800 C 68.718 204.800,67.998 205.520,67.768 206.400 C 67.538 207.280,66.776 208.000,66.075 208.000 C 65.374 208.000,64.800 208.346,64.800 208.769 C 64.800 209.192,63.990 210.292,63.000 211.215 C 61.178 212.912,61.079 213.138,60.900 216.000 C 60.845 216.880,60.347 217.600,59.792 217.600 C 59.238 217.600,58.335 218.320,57.786 219.200 C 57.205 220.130,55.920 220.800,54.718 220.800 C 53.356 220.800,52.514 221.321,52.251 222.326 C 52.032 223.165,51.232 224.014,50.474 224.212 C 49.422 224.488,49.050 225.579,48.902 228.833 C 48.763 231.884,48.267 233.475,47.154 234.440 C 46.299 235.181,45.600 236.409,45.600 237.169 C 45.600 237.928,44.880 238.738,44.000 238.968 C 42.715 239.304,42.400 240.059,42.400 242.808 C 42.400 245.307,42.029 246.371,41.022 246.757 C 39.842 247.210,39.814 247.393,40.822 248.031 C 41.811 248.656,41.775 248.777,40.600 248.788 C 39.767 248.795,39.200 249.410,39.200 250.307 C 39.200 251.141,38.486 252.000,37.600 252.232 C 35.824 252.696,35.141 262.575,36.813 263.608 C 37.260 263.884,37.359 264.536,37.033 265.055 C 35.539 267.436,36.640 275.087,38.327 274.045 C 38.625 273.861,38.951 274.676,39.053 275.855 C 39.415 280.037,39.735 280.988,41.028 281.712 C 41.747 282.114,42.566 283.669,42.846 285.166 C 43.127 286.664,43.862 288.083,44.479 288.319 C 45.364 288.659,45.600 291.020,45.600 299.521 C 45.600 309.590,45.704 310.325,47.200 310.800 C 48.080 311.079,48.800 311.824,48.800 312.454 C 48.800 314.836,51.874 316.800,55.600 316.800 C 57.580 316.800,59.200 317.102,59.200 317.472 C 59.200 318.544,63.045 320.001,65.838 319.988 C 68.651 319.974,70.687 319.020,70.268 317.911 C 70.121 317.520,71.241 317.082,72.757 316.938 C 74.274 316.793,75.894 316.184,76.357 315.584 C 77.533 314.062,83.826 313.260,85.261 314.450 C 85.931 315.007,86.400 316.847,86.400 318.923 C 86.400 321.320,86.784 322.598,87.600 322.911 C 88.260 323.164,88.800 324.076,88.800 324.938 C 88.800 327.190,90.262 329.600,91.628 329.600 C 92.273 329.600,92.800 330.122,92.800 330.760 C 92.800 331.398,93.251 332.208,93.801 332.560 C 94.352 332.912,95.295 334.157,95.897 335.327 C 96.499 336.497,97.990 338.546,99.209 339.881 C 101.169 342.027,101.460 343.047,101.715 348.673 C 101.926 353.304,102.385 355.458,103.402 356.581 C 104.513 357.809,104.800 359.593,104.800 365.271 C 104.800 371.549,104.994 372.536,106.400 373.414 C 107.311 373.983,108.000 375.280,108.000 376.427 C 108.000 377.838,108.598 378.667,110.000 379.200 C 111.100 379.618,112.000 380.273,112.000 380.654 C 112.000 381.036,113.260 382.027,114.800 382.856 C 116.340 383.685,117.600 384.642,117.600 384.982 C 117.600 385.322,120.438 385.600,123.907 385.600 C 129.541 385.600,130.258 385.771,130.632 387.200 C 131.268 389.634,182.623 389.710,184.731 387.280 C 185.752 386.103,187.401 385.691,192.025 385.459 C 196.621 385.228,198.000 384.887,198.000 383.979 C 198.000 382.195,201.492 381.999,202.205 383.744 C 202.863 385.354,202.672 385.311,210.047 385.480 C 212.933 385.546,215.104 385.907,214.872 386.283 C 213.624 388.303,219.319 388.800,243.713 388.800 C 268.277 388.800,268.961 388.757,269.368 387.200 C 269.741 385.773,270.459 385.600,276.027 385.600 C 279.620 385.600,282.384 385.248,282.543 384.771 C 282.695 384.315,284.090 383.505,285.644 382.971 C 288.449 382.007,288.800 381.661,288.800 379.867 C 288.800 379.353,289.037 379.170,289.326 379.460 C 290.298 380.431,292.000 378.226,292.000 375.995 C 292.000 374.473,292.488 373.659,293.570 373.376 C 294.971 373.010,295.165 372.139,295.370 365.279 C 295.504 360.796,295.933 357.613,296.400 357.643 C 297.671 357.725,298.235 354.543,298.320 346.792 C 298.390 340.501,298.603 339.458,300.000 338.586 C 300.880 338.036,301.600 337.179,301.600 336.681 C 301.600 336.184,302.230 335.316,303.000 334.753 C 303.770 334.190,304.445 333.340,304.500 332.864 C 304.555 332.389,304.645 331.460,304.700 330.800 C 304.755 330.140,305.520 329.600,306.400 329.600 C 307.437 329.600,308.000 329.067,308.000 328.086 C 308.000 327.253,308.540 326.364,309.200 326.111 C 309.860 325.857,310.400 324.948,310.400 324.091 C 310.400 320.271,310.962 320.000,318.886 320.000 C 325.867 320.000,326.400 319.886,326.400 318.400 C 326.400 317.067,326.933 316.800,329.600 316.800 C 331.877 316.800,332.800 316.462,332.800 315.628 C 332.800 314.984,333.520 314.071,334.400 313.600 C 335.326 313.104,336.000 311.925,336.000 310.800 C 336.000 309.675,336.674 308.496,337.600 308.000 C 338.480 307.529,339.200 306.796,339.200 306.372 C 339.200 305.947,339.920 304.880,340.800 304.000 C 341.778 303.022,342.400 301.333,342.400 299.657 C 342.400 298.149,342.984 296.330,343.698 295.616 C 344.607 294.707,344.864 293.502,344.554 291.591 C 344.038 288.415,345.316 283.062,346.793 282.212 C 347.355 281.889,348.059 279.992,348.359 277.997 C 348.658 276.001,349.235 274.575,349.642 274.826 C 350.049 275.077,350.167 274.724,349.905 274.042 C 349.643 273.359,349.827 272.800,350.314 272.800 C 351.646 272.800,351.378 269.093,349.943 267.657 C 348.800 266.514,348.800 266.400,349.943 266.400 C 350.993 266.400,351.200 265.212,351.200 259.200 C 351.200 253.333,350.978 252.000,350.000 252.000 C 349.340 252.000,348.782 251.730,348.760 251.400 C 348.737 251.070,348.636 249.159,348.533 247.153 C 348.406 244.651,347.778 242.895,346.532 241.557 C 345.469 240.416,344.878 238.989,345.106 238.116 C 345.369 237.109,344.990 236.491,343.943 236.217 C 342.873 235.937,342.236 234.857,341.900 232.755 C 341.631 231.074,340.914 229.508,340.306 229.274 C 339.698 229.041,339.200 227.759,339.200 226.425 C 339.200 224.829,338.800 224.000,338.028 224.000 C 337.384 224.000,336.471 223.280,336.000 222.400 C 335.529 221.520,334.616 220.800,333.972 220.800 C 333.327 220.800,332.800 220.080,332.800 219.200 C 332.800 218.320,332.530 217.643,332.200 217.695 C 330.431 217.974,329.600 217.432,329.600 216.000 C 329.600 215.100,329.067 214.400,328.380 214.400 C 327.233 214.400,325.165 210.780,325.491 209.341 C 325.573 208.978,325.335 208.869,324.963 209.100 C 324.590 209.330,323.685 208.816,322.951 207.959 C 322.216 207.102,321.882 206.373,322.208 206.339 C 322.534 206.306,321.540 205.824,320.000 205.268 L 317.200 204.258 316.987 182.929 C 316.805 164.703,316.601 161.600,315.587 161.600 C 314.759 161.600,314.383 160.693,314.344 158.600 C 314.143 147.904,313.858 145.562,312.644 144.604 C 311.944 144.052,311.130 141.890,310.836 139.800 C 310.481 137.275,309.916 136.000,309.151 136.000 C 308.408 136.000,308.000 135.158,308.000 133.628 C 308.000 132.075,307.448 130.961,306.400 130.400 C 304.391 129.325,304.336 127.075,306.288 125.855 C 308.321 124.586,308.180 113.095,306.112 111.583 C 305.188 110.907,304.800 109.397,304.800 106.475 C 304.800 103.117,304.419 101.946,302.800 100.327 C 301.700 99.227,300.800 97.804,300.800 97.164 C 300.800 96.524,300.350 95.994,299.800 95.986 C 299.250 95.979,297.961 95.088,296.936 94.007 C 295.911 92.927,294.831 92.075,294.536 92.116 C 290.474 92.673,288.800 91.917,288.800 89.525 C 288.800 87.723,288.365 86.936,287.200 86.632 C 285.829 86.273,285.600 85.541,285.600 81.507 C 285.600 77.955,285.319 76.800,284.454 76.800 C 283.365 76.800,282.202 74.666,282.610 73.415 C 282.714 73.094,281.990 72.263,281.000 71.570 C 280.010 70.877,279.200 69.790,279.200 69.155 C 279.200 68.520,278.723 68.000,278.139 68.000 C 277.556 68.000,276.233 67.100,275.200 66.000 C 274.167 64.900,272.744 64.000,272.038 64.000 C 271.333 64.000,270.139 63.280,269.386 62.400 C 268.632 61.520,267.242 60.800,266.296 60.800 C 265.350 60.800,264.116 60.170,263.553 59.400 C 262.368 57.780,262.630 57.830,254.800 57.700 L 248.800 57.600 248.800 54.747 C 248.800 51.379,247.593 48.800,246.018 48.800 C 245.322 48.800,245.010 48.188,245.200 47.200 C 245.417 46.072,245.078 45.600,244.047 45.600 C 243.244 45.600,242.398 44.880,242.168 44.000 C 241.938 43.120,241.176 42.400,240.475 42.400 C 239.774 42.400,238.480 41.680,237.600 40.800 C 236.046 39.246,215.540 38.382,212.200 39.730 M236.034 51.352 C 239.640 54.017,240.170 60.329,237.129 64.400 C 236.025 65.878,234.842 66.019,221.567 66.250 C 209.671 66.458,207.200 66.700,207.200 67.660 C 207.200 68.586,207.884 68.696,210.600 68.209 C 214.043 67.592,225.794 67.478,233.298 67.989 C 236.346 68.197,238.247 67.824,240.722 66.534 C 244.694 64.464,253.083 64.127,255.663 65.934 C 256.553 66.558,258.642 67.323,260.305 67.635 C 261.967 67.947,263.518 68.697,263.749 69.301 C 263.981 69.905,264.676 70.400,265.293 70.400 C 265.910 70.400,267.525 71.461,268.882 72.758 C 270.240 74.055,271.586 75.225,271.875 75.358 C 272.831 75.798,276.000 80.716,276.005 81.768 C 276.008 82.335,276.726 83.880,277.600 85.200 C 279.787 88.502,279.787 95.078,277.600 97.600 C 273.617 102.192,279.677 105.339,284.723 101.299 C 287.349 99.196,291.591 101.763,292.244 105.850 C 292.468 107.253,293.036 109.840,293.506 111.600 C 294.769 116.322,294.628 120.763,293.200 121.311 C 291.687 121.891,291.616 124.800,293.114 124.800 C 294.646 124.800,295.198 126.593,294.669 129.852 C 294.424 131.362,294.578 132.815,295.010 133.083 C 295.877 133.618,299.118 140.195,300.981 145.200 C 301.637 146.960,302.016 149.660,301.823 151.200 C 301.606 152.942,302.284 156.412,303.619 160.384 C 305.364 165.580,305.689 167.738,305.368 171.984 C 305.143 174.947,305.494 180.205,306.180 184.156 C 307.112 189.527,307.183 191.699,306.490 193.687 C 305.820 195.608,305.835 197.943,306.550 202.888 L 307.508 209.513 313.354 214.808 C 317.566 218.623,319.200 220.647,319.200 222.051 C 319.200 223.123,319.539 224.000,319.954 224.000 C 321.841 224.000,330.235 232.857,329.827 234.417 C 329.549 235.481,330.502 237.421,332.706 240.278 C 335.967 244.505,336.715 246.664,335.236 247.578 C 334.816 247.837,335.859 250.243,337.553 252.923 L 340.634 257.796 339.187 261.029 C 338.138 263.371,337.940 264.791,338.470 266.183 C 339.681 269.369,339.306 271.751,337.200 274.254 C 336.100 275.561,335.200 277.243,335.200 277.992 C 335.200 278.741,334.609 280.354,333.886 281.578 C 332.667 283.642,332.667 283.939,333.886 285.680 C 336.806 289.849,334.462 300.800,330.650 300.800 C 330.025 300.800,329.600 301.739,329.600 303.118 C 329.600 305.856,325.947 310.400,323.745 310.400 C 322.921 310.400,321.236 310.997,320.000 311.727 C 317.907 312.964,317.561 312.964,314.955 311.727 C 313.417 310.997,311.510 310.400,310.717 310.400 C 309.925 310.400,308.153 309.311,306.780 307.980 C 303.411 304.716,301.831 306.361,300.642 314.369 C 299.851 319.705,299.022 321.437,296.521 322.982 C 295.972 323.322,294.512 325.693,293.277 328.252 C 291.901 331.102,290.320 333.174,289.194 333.602 C 286.411 334.660,286.192 335.495,286.346 344.453 C 286.439 349.876,286.139 353.373,285.478 354.570 C 284.923 355.577,284.418 358.944,284.357 362.052 C 284.230 368.462,283.931 369.172,279.871 372.697 C 275.658 376.356,268.671 377.013,237.688 376.664 C 207.915 376.329,208.165 376.398,206.297 368.000 C 202.330 350.164,197.633 350.601,193.634 369.177 C 192.036 376.598,188.920 377.152,151.898 376.586 C 124.835 376.173,124.259 376.095,119.565 372.198 C 116.476 369.634,116.427 369.507,116.160 363.398 C 116.011 359.989,115.374 356.066,114.745 354.679 C 113.998 353.034,113.600 349.395,113.600 344.203 C 113.600 335.882,113.129 334.670,109.380 333.339 C 108.599 333.062,106.979 331.150,105.780 329.091 C 104.581 327.032,102.294 323.993,100.697 322.338 C 98.364 319.921,97.621 318.347,96.912 314.325 C 96.317 310.944,95.392 308.651,94.062 307.260 C 92.086 305.193,90.478 300.081,90.394 295.600 C 90.275 289.268,85.600 289.223,85.600 295.554 C 85.600 300.196,82.443 303.718,77.586 304.495 C 75.151 304.884,73.199 305.890,71.304 307.730 C 66.687 312.214,55.200 310.950,55.200 305.959 C 55.200 305.429,54.660 304.548,54.000 304.000 C 52.407 302.678,52.411 294.766,54.005 291.709 C 55.303 289.219,55.639 281.966,54.489 281.255 C 54.097 281.013,53.532 279.822,53.232 278.608 C 52.931 277.393,51.758 275.425,50.625 274.233 C 48.692 272.201,48.596 271.726,49.074 266.576 C 49.454 262.488,49.300 260.695,48.470 259.560 C 47.468 258.190,47.673 257.635,50.477 254.113 C 52.793 251.205,53.600 249.452,53.600 247.334 C 53.600 245.202,54.251 243.805,56.164 241.831 C 58.068 239.867,58.840 238.217,59.164 235.424 C 59.563 231.984,60.009 231.335,64.400 227.810 C 67.317 225.469,69.714 222.763,70.510 220.914 C 72.444 216.420,86.517 206.444,90.972 206.408 C 92.647 206.394,93.792 203.123,93.747 198.475 C 93.723 196.014,93.679 192.200,93.648 190.000 C 93.618 187.800,94.076 183.735,94.667 180.968 C 95.342 177.811,95.455 175.758,94.971 175.459 C 93.849 174.765,94.775 165.026,96.365 160.800 C 97.110 158.820,97.994 154.477,98.328 151.150 C 98.940 145.060,102.869 134.735,105.360 132.667 C 106.192 131.976,106.349 130.673,105.968 127.618 C 104.657 117.132,115.472 103.941,119.120 111.576 C 120.635 114.745,121.465 112.789,121.544 105.861 C 121.636 97.747,130.247 87.731,142.256 81.770 C 147.580 79.127,150.073 77.406,150.903 75.801 C 151.595 74.463,153.602 72.831,155.835 71.789 C 157.906 70.822,159.746 69.938,159.925 69.824 C 160.104 69.709,159.335 68.767,158.216 67.730 C 148.917 59.112,161.256 49.716,178.822 52.037 C 188.860 53.364,203.977 53.070,208.543 51.459 C 217.412 48.331,231.872 48.275,236.034 51.352 M224.400 81.947 C 222.526 84.066,221.124 84.794,218.000 85.272 L 214.000 85.883 218.102 86.834 C 223.909 88.180,223.868 88.122,223.405 94.191 C 222.938 100.301,222.245 101.600,219.449 101.600 C 216.451 101.600,214.582 100.249,214.016 97.673 C 213.161 93.782,210.400 93.623,210.400 97.466 C 210.400 98.566,209.770 100.156,209.000 100.998 C 204.747 105.654,200.426 109.600,199.581 109.600 C 199.050 109.600,197.630 110.375,196.425 111.323 C 193.612 113.536,176.434 113.961,174.879 111.856 C 174.396 111.201,173.100 110.434,172.000 110.151 C 169.878 109.606,164.800 105.239,164.800 103.959 C 164.800 103.542,164.302 103.200,163.693 103.200 C 162.541 103.200,161.630 100.858,161.611 97.847 C 161.595 95.301,160.133 94.793,159.546 97.130 C 159.250 98.309,159.568 100.172,160.323 101.685 C 162.217 105.482,162.039 108.301,159.941 107.753 C 158.739 107.438,157.416 108.184,155.141 110.459 C 153.413 112.187,151.268 113.600,150.374 113.600 C 149.420 113.600,148.472 114.343,148.079 115.400 C 146.956 118.422,147.726 119.091,151.383 118.270 C 155.143 117.425,158.394 117.968,162.388 120.107 C 163.922 120.928,166.306 121.600,167.688 121.600 C 169.069 121.600,171.729 122.140,173.600 122.800 C 177.512 124.180,182.180 124.348,185.159 123.216 C 186.293 122.784,189.324 122.093,191.893 121.679 C 196.804 120.888,204.674 116.257,208.253 112.052 C 213.701 105.652,223.763 105.223,230.210 111.117 C 234.224 114.786,239.021 118.068,241.400 118.774 C 242.390 119.068,243.200 119.622,243.200 120.005 C 243.200 120.388,244.910 120.913,247.000 121.170 C 249.090 121.428,253.558 122.222,256.930 122.934 C 262.599 124.132,263.307 124.131,266.346 122.915 C 268.154 122.192,270.495 121.600,271.550 121.600 C 273.802 121.600,280.805 118.741,280.789 117.828 C 280.741 115.082,279.658 113.512,278.085 113.907 C 274.996 114.683,274.118 113.374,274.714 108.882 C 275.311 104.377,274.526 103.667,272.450 106.836 C 271.716 107.956,270.144 109.302,268.958 109.827 C 267.771 110.351,266.401 111.295,265.913 111.924 C 264.571 113.654,248.554 113.548,246.610 111.796 C 245.835 111.097,244.186 110.272,242.947 109.962 C 240.665 109.393,231.200 100.899,231.200 99.420 C 231.200 98.978,230.426 97.631,229.479 96.428 C 228.012 94.563,227.747 93.132,227.679 86.722 C 227.589 78.200,227.644 78.279,224.400 81.947 M159.989 83.000 C 159.982 83.330,158.542 85.191,156.789 87.136 C 155.035 89.080,153.600 90.970,153.600 91.336 C 153.600 91.701,153.060 92.000,152.400 92.000 C 151.740 92.000,151.200 92.529,151.200 93.175 C 151.200 94.452,151.833 94.321,157.294 91.910 C 160.578 90.461,161.600 88.559,161.600 83.900 C 161.600 82.522,160.014 81.637,159.989 83.000 M144.195 94.931 C 142.660 95.550,143.855 96.800,145.982 96.800 C 148.389 96.800,150.400 96.033,150.400 95.114 C 150.400 94.366,145.926 94.234,144.195 94.931 M120.800 106.000 C 120.800 107.185,120.342 108.000,119.675 108.000 C 118.762 108.000,118.725 107.624,119.475 106.006 C 120.633 103.511,120.800 103.510,120.800 106.000 M134.362 115.241 C 133.723 115.645,132.390 115.981,131.400 115.988 C 129.206 116.003,129.176 116.627,131.250 119.117 L 132.847 121.035 134.823 119.178 C 137.614 116.557,137.246 113.416,134.362 115.241 M120.000 125.642 C 120.000 126.894,120.559 127.200,122.847 127.200 C 126.114 127.200,125.907 126.142,122.401 124.920 C 120.268 124.177,120.000 124.257,120.000 125.642 M189.200 146.516 C 186.575 147.817,186.431 147.991,188.400 147.488 C 191.450 146.708,195.720 146.704,198.800 147.477 C 201.171 148.072,201.166 148.060,198.400 146.473 C 194.937 144.487,193.278 144.494,189.200 146.516 M248.400 146.521 L 245.200 148.071 248.000 147.470 C 251.462 146.725,254.085 146.733,257.200 147.495 L 259.600 148.083 257.600 146.952 C 254.165 145.010,251.753 144.897,248.400 146.521 M183.774 150.063 C 182.700 151.499,182.636 151.859,183.512 151.523 C 184.152 151.277,184.893 150.513,185.157 149.824 C 185.905 147.875,185.338 147.973,183.774 150.063 M201.600 148.537 C 201.600 149.003,202.320 150.300,203.200 151.418 C 205.171 153.924,205.240 155.210,203.400 155.169 C 202.630 155.152,201.280 154.008,200.400 152.625 C 199.520 151.243,198.260 149.974,197.600 149.805 C 196.840 149.610,197.017 150.042,198.083 150.982 C 199.008 151.798,200.202 153.283,200.737 154.282 C 201.380 155.483,202.296 156.013,203.446 155.849 C 205.908 155.496,205.969 153.611,203.623 150.431 C 202.510 148.923,201.600 148.071,201.600 148.537 M261.708 150.803 C 263.352 153.589,264.800 155.038,264.800 153.897 C 264.800 152.984,261.278 148.012,260.627 148.005 C 260.312 148.002,260.798 149.261,261.708 150.803 M187.994 151.205 C 186.976 152.088,186.307 152.973,186.506 153.173 C 186.706 153.372,187.899 152.650,189.159 151.568 C 190.418 150.485,191.088 149.600,190.647 149.600 C 190.206 149.600,189.012 150.322,187.994 151.205 M245.031 152.820 C 243.178 154.569,241.978 156.000,242.364 156.000 C 242.750 156.000,244.610 154.560,246.498 152.800 C 248.385 151.040,249.585 149.609,249.165 149.620 C 248.744 149.631,246.884 151.071,245.031 152.820 M257.757 151.400 C 258.860 152.390,259.984 153.830,260.256 154.600 C 260.583 155.526,261.503 155.959,262.975 155.880 L 265.200 155.760 263.000 155.427 C 261.790 155.244,260.800 154.640,260.800 154.086 C 260.800 152.982,257.501 149.600,256.424 149.600 C 256.054 149.600,256.654 150.410,257.757 151.400 M181.805 154.400 C 182.208 155.878,184.674 156.446,185.800 155.320 C 186.374 154.746,186.075 154.635,184.833 154.959 C 183.740 155.245,182.731 154.993,182.257 154.315 C 181.610 153.389,181.534 153.403,181.805 154.400 M211.420 181.323 C 207.810 182.601,200.000 189.066,200.000 190.776 C 200.000 191.342,199.477 192.238,198.837 192.769 C 195.409 195.614,194.682 205.060,197.826 205.903 C 200.309 206.568,247.957 206.365,250.400 205.678 C 257.406 203.709,247.301 183.801,237.860 180.972 C 233.218 179.582,215.681 179.814,211.420 181.323 M237.468 182.094 C 239.747 182.549,244.030 186.076,247.391 190.264 C 249.183 192.497,252.217 201.480,251.665 202.918 C 251.315 203.832,246.658 203.985,224.621 203.811 L 198.000 203.600 197.754 200.201 C 197.451 196.006,203.488 185.600,206.224 185.600 C 206.625 185.600,207.585 184.900,208.359 184.045 C 210.308 181.892,229.894 180.579,237.468 182.094 " stroke="none" fill="#6c2c10" fill-rule="evenodd"></path><path id="path6" d="M216.400 49.511 C 214.200 49.834,210.665 50.711,208.543 51.459 C 203.977 53.070,188.860 53.364,178.822 52.037 C 168.002 50.607,156.899 53.909,155.638 58.932 C 154.228 64.553,158.019 69.600,163.650 69.600 C 165.672 69.600,167.203 70.008,167.401 70.600 C 167.585 71.150,167.920 70.633,168.147 69.452 C 168.554 67.327,168.518 67.309,164.879 67.734 C 159.844 68.322,156.800 66.036,156.800 61.666 C 156.800 54.432,169.023 51.033,184.432 53.981 C 192.400 55.506,200.003 54.931,212.631 51.849 C 229.903 47.634,240.604 51.298,237.601 60.397 C 236.295 64.353,234.175 64.874,219.864 64.759 C 210.934 64.686,206.789 64.945,205.969 65.626 C 204.490 66.854,204.442 70.892,205.901 71.451 C 206.506 71.683,206.989 71.452,206.975 70.937 C 206.841 66.220,205.895 66.524,221.567 66.250 C 237.375 65.975,237.620 65.894,238.839 60.537 C 240.895 51.510,232.125 47.200,216.400 49.511 M240.800 66.529 C 239.260 67.429,238.720 67.964,239.600 67.717 C 240.480 67.471,242.723 66.821,244.585 66.274 C 247.276 65.482,248.833 65.480,252.185 66.265 C 257.164 67.431,261.138 68.158,258.800 67.475 C 257.920 67.218,256.490 66.511,255.622 65.904 C 253.137 64.165,244.198 64.542,240.800 66.529 M233.366 70.800 C 230.502 74.389,231.579 74.374,235.161 70.775 C 236.844 69.084,237.469 68.000,236.761 68.000 C 236.123 68.000,234.595 69.260,233.366 70.800 M262.618 69.600 C 263.737 70.480,264.898 71.200,265.198 71.200 C 266.103 71.200,270.362 75.377,273.268 79.115 C 274.770 81.048,276.000 82.204,276.000 81.683 C 276.000 80.697,272.794 75.781,271.875 75.358 C 271.586 75.225,270.240 74.055,268.882 72.758 C 267.525 71.461,265.910 70.400,265.293 70.400 C 264.676 70.400,263.964 69.860,263.711 69.200 C 263.457 68.540,262.650 68.000,261.917 68.000 C 260.907 68.000,261.077 68.387,262.618 69.600 M228.684 77.312 C 226.584 79.687,227.164 93.484,229.488 96.439 C 230.429 97.636,231.200 98.978,231.200 99.420 C 231.200 100.899,240.665 109.393,242.947 109.962 C 244.186 110.272,245.835 111.097,246.610 111.796 C 248.554 113.548,264.571 113.654,265.913 111.924 C 266.401 111.295,267.771 110.351,268.958 109.827 C 270.144 109.302,271.716 107.956,272.450 106.836 C 274.526 103.667,275.311 104.377,274.714 108.882 C 274.117 113.377,274.995 114.683,278.091 113.906 C 279.799 113.477,281.477 116.657,280.434 118.345 C 280.206 118.714,280.433 120.203,280.938 121.653 C 282.473 126.054,283.464 121.704,282.436 115.080 C 281.271 107.575,281.350 106.780,283.502 104.278 C 286.570 100.711,289.144 102.378,289.374 108.081 C 289.851 119.918,290.298 122.936,292.005 125.828 C 294.010 129.227,293.721 130.919,291.049 131.429 C 289.596 131.706,289.736 131.805,291.700 131.891 C 293.870 131.986,294.263 131.685,294.678 129.609 C 295.255 126.726,294.628 124.800,293.114 124.800 C 291.616 124.800,291.687 121.891,293.200 121.311 C 294.628 120.763,294.769 116.322,293.506 111.600 C 293.036 109.840,292.468 107.253,292.244 105.850 C 291.591 101.763,287.349 99.196,284.723 101.299 C 282.145 103.363,276.006 103.468,275.937 101.449 C 275.897 100.269,275.716 100.034,275.439 100.800 C 274.603 103.106,269.968 107.323,266.000 109.387 C 259.444 112.798,253.811 112.429,243.600 107.918 C 233.976 103.667,226.280 88.814,229.578 80.854 C 230.988 77.449,230.450 75.315,228.684 77.312 M213.331 86.051 C 213.739 89.027,213.516 90.121,212.115 92.015 C 210.303 94.466,210.016 95.261,211.000 95.105 C 212.788 94.823,213.525 95.437,214.001 97.607 C 214.581 100.244,216.431 101.600,219.449 101.600 C 222.246 101.600,222.938 100.301,223.405 94.180 C 223.874 88.041,223.711 87.833,217.600 86.745 C 214.124 86.126,214.083 86.086,216.400 85.578 C 218.510 85.115,218.607 84.981,217.200 84.467 C 216.320 84.146,214.977 83.551,214.216 83.145 C 212.969 82.479,212.881 82.767,213.331 86.051 M276.034 84.000 C 276.046 84.660,276.571 86.100,277.200 87.200 C 277.829 88.300,278.343 90.280,278.343 91.600 C 278.343 92.920,277.829 94.900,277.200 96.000 C 275.541 98.903,275.749 99.735,277.600 97.600 C 279.787 95.078,279.787 88.502,277.600 85.200 C 276.726 83.880,276.021 83.340,276.034 84.000 M160.892 88.580 C 160.785 90.648,151.200 95.613,151.200 93.600 C 151.200 93.188,150.630 93.069,149.933 93.336 C 148.911 93.728,148.872 93.956,149.733 94.511 C 150.606 95.075,150.582 95.343,149.600 95.988 C 147.359 97.459,144.003 96.886,141.962 94.683 C 140.883 93.519,140.000 92.745,140.000 92.964 C 140.000 93.677,141.733 98.743,142.817 101.200 C 144.595 105.229,146.110 119.799,144.946 121.664 C 144.040 123.115,144.090 123.158,145.591 122.220 C 147.262 121.176,148.381 118.885,147.746 117.807 C 146.983 116.512,148.802 113.600,150.374 113.600 C 151.268 113.600,153.413 112.187,155.141 110.459 C 157.416 108.184,158.739 107.438,159.941 107.753 C 162.039 108.301,162.217 105.482,160.323 101.685 C 159.568 100.172,159.250 98.309,159.546 97.130 C 160.133 94.793,161.595 95.301,161.611 97.847 C 161.630 100.858,162.541 103.200,163.693 103.200 C 164.302 103.200,164.800 103.542,164.800 103.959 C 164.800 105.239,169.878 109.606,172.000 110.151 C 173.100 110.434,174.396 111.201,174.879 111.856 C 176.434 113.961,193.612 113.536,196.425 111.323 C 197.630 110.375,199.050 109.600,199.581 109.600 C 200.426 109.600,204.747 105.654,209.000 100.998 C 209.770 100.156,210.400 98.795,210.400 97.975 C 210.400 96.912,209.718 97.412,208.022 99.718 C 205.268 103.463,198.720 108.798,196.869 108.805 C 196.171 108.808,194.520 109.415,193.200 110.154 C 191.589 111.056,188.959 111.498,185.200 111.498 C 181.441 111.498,178.811 111.056,177.200 110.154 C 175.880 109.415,174.421 108.808,173.958 108.805 C 172.569 108.797,166.400 103.940,166.400 102.855 C 166.400 102.301,165.725 101.238,164.901 100.491 C 164.076 99.745,163.179 97.799,162.906 96.167 C 161.946 90.423,160.984 86.798,160.892 88.580 M130.911 91.600 C 130.657 92.260,129.882 92.800,129.187 92.800 C 127.938 92.800,124.074 96.586,124.025 97.857 C 124.011 98.219,123.460 99.054,122.800 99.714 C 122.008 100.507,121.581 102.593,121.544 105.857 C 121.465 112.788,120.635 114.746,119.120 111.576 C 116.673 106.455,111.252 109.724,107.531 118.563 C 104.999 124.581,105.302 130.085,108.346 133.369 L 110.217 135.387 108.735 131.093 C 106.922 125.843,106.903 125.289,108.373 120.345 C 110.739 112.385,116.800 108.467,116.800 114.898 C 116.800 115.944,117.232 116.800,117.760 116.800 C 118.507 116.800,118.507 117.013,117.760 117.760 C 116.463 119.057,116.552 120.666,118.000 122.114 C 118.660 122.774,119.200 124.194,119.200 125.270 C 119.200 126.713,119.925 127.572,121.967 128.545 C 123.489 129.271,124.887 130.435,125.074 131.132 C 125.261 131.830,125.456 131.230,125.507 129.800 C 125.595 127.344,125.445 127.200,122.800 127.200 C 120.545 127.200,120.000 126.892,120.000 125.620 C 120.000 123.894,120.838 124.054,126.250 126.815 C 129.755 128.603,130.622 127.554,127.622 125.156 C 125.923 123.799,124.961 122.047,124.256 119.028 C 123.039 113.821,122.858 105.433,124.000 107.200 C 124.427 107.860,124.781 109.130,124.788 110.022 C 124.794 110.914,125.520 112.261,126.400 113.014 C 127.280 113.768,128.000 115.059,128.000 115.884 C 128.000 117.946,131.010 121.600,132.708 121.600 C 137.947 121.600,139.509 111.758,135.065 106.748 C 134.259 105.840,133.594 104.040,133.588 102.748 C 133.567 98.814,132.513 97.856,129.469 99.004 C 128.038 99.545,126.564 99.684,126.194 99.314 C 125.228 98.348,131.242 92.676,134.471 91.508 L 137.200 90.522 134.286 90.461 C 132.390 90.421,131.210 90.819,130.911 91.600 M136.800 116.308 C 136.800 116.865,135.911 118.157,134.823 119.178 L 132.847 121.035 131.250 119.117 C 129.176 116.627,129.206 116.003,131.400 115.988 C 132.390 115.981,133.723 115.645,134.362 115.241 C 135.714 114.385,136.800 114.861,136.800 116.308 M254.537 145.583 C 255.713 145.938,257.153 146.473,257.737 146.773 C 258.322 147.073,258.101 146.752,257.247 146.059 C 256.393 145.367,254.953 144.831,254.047 144.869 C 252.725 144.924,252.822 145.065,254.537 145.583 M57.000 280.825 C 55.454 281.446,55.219 282.089,55.334 285.374 C 55.456 288.836,55.499 288.915,55.782 286.212 C 56.274 281.516,60.930 279.062,63.014 282.400 C 64.197 284.293,67.387 284.498,69.094 282.791 C 70.173 281.713,70.627 281.802,73.301 283.617 L 76.299 285.651 78.071 283.428 L 79.844 281.205 83.522 282.992 C 87.545 284.947,87.783 285.609,86.000 289.877 C 85.340 291.456,84.800 294.014,84.800 295.560 C 84.800 297.677,84.125 299.066,82.067 301.185 C 80.563 302.733,79.721 304.000,80.195 304.000 C 82.343 304.000,85.600 298.911,85.600 295.554 C 85.600 293.545,86.082 291.796,86.800 291.200 C 87.481 290.635,88.000 288.891,88.000 287.167 C 88.000 282.135,81.181 278.885,78.000 282.400 C 76.164 284.428,75.139 284.412,72.469 282.311 C 70.486 280.751,70.214 280.721,68.898 281.911 C 66.947 283.677,64.232 283.529,63.200 281.600 C 62.293 279.906,60.000 279.619,57.000 280.825 M324.712 282.600 C 323.783 284.370,323.795 284.376,325.418 282.936 C 331.657 277.400,337.670 292.403,331.680 298.560 C 330.096 300.189,328.800 302.262,328.800 303.168 C 328.800 304.872,325.308 309.018,323.200 309.818 C 322.339 310.145,322.458 310.292,323.622 310.337 C 325.898 310.425,329.600 305.955,329.600 303.118 C 329.600 301.739,330.025 300.800,330.650 300.800 C 334.353 300.800,336.666 290.583,334.063 285.723 C 333.437 284.556,332.729 282.970,332.488 282.200 C 331.788 279.962,325.938 280.263,324.712 282.600 M315.037 284.704 C 314.457 285.532,313.267 286.390,312.392 286.612 C 310.891 286.991,310.898 287.020,312.508 287.107 C 313.517 287.162,314.752 286.381,315.526 285.200 C 317.041 282.889,316.613 282.455,315.037 284.704 M319.451 284.013 C 320.689 284.385,322.219 285.118,322.851 285.642 C 323.627 286.287,324.000 286.314,324.000 285.726 C 324.000 284.530,321.294 283.186,319.053 283.269 C 317.385 283.331,317.425 283.405,319.451 284.013 M307.154 288.600 C 305.298 292.303,305.313 292.490,307.264 290.000 C 308.298 288.680,309.517 287.336,309.972 287.012 C 310.468 286.661,310.289 286.420,309.528 286.412 C 308.829 286.406,307.761 287.390,307.154 288.600 M53.580 292.452 C 52.349 295.690,52.609 302.846,54.000 304.000 C 54.660 304.548,55.200 305.429,55.200 305.959 C 55.200 310.999,66.691 312.210,71.373 307.663 C 72.922 306.158,75.228 304.772,76.495 304.583 L 78.800 304.240 76.301 304.120 C 74.459 304.032,72.997 304.737,70.744 306.800 C 62.560 314.296,53.786 308.021,54.954 295.507 C 55.453 290.172,54.908 288.961,53.580 292.452 M304.944 301.956 C 304.783 306.375,307.546 310.395,310.750 310.405 C 311.657 310.408,313.431 310.948,314.691 311.605 C 317.545 313.093,318.389 313.075,320.400 311.482 C 321.939 310.263,321.909 310.232,319.600 310.652 C 312.613 311.922,305.862 307.666,305.383 301.688 L 305.088 298.000 304.944 301.956 " stroke="none" fill="#8f4316" fill-rule="evenodd"></path><path id="path7" d="M212.400 51.870 C 200.968 54.843,192.325 55.491,184.380 53.971 C 169.024 51.033,156.800 54.443,156.800 61.666 C 156.800 66.036,159.844 68.322,164.879 67.734 C 168.433 67.319,168.546 67.370,168.186 69.252 C 167.981 70.323,167.559 71.200,167.249 71.200 C 161.855 71.200,159.872 95.940,164.901 100.491 C 165.725 101.238,166.400 102.301,166.400 102.855 C 166.400 103.940,172.569 108.797,173.958 108.805 C 174.421 108.808,175.880 109.415,177.200 110.154 C 180.038 111.744,190.337 112.107,192.077 110.678 C 192.695 110.171,194.706 109.354,196.547 108.862 C 200.541 107.794,209.251 99.680,210.110 96.227 C 210.414 95.002,211.376 93.031,212.247 91.848 C 214.033 89.420,213.725 83.196,211.703 80.858 C 211.105 80.166,210.400 78.700,210.137 77.600 C 209.874 76.500,208.566 74.408,207.229 72.951 C 201.216 66.392,203.934 64.630,219.864 64.759 C 234.256 64.875,236.292 64.364,237.631 60.305 C 240.576 51.382,229.068 47.534,212.400 51.870 M231.558 53.584 C 234.376 54.656,235.540 57.402,234.421 60.345 L 233.547 62.645 218.873 62.182 C 202.489 61.666,202.400 61.691,202.400 66.792 C 202.400 69.474,202.964 70.687,205.527 73.519 C 217.502 86.752,207.268 106.400,188.400 106.400 C 165.124 106.400,154.271 78.801,173.349 68.125 C 176.007 66.637,173.456 65.600,167.136 65.600 C 161.162 65.600,160.710 65.479,159.878 63.651 C 156.942 57.207,168.262 54.226,185.600 56.878 C 189.340 57.450,192.760 57.806,193.200 57.668 C 193.640 57.531,196.520 57.294,199.600 57.141 C 202.680 56.988,208.080 55.972,211.600 54.884 C 218.415 52.777,227.824 52.164,231.558 53.584 M187.600 64.000 C 186.365 64.531,186.787 64.700,189.447 64.744 C 191.554 64.778,192.702 64.489,192.400 64.000 C 191.812 63.049,189.814 63.049,187.600 64.000 M241.415 67.125 C 224.152 73.444,225.572 99.955,243.600 107.918 C 253.811 112.429,259.444 112.798,266.000 109.387 C 273.068 105.710,279.235 96.164,278.153 90.574 C 276.386 81.437,269.717 72.915,261.200 68.911 C 254.126 65.585,247.303 64.969,241.415 67.125 M260.768 70.938 C 283.707 81.785,278.879 110.251,254.691 106.764 C 250.422 106.149,243.129 103.042,241.584 101.181 C 241.045 100.531,240.265 100.000,239.850 100.000 C 238.993 100.000,235.572 96.117,233.209 92.461 C 231.950 90.512,231.619 88.632,231.621 83.422 L 231.623 76.844 235.161 73.240 C 240.840 67.453,251.392 66.505,260.768 70.938 M179.894 71.233 C 175.980 72.784,171.391 76.458,172.270 77.336 C 172.556 77.623,173.422 77.319,174.195 76.661 C 176.478 74.717,182.310 72.001,184.225 71.989 C 186.852 71.973,189.600 71.113,189.600 70.307 C 189.600 69.123,183.825 69.674,179.894 71.233 M244.167 73.800 C 243.342 74.796,243.732 74.824,253.800 74.476 C 255.010 74.434,256.000 74.040,256.000 73.600 C 256.000 72.404,245.172 72.587,244.167 73.800 M263.200 78.862 C 263.200 79.791,268.088 84.179,268.578 83.689 C 268.856 83.411,268.052 82.107,266.792 80.792 C 264.656 78.562,263.200 77.780,263.200 78.862 M269.207 86.400 C 270.160 89.650,271.384 91.192,270.794 88.400 C 270.515 87.080,269.912 85.640,269.453 85.200 C 268.879 84.649,268.803 85.022,269.207 86.400 M133.099 91.988 C 127.743 94.151,124.204 100.992,129.469 99.004 C 132.513 97.856,133.567 98.814,133.588 102.748 C 133.594 104.040,134.259 105.840,135.065 106.748 C 139.509 111.758,137.947 121.600,132.708 121.600 C 131.010 121.600,128.000 117.946,128.000 115.884 C 128.000 115.059,127.280 113.768,126.400 113.014 C 125.520 112.261,124.794 110.914,124.788 110.022 C 124.781 109.130,124.427 107.860,124.000 107.200 C 122.867 105.447,123.034 113.811,124.234 118.895 C 125.391 123.800,129.336 128.000,132.785 128.000 C 136.323 128.000,143.491 124.446,144.769 122.057 C 146.084 119.600,144.767 105.599,142.807 101.200 C 142.219 99.880,141.318 97.447,140.805 95.794 C 139.517 91.645,137.012 90.408,133.099 91.988 M137.919 96.200 C 139.367 98.455,141.163 107.501,140.503 109.219 C 139.784 111.095,138.656 110.015,138.070 106.889 C 137.788 105.389,137.037 103.728,136.400 103.200 C 135.763 102.672,135.007 100.987,134.720 99.456 C 134.433 97.925,133.673 96.471,133.032 96.225 C 132.078 95.859,132.060 95.654,132.933 95.101 C 134.798 93.919,136.727 94.344,137.919 96.200 M283.186 104.599 C 281.634 106.573,281.521 107.333,282.090 111.999 C 282.439 114.860,282.742 119.180,282.762 121.600 C 282.817 128.022,286.338 132.249,290.905 131.376 C 293.743 130.833,294.049 129.293,292.005 125.828 C 290.302 122.943,289.860 119.971,289.374 108.171 C 289.127 102.168,286.356 100.569,283.186 104.599 M286.292 114.600 L 286.184 124.400 285.444 117.200 C 284.780 110.735,285.063 104.800,286.036 104.800 C 286.236 104.800,286.352 109.210,286.292 114.600 M111.249 114.459 C 102.123 127.057,112.224 144.134,123.397 134.997 C 126.212 132.695,125.674 130.313,121.938 128.531 C 119.923 127.571,119.200 126.709,119.200 125.270 C 119.200 124.194,118.660 122.774,118.000 122.114 C 117.262 121.376,116.800 119.415,116.800 117.017 C 116.800 110.556,114.758 109.615,111.249 114.459 M115.516 119.884 C 115.807 121.800,116.620 124.479,117.323 125.837 C 119.986 130.987,120.105 132.743,117.831 133.314 C 110.675 135.110,107.208 125.031,112.190 116.913 C 114.075 113.839,114.678 114.378,115.516 119.884 M187.163 131.108 C 172.337 135.958,167.430 155.046,178.298 165.593 C 198.606 185.302,226.221 157.700,207.690 136.216 C 203.920 131.845,193.123 129.159,187.163 131.108 M247.200 130.865 C 240.569 133.277,233.632 139.049,233.575 142.202 C 233.561 142.971,233.021 144.299,232.375 145.153 C 230.815 147.214,230.815 155.186,232.375 157.247 C 233.021 158.101,233.561 159.466,233.575 160.280 C 233.652 164.783,244.983 172.186,251.999 172.318 C 258.158 172.433,269.600 166.383,269.600 163.011 C 269.600 162.639,270.357 161.311,271.283 160.059 C 275.170 154.801,272.867 142.757,266.710 136.148 C 262.918 132.078,251.996 129.121,247.200 130.865 M201.427 133.921 C 217.574 142.141,215.731 164.261,198.450 169.638 L 193.300 171.240 188.010 169.603 C 178.031 166.515,174.793 161.972,174.818 151.095 L 174.835 143.322 178.091 139.461 C 184.306 132.092,193.531 129.902,201.427 133.921 M260.450 133.916 C 273.591 140.293,275.546 157.395,264.145 166.237 C 249.352 177.709,229.106 164.354,233.835 146.244 C 236.850 134.701,249.751 128.725,260.450 133.916 M186.958 145.553 C 181.676 148.936,179.228 153.742,181.289 156.684 C 182.443 158.332,187.200 157.745,187.200 155.954 C 187.200 151.148,195.006 150.174,199.166 154.460 C 203.349 158.771,205.883 158.628,206.257 154.060 C 206.868 146.580,194.125 140.963,186.958 145.553 M245.467 146.016 C 240.486 149.280,238.435 154.115,240.960 156.640 C 242.518 158.198,243.681 157.781,247.200 154.400 C 249.742 151.958,251.169 151.200,253.228 151.200 C 255.412 151.200,256.413 151.808,258.496 154.400 C 261.339 157.938,264.204 158.609,265.569 156.058 C 266.822 153.716,262.909 146.400,260.403 146.400 C 259.849 146.400,258.948 145.860,258.400 145.200 C 256.745 143.206,249.010 143.695,245.467 146.016 M199.222 146.123 C 205.872 150.570,208.089 156.000,203.254 156.000 C 201.630 156.000,200.755 155.519,200.413 154.440 C 198.842 149.492,192.675 148.630,188.704 152.805 C 184.952 156.749,182.111 157.358,181.756 154.296 C 181.046 148.170,193.540 142.323,199.222 146.123 M258.032 146.315 C 261.458 148.151,264.642 151.457,264.839 153.384 C 265.309 157.970,263.575 157.916,258.925 153.200 C 256.695 150.937,254.670 149.600,253.474 149.600 C 251.529 149.600,245.600 153.140,245.600 154.300 C 245.600 156.341,241.606 156.704,241.106 154.709 C 239.539 148.466,251.229 142.669,258.032 146.315 M57.734 282.200 C 55.639 283.985,53.944 298.682,55.277 303.508 C 57.046 309.915,65.401 311.694,70.744 306.800 C 73.005 304.729,74.522 304.000,76.567 304.000 C 80.446 304.000,84.800 299.536,84.800 295.560 C 84.800 294.014,85.340 291.456,86.000 289.877 C 87.783 285.609,87.545 284.947,83.522 282.992 L 79.844 281.205 78.071 283.428 L 76.299 285.651 73.301 283.617 C 70.627 281.802,70.173 281.713,69.094 282.791 C 67.387 284.498,64.197 284.293,63.014 282.400 C 61.783 280.428,59.897 280.357,57.734 282.200 M325.358 283.025 C 324.611 283.851,324.000 284.992,324.000 285.561 C 324.000 286.358,323.742 286.382,322.878 285.664 C 320.086 283.348,316.839 283.197,315.449 285.319 C 314.511 286.750,313.603 287.234,312.316 286.988 C 306.077 285.795,302.407 302.338,307.800 307.342 C 314.143 313.227,328.800 310.314,328.800 303.168 C 328.800 302.262,330.096 300.189,331.680 298.560 C 334.300 295.867,334.528 295.275,334.200 292.000 C 333.385 283.845,328.815 279.206,325.358 283.025 M62.758 284.587 L 64.639 286.773 67.575 285.373 C 70.421 284.016,70.576 284.022,72.564 285.586 C 75.169 287.635,77.311 287.640,78.586 285.600 C 79.735 283.760,82.581 283.490,83.913 285.095 C 87.528 289.452,79.754 304.012,74.823 302.120 C 74.127 301.852,72.404 302.837,70.622 304.522 C 67.388 307.577,60.969 308.064,57.865 305.488 C 55.921 303.874,56.621 286.407,58.724 284.084 C 60.628 281.981,60.503 281.965,62.758 284.587 M330.715 285.268 C 332.586 290.143,332.196 294.921,329.694 297.770 C 328.322 299.333,327.200 301.306,327.200 302.156 C 327.200 308.100,313.922 311.019,309.345 306.081 C 304.755 301.128,307.423 287.162,312.696 288.541 C 313.635 288.787,314.916 288.284,315.926 287.274 C 317.725 285.475,319.602 285.109,320.400 286.400 C 321.269 287.806,324.702 287.278,325.600 285.600 C 326.625 283.685,330.023 283.464,330.715 285.268 " stroke="none" fill="#a26011" fill-rule="evenodd"></path><path id="path8" d="M211.600 54.884 C 208.080 55.972,202.680 56.988,199.600 57.141 C 196.520 57.294,193.640 57.531,193.200 57.668 C 192.760 57.806,189.340 57.450,185.600 56.878 C 168.262 54.226,156.942 57.207,159.878 63.651 C 160.710 65.479,161.162 65.600,167.136 65.600 C 173.456 65.600,176.007 66.637,173.349 68.125 C 154.271 78.801,165.124 106.400,188.400 106.400 C 207.268 106.400,217.502 86.752,205.527 73.519 C 202.964 70.687,202.400 69.474,202.400 66.792 C 202.400 61.691,202.489 61.666,218.873 62.182 L 233.547 62.645 234.421 60.345 C 237.188 53.066,226.079 50.408,211.600 54.884 M192.400 64.000 C 192.702 64.489,191.554 64.778,189.447 64.744 C 186.787 64.700,186.365 64.531,187.600 64.000 C 189.814 63.049,191.812 63.049,192.400 64.000 M241.949 68.855 C 239.778 69.376,237.524 70.832,235.161 73.240 L 231.623 76.844 231.621 83.422 C 231.619 88.632,231.950 90.512,233.209 92.461 C 235.572 96.117,238.993 100.000,239.850 100.000 C 240.265 100.000,241.045 100.531,241.584 101.181 C 246.727 107.378,263.089 108.826,269.844 103.682 C 286.914 90.684,264.998 63.322,241.949 68.855 M189.600 70.341 C 189.600 70.749,188.970 71.247,188.200 71.449 C 187.169 71.718,187.284 71.839,188.640 71.907 C 189.652 71.958,191.513 72.535,192.777 73.188 C 194.547 74.103,195.166 74.149,195.474 73.388 C 195.722 72.775,195.898 72.896,195.937 73.707 C 195.972 74.425,196.630 75.251,197.400 75.542 C 209.558 80.128,206.477 98.038,193.048 100.834 C 174.318 104.735,161.668 87.088,174.222 74.572 C 177.594 71.210,189.600 67.907,189.600 70.341 M256.000 73.547 C 256.000 73.958,255.010 74.444,253.800 74.627 C 251.724 74.941,251.745 74.967,254.164 75.080 C 255.575 75.146,258.048 76.095,259.659 77.189 C 261.271 78.282,262.934 78.965,263.354 78.705 C 265.396 77.443,271.200 86.347,271.200 90.740 C 271.200 105.241,249.344 107.032,239.648 93.325 C 232.752 83.576,238.442 72.934,250.600 72.841 C 253.570 72.819,256.000 73.136,256.000 73.547 " stroke="none" fill="#ffe100" fill-rule="evenodd"></path><path id="path9" d="M178.248 74.077 C 167.216 79.811,165.892 86.820,174.259 95.187 C 185.236 106.162,205.070 100.800,204.739 86.948 C 204.577 80.150,201.251 76.434,199.296 80.866 C 196.190 87.905,184.800 85.895,184.800 78.308 C 184.800 76.650,185.160 75.072,185.600 74.800 C 190.154 71.985,183.526 71.334,178.248 74.077 M242.800 75.212 C 231.923 80.043,236.551 95.463,250.465 100.752 C 266.128 106.705,277.433 93.185,266.076 82.083 L 263.629 79.691 263.032 83.188 C 261.354 93.015,248.732 88.673,249.978 78.698 L 250.515 74.400 247.458 74.451 C 245.776 74.479,243.680 74.821,242.800 75.212 M138.097 98.000 C 138.382 99.320,138.932 100.940,139.319 101.600 C 139.769 102.368,139.835 101.936,139.503 100.400 C 139.218 99.080,138.668 97.460,138.281 96.800 C 137.831 96.032,137.765 96.464,138.097 98.000 M285.840 120.000 C 285.840 122.420,285.990 123.410,286.173 122.200 C 286.356 120.990,286.356 119.010,286.173 117.800 C 285.990 116.590,285.840 117.580,285.840 120.000 M116.400 132.800 L 114.800 133.488 116.400 133.532 C 117.280 133.556,118.540 133.227,119.200 132.800 C 120.790 131.772,118.792 131.772,116.400 132.800 " stroke="none" fill="#40d6f4" fill-rule="evenodd"></path></g></svg>